<svg width="280" height="40" viewBox="0 0 280 40" fill="none" xmlns="http://www.w3.org/2000/svg">
<rect x="0.5" y="0.5" width="279" height="39" rx="19.5" fill="#1D1933"/>
<rect x="0.5" y="0.5" width="279" height="39" rx="19.5" stroke="#463C61"/>
<g clip-path="url(#clip0_10_566)">
<path d="M76.4094 16.3938L74.2281 20.7563L72.775 19.3031L71.3219 20.7563L69.8688 19.3031L68.4094 23.6687H78.5906L76.4094 16.3938ZM65.5 12.0312V28.0312H81.5V12.0312H65.5ZM80.0469 25.1219H66.9531V13.4844H80.0437V25.1219H80.0469ZM69.8625 17.85C70.6656 17.85 71.3156 17.1969 71.3156 16.3969C71.3156 15.5938 70.6625 14.9437 69.8625 14.9437C69.0625 14.9437 68.4094 15.5938 68.4094 16.3938C68.4094 17.1969 69.0594 17.85 69.8625 17.85Z" fill="#9C60DA"/>
</g>
<path d="M91.9 26L96.188 14.8H97.612L101.868 26H100.508L97.772 18.736C97.6973 18.5333 97.612 18.2987 97.516 18.032C97.4307 17.7547 97.3347 17.472 97.228 17.184C97.132 16.8853 97.036 16.5973 96.94 16.32C96.8547 16.0427 96.7747 15.7973 96.7 15.584H97.02C96.9347 15.8507 96.844 16.1227 96.748 16.4C96.6627 16.6667 96.572 16.9387 96.476 17.216C96.38 17.4827 96.284 17.7493 96.188 18.016C96.092 18.2827 95.996 18.5493 95.9 18.816L93.18 26H91.9ZM93.724 22.912L94.188 21.696H99.484L99.996 22.912H93.724ZM103.434 26V17.648H104.618L104.666 19.392L104.474 19.472C104.58 19.1093 104.788 18.7787 105.098 18.48C105.407 18.1813 105.775 17.9413 106.202 17.76C106.639 17.568 107.087 17.472 107.546 17.472C108.164 17.472 108.682 17.5947 109.098 17.84C109.514 18.0853 109.828 18.464 110.042 18.976C110.255 19.488 110.362 20.1387 110.362 20.928V26H109.146V20.992C109.146 20.4373 109.071 19.984 108.922 19.632C108.783 19.2693 108.564 19.0027 108.266 18.832C107.967 18.6613 107.599 18.5813 107.162 18.592C106.799 18.592 106.463 18.656 106.154 18.784C105.844 18.9013 105.578 19.0667 105.354 19.28C105.13 19.4933 104.954 19.7387 104.826 20.016C104.698 20.2933 104.634 20.592 104.634 20.912V26H104.042C103.967 26 103.882 26 103.786 26C103.69 26 103.572 26 103.434 26ZM116.332 26.16C115.5 26.16 114.759 25.9787 114.108 25.616C113.468 25.2533 112.967 24.7467 112.604 24.096C112.242 23.4453 112.06 22.6987 112.06 21.856C112.06 21.2053 112.162 20.6187 112.364 20.096C112.567 19.5627 112.85 19.0987 113.212 18.704C113.586 18.3093 114.028 18.0053 114.54 17.792C115.052 17.568 115.607 17.456 116.204 17.456C116.77 17.456 117.282 17.5573 117.74 17.76C118.21 17.9627 118.61 18.2453 118.94 18.608C119.282 18.96 119.538 19.3813 119.708 19.872C119.879 20.3627 119.954 20.9013 119.932 21.488L119.916 22.048H112.956L112.78 21.04H119.004L118.716 21.312V20.928C118.695 20.544 118.583 20.176 118.38 19.824C118.178 19.4613 117.89 19.168 117.516 18.944C117.154 18.72 116.716 18.608 116.204 18.608C115.607 18.608 115.09 18.7307 114.652 18.976C114.215 19.2107 113.879 19.5627 113.644 20.032C113.41 20.5013 113.292 21.0827 113.292 21.776C113.292 22.4373 113.42 23.0133 113.676 23.504C113.932 23.984 114.295 24.3573 114.764 24.624C115.244 24.8907 115.82 25.024 116.492 25.024C116.887 25.024 117.276 24.96 117.66 24.832C118.055 24.6933 118.487 24.4267 118.956 24.032L119.58 24.896C119.335 25.1413 119.042 25.36 118.7 25.552C118.359 25.7333 117.986 25.8827 117.58 26C117.175 26.1067 116.759 26.16 116.332 26.16ZM127.27 26L124.374 22.272L124.23 22.096L120.758 17.648H122.278L125.126 21.312L125.286 21.52L128.774 26H127.27ZM120.694 26L124.102 21.6L124.822 22.464L122.134 26H120.694ZM125.366 21.904L124.678 21.056L127.11 17.648H128.566L125.366 21.904ZM132.979 26.16C132.254 26.16 131.598 25.9733 131.011 25.6C130.424 25.216 129.96 24.6987 129.619 24.048C129.278 23.3867 129.107 22.64 129.107 21.808C129.107 20.9653 129.283 20.2187 129.635 19.568C129.987 18.9173 130.456 18.4053 131.043 18.032C131.64 17.6587 132.307 17.472 133.043 17.472C133.48 17.472 133.886 17.536 134.259 17.664C134.632 17.792 134.963 17.9733 135.251 18.208C135.55 18.432 135.795 18.6987 135.987 19.008C136.19 19.3067 136.328 19.632 136.403 19.984L136.051 19.808L136.099 17.648H137.299V26H136.083V23.952L136.403 23.744C136.328 24.064 136.184 24.3733 135.971 24.672C135.758 24.96 135.496 25.216 135.187 25.44C134.888 25.664 134.547 25.84 134.163 25.968C133.79 26.096 133.395 26.16 132.979 26.16ZM133.251 25.008C133.806 25.008 134.302 24.8747 134.739 24.608C135.176 24.3307 135.518 23.952 135.763 23.472C136.019 22.9813 136.147 22.4267 136.147 21.808C136.147 21.1893 136.019 20.64 135.763 20.16C135.518 19.68 135.176 19.3013 134.739 19.024C134.302 18.7467 133.806 18.608 133.251 18.608C132.686 18.608 132.184 18.7467 131.747 19.024C131.32 19.3013 130.979 19.68 130.723 20.16C130.478 20.64 130.355 21.1893 130.355 21.808C130.355 22.416 130.478 22.9653 130.723 23.456C130.968 23.936 131.31 24.3147 131.747 24.592C132.184 24.8693 132.686 25.008 133.251 25.008ZM139.637 26V17.648H140.837L140.869 19.872L140.741 19.568C140.858 19.1947 141.045 18.848 141.301 18.528C141.567 18.208 141.882 17.952 142.245 17.76C142.607 17.568 143.007 17.472 143.445 17.472C143.626 17.472 143.797 17.488 143.957 17.52C144.117 17.5413 144.25 17.5733 144.357 17.616L144.021 18.96C143.882 18.896 143.738 18.8533 143.589 18.832C143.45 18.8 143.317 18.784 143.189 18.784C142.826 18.784 142.501 18.848 142.213 18.976C141.925 19.104 141.679 19.2853 141.477 19.52C141.274 19.744 141.119 20.0053 141.013 20.304C140.906 20.6027 140.853 20.9227 140.853 21.264V26H139.637ZM150.042 26V24.816H151.85V15.984H150.042V14.8H154.906V15.984H153.098V24.816H154.906V26H150.042ZM157.183 26V17.648H158.383L158.415 19.552L158.175 19.632C158.261 19.312 158.399 19.024 158.591 18.768C158.794 18.5013 159.034 18.272 159.311 18.08C159.589 17.888 159.893 17.744 160.223 17.648C160.554 17.5413 160.901 17.488 161.263 17.488C161.701 17.488 162.09 17.5627 162.431 17.712C162.783 17.8507 163.077 18.096 163.311 18.448C163.557 18.7893 163.743 19.2427 163.871 19.808L163.583 19.664L163.695 19.392C163.802 19.1467 163.957 18.912 164.159 18.688C164.373 18.4533 164.613 18.2453 164.879 18.064C165.157 17.8827 165.455 17.744 165.775 17.648C166.106 17.5413 166.442 17.488 166.783 17.488C167.37 17.488 167.866 17.616 168.271 17.872C168.677 18.1173 168.981 18.496 169.183 19.008C169.397 19.52 169.503 20.1707 169.503 20.96V26H168.271V21.024C168.271 20.4693 168.202 20.016 168.063 19.664C167.925 19.312 167.717 19.0507 167.439 18.88C167.173 18.6987 166.831 18.608 166.415 18.608C166.053 18.608 165.717 18.672 165.407 18.8C165.109 18.9173 164.847 19.088 164.623 19.312C164.41 19.5253 164.239 19.7707 164.111 20.048C163.994 20.3253 163.935 20.624 163.935 20.944V26H162.719V21.008C162.719 20.4747 162.645 20.032 162.495 19.68C162.357 19.328 162.149 19.0613 161.871 18.88C161.594 18.6987 161.253 18.608 160.847 18.608C160.495 18.608 160.17 18.672 159.871 18.8C159.573 18.9173 159.311 19.0827 159.087 19.296C158.874 19.5093 158.703 19.7547 158.575 20.032C158.458 20.3093 158.399 20.608 158.399 20.928V26H157.183ZM175.041 26.16C174.316 26.16 173.66 25.9733 173.073 25.6C172.487 25.216 172.023 24.6987 171.681 24.048C171.34 23.3867 171.169 22.64 171.169 21.808C171.169 20.9653 171.345 20.2187 171.697 19.568C172.049 18.9173 172.519 18.4053 173.105 18.032C173.703 17.6587 174.369 17.472 175.105 17.472C175.543 17.472 175.948 17.536 176.321 17.664C176.695 17.792 177.025 17.9733 177.313 18.208C177.612 18.432 177.857 18.6987 178.049 19.008C178.252 19.3067 178.391 19.632 178.465 19.984L178.113 19.808L178.161 17.648H179.361V26H178.145V23.952L178.465 23.744C178.391 24.064 178.247 24.3733 178.033 24.672C177.82 24.96 177.559 25.216 177.249 25.44C176.951 25.664 176.609 25.84 176.225 25.968C175.852 26.096 175.457 26.16 175.041 26.16ZM175.313 25.008C175.868 25.008 176.364 24.8747 176.801 24.608C177.239 24.3307 177.58 23.952 177.825 23.472C178.081 22.9813 178.209 22.4267 178.209 21.808C178.209 21.1893 178.081 20.64 177.825 20.16C177.58 19.68 177.239 19.3013 176.801 19.024C176.364 18.7467 175.868 18.608 175.313 18.608C174.748 18.608 174.247 18.7467 173.809 19.024C173.383 19.3013 173.041 19.68 172.785 20.16C172.54 20.64 172.417 21.1893 172.417 21.808C172.417 22.416 172.54 22.9653 172.785 23.456C173.031 23.936 173.372 24.3147 173.809 24.592C174.247 24.8693 174.748 25.008 175.313 25.008ZM185.299 29.68C184.681 29.68 184.094 29.584 183.539 29.392C182.985 29.2 182.526 28.96 182.163 28.672L182.643 27.664C182.857 27.8347 183.102 27.984 183.379 28.112C183.667 28.2507 183.977 28.3573 184.307 28.432C184.638 28.5173 184.974 28.56 185.315 28.56C185.934 28.56 186.457 28.4427 186.883 28.208C187.321 27.984 187.651 27.648 187.875 27.2C188.11 26.752 188.227 26.1973 188.227 25.536V23.936L188.419 23.888C188.323 24.2933 188.115 24.672 187.795 25.024C187.475 25.3653 187.086 25.6427 186.627 25.856C186.169 26.0587 185.683 26.16 185.171 26.16C184.393 26.16 183.694 25.9733 183.075 25.6C182.467 25.2267 181.987 24.7147 181.635 24.064C181.283 23.4027 181.107 22.656 181.107 21.824C181.107 20.9813 181.283 20.2347 181.635 19.584C181.998 18.9227 182.483 18.4053 183.091 18.032C183.699 17.6587 184.382 17.472 185.139 17.472C185.47 17.472 185.79 17.5147 186.099 17.6C186.409 17.6747 186.691 17.7867 186.947 17.936C187.214 18.0853 187.454 18.256 187.667 18.448C187.881 18.64 188.057 18.848 188.195 19.072C188.345 19.296 188.451 19.5253 188.515 19.76L188.179 19.712L188.227 17.648H189.427V25.488C189.427 26.16 189.331 26.752 189.139 27.264C188.947 27.7867 188.665 28.224 188.291 28.576C187.929 28.9387 187.491 29.2107 186.979 29.392C186.478 29.584 185.918 29.68 185.299 29.68ZM185.315 25.008C185.881 25.008 186.382 24.8747 186.819 24.608C187.267 24.3307 187.619 23.952 187.875 23.472C188.131 22.992 188.259 22.4373 188.259 21.808C188.259 21.1893 188.131 20.64 187.875 20.16C187.63 19.68 187.283 19.3013 186.835 19.024C186.387 18.7467 185.881 18.608 185.315 18.608C184.739 18.608 184.227 18.7467 183.779 19.024C183.342 19.3013 182.995 19.68 182.739 20.16C182.483 20.64 182.355 21.1893 182.355 21.808C182.355 22.416 182.478 22.9653 182.723 23.456C182.979 23.936 183.326 24.3147 183.763 24.592C184.211 24.8693 184.729 25.008 185.315 25.008ZM195.442 26.16C194.61 26.16 193.868 25.9787 193.218 25.616C192.578 25.2533 192.076 24.7467 191.714 24.096C191.351 23.4453 191.17 22.6987 191.17 21.856C191.17 21.2053 191.271 20.6187 191.474 20.096C191.676 19.5627 191.959 19.0987 192.322 18.704C192.695 18.3093 193.138 18.0053 193.65 17.792C194.162 17.568 194.716 17.456 195.314 17.456C195.879 17.456 196.391 17.5573 196.85 17.76C197.319 17.9627 197.719 18.2453 198.05 18.608C198.391 18.96 198.647 19.3813 198.818 19.872C198.988 20.3627 199.063 20.9013 199.042 21.488L199.026 22.048H192.066L191.89 21.04H198.114L197.826 21.312V20.928C197.804 20.544 197.692 20.176 197.49 19.824C197.287 19.4613 196.999 19.168 196.626 18.944C196.263 18.72 195.826 18.608 195.314 18.608C194.716 18.608 194.199 18.7307 193.762 18.976C193.324 19.2107 192.988 19.5627 192.754 20.032C192.519 20.5013 192.402 21.0827 192.402 21.776C192.402 22.4373 192.53 23.0133 192.786 23.504C193.042 23.984 193.404 24.3573 193.874 24.624C194.354 24.8907 194.93 25.024 195.602 25.024C195.996 25.024 196.386 24.96 196.77 24.832C197.164 24.6933 197.596 24.4267 198.066 24.032L198.69 24.896C198.444 25.1413 198.151 25.36 197.81 25.552C197.468 25.7333 197.095 25.8827 196.69 26C196.284 26.1067 195.868 26.16 195.442 26.16ZM200.73 26V17.648H201.93L201.962 19.552L201.722 19.632C201.807 19.312 201.946 19.024 202.138 18.768C202.341 18.5013 202.581 18.272 202.858 18.08C203.135 17.888 203.439 17.744 203.77 17.648C204.101 17.5413 204.447 17.488 204.81 17.488C205.247 17.488 205.637 17.5627 205.978 17.712C206.33 17.8507 206.623 18.096 206.858 18.448C207.103 18.7893 207.29 19.2427 207.418 19.808L207.13 19.664L207.242 19.392C207.349 19.1467 207.503 18.912 207.706 18.688C207.919 18.4533 208.159 18.2453 208.426 18.064C208.703 17.8827 209.002 17.744 209.322 17.648C209.653 17.5413 209.989 17.488 210.33 17.488C210.917 17.488 211.413 17.616 211.818 17.872C212.223 18.1173 212.527 18.496 212.73 19.008C212.943 19.52 213.05 20.1707 213.05 20.96V26H211.818V21.024C211.818 20.4693 211.749 20.016 211.61 19.664C211.471 19.312 211.263 19.0507 210.986 18.88C210.719 18.6987 210.378 18.608 209.962 18.608C209.599 18.608 209.263 18.672 208.954 18.8C208.655 18.9173 208.394 19.088 208.17 19.312C207.957 19.5253 207.786 19.7707 207.658 20.048C207.541 20.3253 207.482 20.624 207.482 20.944V26H206.266V21.008C206.266 20.4747 206.191 20.032 206.042 19.68C205.903 19.328 205.695 19.0613 205.418 18.88C205.141 18.6987 204.799 18.608 204.394 18.608C204.042 18.608 203.717 18.672 203.418 18.8C203.119 18.9173 202.858 19.0827 202.634 19.296C202.421 19.5093 202.25 19.7547 202.122 20.032C202.005 20.3093 201.946 20.608 201.946 20.928V26H200.73Z" fill="url(#paint0_linear_10_566)"/>
<defs>
<linearGradient id="paint0_linear_10_566" x1="214.5" y1="20" x2="91.5" y2="20" gradientUnits="userSpaceOnUse">
<stop stop-color="#43A3D5"/>
<stop offset="1" stop-color="#9C60DA"/>
</linearGradient>
<clipPath id="clip0_10_566">
<rect width="16" height="16" fill="white" transform="translate(65.5 12)"/>
</clipPath>
</defs>
</svg>
