<svg width="197" height="40" viewBox="0 0 197 40" fill="none" xmlns="http://www.w3.org/2000/svg">
<rect x="0.5" y="0.5" width="196" height="39" rx="19.5" stroke="url(#paint0_linear_650_19935)"/>
<g clip-path="url(#clip0_650_19935)">
<path d="M40.3033 18.09C41.7741 19.5608 42.5095 21.3285 42.5095 23.3933C42.5095 25.458 41.7741 27.2258 40.3033 28.6966C38.8325 30.1674 37.0648 30.9028 35 30.9028C32.9352 30.9028 31.1675 30.1674 29.6967 28.6966L21.8478 20.8477C20.7872 19.787 20.2568 18.514 20.2568 17.0285C20.2568 15.543 20.7872 14.2705 21.8478 13.2109C22.9085 12.1514 24.1813 11.6208 25.6662 11.6191C27.1511 11.6174 28.4239 12.148 29.4846 13.2109L36.9092 20.6356C37.5597 21.2861 37.885 22.0639 37.885 22.969C37.885 23.8741 37.5597 24.6519 36.9092 25.3025C36.2587 25.953 35.4808 26.2783 34.5757 26.2783C33.6706 26.2783 32.8928 25.953 32.2423 25.3025L25.2419 18.3021C25.0015 18.0617 24.8813 17.7786 24.8813 17.4527C24.8813 17.1269 25.0015 16.8443 25.2419 16.6051C25.4823 16.3658 25.7655 16.2456 26.0913 16.2444C26.4171 16.2433 26.6997 16.3635 26.939 16.6051L33.9393 23.6054C34.1232 23.7893 34.3353 23.8809 34.5757 23.8803C34.8162 23.8798 35.0283 23.7881 35.2121 23.6054C35.396 23.4227 35.4879 23.2103 35.4879 22.9682C35.4879 22.726 35.396 22.5142 35.2121 22.3326L27.7875 14.908C27.1794 14.3282 26.4689 14.0346 25.656 14.0272C24.8431 14.0199 24.1394 14.3135 23.5449 14.908C22.9503 15.5025 22.6534 16.2096 22.6539 17.0293C22.6545 17.849 22.9515 18.5561 23.5449 19.1506L31.3938 26.9995C32.3837 28.0178 33.5821 28.5232 34.989 28.5158C36.3958 28.5085 37.6016 28.003 38.6062 26.9995C39.5962 26.0096 40.0875 24.818 40.0801 23.4247C40.0728 22.0314 39.5815 20.8188 38.6062 19.787L31.1816 12.3624C30.9412 12.122 30.821 11.8389 30.821 11.513C30.821 11.1872 30.9412 10.9046 31.1816 10.6654C31.422 10.4261 31.7052 10.3059 32.031 10.3047C32.3568 10.3036 32.6394 10.4238 32.8787 10.6654L40.3033 18.09Z" fill="#9C60DA"/>
</g>
<path d="M54.5719 26L58.8599 14.8H60.2839L64.5399 26H63.1799L60.4439 18.736C60.3692 18.5333 60.2839 18.2987 60.1879 18.032C60.1025 17.7547 60.0065 17.472 59.8999 17.184C59.8039 16.8853 59.7079 16.5973 59.6119 16.32C59.5265 16.0427 59.4465 15.7973 59.3719 15.584H59.6919C59.6065 15.8507 59.5159 16.1227 59.4199 16.4C59.3345 16.6667 59.2439 16.9387 59.1479 17.216C59.0519 17.4827 58.9559 17.7493 58.8599 18.016C58.7639 18.2827 58.6679 18.5493 58.5719 18.816L55.8519 26H54.5719ZM56.3959 22.912L56.8599 21.696H62.1559L62.6679 22.912H56.3959ZM66.1055 26V17.648H67.2895L67.3375 19.392L67.1455 19.472C67.2522 19.1093 67.4602 18.7787 67.7695 18.48C68.0788 18.1813 68.4468 17.9413 68.8735 17.76C69.3108 17.568 69.7588 17.472 70.2175 17.472C70.8362 17.472 71.3535 17.5947 71.7695 17.84C72.1855 18.0853 72.5002 18.464 72.7135 18.976C72.9268 19.488 73.0335 20.1387 73.0335 20.928V26H71.8175V20.992C71.8175 20.4373 71.7428 19.984 71.5935 19.632C71.4548 19.2693 71.2362 19.0027 70.9375 18.832C70.6388 18.6613 70.2708 18.5813 69.8335 18.592C69.4708 18.592 69.1348 18.656 68.8255 18.784C68.5162 18.9013 68.2495 19.0667 68.0255 19.28C67.8015 19.4933 67.6255 19.7387 67.4975 20.016C67.3695 20.2933 67.3055 20.592 67.3055 20.912V26H66.7135C66.6388 26 66.5535 26 66.4575 26C66.3615 26 66.2442 26 66.1055 26ZM79.0043 26.16C78.1723 26.16 77.4309 25.9787 76.7803 25.616C76.1403 25.2533 75.6389 24.7467 75.2763 24.096C74.9136 23.4453 74.7323 22.6987 74.7323 21.856C74.7323 21.2053 74.8336 20.6187 75.0363 20.096C75.2389 19.5627 75.5216 19.0987 75.8843 18.704C76.2576 18.3093 76.7003 18.0053 77.2123 17.792C77.7243 17.568 78.2789 17.456 78.8763 17.456C79.4416 17.456 79.9536 17.5573 80.4123 17.76C80.8816 17.9627 81.2816 18.2453 81.6123 18.608C81.9536 18.96 82.2096 19.3813 82.3802 19.872C82.5509 20.3627 82.6256 20.9013 82.6042 21.488L82.5883 22.048H75.6283L75.4523 21.04H81.6763L81.3883 21.312V20.928C81.3669 20.544 81.2549 20.176 81.0523 19.824C80.8496 19.4613 80.5616 19.168 80.1883 18.944C79.8256 18.72 79.3883 18.608 78.8763 18.608C78.2789 18.608 77.7616 18.7307 77.3243 18.976C76.8869 19.2107 76.5509 19.5627 76.3163 20.032C76.0816 20.5013 75.9643 21.0827 75.9643 21.776C75.9643 22.4373 76.0923 23.0133 76.3483 23.504C76.6043 23.984 76.9669 24.3573 77.4363 24.624C77.9163 24.8907 78.4923 25.024 79.1643 25.024C79.5589 25.024 79.9483 24.96 80.3323 24.832C80.7269 24.6933 81.1589 24.4267 81.6283 24.032L82.2523 24.896C82.0069 25.1413 81.7136 25.36 81.3723 25.552C81.0309 25.7333 80.6576 25.8827 80.2523 26C79.8469 26.1067 79.4309 26.16 79.0043 26.16ZM89.9418 26L87.0458 22.272L86.9018 22.096L83.4298 17.648H84.9498L87.7977 21.312L87.9578 21.52L91.4458 26H89.9418ZM83.3658 26L86.7738 21.6L87.4938 22.464L84.8058 26H83.3658ZM88.0378 21.904L87.3498 21.056L89.7818 17.648H91.2378L88.0378 21.904ZM95.6508 26.16C94.9254 26.16 94.2694 25.9733 93.6828 25.6C93.0961 25.216 92.6321 24.6987 92.2908 24.048C91.9494 23.3867 91.7788 22.64 91.7788 21.808C91.7788 20.9653 91.9548 20.2187 92.3068 19.568C92.6588 18.9173 93.1281 18.4053 93.7148 18.032C94.3121 17.6587 94.9788 17.472 95.7148 17.472C96.1521 17.472 96.5574 17.536 96.9308 17.664C97.3041 17.792 97.6348 17.9733 97.9228 18.208C98.2214 18.432 98.4668 18.6987 98.6588 19.008C98.8614 19.3067 99.0001 19.632 99.0748 19.984L98.7228 19.808L98.7708 17.648H99.9708V26H98.7548V23.952L99.0748 23.744C99.0001 24.064 98.8561 24.3733 98.6428 24.672C98.4294 24.96 98.1681 25.216 97.8588 25.44C97.5601 25.664 97.2188 25.84 96.8348 25.968C96.4614 26.096 96.0668 26.16 95.6508 26.16ZM95.9227 25.008C96.4774 25.008 96.9734 24.8747 97.4108 24.608C97.8481 24.3307 98.1894 23.952 98.4348 23.472C98.6908 22.9813 98.8188 22.4267 98.8188 21.808C98.8188 21.1893 98.6908 20.64 98.4348 20.16C98.1894 19.68 97.8481 19.3013 97.4108 19.024C96.9734 18.7467 96.4774 18.608 95.9227 18.608C95.3574 18.608 94.8561 18.7467 94.4188 19.024C93.9921 19.3013 93.6508 19.68 93.3948 20.16C93.1494 20.64 93.0268 21.1893 93.0268 21.808C93.0268 22.416 93.1494 22.9653 93.3948 23.456C93.6401 23.936 93.9814 24.3147 94.4188 24.592C94.8561 24.8693 95.3574 25.008 95.9227 25.008ZM102.309 26V17.648H103.509L103.541 19.872L103.413 19.568C103.53 19.1947 103.717 18.848 103.973 18.528C104.239 18.208 104.554 17.952 104.917 17.76C105.279 17.568 105.679 17.472 106.117 17.472C106.298 17.472 106.469 17.488 106.629 17.52C106.789 17.5413 106.922 17.5733 107.029 17.616L106.693 18.96C106.554 18.896 106.41 18.8533 106.261 18.832C106.122 18.8 105.989 18.784 105.861 18.784C105.498 18.784 105.173 18.848 104.885 18.976C104.597 19.104 104.351 19.2853 104.149 19.52C103.946 19.744 103.791 20.0053 103.685 20.304C103.578 20.6027 103.525 20.9227 103.525 21.264V26H102.309ZM112.714 26V24.816H114.522V15.984H112.714V14.8H117.578V15.984H115.77V24.816H117.578V26H112.714ZM119.855 26V17.648H121.055L121.087 19.552L120.847 19.632C120.932 19.312 121.071 19.024 121.263 18.768C121.466 18.5013 121.706 18.272 121.983 18.08C122.26 17.888 122.564 17.744 122.895 17.648C123.226 17.5413 123.572 17.488 123.935 17.488C124.372 17.488 124.762 17.5627 125.103 17.712C125.455 17.8507 125.748 18.096 125.983 18.448C126.228 18.7893 126.415 19.2427 126.543 19.808L126.255 19.664L126.367 19.392C126.474 19.1467 126.628 18.912 126.831 18.688C127.044 18.4533 127.284 18.2453 127.551 18.064C127.828 17.8827 128.127 17.744 128.447 17.648C128.778 17.5413 129.114 17.488 129.455 17.488C130.042 17.488 130.538 17.616 130.943 17.872C131.348 18.1173 131.652 18.496 131.855 19.008C132.068 19.52 132.175 20.1707 132.175 20.96V26H130.943V21.024C130.943 20.4693 130.874 20.016 130.735 19.664C130.596 19.312 130.388 19.0507 130.111 18.88C129.844 18.6987 129.503 18.608 129.087 18.608C128.724 18.608 128.388 18.672 128.079 18.8C127.78 18.9173 127.519 19.088 127.295 19.312C127.082 19.5253 126.911 19.7707 126.783 20.048C126.666 20.3253 126.607 20.624 126.607 20.944V26H125.391V21.008C125.391 20.4747 125.316 20.032 125.167 19.68C125.028 19.328 124.82 19.0613 124.543 18.88C124.266 18.6987 123.924 18.608 123.519 18.608C123.167 18.608 122.842 18.672 122.543 18.8C122.244 18.9173 121.983 19.0827 121.759 19.296C121.546 19.5093 121.375 19.7547 121.247 20.032C121.13 20.3093 121.071 20.608 121.071 20.928V26H119.855ZM137.713 26.16C136.988 26.16 136.332 25.9733 135.745 25.6C135.159 25.216 134.695 24.6987 134.353 24.048C134.012 23.3867 133.841 22.64 133.841 21.808C133.841 20.9653 134.017 20.2187 134.369 19.568C134.721 18.9173 135.191 18.4053 135.777 18.032C136.375 17.6587 137.041 17.472 137.777 17.472C138.215 17.472 138.62 17.536 138.993 17.664C139.367 17.792 139.697 17.9733 139.985 18.208C140.284 18.432 140.529 18.6987 140.721 19.008C140.924 19.3067 141.063 19.632 141.137 19.984L140.785 19.808L140.833 17.648H142.033V26H140.817V23.952L141.137 23.744C141.063 24.064 140.919 24.3733 140.705 24.672C140.492 24.96 140.231 25.216 139.921 25.44C139.623 25.664 139.281 25.84 138.897 25.968C138.524 26.096 138.129 26.16 137.713 26.16ZM137.985 25.008C138.54 25.008 139.036 24.8747 139.473 24.608C139.911 24.3307 140.252 23.952 140.497 23.472C140.753 22.9813 140.881 22.4267 140.881 21.808C140.881 21.1893 140.753 20.64 140.497 20.16C140.252 19.68 139.911 19.3013 139.473 19.024C139.036 18.7467 138.54 18.608 137.985 18.608C137.42 18.608 136.919 18.7467 136.481 19.024C136.055 19.3013 135.713 19.68 135.457 20.16C135.212 20.64 135.089 21.1893 135.089 21.808C135.089 22.416 135.212 22.9653 135.457 23.456C135.703 23.936 136.044 24.3147 136.481 24.592C136.919 24.8693 137.42 25.008 137.985 25.008ZM147.971 29.68C147.352 29.68 146.766 29.584 146.211 29.392C145.656 29.2 145.198 28.96 144.835 28.672L145.315 27.664C145.528 27.8347 145.774 27.984 146.051 28.112C146.339 28.2507 146.648 28.3573 146.979 28.432C147.31 28.5173 147.646 28.56 147.987 28.56C148.606 28.56 149.128 28.4427 149.555 28.208C149.992 27.984 150.323 27.648 150.547 27.2C150.782 26.752 150.899 26.1973 150.899 25.536V23.936L151.091 23.888C150.995 24.2933 150.787 24.672 150.467 25.024C150.147 25.3653 149.758 25.6427 149.299 25.856C148.84 26.0587 148.355 26.16 147.843 26.16C147.064 26.16 146.366 25.9733 145.747 25.6C145.139 25.2267 144.659 24.7147 144.307 24.064C143.955 23.4027 143.779 22.656 143.779 21.824C143.779 20.9813 143.955 20.2347 144.307 19.584C144.67 18.9227 145.155 18.4053 145.763 18.032C146.371 17.6587 147.054 17.472 147.811 17.472C148.142 17.472 148.462 17.5147 148.771 17.6C149.08 17.6747 149.363 17.7867 149.619 17.936C149.886 18.0853 150.126 18.256 150.339 18.448C150.552 18.64 150.728 18.848 150.867 19.072C151.016 19.296 151.123 19.5253 151.187 19.76L150.851 19.712L150.899 17.648H152.099V25.488C152.099 26.16 152.003 26.752 151.811 27.264C151.619 27.7867 151.336 28.224 150.963 28.576C150.6 28.9387 150.163 29.2107 149.651 29.392C149.15 29.584 148.59 29.68 147.971 29.68ZM147.987 25.008C148.552 25.008 149.054 24.8747 149.491 24.608C149.939 24.3307 150.291 23.952 150.547 23.472C150.803 22.992 150.931 22.4373 150.931 21.808C150.931 21.1893 150.803 20.64 150.547 20.16C150.302 19.68 149.955 19.3013 149.507 19.024C149.059 18.7467 148.552 18.608 147.987 18.608C147.411 18.608 146.899 18.7467 146.451 19.024C146.014 19.3013 145.667 19.68 145.411 20.16C145.155 20.64 145.027 21.1893 145.027 21.808C145.027 22.416 145.15 22.9653 145.395 23.456C145.651 23.936 145.998 24.3147 146.435 24.592C146.883 24.8693 147.4 25.008 147.987 25.008ZM158.114 26.16C157.282 26.16 156.54 25.9787 155.89 25.616C155.25 25.2533 154.748 24.7467 154.386 24.096C154.023 23.4453 153.842 22.6987 153.842 21.856C153.842 21.2053 153.943 20.6187 154.146 20.096C154.348 19.5627 154.631 19.0987 154.994 18.704C155.367 18.3093 155.81 18.0053 156.322 17.792C156.834 17.568 157.388 17.456 157.986 17.456C158.551 17.456 159.063 17.5573 159.522 17.76C159.991 17.9627 160.391 18.2453 160.722 18.608C161.063 18.96 161.319 19.3813 161.49 19.872C161.66 20.3627 161.735 20.9013 161.714 21.488L161.698 22.048H154.738L154.562 21.04H160.786L160.498 21.312V20.928C160.476 20.544 160.364 20.176 160.162 19.824C159.959 19.4613 159.671 19.168 159.298 18.944C158.935 18.72 158.498 18.608 157.986 18.608C157.388 18.608 156.871 18.7307 156.434 18.976C155.996 19.2107 155.66 19.5627 155.426 20.032C155.191 20.5013 155.074 21.0827 155.074 21.776C155.074 22.4373 155.202 23.0133 155.458 23.504C155.714 23.984 156.076 24.3573 156.546 24.624C157.026 24.8907 157.602 25.024 158.274 25.024C158.668 25.024 159.058 24.96 159.442 24.832C159.836 24.6933 160.268 24.4267 160.738 24.032L161.362 24.896C161.116 25.1413 160.823 25.36 160.482 25.552C160.14 25.7333 159.767 25.8827 159.362 26C158.956 26.1067 158.54 26.16 158.114 26.16ZM163.402 26V17.648H164.602L164.634 19.552L164.394 19.632C164.479 19.312 164.618 19.024 164.81 18.768C165.013 18.5013 165.253 18.272 165.53 18.08C165.807 17.888 166.111 17.744 166.442 17.648C166.773 17.5413 167.119 17.488 167.482 17.488C167.919 17.488 168.309 17.5627 168.65 17.712C169.002 17.8507 169.295 18.096 169.53 18.448C169.775 18.7893 169.962 19.2427 170.09 19.808L169.802 19.664L169.914 19.392C170.021 19.1467 170.175 18.912 170.378 18.688C170.591 18.4533 170.831 18.2453 171.098 18.064C171.375 17.8827 171.674 17.744 171.994 17.648C172.325 17.5413 172.661 17.488 173.002 17.488C173.589 17.488 174.085 17.616 174.49 17.872C174.895 18.1173 175.199 18.496 175.402 19.008C175.615 19.52 175.722 20.1707 175.722 20.96V26H174.49V21.024C174.49 20.4693 174.421 20.016 174.282 19.664C174.143 19.312 173.935 19.0507 173.658 18.88C173.391 18.6987 173.05 18.608 172.634 18.608C172.271 18.608 171.935 18.672 171.626 18.8C171.327 18.9173 171.066 19.088 170.842 19.312C170.629 19.5253 170.458 19.7707 170.33 20.048C170.213 20.3253 170.154 20.624 170.154 20.944V26H168.938V21.008C168.938 20.4747 168.863 20.032 168.714 19.68C168.575 19.328 168.367 19.0613 168.09 18.88C167.813 18.6987 167.471 18.608 167.066 18.608C166.714 18.608 166.389 18.672 166.09 18.8C165.791 18.9173 165.53 19.0827 165.306 19.296C165.093 19.5093 164.922 19.7547 164.794 20.032C164.677 20.3093 164.618 20.608 164.618 20.928V26H163.402Z" fill="url(#paint1_linear_650_19935)"/>
<defs>
<linearGradient id="paint0_linear_650_19935" x1="197" y1="20" x2="0" y2="20" gradientUnits="userSpaceOnUse">
<stop stop-color="#43A3D5"/>
<stop offset="1" stop-color="#9C60DA"/>
</linearGradient>
<linearGradient id="paint1_linear_650_19935" x1="177" y1="20" x2="54" y2="20" gradientUnits="userSpaceOnUse">
<stop stop-color="#43A3D5"/>
<stop offset="1" stop-color="#9C60DA"/>
</linearGradient>
<clipPath id="clip0_650_19935">
<rect width="24" height="24" fill="white" transform="translate(20 8)"/>
</clipPath>
</defs>
</svg>
