<svg width="195" height="40" viewBox="0 0 195 40" fill="none" xmlns="http://www.w3.org/2000/svg">
<rect x="0.5" y="0.5" width="194" height="39" rx="19.5" stroke="url(#paint0_linear_792_399)"/>
<path d="M59 29C56.4875 29 54.3594 28.1281 52.6156 26.3844C50.8719 24.6406 50 22.5125 50 20C50 17.4875 50.8719 15.3594 52.6156 13.6156C54.3594 11.8719 56.4875 11 59 11C60.2937 11 61.5312 11.267 62.7125 11.801C63.8937 12.335 64.9062 13.0993 65.75 14.0938V12.125C65.75 11.8063 65.858 11.5393 66.074 11.324C66.29 11.1088 66.557 11.0008 66.875 11C67.193 10.9993 67.4604 11.1073 67.6771 11.324C67.8939 11.5408 68.0015 11.8078 68 12.125V17.75C68 18.0688 67.892 18.3361 67.676 18.5521C67.46 18.7681 67.193 18.8758 66.875 18.875H61.25C60.9312 18.875 60.6642 18.767 60.449 18.551C60.2337 18.335 60.1257 18.068 60.125 17.75C60.1242 17.432 60.2322 17.165 60.449 16.949C60.6657 16.733 60.9327 16.625 61.25 16.625H64.85C64.25 15.575 63.4299 14.75 62.3896 14.15C61.3494 13.55 60.2195 13.25 59 13.25C57.125 13.25 55.5312 13.9063 54.2187 15.2188C52.9062 16.5313 52.25 18.125 52.25 20C52.25 21.875 52.9062 23.4688 54.2187 24.7813C55.5312 26.0938 57.125 26.75 59 26.75C60.275 26.75 61.4424 26.4268 62.5021 25.7803C63.5619 25.1338 64.382 24.2664 64.9625 23.1781C65.1125 22.9156 65.3236 22.733 65.5959 22.6303C65.8681 22.5275 66.1445 22.5226 66.425 22.6156C66.725 22.7094 66.9406 22.9063 67.0719 23.2063C67.2031 23.5063 67.1937 23.7875 67.0437 24.05C66.275 25.55 65.1781 26.75 63.7531 27.65C62.3281 28.55 60.7437 29 59 29Z" fill="#9C60DA"/>
<path d="M78.4 26L82.688 14.8H84.112L88.368 26H87.008L84.272 18.736C84.1973 18.5333 84.112 18.2987 84.016 18.032C83.9307 17.7547 83.8347 17.472 83.728 17.184C83.632 16.8853 83.536 16.5973 83.44 16.32C83.3547 16.0427 83.2747 15.7973 83.2 15.584H83.52C83.4347 15.8507 83.344 16.1227 83.248 16.4C83.1627 16.6667 83.072 16.9387 82.976 17.216C82.88 17.4827 82.784 17.7493 82.688 18.016C82.592 18.2827 82.496 18.5493 82.4 18.816L79.68 26H78.4ZM80.224 22.912L80.688 21.696H85.984L86.496 22.912H80.224ZM91.0075 26V15.456H92.2075V26H91.0075ZM89.1195 18.8V17.648H94.3195V18.8H89.1195ZM98.753 26.16C98.113 26.16 97.569 26.032 97.121 25.776C96.6837 25.5093 96.3477 25.1253 96.113 24.624C95.889 24.1227 95.777 23.4987 95.777 22.752V17.648H96.993V22.512C96.993 23.0773 97.0677 23.552 97.217 23.936C97.377 24.3093 97.6117 24.592 97.921 24.784C98.241 24.976 98.6303 25.072 99.089 25.072C99.441 25.072 99.7663 25.0133 100.065 24.896C100.364 24.768 100.625 24.5973 100.849 24.384C101.073 24.1707 101.249 23.92 101.377 23.632C101.505 23.344 101.569 23.04 101.569 22.72V17.648H102.769V26H101.585L101.537 24.24L101.729 24.144C101.601 24.5173 101.388 24.8587 101.089 25.168C100.79 25.4667 100.433 25.7067 100.017 25.888C99.6117 26.0693 99.1903 26.16 98.753 26.16ZM108.37 26.16C107.644 26.16 106.988 25.9733 106.402 25.6C105.815 25.216 105.351 24.6987 105.01 24.048C104.668 23.3867 104.498 22.64 104.498 21.808C104.498 20.9653 104.674 20.2187 105.026 19.568C105.378 18.9173 105.847 18.4053 106.434 18.032C107.031 17.6587 107.698 17.472 108.434 17.472C108.871 17.472 109.276 17.536 109.65 17.664C110.023 17.792 110.354 17.9733 110.642 18.208C110.94 18.432 111.186 18.6987 111.378 19.008C111.58 19.3067 111.719 19.632 111.794 19.984L111.442 19.808L111.49 17.648H112.69V26H111.474V23.952L111.794 23.744C111.719 24.064 111.575 24.3733 111.362 24.672C111.148 24.96 110.887 25.216 110.578 25.44C110.279 25.664 109.938 25.84 109.554 25.968C109.18 26.096 108.786 26.16 108.37 26.16ZM108.641 25.008C109.196 25.008 109.692 24.8747 110.13 24.608C110.567 24.3307 110.908 23.952 111.154 23.472C111.41 22.9813 111.538 22.4267 111.538 21.808C111.538 21.1893 111.41 20.64 111.154 20.16C110.908 19.68 110.567 19.3013 110.13 19.024C109.692 18.7467 109.196 18.608 108.641 18.608C108.076 18.608 107.575 18.7467 107.138 19.024C106.711 19.3013 106.37 19.68 106.114 20.16C105.868 20.64 105.746 21.1893 105.746 21.808C105.746 22.416 105.868 22.9653 106.114 23.456C106.359 23.936 106.7 24.3147 107.138 24.592C107.575 24.8693 108.076 25.008 108.641 25.008ZM115.059 26V14.16H116.259V26H115.059ZM118.941 26V17.648H120.141V26H118.941ZM119.533 15.84C119.234 15.84 119.005 15.7653 118.845 15.616C118.696 15.456 118.621 15.2427 118.621 14.976C118.621 14.7093 118.701 14.496 118.861 14.336C119.021 14.176 119.245 14.096 119.533 14.096C119.821 14.096 120.045 14.176 120.205 14.336C120.365 14.4853 120.445 14.6987 120.445 14.976C120.445 15.232 120.365 15.44 120.205 15.6C120.045 15.76 119.821 15.84 119.533 15.84ZM122.298 26V24.96L126.906 18.464L127.05 18.72H122.298V17.648H128.17V18.672L123.578 25.152L123.418 24.912H128.346V26H122.298ZM133.291 26.16C132.566 26.16 131.91 25.9733 131.323 25.6C130.737 25.216 130.273 24.6987 129.931 24.048C129.59 23.3867 129.419 22.64 129.419 21.808C129.419 20.9653 129.595 20.2187 129.947 19.568C130.299 18.9173 130.769 18.4053 131.355 18.032C131.953 17.6587 132.619 17.472 133.355 17.472C133.793 17.472 134.198 17.536 134.571 17.664C134.945 17.792 135.275 17.9733 135.563 18.208C135.862 18.432 136.107 18.6987 136.299 19.008C136.502 19.3067 136.641 19.632 136.715 19.984L136.363 19.808L136.411 17.648H137.611V26H136.395V23.952L136.715 23.744C136.641 24.064 136.497 24.3733 136.283 24.672C136.07 24.96 135.809 25.216 135.499 25.44C135.201 25.664 134.859 25.84 134.475 25.968C134.102 26.096 133.707 26.16 133.291 26.16ZM133.563 25.008C134.118 25.008 134.614 24.8747 135.051 24.608C135.489 24.3307 135.83 23.952 136.075 23.472C136.331 22.9813 136.459 22.4267 136.459 21.808C136.459 21.1893 136.331 20.64 136.075 20.16C135.83 19.68 135.489 19.3013 135.051 19.024C134.614 18.7467 134.118 18.608 133.563 18.608C132.998 18.608 132.497 18.7467 132.059 19.024C131.633 19.3013 131.291 19.68 131.035 20.16C130.79 20.64 130.667 21.1893 130.667 21.808C130.667 22.416 130.79 22.9653 131.035 23.456C131.281 23.936 131.622 24.3147 132.059 24.592C132.497 24.8693 132.998 25.008 133.563 25.008ZM139.949 26V17.648H141.149L141.181 19.872L141.053 19.568C141.171 19.1947 141.357 18.848 141.613 18.528C141.88 18.208 142.195 17.952 142.557 17.76C142.92 17.568 143.32 17.472 143.757 17.472C143.939 17.472 144.109 17.488 144.269 17.52C144.429 17.5413 144.563 17.5733 144.669 17.616L144.333 18.96C144.195 18.896 144.051 18.8533 143.901 18.832C143.763 18.8 143.629 18.784 143.501 18.784C143.139 18.784 142.813 18.848 142.525 18.976C142.237 19.104 141.992 19.2853 141.789 19.52C141.587 19.744 141.432 20.0053 141.325 20.304C141.219 20.6027 141.165 20.9227 141.165 21.264V26H139.949Z" fill="url(#paint1_linear_792_399)"/>
<defs>
<linearGradient id="paint0_linear_792_399" x1="195" y1="20" x2="0" y2="20" gradientUnits="userSpaceOnUse">
<stop stop-color="#43A3D5"/>
<stop offset="1" stop-color="#9C60DA"/>
</linearGradient>
<linearGradient id="paint1_linear_792_399" x1="145" y1="20" x2="78" y2="20" gradientUnits="userSpaceOnUse">
<stop stop-color="#43A3D5"/>
<stop offset="1" stop-color="#9C60DA"/>
</linearGradient>
</defs>
</svg>
