<svg width="40" height="40" viewBox="0 0 40 40" fill="none" xmlns="http://www.w3.org/2000/svg">
<rect x="0.5" y="0.5" width="39" height="39" rx="19.5" stroke="#43A3D5"/>
<path d="M20 29C17.4875 29 15.3594 28.1281 13.6156 26.3844C11.8719 24.6406 11 22.5125 11 20C11 17.4875 11.8719 15.3594 13.6156 13.6156C15.3594 11.8719 17.4875 11 20 11C21.2937 11 22.5312 11.267 23.7125 11.801C24.8937 12.335 25.9062 13.0993 26.75 14.0938V12.125C26.75 11.8063 26.858 11.5393 27.074 11.324C27.29 11.1088 27.557 11.0008 27.875 11C28.193 10.9993 28.4604 11.1073 28.6771 11.324C28.8939 11.5408 29.0015 11.8078 29 12.125V17.75C29 18.0688 28.892 18.3361 28.676 18.5521C28.46 18.7681 28.193 18.8758 27.875 18.875H22.25C21.9312 18.875 21.6642 18.767 21.449 18.551C21.2337 18.335 21.1257 18.068 21.125 17.75C21.1242 17.432 21.2322 17.165 21.449 16.949C21.6657 16.733 21.9327 16.625 22.25 16.625H25.85C25.25 15.575 24.4299 14.75 23.3896 14.15C22.3494 13.55 21.2195 13.25 20 13.25C18.125 13.25 16.5312 13.9063 15.2187 15.2188C13.9062 16.5313 13.25 18.125 13.25 20C13.25 21.875 13.9062 23.4688 15.2187 24.7813C16.5312 26.0938 18.125 26.75 20 26.75C21.275 26.75 22.4424 26.4268 23.5021 25.7803C24.5619 25.1338 25.382 24.2664 25.9625 23.1781C26.1125 22.9156 26.3236 22.733 26.5959 22.6303C26.8681 22.5275 27.1445 22.5226 27.425 22.6156C27.725 22.7094 27.9406 22.9063 28.0719 23.2063C28.2031 23.5063 28.1937 23.7875 28.0437 24.05C27.275 25.55 26.1781 26.75 24.7531 27.65C23.3281 28.55 21.7437 29 20 29Z" fill="#43A3D5"/>
</svg>
