<svg width="133" height="40" viewBox="0 0 133 40" fill="none" xmlns="http://www.w3.org/2000/svg">
<rect x="0.5" y="0.5" width="132" height="39" rx="19.5" stroke="#463C61"/>
<path d="M21 20.8661C20.3333 20.4811 20.3333 19.5189 21 19.134L33 12.2058C33.6667 11.8209 34.5 12.302 34.5 13.0718L34.5 26.9282C34.5 27.698 33.6667 28.1792 33 27.7943L21 20.8661Z" fill="#E1DDF4"/>
<path d="M50.6745 26.16C49.8958 26.16 49.1812 26.0213 48.5305 25.744C47.8798 25.4667 47.3145 25.072 46.8345 24.56C46.3545 24.0373 45.9812 23.424 45.7145 22.72C45.4585 22.016 45.3305 21.2427 45.3305 20.4C45.3305 19.6 45.4692 18.8587 45.7465 18.176C46.0345 17.4827 46.4292 16.8747 46.9305 16.352C47.4318 15.8293 48.0132 15.424 48.6745 15.136C49.3358 14.848 50.0505 14.704 50.8185 14.704C51.3625 14.704 51.8905 14.7893 52.4025 14.96C52.9252 15.12 53.3945 15.3493 53.8105 15.648C54.2372 15.936 54.5838 16.2667 54.8505 16.64L53.6985 17.84C53.3892 17.5307 53.0745 17.2747 52.7545 17.072C52.4452 16.8587 52.1252 16.6987 51.7945 16.592C51.4745 16.4853 51.1492 16.432 50.8185 16.432C50.2958 16.432 49.8052 16.5333 49.3465 16.736C48.8985 16.928 48.5038 17.2 48.1625 17.552C47.8318 17.904 47.5705 18.3253 47.3785 18.816C47.1865 19.296 47.0905 19.824 47.0905 20.4C47.0905 21.008 47.1812 21.5627 47.3625 22.064C47.5545 22.5547 47.8212 22.976 48.1625 23.328C48.5038 23.68 48.9092 23.952 49.3785 24.144C49.8585 24.3253 50.3865 24.416 50.9625 24.416C51.3145 24.416 51.6612 24.368 52.0025 24.272C52.3438 24.176 52.6638 24.0373 52.9625 23.856C53.2612 23.6747 53.5332 23.4613 53.7785 23.216L54.6425 24.624C54.3972 24.912 54.0612 25.1733 53.6345 25.408C53.2185 25.6427 52.7492 25.8293 52.2265 25.968C51.7145 26.096 51.1972 26.16 50.6745 26.16ZM59.8059 26.16C59.1125 26.16 58.4779 25.968 57.9019 25.584C57.3365 25.2 56.8832 24.6773 56.5419 24.016C56.2005 23.3547 56.0299 22.608 56.0299 21.776C56.0299 20.9333 56.2005 20.1867 56.5419 19.536C56.8939 18.8747 57.3632 18.3573 57.9499 17.984C58.5472 17.6107 59.2139 17.424 59.9499 17.424C60.3872 17.424 60.7872 17.488 61.1499 17.616C61.5125 17.744 61.8272 17.9253 62.0939 18.16C62.3712 18.384 62.5952 18.6453 62.7659 18.944C62.9472 19.2427 63.0592 19.5627 63.1019 19.904L62.7339 19.776V17.6H64.3979V26H62.7339V24L63.1179 23.888C63.0539 24.176 62.9205 24.4587 62.7179 24.736C62.5259 25.0027 62.2752 25.2427 61.9659 25.456C61.6672 25.6693 61.3312 25.84 60.9579 25.968C60.5952 26.096 60.2112 26.16 59.8059 26.16ZM60.2379 24.64C60.7392 24.64 61.1819 24.5173 61.5659 24.272C61.9499 24.0267 62.2485 23.6907 62.4619 23.264C62.6859 22.8267 62.7979 22.3307 62.7979 21.776C62.7979 21.232 62.6859 20.7467 62.4619 20.32C62.2485 19.8933 61.9499 19.5573 61.5659 19.312C61.1819 19.0667 60.7392 18.944 60.2379 18.944C59.7472 18.944 59.3099 19.0667 58.9259 19.312C58.5525 19.5573 58.2539 19.8933 58.0299 20.32C57.8165 20.7467 57.7099 21.232 57.7099 21.776C57.7099 22.3307 57.8165 22.8267 58.0299 23.264C58.2539 23.6907 58.5525 24.0267 58.9259 24.272C59.3099 24.5173 59.7472 24.64 60.2379 24.64ZM66.6989 26V17.6H68.3469V19.328L68.0589 19.52C68.1655 19.1467 68.3735 18.8053 68.6829 18.496C68.9922 18.176 69.3602 17.92 69.7869 17.728C70.2135 17.5253 70.6509 17.424 71.0989 17.424C71.7389 17.424 72.2722 17.552 72.6989 17.808C73.1255 18.0533 73.4455 18.432 73.6589 18.944C73.8722 19.456 73.9789 20.1013 73.9789 20.88V26H72.3309V20.992C72.3309 20.512 72.2669 20.1173 72.1389 19.808C72.0109 19.488 71.8135 19.2587 71.5469 19.12C71.2802 18.9707 70.9495 18.9067 70.5549 18.928C70.2349 18.928 69.9415 18.9813 69.6749 19.088C69.4082 19.184 69.1735 19.3227 68.9709 19.504C68.7789 19.6853 68.6242 19.8987 68.5069 20.144C68.4002 20.3787 68.3469 20.6347 68.3469 20.912V26H67.5309C67.3922 26 67.2535 26 67.1149 26C66.9762 26 66.8375 26 66.6989 26ZM79.7825 26.16C79.0038 26.16 78.3052 25.968 77.6865 25.584C77.0785 25.2 76.5932 24.6773 76.2305 24.016C75.8785 23.3547 75.7025 22.6133 75.7025 21.792C75.7025 20.9707 75.8785 20.2293 76.2305 19.568C76.5932 18.9067 77.0785 18.384 77.6865 18C78.3052 17.616 79.0038 17.424 79.7825 17.424C80.5292 17.424 81.2065 17.5787 81.8145 17.888C82.4332 18.1867 82.9025 18.5973 83.2225 19.12L82.3105 20.24C82.1398 19.9947 81.9212 19.7707 81.6545 19.568C81.3878 19.3653 81.1052 19.2053 80.8065 19.088C80.5078 18.9707 80.2198 18.912 79.9425 18.912C79.4305 18.912 78.9718 19.04 78.5665 19.296C78.1718 19.5413 77.8572 19.8827 77.6225 20.32C77.3878 20.7573 77.2705 21.248 77.2705 21.792C77.2705 22.336 77.3932 22.8267 77.6385 23.264C77.8838 23.6907 78.2092 24.032 78.6145 24.288C79.0198 24.544 79.4678 24.672 79.9585 24.672C80.2465 24.672 80.5238 24.624 80.7905 24.528C81.0678 24.432 81.3345 24.288 81.5905 24.096C81.8465 23.904 82.0865 23.6693 82.3105 23.392L83.2225 24.512C82.8812 24.992 82.3905 25.3867 81.7505 25.696C81.1212 26.0053 80.4652 26.16 79.7825 26.16ZM88.697 26.16C87.833 26.16 87.065 25.9787 86.393 25.616C85.7317 25.2427 85.209 24.736 84.825 24.096C84.4517 23.456 84.265 22.72 84.265 21.888C84.265 21.2267 84.3717 20.624 84.585 20.08C84.7983 19.536 85.0917 19.0667 85.465 18.672C85.849 18.2667 86.3023 17.9573 86.825 17.744C87.3583 17.52 87.9343 17.408 88.553 17.408C89.097 17.408 89.6037 17.5147 90.073 17.728C90.5423 17.9307 90.9477 18.2133 91.289 18.576C91.641 18.9387 91.9077 19.3707 92.089 19.872C92.281 20.3627 92.3717 20.9013 92.361 21.488L92.345 22.192H85.481L85.113 20.88H90.921L90.681 21.152V20.768C90.649 20.416 90.5317 20.1013 90.329 19.824C90.1263 19.5467 89.8703 19.328 89.561 19.168C89.2517 19.008 88.9157 18.928 88.553 18.928C87.977 18.928 87.4917 19.04 87.097 19.264C86.7023 19.4773 86.4037 19.7973 86.201 20.224C85.9983 20.64 85.897 21.1573 85.897 21.776C85.897 22.3627 86.0197 22.8747 86.265 23.312C86.5103 23.7387 86.857 24.0693 87.305 24.304C87.753 24.5387 88.2703 24.656 88.857 24.656C89.273 24.656 89.657 24.5867 90.009 24.448C90.3717 24.3093 90.761 24.0587 91.177 23.696L92.009 24.864C91.753 25.12 91.4383 25.344 91.065 25.536C90.7023 25.728 90.313 25.8827 89.897 26C89.4917 26.1067 89.0917 26.16 88.697 26.16ZM94.184 26V14.16H95.832V26H94.184ZM101.243 26.16C100.55 26.16 99.9154 25.968 99.3394 25.584C98.774 25.2 98.3207 24.6773 97.9794 24.016C97.638 23.3547 97.4674 22.608 97.4674 21.776C97.4674 20.9333 97.638 20.1867 97.9794 19.536C98.3314 18.8747 98.8007 18.3573 99.3874 17.984C99.9847 17.6107 100.651 17.424 101.387 17.424C101.825 17.424 102.225 17.488 102.587 17.616C102.95 17.744 103.265 17.9253 103.531 18.16C103.809 18.384 104.033 18.6453 104.203 18.944C104.385 19.2427 104.497 19.5627 104.539 19.904L104.171 19.776V17.6H105.835V26H104.171V24L104.555 23.888C104.491 24.176 104.358 24.4587 104.155 24.736C103.963 25.0027 103.713 25.2427 103.403 25.456C103.105 25.6693 102.769 25.84 102.395 25.968C102.033 26.096 101.649 26.16 101.243 26.16ZM101.675 24.64C102.177 24.64 102.619 24.5173 103.003 24.272C103.387 24.0267 103.686 23.6907 103.899 23.264C104.123 22.8267 104.235 22.3307 104.235 21.776C104.235 21.232 104.123 20.7467 103.899 20.32C103.686 19.8933 103.387 19.5573 103.003 19.312C102.619 19.0667 102.177 18.944 101.675 18.944C101.185 18.944 100.747 19.0667 100.363 19.312C99.99 19.5573 99.6914 19.8933 99.4674 20.32C99.254 20.7467 99.1474 21.232 99.1474 21.776C99.1474 22.3307 99.254 22.8267 99.4674 23.264C99.6914 23.6907 99.99 24.0267 100.363 24.272C100.747 24.5173 101.185 24.64 101.675 24.64ZM108.136 26V17.6H109.8V20.24L109.64 19.6C109.758 19.1947 109.955 18.8267 110.232 18.496C110.52 18.1653 110.846 17.904 111.208 17.712C111.582 17.52 111.966 17.424 112.36 17.424C112.542 17.424 112.712 17.44 112.872 17.472C113.043 17.504 113.176 17.5413 113.272 17.584L112.84 19.376C112.712 19.3227 112.568 19.28 112.408 19.248C112.259 19.2053 112.11 19.184 111.96 19.184C111.672 19.184 111.395 19.2427 111.128 19.36C110.872 19.4667 110.643 19.6213 110.44 19.824C110.248 20.016 110.094 20.2453 109.976 20.512C109.859 20.768 109.8 21.0507 109.8 21.36V26H108.136Z" fill="#E1DDF4"/>
</svg>
