<svg width="141" height="72" viewBox="0 0 141 72" fill="none" xmlns="http://www.w3.org/2000/svg">
<path d="M64.836 22.4789C64.8284 23.7832 65.2663 24.3734 66.1775 24.8389C67.0087 25.2645 67.8351 25.1521 68.6749 25.016C72.5413 24.3877 76.1088 23.0225 79.2612 20.6596C80.1391 20.0018 80.9264 19.244 81.5691 18.35C81.6481 18.2405 81.6853 18.0359 81.6405 17.9121C80.9264 15.9519 80.2076 13.9927 79.465 12.0429C78.8994 10.5578 78.0121 10.1056 76.4516 10.4569C75.1063 10.7596 73.9304 11.4241 72.8165 12.2C69.9907 14.1669 67.6666 16.6116 65.9109 19.58C65.3339 20.5577 64.8769 21.584 64.836 22.4789ZM67.1267 23.3452C67.1144 23.3138 67.1029 23.2814 67.0906 23.25C66.6355 23.2596 66.465 23.1329 66.5736 22.6807C66.7326 22.0191 66.9258 21.346 67.2324 20.7434C68.2578 18.7308 69.7412 17.0658 71.3807 15.5368C72.7041 14.3021 74.1199 13.1854 75.7975 12.4618C76.2583 12.2638 76.7639 12.1439 77.2609 12.062C77.6522 11.9982 77.814 12.16 77.7455 12.5561C77.655 13.0749 77.5294 13.6033 77.3161 14.0831C76.4954 15.931 75.2243 17.4646 73.8267 18.8974C72.3947 20.3645 70.8437 21.6887 68.9976 22.6131C68.4016 22.913 67.7523 23.1053 67.1267 23.3452Z" fill="url(#paint0_linear_645_19176)"/>
<path d="M82.4317 20.0389C79.1698 23.4909 75.0501 25.255 70.5695 26.4298C70.6628 26.4774 70.7276 26.5202 70.799 26.5469C72.1871 27.0619 73.5743 27.5826 74.9692 28.0796C75.2005 28.1624 75.4795 28.1891 75.7223 28.1519C77.6646 27.854 79.5602 27.3932 81.3016 26.4402C82.2708 25.91 83.1267 25.2416 83.7504 24.3144C83.8265 24.2011 83.8951 24.0154 83.8551 23.9031C83.3971 22.6207 82.9173 21.346 82.4317 20.0389Z" fill="url(#paint1_linear_645_19176)"/>
<path d="M67.7789 2.55518C67.4876 2.97502 67.2419 3.30918 67.0182 3.65761C66.6793 4.18407 66.4955 4.75052 66.665 5.38075C66.8925 6.229 67.538 6.75546 68.4692 6.85447C68.8577 6.89541 69.249 6.91635 69.6746 6.94967C69.6279 7.03154 69.5889 7.10961 69.5422 7.18196C69.3499 7.48089 69.1319 7.7665 68.9652 8.07876C68.4483 9.04505 68.6644 10.0447 69.5375 10.7035C70.3029 11.2813 71.2131 11.4603 72.1386 11.5612C72.4366 11.5936 72.6308 11.407 72.6937 11.1157C72.7698 10.7682 72.8412 10.4198 72.8926 10.0675C72.9593 9.61531 72.8022 9.40682 72.3538 9.30685C71.9291 9.21165 71.5054 9.1174 71.0341 9.01268C71.3131 8.60998 71.5568 8.27582 71.7806 7.92834C72.1281 7.39236 72.3185 6.81639 72.1405 6.17283C71.9091 5.33982 71.2731 4.81907 70.3582 4.71815C69.9602 4.67436 69.5603 4.65247 69.1204 4.61819C69.327 4.30879 69.5298 4.02414 69.7136 3.72711C70.4667 2.50568 70.1573 1.24045 68.8634 0.625452C68.2121 0.316048 67.4714 0.182766 66.7602 0.0180679C66.4117 -0.0628532 66.1965 0.122789 66.1147 0.472178C66.0337 0.818711 65.9661 1.1681 65.9147 1.51939C65.8519 1.95351 66.0061 2.15914 66.4384 2.2572C66.864 2.35526 67.2895 2.4476 67.7789 2.55518Z" fill="url(#paint2_linear_645_19176)"/>
<path d="M61.4684 15.177C61.4056 14.641 61.3904 14.1278 61.279 13.6357C60.9895 12.3561 59.728 11.7421 58.5455 12.3143C58.039 12.5589 57.5829 12.9083 57.0507 13.2434C56.9593 12.8474 56.8584 12.4723 56.787 12.0924C56.6718 11.4803 56.4566 11.3223 55.852 11.4394C55.5607 11.4955 55.2674 11.5431 54.9799 11.6117C54.6228 11.6964 54.4619 11.8954 54.5067 12.2495C54.6028 13.0168 54.758 13.7718 55.1503 14.4534C55.8349 15.6425 57.0136 15.95 58.1818 15.2398C58.4922 15.0513 58.7864 14.838 59.1139 14.6191C59.1472 15.0399 59.1701 15.4264 59.21 15.811C59.3757 17.4113 60.8239 18.1758 62.2292 17.3923C62.6519 17.1571 63.0394 16.8592 63.504 16.5488C63.5992 16.9534 63.703 17.3247 63.7725 17.7017C63.8906 18.3396 64.0981 18.4919 64.7275 18.3681C65.0064 18.3129 65.2882 18.2691 65.5653 18.2053C65.9414 18.1177 66.1032 17.9188 66.0547 17.5446C65.9576 16.7897 65.8043 16.0462 65.4225 15.3731C64.736 14.1659 63.5497 13.8556 62.3672 14.5781C62.0654 14.7619 61.7769 14.9704 61.4684 15.177Z" fill="url(#paint3_linear_645_19176)"/>
<path d="M55.7206 5.8263C55.7197 6.52222 55.6378 6.60123 56.4737 6.68406C59.3272 6.96586 61.7017 8.3101 63.7925 10.177C64.6361 10.931 65.352 11.8287 66.107 12.6789C66.4155 13.0264 66.4726 13.0597 66.8668 12.796C67.0544 12.6703 67.2429 12.5475 67.4286 12.4199C67.7475 12.201 67.777 12.0563 67.5523 11.7507C65.8519 9.43538 63.7325 7.60751 61.1666 6.31087C59.7042 5.57211 58.1599 5.0961 56.5185 4.95997C56.4242 4.95235 56.329 4.94378 56.2347 4.94093C55.8425 4.92855 55.7273 5.03993 55.7206 5.43502C55.7187 5.56449 55.7206 5.69587 55.7206 5.8263Z" fill="url(#paint4_linear_645_19176)"/>
<path d="M84.6311 26.0109C82.9801 27.8178 80.8579 28.7327 78.4672 29.3819C79.0518 29.6009 79.5307 29.7808 80.0105 29.9598C81.731 30.6015 83.4543 31.2374 85.1718 31.8895C85.5717 32.0409 85.9354 32.0742 86.2563 31.7505C86.5781 31.4269 86.5362 31.0622 86.3848 30.6643C85.8412 29.2353 85.3166 27.7997 84.7834 26.3679C84.7425 26.2574 84.692 26.1508 84.6311 26.0109Z" fill="url(#paint5_linear_645_19176)"/>
<path d="M74.536 3.78137C74.536 4.11363 74.5388 4.44588 74.535 4.77718C74.5322 5.0704 74.6674 5.21796 74.9644 5.2151C75.2491 5.21225 75.5338 5.21225 75.8184 5.2151C76.1155 5.21796 76.2488 5.06945 76.2469 4.77623C76.2431 4.11172 76.245 3.44817 76.2459 2.78366C76.2459 2.50758 76.1155 2.36383 75.8356 2.36383C75.5395 2.36383 75.2424 2.36383 74.9463 2.36383C74.6664 2.36383 74.535 2.50853 74.536 2.78366C74.5369 3.11687 74.536 3.44912 74.536 3.78137Z" fill="url(#paint6_linear_645_19176)"/>
<path d="M60.5915 21.7478C60.9114 21.7478 61.2323 21.7449 61.5522 21.7487C61.8445 21.7525 61.9949 21.6192 61.9921 21.3213C61.9902 21.0252 61.993 20.7281 61.9902 20.4321C61.9873 20.1712 61.8512 20.0389 61.5912 20.0389C60.9038 20.0379 60.2155 20.036 59.528 20.0398C59.2653 20.0417 59.1424 20.1884 59.1415 20.4454C59.1415 20.7415 59.1415 21.0385 59.1415 21.3346C59.1415 21.6126 59.2834 21.7478 59.5595 21.7468C59.9041 21.7478 60.2478 21.7478 60.5915 21.7478Z" fill="url(#paint7_linear_645_19176)"/>
<path d="M56.9869 1.31376C57.0307 1.39087 57.0612 1.48512 57.1231 1.54795C57.6134 2.04681 58.1075 2.54281 58.6055 3.03404C58.7902 3.21588 58.9825 3.2035 59.1663 3.01881C59.3748 2.80842 59.5842 2.59897 59.7946 2.38953C59.9946 2.19056 59.9812 1.99635 59.787 1.80309C59.3091 1.32518 58.8406 0.835847 58.3436 0.378881C58.2456 0.288439 57.9742 0.241791 57.8866 0.309384C57.5896 0.539771 57.3373 0.828231 57.0745 1.10146C57.0307 1.14811 57.0212 1.22808 56.9869 1.31376Z" fill="url(#paint8_linear_645_19176)"/>
<path d="M10.3343 66.24C9.13434 66.24 8.03034 66.032 7.02234 65.616C6.01434 65.184 5.14234 64.584 4.40634 63.816C3.67034 63.032 3.09434 62.112 2.67834 61.056C2.27834 60 2.07834 58.848 2.07834 57.6C2.07834 56.368 2.27834 55.24 2.67834 54.216C3.09434 53.176 3.67834 52.272 4.43034 51.504C5.18234 50.72 6.05434 50.12 7.04634 49.704C8.03834 49.288 9.12634 49.08 10.3103 49.08C11.0943 49.08 11.8703 49.208 12.6383 49.464C13.4063 49.704 14.1103 50.04 14.7503 50.472C15.4063 50.904 15.9423 51.4 16.3583 51.96L15.0623 53.304C14.6623 52.824 14.1983 52.408 13.6703 52.056C13.1583 51.704 12.6143 51.432 12.0383 51.24C11.4623 51.048 10.8863 50.952 10.3103 50.952C9.41434 50.952 8.57434 51.12 7.79034 51.456C7.02234 51.776 6.35834 52.232 5.79834 52.824C5.23834 53.416 4.79834 54.12 4.47834 54.936C4.17434 55.752 4.02234 56.64 4.02234 57.6C4.02234 58.592 4.17434 59.504 4.47834 60.336C4.79834 61.168 5.24634 61.888 5.82234 62.496C6.41434 63.088 7.10234 63.552 7.88634 63.888C8.68634 64.208 9.57434 64.368 10.5503 64.368C11.1263 64.368 11.7023 64.288 12.2783 64.128C12.8543 63.952 13.3823 63.712 13.8623 63.408C14.3423 63.104 14.7503 62.76 15.0863 62.376L16.0463 63.936C15.6783 64.384 15.1823 64.784 14.5583 65.136C13.9503 65.472 13.2783 65.744 12.5423 65.952C11.8063 66.144 11.0703 66.24 10.3343 66.24ZM18.8731 66V53.472H20.6731L20.7211 56.808L20.5291 56.352C20.7051 55.792 20.9851 55.272 21.3691 54.792C21.7691 54.312 22.2411 53.928 22.7851 53.64C23.3291 53.352 23.9291 53.208 24.5851 53.208C24.8571 53.208 25.1131 53.232 25.3531 53.28C25.5931 53.312 25.7931 53.36 25.9531 53.424L25.4491 55.44C25.2411 55.344 25.0251 55.28 24.8011 55.248C24.5931 55.2 24.3931 55.176 24.2011 55.176C23.6571 55.176 23.1691 55.272 22.7371 55.464C22.3051 55.656 21.9371 55.928 21.6331 56.28C21.3291 56.616 21.0971 57.008 20.9371 57.456C20.7771 57.904 20.6971 58.384 20.6971 58.896V66H18.8731ZM28.3062 66V53.472H30.1062V66H28.3062ZM29.1942 50.76C28.7462 50.76 28.4022 50.648 28.1622 50.424C27.9382 50.184 27.8262 49.864 27.8262 49.464C27.8262 49.064 27.9462 48.744 28.1862 48.504C28.4262 48.264 28.7622 48.144 29.1942 48.144C29.6262 48.144 29.9622 48.264 30.2022 48.504C30.4422 48.728 30.5622 49.048 30.5622 49.464C30.5622 49.848 30.4422 50.16 30.2022 50.4C29.9622 50.64 29.6262 50.76 29.1942 50.76ZM38.9332 66.24C37.8452 66.24 36.8612 65.96 35.9812 65.4C35.1012 64.824 34.4052 64.048 33.8932 63.072C33.3812 62.08 33.1252 60.96 33.1252 59.712C33.1252 58.448 33.3892 57.328 33.9172 56.352C34.4452 55.376 35.1492 54.608 36.0292 54.048C36.9252 53.488 37.9252 53.208 39.0292 53.208C39.6852 53.208 40.2932 53.304 40.8532 53.496C41.4132 53.688 41.9092 53.96 42.3412 54.312C42.7892 54.648 43.1572 55.048 43.4452 55.512C43.7492 55.96 43.9572 56.448 44.0692 56.976L43.5412 56.712L43.6132 53.472H45.4132V66H43.5892V62.928L44.0692 62.616C43.9572 63.096 43.7412 63.56 43.4212 64.008C43.1012 64.44 42.7092 64.824 42.2452 65.16C41.7972 65.496 41.2852 65.76 40.7092 65.952C40.1492 66.144 39.5572 66.24 38.9332 66.24ZM39.3412 64.512C40.1732 64.512 40.9172 64.312 41.5732 63.912C42.2292 63.496 42.7412 62.928 43.1092 62.208C43.4932 61.472 43.6852 60.64 43.6852 59.712C43.6852 58.784 43.4932 57.96 43.1092 57.24C42.7412 56.52 42.2292 55.952 41.5732 55.536C40.9172 55.12 40.1732 54.912 39.3412 54.912C38.4932 54.912 37.7412 55.12 37.0852 55.536C36.4452 55.952 35.9332 56.52 35.5492 57.24C35.1812 57.96 34.9972 58.784 34.9972 59.712C34.9972 60.624 35.1812 61.448 35.5492 62.184C35.9172 62.904 36.4292 63.472 37.0852 63.888C37.7412 64.304 38.4932 64.512 39.3412 64.512ZM48.92 66V53.472H50.72L50.768 56.808L50.576 56.352C50.752 55.792 51.032 55.272 51.416 54.792C51.816 54.312 52.288 53.928 52.832 53.64C53.376 53.352 53.976 53.208 54.632 53.208C54.904 53.208 55.16 53.232 55.4 53.28C55.64 53.312 55.84 53.36 56 53.424L55.496 55.44C55.288 55.344 55.072 55.28 54.848 55.248C54.64 55.2 54.44 55.176 54.248 55.176C53.704 55.176 53.216 55.272 52.784 55.464C52.352 55.656 51.984 55.928 51.68 56.28C51.376 56.616 51.144 57.008 50.984 57.456C50.824 57.904 50.744 58.384 50.744 58.896V66H48.92ZM65.3197 66V49.2H75.4957V51.024H67.1917V64.176H75.4477V66H65.3197ZM66.1837 58.272V56.448H74.1517V58.272H66.1837ZM82.5033 66L77.2233 53.472H79.2153L83.3913 63.72L82.9113 63.984L87.4953 53.472H89.4153L83.7993 66H82.5033ZM96.6978 66.24C95.4498 66.24 94.3378 65.968 93.3618 65.424C92.4018 64.88 91.6498 64.12 91.1058 63.144C90.5618 62.168 90.2898 61.048 90.2898 59.784C90.2898 58.808 90.4418 57.928 90.7458 57.144C91.0498 56.344 91.4738 55.648 92.0178 55.056C92.5778 54.464 93.2418 54.008 94.0098 53.688C94.7778 53.352 95.6098 53.184 96.5058 53.184C97.3538 53.184 98.1218 53.336 98.8098 53.64C99.5138 53.944 100.114 54.368 100.61 54.912C101.122 55.44 101.506 56.072 101.762 56.808C102.018 57.544 102.13 58.352 102.098 59.232L102.074 60.072H91.6338L91.3698 58.56H100.706L100.274 58.968V58.392C100.242 57.816 100.074 57.264 99.7698 56.736C99.4658 56.192 99.0338 55.752 98.4738 55.416C97.9298 55.08 97.2738 54.912 96.5058 54.912C95.6098 54.912 94.8338 55.096 94.1778 55.464C93.5218 55.816 93.0178 56.344 92.6658 57.048C92.3138 57.752 92.1378 58.624 92.1378 59.664C92.1378 60.656 92.3298 61.52 92.7138 62.256C93.0978 62.976 93.6418 63.536 94.3458 63.936C95.0658 64.336 95.9298 64.536 96.9378 64.536C97.5298 64.536 98.1138 64.44 98.6898 64.248C99.2818 64.04 99.9298 63.64 100.634 63.048L101.57 64.344C101.202 64.712 100.762 65.04 100.25 65.328C99.7378 65.6 99.1778 65.824 98.5698 66C97.9618 66.16 97.3378 66.24 96.6978 66.24ZM104.654 66V53.472H106.43L106.502 56.088L106.214 56.208C106.374 55.664 106.686 55.168 107.15 54.72C107.614 54.272 108.166 53.912 108.806 53.64C109.462 53.352 110.134 53.208 110.822 53.208C111.75 53.208 112.526 53.392 113.15 53.76C113.774 54.128 114.246 54.696 114.566 55.464C114.886 56.232 115.046 57.208 115.046 58.392V66H113.222V58.488C113.222 57.656 113.11 56.976 112.886 56.448C112.678 55.904 112.35 55.504 111.902 55.248C111.454 54.992 110.902 54.872 110.246 54.888C109.702 54.888 109.198 54.984 108.734 55.176C108.27 55.352 107.87 55.6 107.534 55.92C107.198 56.24 106.934 56.608 106.742 57.024C106.55 57.44 106.454 57.888 106.454 58.368V66H105.566C105.454 66 105.326 66 105.182 66C105.038 66 104.862 66 104.654 66ZM120.21 66V50.184H122.01V66H120.21ZM117.378 55.2V53.472H125.178V55.2H117.378ZM132.816 66.24C131.568 66.24 130.456 65.96 129.48 65.4C128.52 64.84 127.76 64.064 127.2 63.072C126.656 62.08 126.384 60.952 126.384 59.688C126.384 58.44 126.656 57.328 127.2 56.352C127.76 55.376 128.52 54.608 129.48 54.048C130.456 53.488 131.568 53.208 132.816 53.208C134.048 53.208 135.144 53.488 136.104 54.048C137.08 54.608 137.84 55.376 138.384 56.352C138.944 57.328 139.224 58.44 139.224 59.688C139.224 60.952 138.944 62.08 138.384 63.072C137.84 64.064 137.08 64.84 136.104 65.4C135.144 65.96 134.048 66.24 132.816 66.24ZM132.816 64.536C133.696 64.536 134.48 64.328 135.168 63.912C135.856 63.48 136.392 62.904 136.776 62.184C137.16 61.448 137.352 60.616 137.352 59.688C137.352 58.76 137.16 57.936 136.776 57.216C136.392 56.496 135.856 55.936 135.168 55.536C134.48 55.12 133.696 54.912 132.816 54.912C131.936 54.912 131.144 55.12 130.44 55.536C129.752 55.936 129.208 56.504 128.808 57.24C128.424 57.96 128.24 58.776 128.256 59.688C128.24 60.616 128.424 61.448 128.808 62.184C129.208 62.904 129.752 63.48 130.44 63.912C131.144 64.328 131.936 64.536 132.816 64.536Z" fill="url(#paint9_linear_645_19176)"/>
<defs>
<linearGradient id="paint0_linear_645_19176" x1="54.4994" y1="15.9999" x2="86.4995" y2="15.9999" gradientUnits="userSpaceOnUse">
<stop stop-color="#43A3D5"/>
<stop offset="1" stop-color="#9C60DA"/>
</linearGradient>
<linearGradient id="paint1_linear_645_19176" x1="54.4994" y1="15.9999" x2="86.4995" y2="15.9999" gradientUnits="userSpaceOnUse">
<stop stop-color="#43A3D5"/>
<stop offset="1" stop-color="#9C60DA"/>
</linearGradient>
<linearGradient id="paint2_linear_645_19176" x1="54.4994" y1="15.9999" x2="86.4995" y2="15.9999" gradientUnits="userSpaceOnUse">
<stop stop-color="#43A3D5"/>
<stop offset="1" stop-color="#9C60DA"/>
</linearGradient>
<linearGradient id="paint3_linear_645_19176" x1="54.4994" y1="15.9999" x2="86.4995" y2="15.9999" gradientUnits="userSpaceOnUse">
<stop stop-color="#43A3D5"/>
<stop offset="1" stop-color="#9C60DA"/>
</linearGradient>
<linearGradient id="paint4_linear_645_19176" x1="54.4994" y1="15.9999" x2="86.4995" y2="15.9999" gradientUnits="userSpaceOnUse">
<stop stop-color="#43A3D5"/>
<stop offset="1" stop-color="#9C60DA"/>
</linearGradient>
<linearGradient id="paint5_linear_645_19176" x1="54.4994" y1="15.9999" x2="86.4995" y2="15.9999" gradientUnits="userSpaceOnUse">
<stop stop-color="#43A3D5"/>
<stop offset="1" stop-color="#9C60DA"/>
</linearGradient>
<linearGradient id="paint6_linear_645_19176" x1="54.4994" y1="15.9999" x2="86.4995" y2="15.9999" gradientUnits="userSpaceOnUse">
<stop stop-color="#43A3D5"/>
<stop offset="1" stop-color="#9C60DA"/>
</linearGradient>
<linearGradient id="paint7_linear_645_19176" x1="54.4994" y1="15.9999" x2="86.4995" y2="15.9999" gradientUnits="userSpaceOnUse">
<stop stop-color="#43A3D5"/>
<stop offset="1" stop-color="#9C60DA"/>
</linearGradient>
<linearGradient id="paint8_linear_645_19176" x1="54.4994" y1="15.9999" x2="86.4995" y2="15.9999" gradientUnits="userSpaceOnUse">
<stop stop-color="#43A3D5"/>
<stop offset="1" stop-color="#9C60DA"/>
</linearGradient>
<linearGradient id="paint9_linear_645_19176" x1="140.5" y1="57" x2="0.5" y2="57" gradientUnits="userSpaceOnUse">
<stop stop-color="#43A3D5"/>
<stop offset="1" stop-color="#9C60DA"/>
</linearGradient>
</defs>
</svg>
