<svg width="137" height="40" viewBox="0 0 137 40" fill="none" xmlns="http://www.w3.org/2000/svg">
<rect x="0.5" y="0.5" width="136" height="39" rx="19.5" stroke="#463C61"/>
<path d="M26.5339 26.16C25.7552 26.16 25.0405 26.0213 24.3899 25.744C23.7392 25.4667 23.1739 25.072 22.6939 24.56C22.2139 24.0373 21.8405 23.424 21.5739 22.72C21.3179 22.016 21.1899 21.2427 21.1899 20.4C21.1899 19.6 21.3285 18.8587 21.6059 18.176C21.8939 17.4827 22.2885 16.8747 22.7899 16.352C23.2912 15.8293 23.8725 15.424 24.5339 15.136C25.1952 14.848 25.9099 14.704 26.6779 14.704C27.2219 14.704 27.7499 14.7893 28.2619 14.96C28.7845 15.12 29.2539 15.3493 29.6699 15.648C30.0965 15.936 30.4432 16.2667 30.7099 16.64L29.5579 17.84C29.2485 17.5307 28.9339 17.2747 28.6139 17.072C28.3045 16.8587 27.9845 16.6987 27.6539 16.592C27.3339 16.4853 27.0085 16.432 26.6779 16.432C26.1552 16.432 25.6645 16.5333 25.2059 16.736C24.7579 16.928 24.3632 17.2 24.0219 17.552C23.6912 17.904 23.4299 18.3253 23.2379 18.816C23.0459 19.296 22.9499 19.824 22.9499 20.4C22.9499 21.008 23.0405 21.5627 23.2219 22.064C23.4139 22.5547 23.6805 22.976 24.0219 23.328C24.3632 23.68 24.7685 23.952 25.2379 24.144C25.7179 24.3253 26.2459 24.416 26.8219 24.416C27.1739 24.416 27.5205 24.368 27.8619 24.272C28.2032 24.176 28.5232 24.0373 28.8219 23.856C29.1205 23.6747 29.3925 23.4613 29.6379 23.216L30.5019 24.624C30.2565 24.912 29.9205 25.1733 29.4939 25.408C29.0779 25.6427 28.6085 25.8293 28.0859 25.968C27.5739 26.096 27.0565 26.16 26.5339 26.16ZM32.4333 26V17.6H34.0973V20.24L33.9373 19.6C34.0546 19.1947 34.2519 18.8267 34.5293 18.496C34.8173 18.1653 35.1426 17.904 35.5052 17.712C35.8786 17.52 36.2626 17.424 36.6573 17.424C36.8386 17.424 37.0093 17.44 37.1693 17.472C37.3399 17.504 37.4733 17.5413 37.5693 17.584L37.1373 19.376C37.0093 19.3227 36.8653 19.28 36.7053 19.248C36.5559 19.2053 36.4066 19.184 36.2573 19.184C35.9693 19.184 35.6919 19.2427 35.4253 19.36C35.1693 19.4667 34.9399 19.6213 34.7373 19.824C34.5453 20.016 34.3906 20.2453 34.2733 20.512C34.1559 20.768 34.0973 21.0507 34.0973 21.36V26H32.4333ZM39.1584 26V17.6H40.8064V26H39.1584ZM39.9584 15.744C39.6064 15.744 39.3344 15.6533 39.1424 15.472C38.9504 15.2907 38.8544 15.0347 38.8544 14.704C38.8544 14.3947 38.9504 14.144 39.1424 13.952C39.345 13.76 39.617 13.664 39.9584 13.664C40.3104 13.664 40.5824 13.7547 40.7744 13.936C40.9664 14.1173 41.0624 14.3733 41.0624 14.704C41.0624 15.0133 40.961 15.264 40.7584 15.456C40.5664 15.648 40.2997 15.744 39.9584 15.744ZM46.5715 26.16C45.8782 26.16 45.2435 25.968 44.6675 25.584C44.1022 25.2 43.6488 24.6773 43.3075 24.016C42.9662 23.3547 42.7955 22.608 42.7955 21.776C42.7955 20.9333 42.9662 20.1867 43.3075 19.536C43.6595 18.8747 44.1288 18.3573 44.7155 17.984C45.3128 17.6107 45.9795 17.424 46.7155 17.424C47.1528 17.424 47.5528 17.488 47.9155 17.616C48.2782 17.744 48.5928 17.9253 48.8595 18.16C49.1368 18.384 49.3608 18.6453 49.5315 18.944C49.7128 19.2427 49.8248 19.5627 49.8675 19.904L49.4995 19.776V17.6H51.1635V26H49.4995V24L49.8835 23.888C49.8195 24.176 49.6862 24.4587 49.4835 24.736C49.2915 25.0027 49.0408 25.2427 48.7315 25.456C48.4328 25.6693 48.0968 25.84 47.7235 25.968C47.3608 26.096 46.9768 26.16 46.5715 26.16ZM47.0035 24.64C47.5048 24.64 47.9475 24.5173 48.3315 24.272C48.7155 24.0267 49.0142 23.6907 49.2275 23.264C49.4515 22.8267 49.5635 22.3307 49.5635 21.776C49.5635 21.232 49.4515 20.7467 49.2275 20.32C49.0142 19.8933 48.7155 19.5573 48.3315 19.312C47.9475 19.0667 47.5048 18.944 47.0035 18.944C46.5128 18.944 46.0755 19.0667 45.6915 19.312C45.3182 19.5573 45.0195 19.8933 44.7955 20.32C44.5822 20.7467 44.4755 21.232 44.4755 21.776C44.4755 22.3307 44.5822 22.8267 44.7955 23.264C45.0195 23.6907 45.3182 24.0267 45.6915 24.272C46.0755 24.5173 46.5128 24.64 47.0035 24.64ZM53.4645 26V17.6H55.1285V20.24L54.9685 19.6C55.0858 19.1947 55.2832 18.8267 55.5605 18.496C55.8485 18.1653 56.1738 17.904 56.5365 17.712C56.9098 17.52 57.2938 17.424 57.6885 17.424C57.8698 17.424 58.0405 17.44 58.2005 17.472C58.3712 17.504 58.5045 17.5413 58.6005 17.584L58.1685 19.376C58.0405 19.3227 57.8965 19.28 57.7365 19.248C57.5872 19.2053 57.4378 19.184 57.2885 19.184C57.0005 19.184 56.7232 19.2427 56.4565 19.36C56.2005 19.4667 55.9712 19.6213 55.7685 19.824C55.5765 20.016 55.4218 20.2453 55.3045 20.512C55.1872 20.768 55.1285 21.0507 55.1285 21.36V26H53.4645ZM64.818 26V14.8H71.874V16.464H66.546V24.336H71.874V26H64.818ZM65.602 21.088V19.424H70.994V21.088H65.602ZM76.7478 26L73.1958 17.6H74.9718L77.5318 23.888L77.2278 24.032L79.9638 17.6H81.6597L77.9318 26H76.7478ZM86.8533 26.16C85.9893 26.16 85.2213 25.9787 84.5493 25.616C83.8879 25.2427 83.3653 24.736 82.9813 24.096C82.6079 23.456 82.4213 22.72 82.4213 21.888C82.4213 21.2267 82.5279 20.624 82.7413 20.08C82.9546 19.536 83.2479 19.0667 83.6213 18.672C84.0053 18.2667 84.4586 17.9573 84.9813 17.744C85.5146 17.52 86.0906 17.408 86.7093 17.408C87.2533 17.408 87.7599 17.5147 88.2293 17.728C88.6986 17.9307 89.1039 18.2133 89.4453 18.576C89.7973 18.9387 90.0639 19.3707 90.2453 19.872C90.4373 20.3627 90.5279 20.9013 90.5173 21.488L90.5013 22.192H83.6373L83.2693 20.88H89.0773L88.8373 21.152V20.768C88.8053 20.416 88.6879 20.1013 88.4853 19.824C88.2826 19.5467 88.0266 19.328 87.7173 19.168C87.4079 19.008 87.0719 18.928 86.7093 18.928C86.1333 18.928 85.6479 19.04 85.2533 19.264C84.8586 19.4773 84.5599 19.7973 84.3573 20.224C84.1546 20.64 84.0533 21.1573 84.0533 21.776C84.0533 22.3627 84.1759 22.8747 84.4213 23.312C84.6666 23.7387 85.0133 24.0693 85.4613 24.304C85.9093 24.5387 86.4266 24.656 87.0133 24.656C87.4293 24.656 87.8133 24.5867 88.1653 24.448C88.5279 24.3093 88.9173 24.0587 89.3333 23.696L90.1653 24.864C89.9093 25.12 89.5946 25.344 89.2213 25.536C88.8586 25.728 88.4693 25.8827 88.0533 26C87.6479 26.1067 87.2479 26.16 86.8533 26.16ZM92.3083 26V17.6H93.9563V19.328L93.6683 19.52C93.7749 19.1467 93.9829 18.8053 94.2923 18.496C94.6016 18.176 94.9696 17.92 95.3963 17.728C95.8229 17.5253 96.2603 17.424 96.7083 17.424C97.3483 17.424 97.8816 17.552 98.3083 17.808C98.7349 18.0533 99.0549 18.432 99.2683 18.944C99.4816 19.456 99.5883 20.1013 99.5883 20.88V26H97.9403V20.992C97.9403 20.512 97.8763 20.1173 97.7483 19.808C97.6203 19.488 97.4229 19.2587 97.1563 19.12C96.8896 18.9707 96.5589 18.9067 96.1643 18.928C95.8443 18.928 95.5509 18.9813 95.2843 19.088C95.0176 19.184 94.7829 19.3227 94.5803 19.504C94.3883 19.6853 94.2336 19.8987 94.1163 20.144C94.0096 20.3787 93.9563 20.6347 93.9563 20.912V26H93.1403C93.0016 26 92.8629 26 92.7243 26C92.5856 26 92.4469 26 92.3083 26ZM102.864 26V15.456H104.512V26H102.864ZM101.12 19.2V17.6H106.464V19.2H101.12ZM111.662 26.16C110.841 26.16 110.105 25.9733 109.454 25.6C108.814 25.216 108.308 24.6987 107.934 24.048C107.561 23.3867 107.374 22.6347 107.374 21.792C107.374 20.9493 107.561 20.2027 107.934 19.552C108.308 18.8907 108.814 18.3733 109.454 18C110.105 17.616 110.841 17.424 111.662 17.424C112.473 17.424 113.198 17.616 113.838 18C114.489 18.3733 115.001 18.8907 115.374 19.552C115.748 20.2027 115.934 20.9493 115.934 21.792C115.934 22.6347 115.748 23.3867 115.374 24.048C115.001 24.6987 114.489 25.216 113.838 25.6C113.198 25.9733 112.473 26.16 111.662 26.16ZM111.662 24.656C112.164 24.656 112.612 24.5333 113.006 24.288C113.401 24.032 113.71 23.6907 113.934 23.264C114.158 22.8267 114.265 22.336 114.254 21.792C114.265 21.2373 114.158 20.7467 113.934 20.32C113.71 19.8827 113.401 19.5413 113.006 19.296C112.612 19.0507 112.164 18.928 111.662 18.928C111.161 18.928 110.708 19.056 110.302 19.312C109.908 19.5573 109.598 19.8987 109.374 20.336C109.15 20.7627 109.044 21.248 109.054 21.792C109.044 22.336 109.15 22.8267 109.374 23.264C109.598 23.6907 109.908 24.032 110.302 24.288C110.708 24.5333 111.161 24.656 111.662 24.656Z" fill="#E1DDF4"/>
</svg>
