<svg width="193" height="40" viewBox="0 0 193 40" fill="none" xmlns="http://www.w3.org/2000/svg">
<rect x="0.5" y="0.5" width="192" height="39" rx="19.5" stroke="url(#paint0_linear_602_6548)"/>
<path d="M56.288 26.16C55.488 26.16 54.752 26.0213 54.08 25.744C53.408 25.456 52.8267 25.056 52.336 24.544C51.8453 24.0213 51.4613 23.408 51.184 22.704C50.9173 22 50.784 21.232 50.784 20.4C50.784 19.5787 50.9173 18.8267 51.184 18.144C51.4613 17.4507 51.8507 16.848 52.352 16.336C52.8533 15.8133 53.4347 15.4133 54.096 15.136C54.7573 14.8587 55.4827 14.72 56.272 14.72C56.7947 14.72 57.312 14.8053 57.824 14.976C58.336 15.136 58.8053 15.36 59.232 15.648C59.6693 15.936 60.0267 16.2667 60.304 16.64L59.44 17.536C59.1733 17.216 58.864 16.9387 58.512 16.704C58.1707 16.4693 57.808 16.288 57.424 16.16C57.04 16.032 56.656 15.968 56.272 15.968C55.6747 15.968 55.1147 16.08 54.592 16.304C54.08 16.5173 53.6373 16.8213 53.264 17.216C52.8907 17.6107 52.5973 18.08 52.384 18.624C52.1813 19.168 52.08 19.76 52.08 20.4C52.08 21.0613 52.1813 21.6693 52.384 22.224C52.5973 22.7787 52.896 23.2587 53.28 23.664C53.6747 24.0587 54.1333 24.368 54.656 24.592C55.1893 24.8053 55.7813 24.912 56.432 24.912C56.816 24.912 57.2 24.8587 57.584 24.752C57.968 24.6347 58.32 24.4747 58.64 24.272C58.96 24.0693 59.232 23.84 59.456 23.584L60.096 24.624C59.8507 24.9227 59.52 25.1893 59.104 25.424C58.6987 25.648 58.2507 25.8293 57.76 25.968C57.2693 26.096 56.7787 26.16 56.288 26.16ZM61.9805 26V17.648H63.1805L63.2125 19.872L63.0845 19.568C63.2018 19.1947 63.3885 18.848 63.6445 18.528C63.9112 18.208 64.2258 17.952 64.5885 17.76C64.9512 17.568 65.3512 17.472 65.7885 17.472C65.9698 17.472 66.1405 17.488 66.3005 17.52C66.4605 17.5413 66.5938 17.5733 66.7005 17.616L66.3645 18.96C66.2258 18.896 66.0818 18.8533 65.9325 18.832C65.7938 18.8 65.6605 18.784 65.5325 18.784C65.1698 18.784 64.8445 18.848 64.5565 18.976C64.2685 19.104 64.0232 19.2853 63.8205 19.52C63.6178 19.744 63.4632 20.0053 63.3565 20.304C63.2498 20.6027 63.1965 20.9227 63.1965 21.264V26H61.9805ZM68.2693 26V17.648H69.4693V26H68.2693ZM68.8613 15.84C68.5626 15.84 68.3333 15.7653 68.1733 15.616C68.0239 15.456 67.9493 15.2427 67.9493 14.976C67.9493 14.7093 68.0293 14.496 68.1893 14.336C68.3493 14.176 68.5733 14.096 68.8613 14.096C69.1493 14.096 69.3733 14.176 69.5333 14.336C69.6933 14.4853 69.7733 14.6987 69.7733 14.976C69.7733 15.232 69.6933 15.44 69.5333 15.6C69.3733 15.76 69.1493 15.84 68.8613 15.84ZM75.3539 26.16C74.6285 26.16 73.9725 25.9733 73.3859 25.6C72.7992 25.216 72.3352 24.6987 71.9939 24.048C71.6525 23.3867 71.4819 22.64 71.4819 21.808C71.4819 20.9653 71.6579 20.2187 72.0099 19.568C72.3619 18.9173 72.8312 18.4053 73.4179 18.032C74.0152 17.6587 74.6819 17.472 75.4179 17.472C75.8552 17.472 76.2605 17.536 76.6339 17.664C77.0072 17.792 77.3379 17.9733 77.6259 18.208C77.9245 18.432 78.1699 18.6987 78.3619 19.008C78.5645 19.3067 78.7032 19.632 78.7779 19.984L78.4259 19.808L78.4739 17.648H79.6739V26H78.4579V23.952L78.7779 23.744C78.7032 24.064 78.5592 24.3733 78.3459 24.672C78.1325 24.96 77.8712 25.216 77.5619 25.44C77.2632 25.664 76.9219 25.84 76.5379 25.968C76.1645 26.096 75.7699 26.16 75.3539 26.16ZM75.6259 25.008C76.1805 25.008 76.6765 24.8747 77.1139 24.608C77.5512 24.3307 77.8925 23.952 78.1379 23.472C78.3939 22.9813 78.5219 22.4267 78.5219 21.808C78.5219 21.1893 78.3939 20.64 78.1379 20.16C77.8925 19.68 77.5512 19.3013 77.1139 19.024C76.6765 18.7467 76.1805 18.608 75.6259 18.608C75.0605 18.608 74.5592 18.7467 74.1219 19.024C73.6952 19.3013 73.3539 19.68 73.0979 20.16C72.8525 20.64 72.7299 21.1893 72.7299 21.808C72.7299 22.416 72.8525 22.9653 73.0979 23.456C73.3432 23.936 73.6845 24.3147 74.1219 24.592C74.5592 24.8693 75.0605 25.008 75.6259 25.008ZM82.0118 26V17.648H83.2118L83.2438 19.872L83.1158 19.568C83.2331 19.1947 83.4198 18.848 83.6758 18.528C83.9424 18.208 84.2571 17.952 84.6198 17.76C84.9824 17.568 85.3824 17.472 85.8198 17.472C86.0011 17.472 86.1718 17.488 86.3318 17.52C86.4918 17.5413 86.6251 17.5733 86.7318 17.616L86.3958 18.96C86.2571 18.896 86.1131 18.8533 85.9638 18.832C85.8251 18.8 85.6918 18.784 85.5638 18.784C85.2011 18.784 84.8758 18.848 84.5878 18.976C84.2998 19.104 84.0544 19.2853 83.8518 19.52C83.6491 19.744 83.4944 20.0053 83.3878 20.304C83.2811 20.6027 83.2278 20.9227 83.2278 21.264V26H82.0118ZM92.9449 26V14.8H99.7289V16.016H94.1929V24.784H99.6969V26H92.9449ZM93.5209 20.848V19.632H98.8329V20.848H93.5209ZM104.401 26L100.881 17.648H102.209L104.993 24.48L104.673 24.656L107.729 17.648H109.009L105.265 26H104.401ZM113.864 26.16C113.032 26.16 112.29 25.9787 111.64 25.616C111 25.2533 110.498 24.7467 110.136 24.096C109.773 23.4453 109.592 22.6987 109.592 21.856C109.592 21.2053 109.693 20.6187 109.896 20.096C110.098 19.5627 110.381 19.0987 110.744 18.704C111.117 18.3093 111.56 18.0053 112.072 17.792C112.584 17.568 113.138 17.456 113.736 17.456C114.301 17.456 114.813 17.5573 115.272 17.76C115.741 17.9627 116.141 18.2453 116.472 18.608C116.813 18.96 117.069 19.3813 117.24 19.872C117.41 20.3627 117.485 20.9013 117.464 21.488L117.448 22.048H110.488L110.312 21.04H116.536L116.248 21.312V20.928C116.226 20.544 116.114 20.176 115.912 19.824C115.709 19.4613 115.421 19.168 115.048 18.944C114.685 18.72 114.248 18.608 113.736 18.608C113.138 18.608 112.621 18.7307 112.184 18.976C111.746 19.2107 111.41 19.5627 111.176 20.032C110.941 20.5013 110.824 21.0827 110.824 21.776C110.824 22.4373 110.952 23.0133 111.208 23.504C111.464 23.984 111.826 24.3573 112.296 24.624C112.776 24.8907 113.352 25.024 114.024 25.024C114.418 25.024 114.808 24.96 115.192 24.832C115.586 24.6933 116.018 24.4267 116.488 24.032L117.112 24.896C116.866 25.1413 116.573 25.36 116.232 25.552C115.89 25.7333 115.517 25.8827 115.112 26C114.706 26.1067 114.29 26.16 113.864 26.16ZM119.168 26V17.648H120.352L120.4 19.392L120.208 19.472C120.315 19.1093 120.523 18.7787 120.832 18.48C121.141 18.1813 121.509 17.9413 121.936 17.76C122.373 17.568 122.821 17.472 123.28 17.472C123.899 17.472 124.416 17.5947 124.832 17.84C125.248 18.0853 125.563 18.464 125.776 18.976C125.989 19.488 126.096 20.1387 126.096 20.928V26H124.88V20.992C124.88 20.4373 124.805 19.984 124.656 19.632C124.517 19.2693 124.299 19.0027 124 18.832C123.701 18.6613 123.333 18.5813 122.896 18.592C122.533 18.592 122.197 18.656 121.888 18.784C121.579 18.9013 121.312 19.0667 121.088 19.28C120.864 19.4933 120.688 19.7387 120.56 20.016C120.432 20.2933 120.368 20.592 120.368 20.912V26H119.776C119.701 26 119.616 26 119.52 26C119.424 26 119.307 26 119.168 26ZM129.539 26V15.456H130.739V26H129.539ZM127.651 18.8V17.648H132.851V18.8H127.651ZM137.942 26.16C137.11 26.16 136.369 25.9733 135.718 25.6C135.078 25.2267 134.571 24.7093 134.198 24.048C133.835 23.3867 133.654 22.6347 133.654 21.792C133.654 20.96 133.835 20.2187 134.198 19.568C134.571 18.9173 135.078 18.4053 135.718 18.032C136.369 17.6587 137.11 17.472 137.942 17.472C138.763 17.472 139.494 17.6587 140.134 18.032C140.785 18.4053 141.291 18.9173 141.654 19.568C142.027 20.2187 142.214 20.96 142.214 21.792C142.214 22.6347 142.027 23.3867 141.654 24.048C141.291 24.7093 140.785 25.2267 140.134 25.6C139.494 25.9733 138.763 26.16 137.942 26.16ZM137.942 25.024C138.529 25.024 139.051 24.8853 139.51 24.608C139.969 24.32 140.326 23.936 140.582 23.456C140.838 22.9653 140.966 22.4107 140.966 21.792C140.966 21.1733 140.838 20.624 140.582 20.144C140.326 19.664 139.969 19.2907 139.51 19.024C139.051 18.7467 138.529 18.608 137.942 18.608C137.355 18.608 136.827 18.7467 136.358 19.024C135.899 19.2907 135.537 19.6693 135.27 20.16C135.014 20.64 134.891 21.184 134.902 21.792C134.891 22.4107 135.014 22.9653 135.27 23.456C135.537 23.936 135.899 24.32 136.358 24.608C136.827 24.8853 137.355 25.024 137.942 25.024Z" fill="url(#paint1_linear_602_6548)"/>
<defs>
<linearGradient id="paint0_linear_602_6548" x1="193" y1="20" x2="0" y2="20" gradientUnits="userSpaceOnUse">
<stop stop-color="#43A3D5"/>
<stop offset="1" stop-color="#9C60DA"/>
</linearGradient>
<linearGradient id="paint1_linear_602_6548" x1="143" y1="20" x2="50" y2="20" gradientUnits="userSpaceOnUse">
<stop stop-color="#43A3D5"/>
<stop offset="1" stop-color="#9C60DA"/>
</linearGradient>
</defs>
</svg>
