<svg width="66" height="24" viewBox="0 0 66 24" fill="none" xmlns="http://www.w3.org/2000/svg">
<g clip-path="url(#clip0_170_754)">
<path d="M10.819 4.54804e-05C10.819 0.458616 10.819 0.917629 10.819 1.3762C10.819 2.46713 10.819 3.55806 10.819 4.64899C10.819 5.9451 10.819 7.24122 10.819 8.53733C10.819 9.61146 10.819 10.686 10.819 11.7602C10.819 12.5902 10.8963 13.4277 10.4736 14.1817C10.2133 14.646 9.84744 15.1019 9.4358 15.4415C8.20044 16.4613 6.57875 16.5453 6.18442 16.5572C5.77945 16.5718 4.35403 16.5749 3.01253 15.5618C1.59155 14.489 1.2372 13.0107 1.1586 12.634C1.07778 12.2156 0.907266 11.0411 1.49164 9.73483C2.10044 8.37371 3.15374 7.70863 3.5192 7.49947C3.96681 7.28411 5.50324 6.61416 7.39714 7.08114C8.79059 7.42473 9.68269 8.21231 10.0655 8.5957C10.3164 8.32153 10.5677 8.04781 10.8186 7.77364C10.4864 7.4265 9.98288 6.97766 9.28349 6.59117C8.40648 6.10607 7.59208 5.92388 7.0601 5.84826C6.45619 5.76557 5.31185 5.6926 3.997 6.1441C2.33313 6.71543 1.35709 7.79663 0.969877 8.27864C0.672804 8.76197 -0.285024 10.4543 0.08221 12.6397C0.299797 13.934 0.890835 14.8583 1.2594 15.3456C1.58978 15.7582 2.12043 16.3149 2.90241 16.7819C3.14619 16.9274 4.42152 17.6645 6.24171 17.653C7.57077 17.6446 8.54014 17.2413 8.827 17.1144C10.4354 16.402 11.764 15.0484 11.9141 13.2274C11.9341 12.9864 11.919 12.7476 11.919 12.5062C11.919 11.3047 11.919 10.1032 11.919 8.90215C11.919 6.49919 11.919 4.09667 11.919 1.69371C11.919 1.129 11.919 0.564304 11.919 -0.000396729L10.819 4.54804e-05Z" fill="#E1DDF4"/>
<path d="M25.6789 11.9273H24.6358C24.6505 12.3894 24.615 13.4733 23.9111 14.5381C22.7291 16.3291 20.6798 16.5126 20.4648 16.529C19.3782 16.6077 18.5288 16.2663 18.118 16.0668C19.7983 12.9714 21.4786 9.87592 23.1589 6.77869C22.7997 6.53238 22.2872 6.23742 21.6225 6.02959C20.5599 5.69616 19.6331 5.75276 19.0994 5.82661C18.5527 5.92965 17.5758 6.18745 16.5829 6.9087C15.407 7.76393 14.8378 8.81241 14.5984 9.33112C14.3866 9.92191 14.0931 10.9921 14.2476 12.3156C14.3542 13.2305 14.6299 13.881 14.7077 14.057C15.4324 15.7042 16.7214 16.5245 17.1477 16.7876C17.558 17.041 18.2081 17.3789 19.0852 17.5872C19.3773 17.6446 19.7579 17.6959 20.2042 17.6955C20.2042 17.6955 20.7184 17.6946 21.2197 17.6035C21.6509 17.5252 23.8778 17.011 25.0417 14.9131C25.7185 13.694 25.7207 12.5071 25.6789 11.9273ZM16.0771 14.3949C15.6948 13.8483 15.5163 13.3703 15.403 12.9612C15.3062 12.6119 15.0855 11.777 15.2934 10.7183C15.5101 9.61502 16.0678 8.90085 16.3422 8.55769C16.5727 8.26982 16.9968 7.77498 17.7135 7.34162C18.0465 7.14041 18.8489 6.71987 19.9435 6.73447C20.8396 6.74729 21.5155 7.04534 21.8552 7.22576C20.3303 9.93164 18.6979 12.8029 17.173 15.5101C16.8804 15.3704 16.4568 14.9374 16.0771 14.3949Z" fill="#E1DDF4"/>
<path d="M62.4312 11.9273H61.3881C61.4028 12.3894 61.3672 13.4733 60.6634 14.5381C59.4813 16.3291 57.432 16.5126 57.2171 16.529C56.1305 16.6077 55.281 16.2663 54.8703 16.0668C56.5506 12.9714 58.2309 9.87592 59.9112 6.77869C59.5519 6.53238 59.0395 6.23742 58.3747 6.02959C57.3121 5.69616 56.3854 5.75276 55.8516 5.82661C55.305 5.92965 54.3281 6.18745 53.3352 6.9087C52.1593 7.76393 51.59 8.81241 51.3507 9.33112C51.1389 9.92191 50.8453 10.9921 50.9999 12.3156C51.1064 13.2305 51.3822 13.881 51.4599 14.057C52.1846 15.7042 53.4737 16.5245 53.9 16.7876C54.3103 17.041 54.9604 17.3789 55.8374 17.5872C56.1296 17.6446 56.5102 17.6959 56.9564 17.6955C56.9564 17.6955 57.4707 17.6946 57.972 17.6035C58.4032 17.5252 60.6301 17.011 61.794 14.9131C62.4703 13.694 62.4725 12.5071 62.4312 11.9273ZM52.8289 14.3949C52.4466 13.8483 52.2681 13.3703 52.1549 12.9612C52.0581 12.6119 51.8374 11.777 52.0452 10.7183C52.2619 9.61502 52.8196 8.90085 53.094 8.55769C53.3245 8.26982 53.7486 7.77498 54.4653 7.34162C54.7983 7.14041 55.6007 6.71987 56.6953 6.73447C57.5914 6.74729 58.2673 7.04534 58.607 7.22576C57.0821 9.93164 55.4502 12.8029 53.9249 15.5101C53.6327 15.3704 53.2086 14.9374 52.8289 14.3949Z" fill="#E1DDF4"/>
<path d="M28.1408 17.3077V6.11538H29.3575V8.56742C29.6408 8.1146 30.215 7.33056 31.2132 6.69511C32.3899 5.94645 33.5294 5.80273 34.0791 5.77001C34.4886 5.75453 36.4171 5.72535 38.0477 7.18287C39.101 8.12477 39.8452 9.5164 39.8288 10.9469C39.8088 12.672 39.8146 14.4002 39.8146 16.1265C39.8146 16.5205 39.8146 16.9141 39.8146 17.3081H38.7719C38.7719 15.6901 38.7719 14.0725 38.7719 12.4544C38.7719 12.0631 38.7719 11.6722 38.7719 11.2808C38.7719 10.7948 38.8177 10.323 38.6178 9.86619C38.5006 9.59821 38.3532 9.33731 38.1929 9.09277C37.7417 8.40425 37.1285 7.82672 36.3967 7.44289C35.0876 6.75614 33.6893 6.78046 32.3633 7.39866C30.4703 8.28087 29.6102 9.94137 29.3291 10.5582C29.3291 12.8082 29.3291 15.0582 29.3291 17.3081L28.1408 17.3077Z" fill="#E1DDF4"/>
<path d="M42.6823 6.11538V7.29828H47.5775L42.1605 17.3077H49.3049V16.2694C47.5607 16.2694 45.8164 16.2694 44.0726 16.2694C45.8977 12.8847 47.7223 9.50004 49.5474 6.11538H42.6823Z" fill="#E1DDF4"/>
<path d="M66.0001 6.75909e-05H64.8269V17.6539H66.0001V6.75909e-05Z" fill="#E1DDF4"/>
<path d="M1.2598 18.0289V24H33.3046V18.0289H1.2598ZM7.60357 23.2642C6.35578 23.2642 5.34422 22.2568 5.34422 21.0142C5.34422 19.7716 6.35578 18.7642 7.60357 18.7642C8.85137 18.7642 9.86293 19.7716 9.86293 21.0142C9.86293 22.2568 8.85137 23.2642 7.60357 23.2642ZM14.1791 23.2642C12.9314 23.2642 11.9198 22.2568 11.9198 21.0142C11.9198 19.7716 12.9314 18.7642 14.1791 18.7642C15.4269 18.7642 16.4385 19.7716 16.4385 21.0142C16.4385 22.2568 15.4269 23.2642 14.1791 23.2642ZM20.5371 23.2642C19.2893 23.2642 18.2778 22.2568 18.2778 21.0142C18.2778 19.7716 19.2893 18.7642 20.5371 18.7642C21.7849 18.7642 22.7965 19.7716 22.7965 21.0142C22.7965 22.2568 21.7849 23.2642 20.5371 23.2642ZM26.9604 23.2642C25.7126 23.2642 24.701 22.2568 24.701 21.0142C24.701 19.7716 25.7126 18.7642 26.9604 18.7642C28.2082 18.7642 29.2198 19.7716 29.2198 21.0142C29.2198 22.2568 28.2082 23.2642 26.9604 23.2642Z" fill="#E1DDF4"/>
<path d="M51.0962 19.9971C50.705 20.0099 50.6255 20.2686 50.6255 20.748V21.2455H51.5669V20.748C51.5669 20.2686 51.4878 20.0099 51.0962 19.9971Z" fill="#E1DDF4"/>
<path d="M58.134 19.9971C57.7428 20.0099 57.6633 20.2686 57.6633 20.748V22.1918C57.6633 22.6716 57.7424 22.9299 58.134 22.9427C58.5252 22.9299 58.6047 22.6712 58.6047 22.1918V20.748C58.6047 20.2686 58.5252 20.0099 58.134 19.9971Z" fill="#E1DDF4"/>
<path d="M55.7454 19.9971C55.3542 20.0099 55.2747 20.2686 55.2747 20.748V21.2455H56.2161V20.748C56.2161 20.2686 56.1367 20.0099 55.7454 19.9971Z" fill="#E1DDF4"/>
<path d="M33.3051 18.0289V24H65.3051V18.0289H33.3051ZM37.6351 23.2788H37.2905V19.6518H37.6351V23.2788ZM39.9157 23.2788H38.3695V19.6518H38.7141V22.9431H39.9157V23.2788ZM42.1604 22.2236C42.1604 22.9131 41.8563 23.2642 41.3452 23.2788C40.834 23.2642 40.5299 22.9131 40.5299 22.2236V19.6518H40.8745V22.19C40.8745 22.6685 40.9535 22.9259 41.3452 22.9391C41.7364 22.9263 41.8159 22.6685 41.8159 22.19V19.6518H42.1604V22.2236ZM45.9145 23.2788H45.5814V20.3328L44.4624 21.8066L43.3434 20.3328V23.2788H43.0104V19.6518H43.311L44.4624 21.211L45.6139 19.6518H45.9145V23.2788ZM46.9913 23.2788H46.6467V19.6518H46.9913V23.2788ZM49.5753 23.2345H49.4079L48.1805 20.7803L48.1845 21.0138V23.2341H47.9043V19.696H48.0699L49.1445 22.0817L49.2405 22.3019L49.2294 22.0636V19.696H49.5753V23.2345ZM51.9115 23.2836H51.5669V21.5895H50.6255V23.2836H50.2809V20.7144C50.2809 20.0232 50.5851 19.6712 51.0962 19.6566C51.6073 19.6712 51.9115 20.0232 51.9115 20.7144V23.2836ZM53.5158 22.9387C53.8036 22.929 53.9217 22.7875 53.9652 22.523H54.308C54.2321 23.0015 53.9603 23.2527 53.5496 23.277C53.5092 23.3513 53.4572 23.4318 53.3959 23.5136C53.3538 23.5684 53.3102 23.6197 53.268 23.6648C53.2325 23.6423 53.197 23.6215 53.1597 23.5989C53.1841 23.5428 53.2099 23.4751 53.2294 23.3977C53.2441 23.3416 53.2538 23.2867 53.2601 23.2381C52.9044 23.1271 52.7006 22.7888 52.7006 22.2232V20.7157C52.7006 20.0263 53.0047 19.6752 53.5158 19.6606C53.9461 19.6734 54.2308 19.9246 54.3085 20.4159H53.9657C53.9221 20.1519 53.804 20.0099 53.5163 20.0002C53.1251 20.013 53.0456 20.2709 53.0456 20.7493V22.1892C53.0456 22.6681 53.1246 22.9259 53.5158 22.9387ZM56.5603 23.2836H56.2157V21.5895H55.2743V23.2836H54.9297V20.7144C54.9297 20.0232 55.2339 19.6712 55.745 19.6566C56.2561 19.6712 56.5603 20.0232 56.5603 20.7144V23.2836ZM56.3698 19.1848C56.3125 19.2011 56.2552 19.2091 56.1979 19.2091C56.043 19.2091 55.8862 19.1468 55.7281 19.0221C55.5239 18.862 55.3551 18.7819 55.2214 18.7819H55.201C55.0647 18.7899 54.9697 18.904 54.9151 19.1238H54.6291C54.689 18.774 54.8254 18.5679 55.0376 18.5056C55.0949 18.4892 55.1522 18.4812 55.2095 18.4812C55.3649 18.4812 55.5212 18.5423 55.6793 18.6643C55.8835 18.827 56.0523 18.9084 56.1859 18.9084H56.2064C56.3427 18.9 56.4377 18.7864 56.4923 18.5666H56.7743C56.717 18.9164 56.582 19.1224 56.3698 19.1848ZM58.9493 22.2254C58.9493 22.9166 58.6451 23.2686 58.134 23.2832C57.6229 23.2686 57.3187 22.9166 57.3187 22.2254V20.7144C57.3187 20.0232 57.6229 19.6712 58.134 19.6566C58.6451 19.6712 58.9493 20.0232 58.9493 20.7144V22.2254Z" fill="#E1DDF4"/>
</g>
<defs>
<clipPath id="clip0_170_754">
<rect width="66" height="24" fill="white"/>
</clipPath>
</defs>
</svg>
