<svg width="141" height="40" viewBox="0 0 141 40" fill="none" xmlns="http://www.w3.org/2000/svg">
<rect width="141" height="40" rx="20" fill="#E1DDF4"/>
<path d="M38.9999 9.99988H47.9999C49.0999 9.99988 49.9999 10.8999 49.9999 11.9999V27.9999C49.9999 29.0999 49.0999 29.9999 47.9999 29.9999H38.9999C37.8999 29.9999 36.9999 29.0999 36.9999 27.9999V26.9999C36.9999 26.7347 37.1053 26.4803 37.2928 26.2928C37.4804 26.1052 37.7347 25.9999 37.9999 25.9999C38.2652 25.9999 38.5195 26.1052 38.707 26.2928C38.8946 26.4803 38.9999 26.7347 38.9999 26.9999V27.9999H47.9999V11.9999H38.9999V12.9999C38.9999 13.2651 38.8946 13.5194 38.707 13.707C38.5195 13.8945 38.2652 13.9999 37.9999 13.9999C37.7347 13.9999 37.4804 13.8945 37.2928 13.707C37.1053 13.5194 36.9999 13.2651 36.9999 12.9999V11.9999C36.9999 10.8999 37.8999 9.99988 38.9999 9.99988Z" fill="#1D1933"/>
<path d="M40.795 24.2951C41.185 24.6851 41.815 24.6851 42.205 24.2951L45.793 20.7071C45.9805 20.5196 46.0858 20.2653 46.0858 20.0001C46.0858 19.735 45.9805 19.4807 45.793 19.2931L42.205 15.7051C42.0149 15.5333 41.7661 15.4411 41.5099 15.4476C41.2538 15.454 41.0099 15.5587 40.8287 15.7399C40.6476 15.921 40.5429 16.1649 40.5365 16.4211C40.53 16.6772 40.6222 16.926 40.794 17.1161L42.67 19.0001H34C33.7348 19.0001 33.4804 19.1055 33.2929 19.293C33.1054 19.4806 33 19.7349 33 20.0001C33 20.2653 33.1054 20.5197 33.2929 20.7072C33.4804 20.8948 33.7348 21.0001 34 21.0001H42.67L40.794 22.8841C40.6076 23.0717 40.503 23.3254 40.5032 23.5898C40.5034 23.8543 40.6083 24.1079 40.795 24.2951Z" fill="#1D1933"/>
<path d="M65.648 26V14.8H72.432V16.016H66.896V24.784H72.4V26H65.648ZM66.224 20.848V19.632H71.536V20.848H66.224ZM74.7461 26V17.648H75.9301L75.9781 19.392L75.7861 19.472C75.8928 19.1093 76.1008 18.7787 76.4101 18.48C76.7195 18.1813 77.0875 17.9413 77.5141 17.76C77.9515 17.568 78.3995 17.472 78.8581 17.472C79.4768 17.472 79.9941 17.5947 80.4101 17.84C80.8261 18.0853 81.1408 18.464 81.3541 18.976C81.5675 19.488 81.6741 20.1387 81.6741 20.928V26H80.4581V20.992C80.4581 20.4373 80.3835 19.984 80.2341 19.632C80.0955 19.2693 79.8768 19.0027 79.5781 18.832C79.2795 18.6613 78.9115 18.5813 78.4741 18.592C78.1115 18.592 77.7755 18.656 77.4661 18.784C77.1568 18.9013 76.8901 19.0667 76.6661 19.28C76.4421 19.4933 76.2661 19.7387 76.1381 20.016C76.0101 20.2933 75.9461 20.592 75.9461 20.912V26H75.3541C75.2795 26 75.1941 26 75.0981 26C75.0021 26 74.8848 26 74.7461 26ZM85.1169 26V15.456H86.3169V26H85.1169ZM83.2289 18.8V17.648H88.4289V18.8H83.2289ZM89.9024 26V17.648H91.1024L91.1344 19.872L91.0064 19.568C91.1237 19.1947 91.3104 18.848 91.5664 18.528C91.833 18.208 92.1477 17.952 92.5104 17.76C92.873 17.568 93.273 17.472 93.7104 17.472C93.8917 17.472 94.0624 17.488 94.2224 17.52C94.3824 17.5413 94.5157 17.5733 94.6224 17.616L94.2864 18.96C94.1477 18.896 94.0037 18.8533 93.8544 18.832C93.7157 18.8 93.5824 18.784 93.4544 18.784C93.0917 18.784 92.7664 18.848 92.4784 18.976C92.1904 19.104 91.945 19.2853 91.7424 19.52C91.5397 19.744 91.385 20.0053 91.2784 20.304C91.1717 20.6027 91.1184 20.9227 91.1184 21.264V26H89.9024ZM98.7758 26.16C98.0504 26.16 97.3944 25.9733 96.8078 25.6C96.2211 25.216 95.7571 24.6987 95.4158 24.048C95.0744 23.3867 94.9038 22.64 94.9038 21.808C94.9038 20.9653 95.0798 20.2187 95.4318 19.568C95.7838 18.9173 96.2531 18.4053 96.8398 18.032C97.4371 17.6587 98.1038 17.472 98.8398 17.472C99.2771 17.472 99.6824 17.536 100.056 17.664C100.429 17.792 100.76 17.9733 101.048 18.208C101.346 18.432 101.592 18.6987 101.784 19.008C101.986 19.3067 102.125 19.632 102.2 19.984L101.848 19.808L101.896 17.648H103.096V26H101.88V23.952L102.2 23.744C102.125 24.064 101.981 24.3733 101.768 24.672C101.554 24.96 101.293 25.216 100.984 25.44C100.685 25.664 100.344 25.84 99.9598 25.968C99.5864 26.096 99.1918 26.16 98.7758 26.16ZM99.0477 25.008C99.6024 25.008 100.098 24.8747 100.536 24.608C100.973 24.3307 101.314 23.952 101.56 23.472C101.816 22.9813 101.944 22.4267 101.944 21.808C101.944 21.1893 101.816 20.64 101.56 20.16C101.314 19.68 100.973 19.3013 100.536 19.024C100.098 18.7467 99.6024 18.608 99.0477 18.608C98.4824 18.608 97.9811 18.7467 97.5438 19.024C97.1171 19.3013 96.7758 19.68 96.5198 20.16C96.2744 20.64 96.1518 21.1893 96.1518 21.808C96.1518 22.416 96.2744 22.9653 96.5198 23.456C96.7651 23.936 97.1064 24.3147 97.5438 24.592C97.9811 24.8693 98.4824 25.008 99.0477 25.008ZM105.434 26V17.648H106.634L106.666 19.872L106.538 19.568C106.655 19.1947 106.842 18.848 107.098 18.528C107.364 18.208 107.679 17.952 108.042 17.76C108.404 17.568 108.804 17.472 109.242 17.472C109.423 17.472 109.594 17.488 109.754 17.52C109.914 17.5413 110.047 17.5733 110.154 17.616L109.818 18.96C109.679 18.896 109.535 18.8533 109.386 18.832C109.247 18.8 109.114 18.784 108.986 18.784C108.623 18.784 108.298 18.848 108.01 18.976C107.722 19.104 107.476 19.2853 107.274 19.52C107.071 19.744 106.916 20.0053 106.81 20.304C106.703 20.6027 106.65 20.9227 106.65 21.264V26H105.434Z" fill="#1D1933"/>
</svg>
