<svg width="176" height="40" viewBox="0 0 176 40" fill="none" xmlns="http://www.w3.org/2000/svg">
<rect width="176" height="40" rx="20" fill="url(#paint0_linear_5_500)"/>
<g clip-path="url(#clip0_5_500)">
<path d="M65.7495 12.3772C65.9459 12.5175 66.0262 12.7047 65.9905 12.9386L63.7049 26.4123C63.6751 26.5819 63.5799 26.7134 63.4192 26.807C63.3359 26.8538 63.2436 26.8772 63.1424 26.8772C63.077 26.8772 63.0055 26.8626 62.9282 26.8333L58.223 24.9474L55.5624 27.8158C55.4553 27.9386 55.3154 28 55.1428 28C55.0595 28 54.991 27.9883 54.9374 27.9649C54.8244 27.924 54.7351 27.8553 54.6696 27.7588C54.6041 27.6623 54.5714 27.5556 54.5714 27.4386V23.4737L50.3573 21.7807C50.1371 21.6988 50.018 21.538 50.0002 21.2982C49.9823 21.0702 50.0775 20.8977 50.2859 20.7807L65.1423 12.3596C65.3507 12.2368 65.553 12.2427 65.7495 12.3772ZM62.696 25.5263L64.6691 13.9211L51.8661 21.1754L54.866 22.3772L62.571 16.7719L58.3034 23.7632L62.696 25.5263Z" fill="#E1DDF4"/>
</g>
<path d="M77.568 26V14.8H84.624V16.464H79.296V24.336H84.624V26H77.568ZM78.352 21.088V19.424H83.744V21.088H78.352ZM86.9801 26V17.6H88.6281V19.328L88.3401 19.52C88.4468 19.1467 88.6548 18.8053 88.9641 18.496C89.2735 18.176 89.6415 17.92 90.0681 17.728C90.4948 17.5253 90.9321 17.424 91.3801 17.424C92.0201 17.424 92.5535 17.552 92.9801 17.808C93.4068 18.0533 93.7268 18.432 93.9401 18.944C94.1535 19.456 94.2601 20.1013 94.2601 20.88V26H92.6121V20.992C92.6121 20.512 92.5481 20.1173 92.4201 19.808C92.2921 19.488 92.0948 19.2587 91.8281 19.12C91.5615 18.9707 91.2308 18.9067 90.8361 18.928C90.5161 18.928 90.2228 18.9813 89.9561 19.088C89.6895 19.184 89.4548 19.3227 89.2521 19.504C89.0601 19.6853 88.9055 19.8987 88.7881 20.144C88.6815 20.3787 88.6281 20.6347 88.6281 20.912V26H87.8121C87.6735 26 87.5348 26 87.3961 26C87.2575 26 87.1188 26 86.9801 26ZM99.2478 26L95.6958 17.6H97.4718L100.032 23.888L99.7278 24.032L102.464 17.6H104.16L100.432 26H99.2478ZM105.94 26V17.6H107.588V26H105.94ZM106.74 15.744C106.388 15.744 106.116 15.6533 105.924 15.472C105.732 15.2907 105.636 15.0347 105.636 14.704C105.636 14.3947 105.732 14.144 105.924 13.952C106.126 13.76 106.398 13.664 106.74 13.664C107.092 13.664 107.364 13.7547 107.556 13.936C107.748 14.1173 107.844 14.3733 107.844 14.704C107.844 15.0133 107.742 15.264 107.54 15.456C107.348 15.648 107.081 15.744 106.74 15.744ZM113.353 26.16C112.659 26.16 112.025 25.968 111.449 25.584C110.883 25.2 110.43 24.6773 110.089 24.016C109.747 23.3547 109.577 22.608 109.577 21.776C109.577 20.9333 109.747 20.1867 110.089 19.536C110.441 18.8747 110.91 18.3573 111.497 17.984C112.094 17.6107 112.761 17.424 113.497 17.424C113.934 17.424 114.334 17.488 114.697 17.616C115.059 17.744 115.374 17.9253 115.641 18.16C115.918 18.384 116.142 18.6453 116.313 18.944C116.494 19.2427 116.606 19.5627 116.649 19.904L116.281 19.776V17.6H117.945V26H116.281V24L116.665 23.888C116.601 24.176 116.467 24.4587 116.265 24.736C116.073 25.0027 115.822 25.2427 115.513 25.456C115.214 25.6693 114.878 25.84 114.505 25.968C114.142 26.096 113.758 26.16 113.353 26.16ZM113.785 24.64C114.286 24.64 114.729 24.5173 115.113 24.272C115.497 24.0267 115.795 23.6907 116.009 23.264C116.233 22.8267 116.345 22.3307 116.345 21.776C116.345 21.232 116.233 20.7467 116.009 20.32C115.795 19.8933 115.497 19.5573 115.113 19.312C114.729 19.0667 114.286 18.944 113.785 18.944C113.294 18.944 112.857 19.0667 112.473 19.312C112.099 19.5573 111.801 19.8933 111.577 20.32C111.363 20.7467 111.257 21.232 111.257 21.776C111.257 22.3307 111.363 22.8267 111.577 23.264C111.801 23.6907 112.099 24.0267 112.473 24.272C112.857 24.5173 113.294 24.64 113.785 24.64ZM120.246 26V17.6H121.91V20.24L121.75 19.6C121.867 19.1947 122.064 18.8267 122.342 18.496C122.63 18.1653 122.955 17.904 123.318 17.712C123.691 17.52 124.075 17.424 124.47 17.424C124.651 17.424 124.822 17.44 124.982 17.472C125.152 17.504 125.286 17.5413 125.382 17.584L124.95 19.376C124.822 19.3227 124.678 19.28 124.518 19.248C124.368 19.2053 124.219 19.184 124.07 19.184C123.782 19.184 123.504 19.2427 123.238 19.36C122.982 19.4667 122.752 19.6213 122.55 19.824C122.358 20.016 122.203 20.2453 122.086 20.512C121.968 20.768 121.91 21.0507 121.91 21.36V26H120.246Z" fill="#E1DDF4"/>
<defs>
<linearGradient id="paint0_linear_5_500" x1="176" y1="20" x2="0" y2="20" gradientUnits="userSpaceOnUse">
<stop stop-color="#43A3D5"/>
<stop offset="1" stop-color="#9C60DA"/>
</linearGradient>
<clipPath id="clip0_5_500">
<rect width="16" height="16" fill="white" transform="translate(50 12)"/>
</clipPath>
</defs>
</svg>
