<svg width="166" height="40" viewBox="0 0 166 40" fill="none" xmlns="http://www.w3.org/2000/svg">
<path d="M20.2487 19.2826L19.9521 18.979C19.4876 18.5059 19.2255 17.8634 19.2237 17.1926C19.2218 16.5218 19.4803 15.8777 19.9422 15.4019L22.5567 12.7407C23.0201 12.2664 23.6485 12 24.3038 12C24.959 12 25.5875 12.2664 26.0509 12.7407L30.2765 17.0665C30.7398 17.5409 31 18.1842 31 18.855C31 19.5258 30.7398 20.1692 30.2765 20.6435L27.6769 23.3048C27.2135 23.7791 26.585 24.0455 25.9298 24.0455C25.2745 24.0455 24.6461 23.7791 24.1827 23.3048L23.9603 23.0771L22.9224 24.1902H21.2223V25.7081H19.3986V26.5328L17.9653 28H15V24.6861L20.2487 19.2826ZM24.4792 15.9484L27.1728 18.7108C27.2654 18.8051 27.3906 18.858 27.5212 18.858C27.6518 18.858 27.777 18.8051 27.8696 18.7108L28.0673 18.5085C28.1594 18.4137 28.211 18.2854 28.211 18.1518C28.211 18.0181 28.1594 17.8899 28.0673 17.7951L25.3787 15.0275C25.2861 14.9333 25.1609 14.8804 25.0303 14.8804C24.8997 14.8804 24.7745 14.9333 24.6819 15.0275L24.4842 15.2299C24.4375 15.2766 24.4004 15.3323 24.3749 15.3938C24.3493 15.4553 24.336 15.5213 24.3355 15.5881C24.335 15.6549 24.3475 15.7211 24.3722 15.7829C24.3968 15.8448 24.4332 15.901 24.4792 15.9484ZM15.9885 26.9881H17.5403L18.4151 26.0976V24.681H20.2338V23.1632H22.5122L23.2634 22.3486L20.9307 19.9959L15.9885 25.106V26.9881Z" fill="#E1DDF4"/>
<path d="M42.648 26V14.8H49.432V16.016H43.896V24.784H49.4V26H42.648ZM43.224 20.848V19.632H48.536V20.848H43.224ZM54.4821 26.16C53.7675 26.16 53.1275 26.0267 52.5621 25.76C51.9968 25.4933 51.5488 25.1413 51.2181 24.704L52.0661 23.968C52.3755 24.3413 52.7381 24.624 53.1541 24.816C53.5808 25.008 54.0555 25.104 54.5781 25.104C54.8448 25.104 55.0848 25.0773 55.2981 25.024C55.5115 24.96 55.6981 24.8693 55.8581 24.752C56.0181 24.6347 56.1408 24.496 56.2261 24.336C56.3115 24.176 56.3541 24 56.3541 23.808C56.3541 23.456 56.1995 23.1627 55.8901 22.928C55.7515 22.832 55.5541 22.736 55.2981 22.64C55.0421 22.5333 54.7328 22.432 54.3701 22.336C53.7728 22.1653 53.2768 21.9947 52.8821 21.824C52.4875 21.6427 52.1781 21.4347 51.9541 21.2C51.7941 21.008 51.6715 20.8 51.5861 20.576C51.5115 20.352 51.4741 20.1067 51.4741 19.84C51.4741 19.4987 51.5435 19.184 51.6821 18.896C51.8315 18.608 52.0341 18.3573 52.2901 18.144C52.5568 17.92 52.8661 17.7547 53.2181 17.648C53.5808 17.5307 53.9701 17.472 54.3861 17.472C54.7808 17.472 55.1701 17.5253 55.5541 17.632C55.9381 17.7387 56.2955 17.8933 56.6261 18.096C56.9568 18.2987 57.2395 18.5387 57.4741 18.816L56.7381 19.616C56.5355 19.4027 56.3115 19.2107 56.0661 19.04C55.8208 18.8693 55.5595 18.736 55.2821 18.64C55.0155 18.544 54.7381 18.496 54.4501 18.496C54.1941 18.496 53.9541 18.528 53.7301 18.592C53.5168 18.656 53.3301 18.7467 53.1701 18.864C53.0208 18.9707 52.9035 19.104 52.8181 19.264C52.7435 19.424 52.7061 19.6 52.7061 19.792C52.7061 19.952 52.7381 20.096 52.8021 20.224C52.8661 20.352 52.9568 20.464 53.0741 20.56C53.2235 20.6773 53.4315 20.7893 53.6981 20.896C53.9755 20.992 54.3168 21.0933 54.7221 21.2C55.1915 21.328 55.5861 21.4613 55.9061 21.6C56.2368 21.728 56.5088 21.8827 56.7221 22.064C57.0101 22.2773 57.2128 22.5227 57.3301 22.8C57.4581 23.0773 57.5221 23.392 57.5221 23.744C57.5221 24.2133 57.3888 24.6293 57.1221 24.992C56.8661 25.3547 56.5088 25.6427 56.0501 25.856C55.5915 26.0587 55.0688 26.16 54.4821 26.16ZM65.7864 29.52V23.952L66.0424 23.808C65.9997 24.1067 65.877 24.4 65.6744 24.688C65.4824 24.9653 65.237 25.216 64.9384 25.44C64.6397 25.664 64.3037 25.84 63.9304 25.968C63.557 26.096 63.173 26.16 62.7784 26.16C62.021 26.16 61.3437 25.9733 60.7464 25.6C60.149 25.2267 59.6744 24.7147 59.3224 24.064C58.981 23.4027 58.8104 22.656 58.8104 21.824C58.8104 20.9813 58.981 20.2347 59.3224 19.584C59.6744 18.9227 60.149 18.4053 60.7464 18.032C61.3437 17.6587 62.0104 17.472 62.7464 17.472C63.173 17.472 63.573 17.5413 63.9464 17.68C64.3304 17.808 64.677 17.984 64.9864 18.208C65.2957 18.432 65.5517 18.6933 65.7544 18.992C65.957 19.28 66.0797 19.584 66.1224 19.904L65.7384 19.808L65.7864 17.632H66.9864V29.52H65.7864ZM62.9224 25.008C63.477 25.008 63.973 24.8747 64.4104 24.608C64.8584 24.3307 65.2104 23.952 65.4664 23.472C65.7224 22.992 65.8504 22.4373 65.8504 21.808C65.8504 21.1893 65.7224 20.64 65.4664 20.16C65.2104 19.68 64.8637 19.3013 64.4264 19.024C63.989 18.7467 63.4877 18.608 62.9224 18.608C62.357 18.608 61.8557 18.7467 61.4184 19.024C60.981 19.3013 60.6344 19.68 60.3784 20.16C60.133 20.64 60.0104 21.1893 60.0104 21.808C60.0104 22.416 60.133 22.9653 60.3784 23.456C60.6237 23.936 60.965 24.3147 61.4024 24.592C61.8397 24.8693 62.3464 25.008 62.9224 25.008ZM72.2843 26.16C71.6443 26.16 71.1003 26.032 70.6523 25.776C70.2149 25.5093 69.8789 25.1253 69.6443 24.624C69.4203 24.1227 69.3083 23.4987 69.3083 22.752V17.648H70.5243V22.512C70.5243 23.0773 70.5989 23.552 70.7483 23.936C70.9083 24.3093 71.1429 24.592 71.4523 24.784C71.7723 24.976 72.1616 25.072 72.6203 25.072C72.9723 25.072 73.2976 25.0133 73.5963 24.896C73.8949 24.768 74.1563 24.5973 74.3803 24.384C74.6043 24.1707 74.7803 23.92 74.9083 23.632C75.0363 23.344 75.1003 23.04 75.1003 22.72V17.648H76.3003V26H75.1163L75.0683 24.24L75.2603 24.144C75.1323 24.5173 74.9189 24.8587 74.6203 25.168C74.3216 25.4667 73.9643 25.7067 73.5483 25.888C73.1429 26.0693 72.7216 26.16 72.2843 26.16ZM82.3168 26.16C81.4848 26.16 80.7434 25.9787 80.0928 25.616C79.4528 25.2533 78.9514 24.7467 78.5888 24.096C78.2261 23.4453 78.0448 22.6987 78.0448 21.856C78.0448 21.2053 78.1461 20.6187 78.3488 20.096C78.5514 19.5627 78.8341 19.0987 79.1968 18.704C79.5701 18.3093 80.0128 18.0053 80.5248 17.792C81.0368 17.568 81.5914 17.456 82.1888 17.456C82.7541 17.456 83.2661 17.5573 83.7248 17.76C84.1941 17.9627 84.5941 18.2453 84.9248 18.608C85.2661 18.96 85.5221 19.3813 85.6927 19.872C85.8634 20.3627 85.9381 20.9013 85.9167 21.488L85.9008 22.048H78.9408L78.7648 21.04H84.9888L84.7008 21.312V20.928C84.6794 20.544 84.5674 20.176 84.3648 19.824C84.1621 19.4613 83.8741 19.168 83.5008 18.944C83.1381 18.72 82.7008 18.608 82.1888 18.608C81.5914 18.608 81.0741 18.7307 80.6368 18.976C80.1994 19.2107 79.8634 19.5627 79.6288 20.032C79.3941 20.5013 79.2768 21.0827 79.2768 21.776C79.2768 22.4373 79.4048 23.0133 79.6608 23.504C79.9168 23.984 80.2794 24.3573 80.7488 24.624C81.2288 24.8907 81.8048 25.024 82.4768 25.024C82.8714 25.024 83.2608 24.96 83.6448 24.832C84.0394 24.6933 84.4714 24.4267 84.9408 24.032L85.5648 24.896C85.3194 25.1413 85.0261 25.36 84.6848 25.552C84.3434 25.7333 83.9701 25.8827 83.5648 26C83.1594 26.1067 82.7434 26.16 82.3168 26.16ZM91.1411 26.16C90.3518 26.16 89.6478 25.9733 89.0291 25.6C88.4105 25.216 87.9198 24.6987 87.5571 24.048C87.2051 23.3867 87.0291 22.64 87.0291 21.808C87.0291 20.976 87.2051 20.2347 87.5571 19.584C87.9198 18.9227 88.4105 18.4053 89.0291 18.032C89.6478 17.6587 90.3571 17.472 91.1571 17.472C91.8718 17.472 92.5225 17.616 93.1091 17.904C93.6958 18.1813 94.1651 18.5707 94.5171 19.072L93.8131 19.936C93.6105 19.6693 93.3651 19.4347 93.0771 19.232C92.7998 19.0293 92.4958 18.8747 92.1651 18.768C91.8451 18.6507 91.5251 18.592 91.2051 18.592C90.6398 18.592 90.1331 18.736 89.6851 19.024C89.2371 19.3013 88.8798 19.68 88.6131 20.16C88.3571 20.64 88.2291 21.1893 88.2291 21.808C88.2291 22.4267 88.3571 22.9813 88.6131 23.472C88.8798 23.952 89.2371 24.3307 89.6851 24.608C90.1331 24.8853 90.6345 25.024 91.1891 25.024C91.5091 25.024 91.8238 24.976 92.1331 24.88C92.4425 24.7733 92.7358 24.624 93.0131 24.432C93.2905 24.24 93.5465 24 93.7811 23.712L94.4851 24.576C94.1225 25.056 93.6371 25.44 93.0291 25.728C92.4211 26.016 91.7918 26.16 91.1411 26.16ZM96.363 26V17.648H97.563V26H96.363ZM96.955 15.84C96.6563 15.84 96.427 15.7653 96.267 15.616C96.1177 15.456 96.043 15.2427 96.043 14.976C96.043 14.7093 96.123 14.496 96.283 14.336C96.443 14.176 96.667 14.096 96.955 14.096C97.243 14.096 97.467 14.176 97.627 14.336C97.787 14.4853 97.867 14.6987 97.867 14.976C97.867 15.232 97.787 15.44 97.627 15.6C97.467 15.76 97.243 15.84 96.955 15.84ZM108.412 26.16C107.847 26.16 107.313 26.08 106.812 25.92C106.311 25.76 105.852 25.52 105.436 25.2C105.02 24.88 104.652 24.4853 104.332 24.016L105.196 23.056C105.697 23.7707 106.209 24.272 106.732 24.56C107.265 24.848 107.863 24.992 108.524 24.992C109.004 24.992 109.441 24.912 109.836 24.752C110.231 24.592 110.54 24.368 110.764 24.08C110.988 23.792 111.1 23.4613 111.1 23.088C111.1 22.8427 111.057 22.624 110.972 22.432C110.897 22.24 110.78 22.0693 110.62 21.92C110.46 21.7707 110.263 21.6373 110.028 21.52C109.793 21.4027 109.521 21.296 109.212 21.2C108.913 21.104 108.577 21.008 108.204 20.912C107.66 20.784 107.18 20.6347 106.764 20.464C106.359 20.2827 106.012 20.064 105.724 19.808C105.447 19.552 105.233 19.2587 105.084 18.928C104.945 18.5867 104.876 18.1867 104.876 17.728C104.876 17.2907 104.967 16.8853 105.148 16.512C105.34 16.1387 105.601 15.8187 105.932 15.552C106.263 15.2747 106.652 15.0613 107.1 14.912C107.548 14.7627 108.028 14.688 108.54 14.688C109.116 14.688 109.628 14.768 110.076 14.928C110.535 15.0773 110.94 15.3013 111.292 15.6C111.644 15.8987 111.948 16.256 112.204 16.672L111.324 17.536C111.1 17.184 110.844 16.88 110.556 16.624C110.279 16.368 109.969 16.176 109.628 16.048C109.297 15.9093 108.929 15.84 108.524 15.84C108.055 15.84 107.639 15.92 107.276 16.08C106.924 16.24 106.647 16.464 106.444 16.752C106.241 17.0293 106.14 17.3493 106.14 17.712C106.14 17.9787 106.188 18.2187 106.284 18.432C106.38 18.6347 106.529 18.816 106.732 18.976C106.945 19.1253 107.217 19.264 107.548 19.392C107.889 19.5093 108.295 19.6213 108.764 19.728C109.319 19.856 109.815 20.0107 110.252 20.192C110.7 20.3733 111.079 20.592 111.388 20.848C111.708 21.0933 111.948 21.3813 112.108 21.712C112.279 22.0427 112.364 22.4213 112.364 22.848C112.364 23.5093 112.199 24.0907 111.868 24.592C111.537 25.0827 111.073 25.4667 110.476 25.744C109.889 26.0213 109.201 26.16 108.412 26.16ZM118.082 26.16C117.25 26.16 116.509 25.9787 115.858 25.616C115.218 25.2533 114.717 24.7467 114.354 24.096C113.992 23.4453 113.81 22.6987 113.81 21.856C113.81 21.2053 113.912 20.6187 114.114 20.096C114.317 19.5627 114.6 19.0987 114.962 18.704C115.336 18.3093 115.778 18.0053 116.29 17.792C116.802 17.568 117.357 17.456 117.954 17.456C118.52 17.456 119.032 17.5573 119.49 17.76C119.96 17.9627 120.36 18.2453 120.69 18.608C121.032 18.96 121.288 19.3813 121.458 19.872C121.629 20.3627 121.704 20.9013 121.682 21.488L121.666 22.048H114.706L114.53 21.04H120.754L120.466 21.312V20.928C120.445 20.544 120.333 20.176 120.13 19.824C119.928 19.4613 119.64 19.168 119.266 18.944C118.904 18.72 118.466 18.608 117.954 18.608C117.357 18.608 116.84 18.7307 116.402 18.976C115.965 19.2107 115.629 19.5627 115.394 20.032C115.16 20.5013 115.042 21.0827 115.042 21.776C115.042 22.4373 115.17 23.0133 115.426 23.504C115.682 23.984 116.045 24.3573 116.514 24.624C116.994 24.8907 117.57 25.024 118.242 25.024C118.637 25.024 119.026 24.96 119.41 24.832C119.805 24.6933 120.237 24.4267 120.706 24.032L121.33 24.896C121.085 25.1413 120.792 25.36 120.45 25.552C120.109 25.7333 119.736 25.8827 119.33 26C118.925 26.1067 118.509 26.16 118.082 26.16ZM123.387 26V17.648H124.571L124.619 19.392L124.427 19.472C124.533 19.1093 124.741 18.7787 125.051 18.48C125.36 18.1813 125.728 17.9413 126.155 17.76C126.592 17.568 127.04 17.472 127.499 17.472C128.117 17.472 128.635 17.5947 129.051 17.84C129.467 18.0853 129.781 18.464 129.995 18.976C130.208 19.488 130.315 20.1387 130.315 20.928V26H129.099V20.992C129.099 20.4373 129.024 19.984 128.875 19.632C128.736 19.2693 128.517 19.0027 128.219 18.832C127.92 18.6613 127.552 18.5813 127.115 18.592C126.752 18.592 126.416 18.656 126.107 18.784C125.797 18.9013 125.531 19.0667 125.307 19.28C125.083 19.4933 124.907 19.7387 124.779 20.016C124.651 20.2933 124.587 20.592 124.587 20.912V26H123.995C123.92 26 123.835 26 123.739 26C123.643 26 123.525 26 123.387 26ZM132.606 26V14.16H133.806V19.472L133.566 19.712C133.683 19.2747 133.902 18.8907 134.222 18.56C134.542 18.2187 134.915 17.952 135.342 17.76C135.779 17.568 136.222 17.472 136.67 17.472C137.31 17.472 137.843 17.5947 138.27 17.84C138.696 18.0853 139.011 18.464 139.214 18.976C139.427 19.488 139.534 20.1387 139.534 20.928V26H138.318V20.992C138.318 20.4373 138.243 19.984 138.094 19.632C137.955 19.2693 137.736 19.0027 137.438 18.832C137.139 18.6613 136.766 18.5813 136.318 18.592C135.966 18.592 135.635 18.656 135.326 18.784C135.016 18.9013 134.75 19.0667 134.526 19.28C134.302 19.4933 134.126 19.7387 133.998 20.016C133.87 20.2933 133.806 20.592 133.806 20.912V26H133.214C133.139 26 133.054 26 132.958 26C132.862 26 132.744 26 132.606 26ZM145.088 26.16C144.363 26.16 143.707 25.9733 143.12 25.6C142.534 25.216 142.07 24.6987 141.728 24.048C141.387 23.3867 141.216 22.64 141.216 21.808C141.216 20.9653 141.392 20.2187 141.744 19.568C142.096 18.9173 142.566 18.4053 143.152 18.032C143.75 17.6587 144.416 17.472 145.152 17.472C145.59 17.472 145.995 17.536 146.368 17.664C146.742 17.792 147.072 17.9733 147.36 18.208C147.659 18.432 147.904 18.6987 148.096 19.008C148.299 19.3067 148.438 19.632 148.512 19.984L148.16 19.808L148.208 17.648H149.408V26H148.192V23.952L148.512 23.744C148.438 24.064 148.294 24.3733 148.08 24.672C147.867 24.96 147.606 25.216 147.296 25.44C146.998 25.664 146.656 25.84 146.272 25.968C145.899 26.096 145.504 26.16 145.088 26.16ZM145.36 25.008C145.915 25.008 146.411 24.8747 146.848 24.608C147.286 24.3307 147.627 23.952 147.872 23.472C148.128 22.9813 148.256 22.4267 148.256 21.808C148.256 21.1893 148.128 20.64 147.872 20.16C147.627 19.68 147.286 19.3013 146.848 19.024C146.411 18.7467 145.915 18.608 145.36 18.608C144.795 18.608 144.294 18.7467 143.856 19.024C143.43 19.3013 143.088 19.68 142.832 20.16C142.587 20.64 142.464 21.1893 142.464 21.808C142.464 22.416 142.587 22.9653 142.832 23.456C143.078 23.936 143.419 24.3147 143.856 24.592C144.294 24.8693 144.795 25.008 145.36 25.008Z" fill="#E1DDF4"/>
</svg>
