<svg width="161" height="88" viewBox="0 0 161 88" fill="none" xmlns="http://www.w3.org/2000/svg">
<path d="M62.5 22.5L74.5 34.5L97 12" stroke="url(#paint0_linear_645_19239)" stroke-width="6"/>
<path d="M3.10872 82V65.2H13.2847V67.024H4.98072V80.176H13.2367V82H3.10872ZM3.97272 74.272V72.448H11.9407V74.272H3.97272ZM20.2923 82L15.0123 69.472H17.0043L21.1803 79.72L20.7003 79.984L25.2843 69.472H27.2043L21.5883 82H20.2923ZM34.4868 82.24C33.2388 82.24 32.1268 81.968 31.1508 81.424C30.1908 80.88 29.4388 80.12 28.8948 79.144C28.3508 78.168 28.0788 77.048 28.0788 75.784C28.0788 74.808 28.2308 73.928 28.5348 73.144C28.8388 72.344 29.2628 71.648 29.8068 71.056C30.3668 70.464 31.0308 70.008 31.7988 69.688C32.5668 69.352 33.3988 69.184 34.2948 69.184C35.1428 69.184 35.9108 69.336 36.5988 69.64C37.3028 69.944 37.9028 70.368 38.3988 70.912C38.9108 71.44 39.2948 72.072 39.5508 72.808C39.8068 73.544 39.9188 74.352 39.8868 75.232L39.8628 76.072H29.4228L29.1588 74.56H38.4948L38.0628 74.968V74.392C38.0308 73.816 37.8628 73.264 37.5588 72.736C37.2548 72.192 36.8228 71.752 36.2628 71.416C35.7188 71.08 35.0628 70.912 34.2948 70.912C33.3988 70.912 32.6228 71.096 31.9668 71.464C31.3108 71.816 30.8068 72.344 30.4548 73.048C30.1028 73.752 29.9268 74.624 29.9268 75.664C29.9268 76.656 30.1188 77.52 30.5028 78.256C30.8868 78.976 31.4308 79.536 32.1348 79.936C32.8548 80.336 33.7188 80.536 34.7268 80.536C35.3188 80.536 35.9028 80.44 36.4788 80.248C37.0708 80.04 37.7188 79.64 38.4228 79.048L39.3588 80.344C38.9908 80.712 38.5508 81.04 38.0388 81.328C37.5268 81.6 36.9668 81.824 36.3588 82C35.7508 82.16 35.1268 82.24 34.4868 82.24ZM42.4434 82V69.472H44.2194L44.2914 72.088L44.0034 72.208C44.1634 71.664 44.4754 71.168 44.9394 70.72C45.4034 70.272 45.9554 69.912 46.5954 69.64C47.2514 69.352 47.9234 69.208 48.6114 69.208C49.5394 69.208 50.3154 69.392 50.9394 69.76C51.5634 70.128 52.0354 70.696 52.3554 71.464C52.6754 72.232 52.8354 73.208 52.8354 74.392V82H51.0114V74.488C51.0114 73.656 50.8994 72.976 50.6754 72.448C50.4674 71.904 50.1394 71.504 49.6914 71.248C49.2434 70.992 48.6914 70.872 48.0354 70.888C47.4914 70.888 46.9874 70.984 46.5234 71.176C46.0594 71.352 45.6594 71.6 45.3234 71.92C44.9874 72.24 44.7234 72.608 44.5314 73.024C44.3394 73.44 44.2434 73.888 44.2434 74.368V82H43.3554C43.2434 82 43.1154 82 42.9714 82C42.8274 82 42.6514 82 42.4434 82ZM57.9995 82V66.184H59.7995V82H57.9995ZM55.1675 71.2V69.472H62.9675V71.2H55.1675ZM70.6046 82.24C69.3566 82.24 68.2446 81.96 67.2686 81.4C66.3086 80.84 65.5486 80.064 64.9886 79.072C64.4446 78.08 64.1726 76.952 64.1726 75.688C64.1726 74.44 64.4446 73.328 64.9886 72.352C65.5486 71.376 66.3086 70.608 67.2686 70.048C68.2446 69.488 69.3566 69.208 70.6046 69.208C71.8366 69.208 72.9326 69.488 73.8926 70.048C74.8686 70.608 75.6286 71.376 76.1726 72.352C76.7326 73.328 77.0126 74.44 77.0126 75.688C77.0126 76.952 76.7326 78.08 76.1726 79.072C75.6286 80.064 74.8686 80.84 73.8926 81.4C72.9326 81.96 71.8366 82.24 70.6046 82.24ZM70.6046 80.536C71.4846 80.536 72.2686 80.328 72.9566 79.912C73.6446 79.48 74.1806 78.904 74.5646 78.184C74.9486 77.448 75.1406 76.616 75.1406 75.688C75.1406 74.76 74.9486 73.936 74.5646 73.216C74.1806 72.496 73.6446 71.936 72.9566 71.536C72.2686 71.12 71.4846 70.912 70.6046 70.912C69.7246 70.912 68.9326 71.12 68.2286 71.536C67.5406 71.936 66.9966 72.504 66.5966 73.24C66.2126 73.96 66.0286 74.776 66.0446 75.688C66.0286 76.616 66.2126 77.448 66.5966 78.184C66.9966 78.904 67.5406 79.48 68.2286 79.912C68.9326 80.328 69.7246 80.536 70.6046 80.536ZM94.0453 82.24C92.8453 82.24 91.7413 82.032 90.7333 81.616C89.7253 81.184 88.8533 80.584 88.1173 79.816C87.3813 79.032 86.8053 78.112 86.3893 77.056C85.9893 76 85.7893 74.848 85.7893 73.6C85.7893 72.368 85.9893 71.24 86.3893 70.216C86.8053 69.176 87.3893 68.272 88.1413 67.504C88.8933 66.72 89.7653 66.12 90.7573 65.704C91.7493 65.288 92.8373 65.08 94.0213 65.08C94.8053 65.08 95.5813 65.208 96.3493 65.464C97.1173 65.704 97.8213 66.04 98.4613 66.472C99.1173 66.904 99.6533 67.4 100.069 67.96L98.7733 69.304C98.3733 68.824 97.9093 68.408 97.3813 68.056C96.8693 67.704 96.3253 67.432 95.7493 67.24C95.1733 67.048 94.5973 66.952 94.0213 66.952C93.1253 66.952 92.2853 67.12 91.5013 67.456C90.7333 67.776 90.0693 68.232 89.5093 68.824C88.9493 69.416 88.5093 70.12 88.1893 70.936C87.8853 71.752 87.7333 72.64 87.7333 73.6C87.7333 74.592 87.8853 75.504 88.1893 76.336C88.5093 77.168 88.9573 77.888 89.5333 78.496C90.1253 79.088 90.8133 79.552 91.5973 79.888C92.3973 80.208 93.2853 80.368 94.2613 80.368C94.8373 80.368 95.4133 80.288 95.9893 80.128C96.5653 79.952 97.0933 79.712 97.5733 79.408C98.0533 79.104 98.4613 78.76 98.7973 78.376L99.7573 79.936C99.3893 80.384 98.8933 80.784 98.2693 81.136C97.6613 81.472 96.9893 81.744 96.2533 81.952C95.5173 82.144 94.7813 82.24 94.0453 82.24ZM102.584 82V69.472H104.384L104.432 72.808L104.24 72.352C104.416 71.792 104.696 71.272 105.08 70.792C105.48 70.312 105.952 69.928 106.496 69.64C107.04 69.352 107.64 69.208 108.296 69.208C108.568 69.208 108.824 69.232 109.064 69.28C109.304 69.312 109.504 69.36 109.664 69.424L109.16 71.44C108.952 71.344 108.736 71.28 108.512 71.248C108.304 71.2 108.104 71.176 107.912 71.176C107.368 71.176 106.88 71.272 106.448 71.464C106.016 71.656 105.648 71.928 105.344 72.28C105.04 72.616 104.808 73.008 104.648 73.456C104.488 73.904 104.408 74.384 104.408 74.896V82H102.584ZM112.017 82V69.472H113.817V82H112.017ZM112.905 66.76C112.457 66.76 112.113 66.648 111.873 66.424C111.649 66.184 111.537 65.864 111.537 65.464C111.537 65.064 111.657 64.744 111.897 64.504C112.137 64.264 112.473 64.144 112.905 64.144C113.337 64.144 113.673 64.264 113.913 64.504C114.153 64.728 114.273 65.048 114.273 65.464C114.273 65.848 114.153 66.16 113.913 66.4C113.673 66.64 113.337 66.76 112.905 66.76ZM122.644 82.24C121.556 82.24 120.572 81.96 119.692 81.4C118.812 80.824 118.116 80.048 117.604 79.072C117.092 78.08 116.836 76.96 116.836 75.712C116.836 74.448 117.1 73.328 117.628 72.352C118.156 71.376 118.86 70.608 119.74 70.048C120.636 69.488 121.636 69.208 122.74 69.208C123.396 69.208 124.004 69.304 124.564 69.496C125.124 69.688 125.62 69.96 126.052 70.312C126.5 70.648 126.868 71.048 127.156 71.512C127.46 71.96 127.668 72.448 127.78 72.976L127.252 72.712L127.324 69.472H129.124V82H127.3V78.928L127.78 78.616C127.668 79.096 127.452 79.56 127.132 80.008C126.812 80.44 126.42 80.824 125.956 81.16C125.508 81.496 124.996 81.76 124.42 81.952C123.86 82.144 123.268 82.24 122.644 82.24ZM123.052 80.512C123.884 80.512 124.628 80.312 125.284 79.912C125.94 79.496 126.452 78.928 126.82 78.208C127.204 77.472 127.396 76.64 127.396 75.712C127.396 74.784 127.204 73.96 126.82 73.24C126.452 72.52 125.94 71.952 125.284 71.536C124.628 71.12 123.884 70.912 123.052 70.912C122.204 70.912 121.452 71.12 120.796 71.536C120.156 71.952 119.644 72.52 119.26 73.24C118.892 73.96 118.708 74.784 118.708 75.712C118.708 76.624 118.892 77.448 119.26 78.184C119.628 78.904 120.14 79.472 120.796 79.888C121.452 80.304 122.204 80.512 123.052 80.512ZM137.719 82.24C136.583 82.24 135.559 81.96 134.647 81.4C133.751 80.84 133.039 80.072 132.511 79.096C131.999 78.104 131.743 76.984 131.743 75.736C131.743 74.472 132.007 73.352 132.535 72.376C133.063 71.384 133.775 70.608 134.671 70.048C135.567 69.488 136.575 69.208 137.695 69.208C138.319 69.208 138.919 69.304 139.495 69.496C140.087 69.688 140.615 69.96 141.079 70.312C141.543 70.648 141.927 71.04 142.231 71.488C142.535 71.92 142.719 72.376 142.783 72.856L142.231 72.664V64.24H144.031V82H142.255L142.207 78.88L142.663 78.712C142.599 79.16 142.415 79.6 142.111 80.032C141.823 80.448 141.455 80.824 141.007 81.16C140.559 81.496 140.047 81.76 139.471 81.952C138.911 82.144 138.327 82.24 137.719 82.24ZM137.983 80.584C138.815 80.584 139.559 80.376 140.215 79.96C140.871 79.544 141.383 78.968 141.751 78.232C142.135 77.496 142.327 76.656 142.327 75.712C142.327 74.768 142.135 73.936 141.751 73.216C141.383 72.48 140.871 71.904 140.215 71.488C139.559 71.056 138.815 70.84 137.983 70.84C137.119 70.84 136.359 71.056 135.703 71.488C135.063 71.904 134.551 72.48 134.167 73.216C133.799 73.936 133.615 74.768 133.615 75.712C133.615 76.64 133.799 77.472 134.167 78.208C134.535 78.944 135.047 79.528 135.703 79.96C136.359 80.376 137.119 80.584 137.983 80.584ZM153.081 82.24C151.833 82.24 150.721 81.96 149.745 81.4C148.785 80.84 148.025 80.064 147.465 79.072C146.921 78.08 146.649 76.952 146.649 75.688C146.649 74.44 146.921 73.328 147.465 72.352C148.025 71.376 148.785 70.608 149.745 70.048C150.721 69.488 151.833 69.208 153.081 69.208C154.313 69.208 155.409 69.488 156.369 70.048C157.345 70.608 158.105 71.376 158.649 72.352C159.209 73.328 159.489 74.44 159.489 75.688C159.489 76.952 159.209 78.08 158.649 79.072C158.105 80.064 157.345 80.84 156.369 81.4C155.409 81.96 154.313 82.24 153.081 82.24ZM153.081 80.536C153.961 80.536 154.745 80.328 155.433 79.912C156.121 79.48 156.657 78.904 157.041 78.184C157.425 77.448 157.617 76.616 157.617 75.688C157.617 74.76 157.425 73.936 157.041 73.216C156.657 72.496 156.121 71.936 155.433 71.536C154.745 71.12 153.961 70.912 153.081 70.912C152.201 70.912 151.409 71.12 150.705 71.536C150.017 71.936 149.473 72.504 149.073 73.24C148.689 73.96 148.505 74.776 148.521 75.688C148.505 76.616 148.689 77.448 149.073 78.184C149.473 78.904 150.017 79.48 150.705 79.912C151.409 80.328 152.201 80.536 153.081 80.536Z" fill="url(#paint1_linear_645_19239)"/>
<defs>
<linearGradient id="paint0_linear_645_19239" x1="97" y1="23.25" x2="62.5" y2="23.25" gradientUnits="userSpaceOnUse">
<stop stop-color="#43A3D5"/>
<stop offset="1" stop-color="#9C60DA"/>
</linearGradient>
<linearGradient id="paint1_linear_645_19239" x1="160.5" y1="73" x2="0.5" y2="73" gradientUnits="userSpaceOnUse">
<stop stop-color="#43A3D5"/>
<stop offset="1" stop-color="#9C60DA"/>
</linearGradient>
</defs>
</svg>
