<svg width="133" height="40" viewBox="0 0 133 40" fill="none" xmlns="http://www.w3.org/2000/svg">
<rect width="133" height="40" rx="20" fill="#E50000"/>
<path d="M42.3571 26V14.8H49.4131V16.464H44.0851V24.336H49.4131V26H42.3571ZM43.1411 21.088V19.424H48.5331V21.088H43.1411ZM57.3532 26L54.6332 22.464L54.3932 22.16L50.8572 17.6H52.9372L55.6092 21.088L55.8812 21.44L59.3692 26H57.3532ZM50.8732 26L54.1852 21.68L55.1612 22.848L52.8252 26H50.8732ZM55.9772 21.936L55.0652 20.784L57.1292 17.6H59.0812L55.9772 21.936ZM63.8372 26.16C63.0585 26.16 62.3599 25.968 61.7412 25.584C61.1332 25.2 60.6479 24.6773 60.2852 24.016C59.9332 23.3547 59.7572 22.6133 59.7572 21.792C59.7572 20.9707 59.9332 20.2293 60.2852 19.568C60.6479 18.9067 61.1332 18.384 61.7412 18C62.3599 17.616 63.0585 17.424 63.8372 17.424C64.5839 17.424 65.2612 17.5787 65.8692 17.888C66.4879 18.1867 66.9572 18.5973 67.2772 19.12L66.3652 20.24C66.1945 19.9947 65.9759 19.7707 65.7092 19.568C65.4425 19.3653 65.1599 19.2053 64.8612 19.088C64.5625 18.9707 64.2745 18.912 63.9972 18.912C63.4852 18.912 63.0265 19.04 62.6212 19.296C62.2265 19.5413 61.9119 19.8827 61.6772 20.32C61.4425 20.7573 61.3252 21.248 61.3252 21.792C61.3252 22.336 61.4479 22.8267 61.6932 23.264C61.9385 23.6907 62.2639 24.032 62.6692 24.288C63.0745 24.544 63.5225 24.672 64.0132 24.672C64.3012 24.672 64.5785 24.624 64.8452 24.528C65.1225 24.432 65.3892 24.288 65.6452 24.096C65.9012 23.904 66.1412 23.6693 66.3652 23.392L67.2772 24.512C66.9359 24.992 66.4452 25.3867 65.8052 25.696C65.1759 26.0053 64.5199 26.16 63.8372 26.16ZM68.8637 26V14.16H70.5117V26H68.8637ZM75.7132 26.16C75.1159 26.16 74.5932 26.0213 74.1452 25.744C73.7079 25.4667 73.3665 25.0773 73.1212 24.576C72.8865 24.0747 72.7692 23.4773 72.7692 22.784V17.6H74.4172V22.336C74.4172 22.8267 74.4919 23.2533 74.6412 23.616C74.8012 23.968 75.0252 24.24 75.3132 24.432C75.6119 24.624 75.9692 24.72 76.3852 24.72C76.6945 24.72 76.9772 24.672 77.2332 24.576C77.4892 24.4693 77.7079 24.3253 77.8892 24.144C78.0812 23.9627 78.2305 23.744 78.3372 23.488C78.4439 23.232 78.4972 22.9547 78.4972 22.656V17.6H80.1452V26H78.4972V24.24L78.7852 24.048C78.6572 24.4427 78.4385 24.8 78.1292 25.12C77.8305 25.44 77.4732 25.696 77.0572 25.888C76.6412 26.0693 76.1932 26.16 75.7132 26.16ZM82.7287 26V17.6H84.3767V26H82.7287ZM83.5287 15.744C83.1767 15.744 82.9047 15.6533 82.7127 15.472C82.5207 15.2907 82.4247 15.0347 82.4247 14.704C82.4247 14.3947 82.5207 14.144 82.7127 13.952C82.9154 13.76 83.1874 13.664 83.5287 13.664C83.8807 13.664 84.1527 13.7547 84.3447 13.936C84.5367 14.1173 84.6327 14.3733 84.6327 14.704C84.6327 15.0133 84.5314 15.264 84.3287 15.456C84.1367 15.648 83.87 15.744 83.5287 15.744ZM86.9098 26V17.6H88.5738V20.24L88.4138 19.6C88.5311 19.1947 88.7285 18.8267 89.0058 18.496C89.2938 18.1653 89.6191 17.904 89.9818 17.712C90.3551 17.52 90.7391 17.424 91.1338 17.424C91.3151 17.424 91.4858 17.44 91.6458 17.472C91.8165 17.504 91.9498 17.5413 92.0458 17.584L91.6138 19.376C91.4858 19.3227 91.3418 19.28 91.1818 19.248C91.0325 19.2053 90.8831 19.184 90.7338 19.184C90.4458 19.184 90.1685 19.2427 89.9018 19.36C89.6458 19.4667 89.4165 19.6213 89.2138 19.824C89.0218 20.016 88.8671 20.2453 88.7498 20.512C88.6325 20.768 88.5738 21.0507 88.5738 21.36V26H86.9098Z" fill="#1D1933"/>
</svg>
