<svg width="20" height="20" viewBox="0 0 20 20" fill="none" xmlns="http://www.w3.org/2000/svg">
<rect width="20" height="20" rx="10" fill="url(#paint0_linear_629_6865)"/>
<path d="M4.44231 15.7543C3.67822 15.0163 3.06877 14.1336 2.64949 13.1575C2.23022 12.1815 2.00953 11.1318 2.0003 10.0695C1.99107 9.00728 2.19349 7.95384 2.59573 6.97067C2.99798 5.9875 3.592 5.09429 4.34315 4.34315C5.09429 3.592 5.9875 2.99798 6.97067 2.59573C7.95384 2.19349 9.00728 1.99107 10.0695 2.0003C11.1318 2.00953 12.1815 2.23022 13.1575 2.64949C14.1336 3.06877 15.0163 3.67822 15.7543 4.44231C17.2116 5.95112 18.0179 7.97194 17.9997 10.0695C17.9815 12.1671 17.1401 14.1736 15.6569 15.6569C14.1736 17.1401 12.1671 17.9815 10.0695 17.9997C7.97194 18.0179 5.95112 17.2116 4.44231 15.7543ZM5.57031 14.6263C6.77121 15.8272 8.39998 16.5019 10.0983 16.5019C11.7966 16.5019 13.4254 15.8272 14.6263 14.6263C15.8272 13.4254 16.5019 11.7966 16.5019 10.0983C16.5019 8.39998 15.8272 6.77121 14.6263 5.57031C13.4254 4.36941 11.7966 3.69475 10.0983 3.69475C8.39998 3.69475 6.77121 4.36941 5.57031 5.57031C4.36941 6.77121 3.69475 8.39998 3.69475 10.0983C3.69475 11.7966 4.36941 13.4254 5.57031 14.6263ZM13.4903 7.83431L11.2263 10.0983L13.4903 12.3623L12.3623 13.4903L10.0983 11.2263L7.83431 13.4903L6.70631 12.3623L8.97031 10.0983L6.70631 7.83431L7.83431 6.70631L10.0983 8.97031L12.3623 6.70631L13.4903 7.83431Z" fill="#100D1E"/>
<defs>
<linearGradient id="paint0_linear_629_6865" x1="20" y1="10" x2="0" y2="10" gradientUnits="userSpaceOnUse">
<stop stop-color="#43A3D5"/>
<stop offset="1" stop-color="#9C60DA"/>
</linearGradient>
</defs>
</svg>
