<svg width="360" height="47" viewBox="0 0 360 47" fill="none" xmlns="http://www.w3.org/2000/svg">
<rect width="360" height="47" fill="url(#paint0_linear_183_1006)"/>
<path d="M98.1107 21V12.6H101.627C102.243 12.6 102.807 12.704 103.319 12.912C103.831 13.112 104.271 13.4 104.639 13.776C105.015 14.152 105.303 14.596 105.503 15.108C105.703 15.62 105.803 16.184 105.803 16.8C105.803 17.416 105.703 17.984 105.503 18.504C105.303 19.016 105.015 19.46 104.639 19.836C104.271 20.204 103.831 20.492 103.319 20.7C102.807 20.9 102.243 21 101.627 21H98.1107ZM100.151 19.608L99.8747 19.2H101.567C101.903 19.2 102.203 19.144 102.467 19.032C102.731 18.912 102.955 18.748 103.139 18.54C103.331 18.332 103.479 18.08 103.583 17.784C103.687 17.488 103.739 17.16 103.739 16.8C103.739 16.44 103.687 16.112 103.583 15.816C103.479 15.52 103.331 15.268 103.139 15.06C102.955 14.852 102.731 14.692 102.467 14.58C102.203 14.46 101.903 14.4 101.567 14.4H99.8387L100.151 14.016V19.608ZM110.212 21.12C109.508 21.12 108.896 20.98 108.376 20.7C107.856 20.412 107.452 20.024 107.164 19.536C106.876 19.04 106.732 18.476 106.732 17.844C106.732 17.356 106.812 16.908 106.972 16.5C107.132 16.092 107.356 15.74 107.644 15.444C107.932 15.14 108.272 14.908 108.664 14.748C109.064 14.58 109.5 14.496 109.972 14.496C110.42 14.496 110.828 14.576 111.196 14.736C111.572 14.896 111.896 15.12 112.168 15.408C112.44 15.696 112.648 16.036 112.792 16.428C112.936 16.82 113 17.248 112.984 17.712L112.972 18.228H107.896L107.62 17.148H111.412L111.208 17.376V17.136C111.192 16.936 111.128 16.76 111.016 16.608C110.912 16.448 110.772 16.324 110.596 16.236C110.42 16.148 110.22 16.104 109.996 16.104C109.684 16.104 109.416 16.168 109.192 16.296C108.976 16.416 108.812 16.596 108.7 16.836C108.588 17.068 108.532 17.356 108.532 17.7C108.532 18.052 108.604 18.36 108.748 18.624C108.9 18.88 109.116 19.08 109.396 19.224C109.684 19.368 110.024 19.44 110.416 19.44C110.688 19.44 110.928 19.4 111.136 19.32C111.352 19.24 111.584 19.104 111.832 18.912L112.732 20.184C112.484 20.4 112.22 20.576 111.94 20.712C111.66 20.848 111.372 20.948 111.076 21.012C110.788 21.084 110.5 21.12 110.212 21.12ZM114.207 21V14.628H116.031L116.091 15.924L115.707 16.068C115.795 15.78 115.951 15.52 116.175 15.288C116.407 15.048 116.683 14.856 117.003 14.712C117.323 14.568 117.659 14.496 118.011 14.496C118.491 14.496 118.895 14.596 119.223 14.796C119.551 14.988 119.799 15.28 119.967 15.672C120.135 16.056 120.219 16.528 120.219 17.088V21H118.287V17.244C118.287 16.988 118.251 16.776 118.179 16.608C118.107 16.44 117.995 16.316 117.843 16.236C117.699 16.148 117.519 16.108 117.303 16.116C117.135 16.116 116.979 16.144 116.835 16.2C116.691 16.248 116.567 16.324 116.463 16.428C116.359 16.524 116.275 16.636 116.211 16.764C116.155 16.892 116.127 17.032 116.127 17.184V21H115.179C114.955 21 114.763 21 114.603 21C114.443 21 114.311 21 114.207 21ZM121.573 21V19.896L124.957 15.552V16.188H121.573V14.628H126.853V15.78L123.649 19.992L123.601 19.44H126.961V21H121.573ZM131.341 21.12C130.637 21.12 130.025 20.98 129.505 20.7C128.985 20.412 128.581 20.024 128.293 19.536C128.005 19.04 127.861 18.476 127.861 17.844C127.861 17.356 127.941 16.908 128.101 16.5C128.261 16.092 128.485 15.74 128.773 15.444C129.061 15.14 129.401 14.908 129.793 14.748C130.193 14.58 130.629 14.496 131.101 14.496C131.549 14.496 131.957 14.576 132.325 14.736C132.701 14.896 133.025 15.12 133.297 15.408C133.569 15.696 133.777 16.036 133.921 16.428C134.065 16.82 134.129 17.248 134.113 17.712L134.101 18.228H129.025L128.749 17.148H132.541L132.337 17.376V17.136C132.321 16.936 132.257 16.76 132.145 16.608C132.041 16.448 131.901 16.324 131.725 16.236C131.549 16.148 131.349 16.104 131.125 16.104C130.813 16.104 130.545 16.168 130.321 16.296C130.105 16.416 129.941 16.596 129.829 16.836C129.717 17.068 129.661 17.356 129.661 17.7C129.661 18.052 129.733 18.36 129.877 18.624C130.029 18.88 130.245 19.08 130.525 19.224C130.813 19.368 131.153 19.44 131.545 19.44C131.817 19.44 132.057 19.4 132.265 19.32C132.481 19.24 132.713 19.104 132.961 18.912L133.861 20.184C133.613 20.4 133.349 20.576 133.069 20.712C132.789 20.848 132.501 20.948 132.205 21.012C131.917 21.084 131.629 21.12 131.341 21.12ZM135.348 21V12.12H137.268V21H135.348ZM142.861 21V19.284H144.277V14.316H142.861V12.6H147.745V14.316H146.317V19.284H147.745V21H142.861ZM149.493 21V12.12H151.413V21H149.493ZM155.239 21.132C154.767 21.132 154.363 21.032 154.027 20.832C153.699 20.624 153.443 20.328 153.259 19.944C153.083 19.56 152.995 19.1 152.995 18.564V14.628H154.927V18.3C154.927 18.556 154.967 18.776 155.047 18.96C155.127 19.144 155.247 19.288 155.407 19.392C155.567 19.488 155.759 19.536 155.983 19.536C156.151 19.536 156.303 19.508 156.439 19.452C156.583 19.396 156.703 19.32 156.799 19.224C156.903 19.12 156.983 19.004 157.039 18.876C157.095 18.74 157.123 18.592 157.123 18.432V14.628H159.055V21H157.243L157.159 19.692L157.519 19.548C157.423 19.852 157.263 20.124 157.039 20.364C156.815 20.596 156.547 20.784 156.235 20.928C155.923 21.064 155.591 21.132 155.239 21.132ZM160.754 21V14.628H162.578L162.638 15.78L162.386 15.792C162.482 15.584 162.602 15.4 162.746 15.24C162.898 15.08 163.066 14.948 163.25 14.844C163.442 14.732 163.638 14.648 163.838 14.592C164.046 14.536 164.254 14.508 164.462 14.508C164.774 14.508 165.058 14.556 165.314 14.652C165.57 14.748 165.794 14.904 165.986 15.12C166.178 15.328 166.33 15.612 166.442 15.972L166.142 15.948L166.238 15.756C166.342 15.564 166.474 15.392 166.634 15.24C166.802 15.08 166.986 14.948 167.186 14.844C167.386 14.732 167.594 14.648 167.81 14.592C168.026 14.536 168.234 14.508 168.434 14.508C168.938 14.508 169.358 14.608 169.694 14.808C170.03 15 170.282 15.292 170.45 15.684C170.626 16.076 170.714 16.552 170.714 17.112V21H168.782V17.268C168.782 17.012 168.746 16.8 168.674 16.632C168.602 16.464 168.494 16.34 168.35 16.26C168.214 16.172 168.042 16.128 167.834 16.128C167.666 16.128 167.51 16.156 167.366 16.212C167.23 16.268 167.11 16.344 167.006 16.44C166.91 16.536 166.834 16.648 166.778 16.776C166.722 16.904 166.694 17.048 166.694 17.208V21H164.762V17.256C164.762 17.016 164.726 16.812 164.654 16.644C164.582 16.476 164.474 16.348 164.33 16.26C164.186 16.172 164.018 16.128 163.826 16.128C163.658 16.128 163.502 16.156 163.358 16.212C163.222 16.268 163.102 16.344 162.998 16.44C162.902 16.536 162.826 16.648 162.77 16.776C162.714 16.904 162.686 17.044 162.686 17.196V21H160.754ZM172.417 21V14.628H174.337V21H172.417ZM173.377 13.368C173.017 13.368 172.733 13.284 172.525 13.116C172.325 12.94 172.225 12.692 172.225 12.372C172.225 12.084 172.329 11.848 172.537 11.664C172.745 11.48 173.025 11.388 173.377 11.388C173.737 11.388 174.017 11.476 174.217 11.652C174.417 11.82 174.517 12.06 174.517 12.372C174.517 12.668 174.413 12.908 174.205 13.092C174.005 13.276 173.729 13.368 173.377 13.368ZM176.141 21V14.628H177.965L178.025 15.924L177.641 16.068C177.729 15.78 177.885 15.52 178.109 15.288C178.341 15.048 178.617 14.856 178.937 14.712C179.257 14.568 179.593 14.496 179.945 14.496C180.425 14.496 180.829 14.596 181.157 14.796C181.485 14.988 181.733 15.28 181.901 15.672C182.069 16.056 182.153 16.528 182.153 17.088V21H180.221V17.244C180.221 16.988 180.185 16.776 180.113 16.608C180.041 16.44 179.929 16.316 179.777 16.236C179.633 16.148 179.453 16.108 179.237 16.116C179.069 16.116 178.913 16.144 178.769 16.2C178.625 16.248 178.501 16.324 178.397 16.428C178.293 16.524 178.209 16.636 178.145 16.764C178.089 16.892 178.061 17.032 178.061 17.184V21H177.113C176.889 21 176.697 21 176.537 21C176.377 21 176.245 21 176.141 21ZM186.11 21.108C185.574 21.108 185.094 20.968 184.67 20.688C184.254 20.4 183.922 20.008 183.674 19.512C183.426 19.008 183.302 18.44 183.302 17.808C183.302 17.16 183.426 16.588 183.674 16.092C183.922 15.596 184.262 15.208 184.694 14.928C185.126 14.64 185.618 14.496 186.17 14.496C186.474 14.496 186.75 14.54 186.998 14.628C187.254 14.716 187.478 14.84 187.67 15C187.862 15.152 188.026 15.332 188.162 15.54C188.298 15.74 188.398 15.956 188.462 16.188L188.066 16.14V14.628H189.974V21H188.03V19.464L188.462 19.452C188.398 19.676 188.294 19.888 188.15 20.088C188.006 20.288 187.83 20.464 187.622 20.616C187.414 20.768 187.182 20.888 186.926 20.976C186.67 21.064 186.398 21.108 186.11 21.108ZM186.638 19.488C186.934 19.488 187.19 19.42 187.406 19.284C187.622 19.148 187.79 18.956 187.91 18.708C188.03 18.452 188.09 18.152 188.09 17.808C188.09 17.464 188.03 17.168 187.91 16.92C187.79 16.664 187.622 16.468 187.406 16.332C187.19 16.188 186.934 16.116 186.638 16.116C186.35 16.116 186.098 16.188 185.882 16.332C185.674 16.468 185.51 16.664 185.39 16.92C185.27 17.168 185.21 17.464 185.21 17.808C185.21 18.152 185.27 18.452 185.39 18.708C185.51 18.956 185.674 19.148 185.882 19.284C186.098 19.42 186.35 19.488 186.638 19.488ZM194.464 21.12C193.848 21.12 193.296 20.976 192.808 20.688C192.32 20.4 191.932 20.008 191.644 19.512C191.364 19.008 191.224 18.44 191.224 17.808C191.224 17.176 191.364 16.612 191.644 16.116C191.932 15.612 192.32 15.216 192.808 14.928C193.296 14.64 193.848 14.496 194.464 14.496C195.032 14.496 195.552 14.596 196.024 14.796C196.504 14.996 196.884 15.276 197.164 15.636L196.12 16.884C196.008 16.756 195.876 16.636 195.724 16.524C195.572 16.412 195.404 16.324 195.22 16.26C195.036 16.196 194.844 16.164 194.644 16.164C194.34 16.164 194.072 16.236 193.84 16.38C193.608 16.516 193.428 16.708 193.3 16.956C193.172 17.204 193.108 17.488 193.108 17.808C193.108 18.112 193.172 18.388 193.3 18.636C193.436 18.884 193.62 19.08 193.852 19.224C194.084 19.368 194.348 19.44 194.644 19.44C194.852 19.44 195.044 19.416 195.22 19.368C195.396 19.312 195.556 19.232 195.7 19.128C195.852 19.024 195.992 18.896 196.12 18.744L197.152 20.004C196.88 20.348 196.5 20.62 196.012 20.82C195.532 21.02 195.016 21.12 194.464 21.12ZM193.288 23.952L193.168 23.052C193.336 23.052 193.508 23.032 193.684 22.992C193.868 22.952 194.02 22.892 194.14 22.812C194.268 22.74 194.332 22.66 194.332 22.572C194.332 22.476 194.284 22.4 194.188 22.344C194.1 22.288 193.992 22.244 193.864 22.212C193.736 22.188 193.608 22.176 193.48 22.176L193.276 22.008L194.104 20.712H195.088L194.536 21.516C194.952 21.564 195.26 21.692 195.46 21.9C195.668 22.116 195.772 22.372 195.772 22.668C195.772 22.916 195.692 23.12 195.532 23.28C195.38 23.448 195.18 23.584 194.932 23.688C194.684 23.792 194.416 23.864 194.128 23.904C193.84 23.944 193.56 23.96 193.288 23.952ZM200.559 21.108C200.023 21.108 199.543 20.968 199.119 20.688C198.703 20.4 198.371 20.008 198.123 19.512C197.875 19.008 197.751 18.44 197.751 17.808C197.751 17.16 197.875 16.588 198.123 16.092C198.371 15.596 198.711 15.208 199.143 14.928C199.575 14.64 200.067 14.496 200.619 14.496C200.923 14.496 201.199 14.54 201.447 14.628C201.703 14.716 201.927 14.84 202.119 15C202.311 15.152 202.475 15.332 202.611 15.54C202.747 15.74 202.847 15.956 202.911 16.188L202.515 16.14V14.628H204.423V21H202.479V19.464L202.911 19.452C202.847 19.676 202.743 19.888 202.599 20.088C202.455 20.288 202.279 20.464 202.071 20.616C201.863 20.768 201.631 20.888 201.375 20.976C201.119 21.064 200.847 21.108 200.559 21.108ZM201.087 19.488C201.383 19.488 201.639 19.42 201.855 19.284C202.071 19.148 202.239 18.956 202.359 18.708C202.479 18.452 202.539 18.152 202.539 17.808C202.539 17.464 202.479 17.168 202.359 16.92C202.239 16.664 202.071 16.468 201.855 16.332C201.639 16.188 201.383 16.116 201.087 16.116C200.799 16.116 200.547 16.188 200.331 16.332C200.123 16.468 199.959 16.664 199.839 16.92C199.719 17.168 199.659 17.464 199.659 17.808C199.659 18.152 199.719 18.452 199.839 18.708C199.959 18.956 200.123 19.148 200.331 19.284C200.547 19.42 200.799 19.488 201.087 19.488ZM202.143 13.632C202.007 13.632 201.867 13.608 201.723 13.56C201.579 13.512 201.415 13.424 201.231 13.296C201.095 13.184 200.983 13.108 200.895 13.068C200.807 13.02 200.735 12.996 200.679 12.996C200.567 12.996 200.467 13.044 200.379 13.14C200.291 13.228 200.235 13.372 200.211 13.572L199.143 13.416C199.151 12.968 199.279 12.584 199.527 12.264C199.775 11.944 200.107 11.784 200.523 11.784C200.659 11.784 200.795 11.808 200.931 11.856C201.067 11.904 201.227 11.988 201.411 12.108C201.515 12.196 201.611 12.272 201.699 12.336C201.795 12.392 201.887 12.42 201.975 12.42C202.087 12.42 202.183 12.372 202.263 12.276C202.351 12.172 202.403 12.028 202.419 11.844L203.499 12C203.491 12.28 203.431 12.548 203.319 12.804C203.207 13.052 203.047 13.252 202.839 13.404C202.639 13.556 202.407 13.632 202.143 13.632ZM209.118 21.12C208.454 21.12 207.862 20.976 207.342 20.688C206.83 20.4 206.422 20.008 206.118 19.512C205.822 19.016 205.674 18.448 205.674 17.808C205.674 17.168 205.822 16.6 206.118 16.104C206.422 15.608 206.83 15.216 207.342 14.928C207.862 14.64 208.454 14.496 209.118 14.496C209.782 14.496 210.37 14.64 210.882 14.928C211.402 15.216 211.81 15.608 212.106 16.104C212.402 16.6 212.55 17.168 212.55 17.808C212.55 18.448 212.402 19.016 212.106 19.512C211.81 20.008 211.402 20.4 210.882 20.688C210.37 20.976 209.782 21.12 209.118 21.12ZM209.118 19.464C209.406 19.464 209.662 19.392 209.886 19.248C210.11 19.104 210.286 18.908 210.414 18.66C210.542 18.412 210.602 18.128 210.594 17.808C210.602 17.488 210.542 17.204 210.414 16.956C210.286 16.7 210.11 16.5 209.886 16.356C209.662 16.212 209.406 16.14 209.118 16.14C208.83 16.14 208.57 16.212 208.338 16.356C208.114 16.5 207.938 16.7 207.81 16.956C207.682 17.204 207.622 17.488 207.63 17.808C207.622 18.128 207.682 18.412 207.81 18.66C207.938 18.908 208.114 19.104 208.338 19.248C208.57 19.392 208.83 19.464 209.118 19.464ZM221.032 21.084C220.432 21.084 219.872 20.976 219.352 20.76C218.84 20.536 218.388 20.228 217.996 19.836C217.604 19.444 217.296 18.992 217.072 18.48C216.856 17.96 216.748 17.4 216.748 16.8C216.748 16.2 216.856 15.644 217.072 15.132C217.296 14.612 217.604 14.156 217.996 13.764C218.388 13.372 218.84 13.068 219.352 12.852C219.872 12.628 220.432 12.516 221.032 12.516C221.624 12.516 222.176 12.628 222.688 12.852C223.208 13.068 223.664 13.372 224.056 13.764C224.456 14.156 224.764 14.612 224.98 15.132C225.204 15.644 225.316 16.2 225.316 16.8C225.316 17.4 225.204 17.96 224.98 18.48C224.764 18.992 224.456 19.444 224.056 19.836C223.664 20.228 223.208 20.536 222.688 20.76C222.176 20.976 221.624 21.084 221.032 21.084ZM221.248 19.296C220.768 19.296 220.332 19.188 219.94 18.972C219.556 18.756 219.248 18.46 219.016 18.084C218.792 17.708 218.68 17.28 218.68 16.8C218.68 16.344 218.792 15.928 219.016 15.552C219.248 15.176 219.556 14.876 219.94 14.652C220.332 14.428 220.768 14.316 221.248 14.316C221.52 14.316 221.788 14.364 222.052 14.46C222.316 14.548 222.564 14.68 222.796 14.856L222.352 15.756C222.2 15.644 222.06 15.556 221.932 15.492C221.804 15.42 221.684 15.368 221.572 15.336C221.46 15.304 221.352 15.288 221.248 15.288C220.952 15.288 220.688 15.356 220.456 15.492C220.224 15.628 220.04 15.812 219.904 16.044C219.776 16.268 219.712 16.52 219.712 16.8C219.712 17.096 219.776 17.36 219.904 17.592C220.04 17.824 220.224 18.004 220.456 18.132C220.688 18.26 220.952 18.324 221.248 18.324C221.432 18.324 221.62 18.288 221.812 18.216C222.004 18.136 222.2 18.02 222.4 17.868L222.844 18.78C222.604 18.948 222.348 19.076 222.076 19.164C221.804 19.252 221.528 19.296 221.248 19.296ZM221.032 20.196C221.504 20.196 221.944 20.108 222.352 19.932C222.768 19.756 223.128 19.516 223.432 19.212C223.744 18.9 223.988 18.54 224.164 18.132C224.34 17.716 224.428 17.272 224.428 16.8C224.428 16.32 224.34 15.876 224.164 15.468C223.988 15.06 223.744 14.7 223.432 14.388C223.128 14.076 222.768 13.836 222.352 13.668C221.944 13.492 221.504 13.404 221.032 13.404C220.56 13.404 220.116 13.492 219.7 13.668C219.292 13.836 218.932 14.076 218.62 14.388C218.316 14.7 218.076 15.06 217.9 15.468C217.724 15.876 217.636 16.32 217.636 16.8C217.636 17.272 217.724 17.716 217.9 18.132C218.076 18.54 218.316 18.9 218.62 19.212C218.932 19.516 219.292 19.756 219.7 19.932C220.116 20.108 220.56 20.196 221.032 20.196ZM231.885 21V13.848H229.533V12.6H235.605V13.848H233.181V21H231.885ZM238.528 21.12C237.912 21.12 237.36 20.98 236.872 20.7C236.392 20.412 236.012 20.024 235.732 19.536C235.452 19.04 235.312 18.476 235.312 17.844C235.312 17.212 235.452 16.652 235.732 16.164C236.012 15.668 236.392 15.28 236.872 15C237.36 14.712 237.912 14.568 238.528 14.568C239.136 14.568 239.68 14.712 240.16 15C240.648 15.28 241.032 15.668 241.312 16.164C241.592 16.652 241.732 17.212 241.732 17.844C241.732 18.476 241.592 19.04 241.312 19.536C241.032 20.024 240.648 20.412 240.16 20.7C239.68 20.98 239.136 21.12 238.528 21.12ZM238.528 19.992C238.904 19.992 239.24 19.9 239.536 19.716C239.832 19.524 240.064 19.268 240.232 18.948C240.4 18.62 240.48 18.252 240.472 17.844C240.48 17.428 240.4 17.06 240.232 16.74C240.064 16.412 239.832 16.156 239.536 15.972C239.24 15.788 238.904 15.696 238.528 15.696C238.152 15.696 237.812 15.792 237.508 15.984C237.212 16.168 236.98 16.424 236.812 16.752C236.644 17.072 236.564 17.436 236.572 17.844C236.564 18.252 236.644 18.62 236.812 18.948C236.98 19.268 237.212 19.524 237.508 19.716C237.812 19.9 238.152 19.992 238.528 19.992ZM245.707 21.12C245.131 21.12 244.615 20.98 244.159 20.7C243.711 20.412 243.355 20.024 243.091 19.536C242.827 19.04 242.695 18.476 242.695 17.844C242.695 17.212 242.823 16.652 243.079 16.164C243.343 15.668 243.699 15.28 244.147 15C244.595 14.712 245.103 14.568 245.671 14.568C245.983 14.568 246.283 14.62 246.571 14.724C246.867 14.82 247.131 14.956 247.363 15.132C247.595 15.3 247.775 15.488 247.903 15.696C248.039 15.896 248.107 16.1 248.107 16.308L247.747 16.332V12.12H248.983V21H247.747V19.5H247.987C247.987 19.692 247.923 19.884 247.795 20.076C247.667 20.26 247.495 20.432 247.279 20.592C247.071 20.752 246.827 20.88 246.547 20.976C246.275 21.072 245.995 21.12 245.707 21.12ZM245.875 20.052C246.251 20.052 246.583 19.956 246.871 19.764C247.159 19.572 247.383 19.312 247.543 18.984C247.711 18.648 247.795 18.268 247.795 17.844C247.795 17.42 247.711 17.044 247.543 16.716C247.383 16.38 247.159 16.116 246.871 15.924C246.583 15.732 246.251 15.636 245.875 15.636C245.499 15.636 245.167 15.732 244.879 15.924C244.591 16.116 244.363 16.38 244.195 16.716C244.035 17.044 243.955 17.42 243.955 17.844C243.955 18.268 244.035 18.648 244.195 18.984C244.363 19.312 244.591 19.572 244.879 19.764C245.167 19.956 245.499 20.052 245.875 20.052ZM253.516 21.12C252.9 21.12 252.348 20.98 251.86 20.7C251.38 20.412 251 20.024 250.72 19.536C250.44 19.04 250.3 18.476 250.3 17.844C250.3 17.212 250.44 16.652 250.72 16.164C251 15.668 251.38 15.28 251.86 15C252.348 14.712 252.9 14.568 253.516 14.568C254.124 14.568 254.668 14.712 255.148 15C255.636 15.28 256.02 15.668 256.3 16.164C256.58 16.652 256.72 17.212 256.72 17.844C256.72 18.476 256.58 19.04 256.3 19.536C256.02 20.024 255.636 20.412 255.148 20.7C254.668 20.98 254.124 21.12 253.516 21.12ZM253.516 19.992C253.892 19.992 254.228 19.9 254.524 19.716C254.82 19.524 255.052 19.268 255.22 18.948C255.388 18.62 255.468 18.252 255.46 17.844C255.468 17.428 255.388 17.06 255.22 16.74C255.052 16.412 254.82 16.156 254.524 15.972C254.228 15.788 253.892 15.696 253.516 15.696C253.14 15.696 252.8 15.792 252.496 15.984C252.2 16.168 251.968 16.424 251.8 16.752C251.632 17.072 251.552 17.436 251.56 17.844C251.552 18.252 251.632 18.62 251.8 18.948C251.968 19.268 252.2 19.524 252.496 19.716C252.8 19.9 253.14 19.992 253.516 19.992ZM260.167 21.12C259.639 21.12 259.163 21.028 258.739 20.844C258.315 20.66 257.963 20.388 257.683 20.028L258.523 19.308C258.763 19.588 259.023 19.792 259.303 19.92C259.591 20.04 259.915 20.1 260.275 20.1C260.419 20.1 260.551 20.084 260.671 20.052C260.799 20.012 260.907 19.956 260.995 19.884C261.091 19.812 261.163 19.728 261.211 19.632C261.259 19.528 261.283 19.416 261.283 19.296C261.283 19.088 261.207 18.92 261.055 18.792C260.975 18.736 260.847 18.676 260.671 18.612C260.503 18.54 260.283 18.468 260.011 18.396C259.547 18.276 259.167 18.14 258.871 17.988C258.575 17.836 258.347 17.664 258.187 17.472C258.067 17.32 257.979 17.156 257.923 16.98C257.867 16.796 257.839 16.596 257.839 16.38C257.839 16.116 257.895 15.876 258.007 15.66C258.127 15.436 258.287 15.244 258.487 15.084C258.695 14.916 258.935 14.788 259.207 14.7C259.487 14.612 259.783 14.568 260.095 14.568C260.391 14.568 260.683 14.608 260.971 14.688C261.267 14.768 261.539 14.884 261.787 15.036C262.035 15.188 262.243 15.368 262.411 15.576L261.703 16.356C261.551 16.204 261.383 16.072 261.199 15.96C261.023 15.84 260.843 15.748 260.659 15.684C260.475 15.62 260.307 15.588 260.155 15.588C259.987 15.588 259.835 15.604 259.699 15.636C259.563 15.668 259.447 15.716 259.351 15.78C259.263 15.844 259.195 15.924 259.147 16.02C259.099 16.116 259.075 16.224 259.075 16.344C259.083 16.448 259.107 16.548 259.147 16.644C259.195 16.732 259.259 16.808 259.339 16.872C259.427 16.936 259.559 17.004 259.735 17.076C259.911 17.148 260.135 17.216 260.407 17.28C260.807 17.384 261.135 17.5 261.391 17.628C261.655 17.748 261.863 17.888 262.015 18.048C262.175 18.2 262.287 18.376 262.351 18.576C262.415 18.776 262.447 19 262.447 19.248C262.447 19.608 262.343 19.932 262.135 20.22C261.935 20.5 261.663 20.72 261.319 20.88C260.975 21.04 260.591 21.12 260.167 21.12ZM117.116 33.12C116.5 33.12 115.948 32.98 115.46 32.7C114.98 32.412 114.6 32.024 114.32 31.536C114.04 31.04 113.9 30.476 113.9 29.844C113.9 29.212 114.04 28.652 114.32 28.164C114.6 27.668 114.98 27.28 115.46 27C115.948 26.712 116.5 26.568 117.116 26.568C117.724 26.568 118.268 26.712 118.748 27C119.236 27.28 119.62 27.668 119.9 28.164C120.18 28.652 120.32 29.212 120.32 29.844C120.32 30.476 120.18 31.04 119.9 31.536C119.62 32.024 119.236 32.412 118.748 32.7C118.268 32.98 117.724 33.12 117.116 33.12ZM117.116 31.992C117.492 31.992 117.828 31.9 118.124 31.716C118.42 31.524 118.652 31.268 118.82 30.948C118.988 30.62 119.068 30.252 119.06 29.844C119.068 29.428 118.988 29.06 118.82 28.74C118.652 28.412 118.42 28.156 118.124 27.972C117.828 27.788 117.492 27.696 117.116 27.696C116.74 27.696 116.4 27.792 116.096 27.984C115.8 28.168 115.568 28.424 115.4 28.752C115.232 29.072 115.152 29.436 115.16 29.844C115.152 30.252 115.232 30.62 115.4 30.948C115.568 31.268 115.8 31.524 116.096 31.716C116.4 31.9 116.74 31.992 117.116 31.992ZM123.767 33.12C123.239 33.12 122.763 33.028 122.339 32.844C121.915 32.66 121.563 32.388 121.283 32.028L122.123 31.308C122.363 31.588 122.623 31.792 122.903 31.92C123.191 32.04 123.515 32.1 123.875 32.1C124.019 32.1 124.151 32.084 124.271 32.052C124.399 32.012 124.507 31.956 124.595 31.884C124.691 31.812 124.763 31.728 124.811 31.632C124.859 31.528 124.883 31.416 124.883 31.296C124.883 31.088 124.807 30.92 124.655 30.792C124.575 30.736 124.447 30.676 124.271 30.612C124.103 30.54 123.883 30.468 123.611 30.396C123.147 30.276 122.767 30.14 122.471 29.988C122.175 29.836 121.947 29.664 121.787 29.472C121.667 29.32 121.579 29.156 121.523 28.98C121.467 28.796 121.439 28.596 121.439 28.38C121.439 28.116 121.495 27.876 121.607 27.66C121.727 27.436 121.887 27.244 122.087 27.084C122.295 26.916 122.535 26.788 122.807 26.7C123.087 26.612 123.383 26.568 123.695 26.568C123.991 26.568 124.283 26.608 124.571 26.688C124.867 26.768 125.139 26.884 125.387 27.036C125.635 27.188 125.843 27.368 126.011 27.576L125.303 28.356C125.151 28.204 124.983 28.072 124.799 27.96C124.623 27.84 124.443 27.748 124.259 27.684C124.075 27.62 123.907 27.588 123.755 27.588C123.587 27.588 123.435 27.604 123.299 27.636C123.163 27.668 123.047 27.716 122.951 27.78C122.863 27.844 122.795 27.924 122.747 28.02C122.699 28.116 122.675 28.224 122.675 28.344C122.683 28.448 122.707 28.548 122.747 28.644C122.795 28.732 122.859 28.808 122.939 28.872C123.027 28.936 123.159 29.004 123.335 29.076C123.511 29.148 123.735 29.216 124.007 29.28C124.407 29.384 124.735 29.5 124.991 29.628C125.255 29.748 125.463 29.888 125.615 30.048C125.775 30.2 125.887 30.376 125.951 30.576C126.015 30.776 126.047 31 126.047 31.248C126.047 31.608 125.943 31.932 125.735 32.22C125.535 32.5 125.263 32.72 124.919 32.88C124.575 33.04 124.191 33.12 123.767 33.12ZM131.084 33V24.6H134.372C134.972 24.6 135.512 24.7 135.992 24.9C136.48 25.1 136.896 25.388 137.24 25.764C137.584 26.14 137.848 26.584 138.032 27.096C138.216 27.608 138.308 28.176 138.308 28.8C138.308 29.424 138.216 29.996 138.032 30.516C137.848 31.028 137.584 31.472 137.24 31.848C136.904 32.216 136.492 32.5 136.004 32.7C135.516 32.9 134.972 33 134.372 33H131.084ZM132.38 31.884L132.344 31.752H134.312C134.736 31.752 135.112 31.684 135.44 31.548C135.776 31.412 136.056 31.22 136.28 30.972C136.512 30.716 136.688 30.404 136.808 30.036C136.928 29.668 136.988 29.256 136.988 28.8C136.988 28.344 136.928 27.936 136.808 27.576C136.688 27.208 136.512 26.896 136.28 26.64C136.048 26.384 135.768 26.188 135.44 26.052C135.112 25.916 134.736 25.848 134.312 25.848H132.308L132.38 25.74V31.884ZM139.953 33V26.7H141.189V33H139.953ZM140.553 25.308C140.289 25.308 140.085 25.24 139.941 25.104C139.797 24.968 139.725 24.776 139.725 24.528C139.725 24.296 139.797 24.108 139.941 23.964C140.093 23.82 140.297 23.748 140.553 23.748C140.817 23.748 141.021 23.816 141.165 23.952C141.309 24.088 141.381 24.28 141.381 24.528C141.381 24.76 141.305 24.948 141.153 25.092C141.009 25.236 140.809 25.308 140.553 25.308ZM143.089 33V26.7H144.337V28.68L144.217 28.2C144.305 27.896 144.453 27.62 144.661 27.372C144.877 27.124 145.121 26.928 145.393 26.784C145.673 26.64 145.961 26.568 146.257 26.568C146.393 26.568 146.521 26.58 146.641 26.604C146.769 26.628 146.869 26.656 146.941 26.688L146.617 28.032C146.521 27.992 146.413 27.96 146.293 27.936C146.181 27.904 146.069 27.888 145.957 27.888C145.741 27.888 145.533 27.932 145.333 28.02C145.141 28.1 144.969 28.216 144.817 28.368C144.673 28.512 144.557 28.684 144.469 28.884C144.381 29.076 144.337 29.288 144.337 29.52V33H143.089ZM150.599 33.12C149.951 33.12 149.375 32.984 148.871 32.712C148.375 32.432 147.983 32.052 147.695 31.572C147.415 31.092 147.275 30.54 147.275 29.916C147.275 29.42 147.355 28.968 147.515 28.56C147.675 28.152 147.895 27.8 148.175 27.504C148.463 27.2 148.803 26.968 149.195 26.808C149.595 26.64 150.027 26.556 150.491 26.556C150.899 26.556 151.279 26.636 151.631 26.796C151.983 26.948 152.287 27.16 152.543 27.432C152.807 27.704 153.007 28.028 153.143 28.404C153.287 28.772 153.355 29.176 153.347 29.616L153.335 30.144H148.187L147.911 29.16H152.267L152.087 29.364V29.076C152.063 28.812 151.975 28.576 151.823 28.368C151.671 28.16 151.479 27.996 151.247 27.876C151.015 27.756 150.763 27.696 150.491 27.696C150.059 27.696 149.695 27.78 149.399 27.948C149.103 28.108 148.879 28.348 148.727 28.668C148.575 28.98 148.499 29.368 148.499 29.832C148.499 30.272 148.591 30.656 148.775 30.984C148.959 31.304 149.219 31.552 149.555 31.728C149.891 31.904 150.279 31.992 150.719 31.992C151.031 31.992 151.319 31.94 151.583 31.836C151.855 31.732 152.147 31.544 152.459 31.272L153.083 32.148C152.891 32.34 152.655 32.508 152.375 32.652C152.103 32.796 151.811 32.912 151.499 33C151.195 33.08 150.895 33.12 150.599 33.12ZM154.894 33V26.7H156.13V33H154.894ZM155.494 25.308C155.23 25.308 155.026 25.24 154.882 25.104C154.738 24.968 154.666 24.776 154.666 24.528C154.666 24.296 154.738 24.108 154.882 23.964C155.034 23.82 155.238 23.748 155.494 23.748C155.758 23.748 155.962 23.816 156.106 23.952C156.25 24.088 156.322 24.28 156.322 24.528C156.322 24.76 156.246 24.948 156.094 25.092C155.95 25.236 155.75 25.308 155.494 25.308ZM158.81 33V25.092H160.046V33H158.81ZM157.502 27.9V26.7H161.51V27.9H157.502ZM165.409 33.12C164.793 33.12 164.241 32.98 163.753 32.7C163.273 32.412 162.893 32.024 162.613 31.536C162.333 31.04 162.193 30.476 162.193 29.844C162.193 29.212 162.333 28.652 162.613 28.164C162.893 27.668 163.273 27.28 163.753 27C164.241 26.712 164.793 26.568 165.409 26.568C166.017 26.568 166.561 26.712 167.041 27C167.529 27.28 167.913 27.668 168.193 28.164C168.473 28.652 168.613 29.212 168.613 29.844C168.613 30.476 168.473 31.04 168.193 31.536C167.913 32.024 167.529 32.412 167.041 32.7C166.561 32.98 166.017 33.12 165.409 33.12ZM165.409 31.992C165.785 31.992 166.121 31.9 166.417 31.716C166.713 31.524 166.945 31.268 167.113 30.948C167.281 30.62 167.361 30.252 167.353 29.844C167.361 29.428 167.281 29.06 167.113 28.74C166.945 28.412 166.713 28.156 166.417 27.972C166.121 27.788 165.785 27.696 165.409 27.696C165.033 27.696 164.693 27.792 164.389 27.984C164.093 28.168 163.861 28.424 163.693 28.752C163.525 29.072 163.445 29.436 163.453 29.844C163.445 30.252 163.525 30.62 163.693 30.948C163.861 31.268 164.093 31.524 164.389 31.716C164.693 31.9 165.033 31.992 165.409 31.992ZM172.06 33.12C171.532 33.12 171.056 33.028 170.632 32.844C170.208 32.66 169.856 32.388 169.576 32.028L170.416 31.308C170.656 31.588 170.916 31.792 171.196 31.92C171.484 32.04 171.808 32.1 172.168 32.1C172.312 32.1 172.444 32.084 172.564 32.052C172.692 32.012 172.8 31.956 172.888 31.884C172.984 31.812 173.056 31.728 173.104 31.632C173.152 31.528 173.176 31.416 173.176 31.296C173.176 31.088 173.1 30.92 172.948 30.792C172.868 30.736 172.74 30.676 172.564 30.612C172.396 30.54 172.176 30.468 171.904 30.396C171.44 30.276 171.06 30.14 170.764 29.988C170.468 29.836 170.24 29.664 170.08 29.472C169.96 29.32 169.872 29.156 169.816 28.98C169.76 28.796 169.732 28.596 169.732 28.38C169.732 28.116 169.788 27.876 169.9 27.66C170.02 27.436 170.18 27.244 170.38 27.084C170.588 26.916 170.828 26.788 171.1 26.7C171.38 26.612 171.676 26.568 171.988 26.568C172.284 26.568 172.576 26.608 172.864 26.688C173.16 26.768 173.432 26.884 173.68 27.036C173.928 27.188 174.136 27.368 174.304 27.576L173.596 28.356C173.444 28.204 173.276 28.072 173.092 27.96C172.916 27.84 172.736 27.748 172.552 27.684C172.368 27.62 172.2 27.588 172.048 27.588C171.88 27.588 171.728 27.604 171.592 27.636C171.456 27.668 171.34 27.716 171.244 27.78C171.156 27.844 171.088 27.924 171.04 28.02C170.992 28.116 170.968 28.224 170.968 28.344C170.976 28.448 171 28.548 171.04 28.644C171.088 28.732 171.152 28.808 171.232 28.872C171.32 28.936 171.452 29.004 171.628 29.076C171.804 29.148 172.028 29.216 172.3 29.28C172.7 29.384 173.028 29.5 173.284 29.628C173.548 29.748 173.756 29.888 173.908 30.048C174.068 30.2 174.18 30.376 174.244 30.576C174.308 30.776 174.34 31 174.34 31.248C174.34 31.608 174.236 31.932 174.028 32.22C173.828 32.5 173.556 32.72 173.212 32.88C172.868 33.04 172.484 33.12 172.06 33.12ZM179.377 33V24.6H182.953C183.433 24.6 183.873 24.72 184.273 24.96C184.681 25.192 185.005 25.512 185.245 25.92C185.485 26.32 185.605 26.772 185.605 27.276C185.605 27.732 185.485 28.156 185.245 28.548C185.005 28.94 184.685 29.256 184.285 29.496C183.885 29.728 183.441 29.844 182.953 29.844H180.673V33H179.377ZM184.369 33L182.233 29.208L183.565 28.908L185.941 33.012L184.369 33ZM180.673 28.596H183.073C183.305 28.596 183.513 28.54 183.697 28.428C183.881 28.308 184.025 28.148 184.129 27.948C184.233 27.74 184.285 27.512 184.285 27.264C184.285 26.984 184.217 26.74 184.081 26.532C183.953 26.316 183.769 26.148 183.529 26.028C183.297 25.908 183.033 25.848 182.737 25.848H180.673V28.596ZM190.115 33.12C189.467 33.12 188.891 32.984 188.387 32.712C187.891 32.432 187.499 32.052 187.211 31.572C186.931 31.092 186.791 30.54 186.791 29.916C186.791 29.42 186.871 28.968 187.031 28.56C187.191 28.152 187.411 27.8 187.691 27.504C187.979 27.2 188.319 26.968 188.711 26.808C189.111 26.64 189.543 26.556 190.007 26.556C190.415 26.556 190.795 26.636 191.147 26.796C191.499 26.948 191.803 27.16 192.059 27.432C192.323 27.704 192.523 28.028 192.659 28.404C192.803 28.772 192.871 29.176 192.863 29.616L192.851 30.144H187.703L187.427 29.16H191.783L191.603 29.364V29.076C191.579 28.812 191.491 28.576 191.339 28.368C191.187 28.16 190.995 27.996 190.763 27.876C190.531 27.756 190.279 27.696 190.007 27.696C189.575 27.696 189.211 27.78 188.915 27.948C188.619 28.108 188.395 28.348 188.243 28.668C188.091 28.98 188.015 29.368 188.015 29.832C188.015 30.272 188.107 30.656 188.291 30.984C188.475 31.304 188.735 31.552 189.071 31.728C189.407 31.904 189.795 31.992 190.235 31.992C190.547 31.992 190.835 31.94 191.099 31.836C191.371 31.732 191.663 31.544 191.975 31.272L192.599 32.148C192.407 32.34 192.171 32.508 191.891 32.652C191.619 32.796 191.327 32.912 191.015 33C190.711 33.08 190.411 33.12 190.115 33.12ZM196.306 33.12C195.778 33.12 195.302 33.028 194.878 32.844C194.454 32.66 194.102 32.388 193.822 32.028L194.662 31.308C194.902 31.588 195.162 31.792 195.442 31.92C195.73 32.04 196.054 32.1 196.414 32.1C196.558 32.1 196.69 32.084 196.81 32.052C196.938 32.012 197.046 31.956 197.134 31.884C197.23 31.812 197.302 31.728 197.35 31.632C197.398 31.528 197.422 31.416 197.422 31.296C197.422 31.088 197.346 30.92 197.194 30.792C197.114 30.736 196.986 30.676 196.81 30.612C196.642 30.54 196.422 30.468 196.15 30.396C195.686 30.276 195.306 30.14 195.01 29.988C194.714 29.836 194.486 29.664 194.326 29.472C194.206 29.32 194.118 29.156 194.062 28.98C194.006 28.796 193.978 28.596 193.978 28.38C193.978 28.116 194.034 27.876 194.146 27.66C194.266 27.436 194.426 27.244 194.626 27.084C194.834 26.916 195.074 26.788 195.346 26.7C195.626 26.612 195.922 26.568 196.234 26.568C196.53 26.568 196.822 26.608 197.11 26.688C197.406 26.768 197.678 26.884 197.926 27.036C198.174 27.188 198.382 27.368 198.55 27.576L197.842 28.356C197.69 28.204 197.522 28.072 197.338 27.96C197.162 27.84 196.982 27.748 196.798 27.684C196.614 27.62 196.446 27.588 196.294 27.588C196.126 27.588 195.974 27.604 195.838 27.636C195.702 27.668 195.586 27.716 195.49 27.78C195.402 27.844 195.334 27.924 195.286 28.02C195.238 28.116 195.214 28.224 195.214 28.344C195.222 28.448 195.246 28.548 195.286 28.644C195.334 28.732 195.398 28.808 195.478 28.872C195.566 28.936 195.698 29.004 195.874 29.076C196.05 29.148 196.274 29.216 196.546 29.28C196.946 29.384 197.274 29.5 197.53 29.628C197.794 29.748 198.002 29.888 198.154 30.048C198.314 30.2 198.426 30.376 198.49 30.576C198.554 30.776 198.586 31 198.586 31.248C198.586 31.608 198.482 31.932 198.274 32.22C198.074 32.5 197.802 32.72 197.458 32.88C197.114 33.04 196.73 33.12 196.306 33.12ZM202.888 33.12C202.24 33.12 201.664 32.984 201.16 32.712C200.664 32.432 200.272 32.052 199.984 31.572C199.704 31.092 199.564 30.54 199.564 29.916C199.564 29.42 199.644 28.968 199.804 28.56C199.964 28.152 200.184 27.8 200.464 27.504C200.752 27.2 201.092 26.968 201.484 26.808C201.884 26.64 202.316 26.556 202.78 26.556C203.188 26.556 203.568 26.636 203.92 26.796C204.272 26.948 204.576 27.16 204.832 27.432C205.096 27.704 205.296 28.028 205.432 28.404C205.576 28.772 205.644 29.176 205.636 29.616L205.624 30.144H200.476L200.2 29.16H204.556L204.376 29.364V29.076C204.352 28.812 204.264 28.576 204.112 28.368C203.96 28.16 203.768 27.996 203.536 27.876C203.304 27.756 203.052 27.696 202.78 27.696C202.348 27.696 201.984 27.78 201.688 27.948C201.392 28.108 201.168 28.348 201.016 28.668C200.864 28.98 200.788 29.368 200.788 29.832C200.788 30.272 200.88 30.656 201.064 30.984C201.248 31.304 201.508 31.552 201.844 31.728C202.18 31.904 202.568 31.992 203.008 31.992C203.32 31.992 203.608 31.94 203.872 31.836C204.144 31.732 204.436 31.544 204.748 31.272L205.372 32.148C205.18 32.34 204.944 32.508 204.664 32.652C204.392 32.796 204.1 32.912 203.788 33C203.484 33.08 203.184 33.12 202.888 33.12ZM206.979 33V26.7H208.227V28.68L208.107 28.2C208.195 27.896 208.343 27.62 208.551 27.372C208.767 27.124 209.011 26.928 209.283 26.784C209.563 26.64 209.851 26.568 210.147 26.568C210.283 26.568 210.411 26.58 210.531 26.604C210.659 26.628 210.759 26.656 210.831 26.688L210.507 28.032C210.411 27.992 210.303 27.96 210.183 27.936C210.071 27.904 209.959 27.888 209.847 27.888C209.631 27.888 209.423 27.932 209.223 28.02C209.031 28.1 208.859 28.216 208.707 28.368C208.563 28.512 208.447 28.684 208.359 28.884C208.271 29.076 208.227 29.288 208.227 29.52V33H206.979ZM214.481 33L211.817 26.7H213.149L215.069 31.416L214.841 31.524L216.893 26.7H218.165L215.369 33H214.481ZM221.544 33.12C221.024 33.12 220.548 32.976 220.116 32.688C219.692 32.4 219.352 32.008 219.096 31.512C218.84 31.016 218.712 30.456 218.712 29.832C218.712 29.2 218.84 28.64 219.096 28.152C219.36 27.656 219.712 27.268 220.152 26.988C220.6 26.708 221.1 26.568 221.652 26.568C221.98 26.568 222.28 26.616 222.552 26.712C222.824 26.808 223.06 26.944 223.26 27.12C223.468 27.288 223.636 27.484 223.764 27.708C223.9 27.932 223.984 28.172 224.016 28.428L223.74 28.332V26.7H224.988V33H223.74V31.5L224.028 31.416C223.98 31.632 223.88 31.844 223.728 32.052C223.584 32.252 223.396 32.432 223.164 32.592C222.94 32.752 222.688 32.88 222.408 32.976C222.136 33.072 221.848 33.12 221.544 33.12ZM221.868 31.98C222.244 31.98 222.576 31.888 222.864 31.704C223.152 31.52 223.376 31.268 223.536 30.948C223.704 30.62 223.788 30.248 223.788 29.832C223.788 29.424 223.704 29.06 223.536 28.74C223.376 28.42 223.152 28.168 222.864 27.984C222.576 27.8 222.244 27.708 221.868 27.708C221.5 27.708 221.172 27.8 220.884 27.984C220.604 28.168 220.38 28.42 220.212 28.74C220.052 29.06 219.972 29.424 219.972 29.832C219.972 30.248 220.052 30.62 220.212 30.948C220.38 31.268 220.604 31.52 220.884 31.704C221.172 31.888 221.5 31.98 221.868 31.98ZM229.342 33.12C228.766 33.12 228.25 32.98 227.794 32.7C227.346 32.412 226.99 32.024 226.726 31.536C226.462 31.04 226.33 30.476 226.33 29.844C226.33 29.212 226.458 28.652 226.714 28.164C226.978 27.668 227.334 27.28 227.782 27C228.23 26.712 228.738 26.568 229.306 26.568C229.618 26.568 229.918 26.62 230.206 26.724C230.502 26.82 230.766 26.956 230.998 27.132C231.23 27.3 231.41 27.488 231.538 27.696C231.674 27.896 231.742 28.1 231.742 28.308L231.382 28.332V24.12H232.618V33H231.382V31.5H231.622C231.622 31.692 231.558 31.884 231.43 32.076C231.302 32.26 231.13 32.432 230.914 32.592C230.706 32.752 230.462 32.88 230.182 32.976C229.91 33.072 229.63 33.12 229.342 33.12ZM229.51 32.052C229.886 32.052 230.218 31.956 230.506 31.764C230.794 31.572 231.018 31.312 231.178 30.984C231.346 30.648 231.43 30.268 231.43 29.844C231.43 29.42 231.346 29.044 231.178 28.716C231.018 28.38 230.794 28.116 230.506 27.924C230.218 27.732 229.886 27.636 229.51 27.636C229.134 27.636 228.802 27.732 228.514 27.924C228.226 28.116 227.998 28.38 227.83 28.716C227.67 29.044 227.59 29.42 227.59 29.844C227.59 30.268 227.67 30.648 227.83 30.984C227.998 31.312 228.226 31.572 228.514 31.764C228.802 31.956 229.134 32.052 229.51 32.052ZM237.151 33.12C236.535 33.12 235.983 32.98 235.495 32.7C235.015 32.412 234.635 32.024 234.355 31.536C234.075 31.04 233.935 30.476 233.935 29.844C233.935 29.212 234.075 28.652 234.355 28.164C234.635 27.668 235.015 27.28 235.495 27C235.983 26.712 236.535 26.568 237.151 26.568C237.759 26.568 238.303 26.712 238.783 27C239.271 27.28 239.655 27.668 239.935 28.164C240.215 28.652 240.355 29.212 240.355 29.844C240.355 30.476 240.215 31.04 239.935 31.536C239.655 32.024 239.271 32.412 238.783 32.7C238.303 32.98 237.759 33.12 237.151 33.12ZM237.151 31.992C237.527 31.992 237.863 31.9 238.159 31.716C238.455 31.524 238.687 31.268 238.855 30.948C239.023 30.62 239.103 30.252 239.095 29.844C239.103 29.428 239.023 29.06 238.855 28.74C238.687 28.412 238.455 28.156 238.159 27.972C237.863 27.788 237.527 27.696 237.151 27.696C236.775 27.696 236.435 27.792 236.131 27.984C235.835 28.168 235.603 28.424 235.435 28.752C235.267 29.072 235.187 29.436 235.195 29.844C235.187 30.252 235.267 30.62 235.435 30.948C235.603 31.268 235.835 31.524 236.131 31.716C236.435 31.9 236.775 31.992 237.151 31.992ZM243.802 33.12C243.274 33.12 242.798 33.028 242.374 32.844C241.95 32.66 241.598 32.388 241.318 32.028L242.158 31.308C242.398 31.588 242.658 31.792 242.938 31.92C243.226 32.04 243.55 32.1 243.91 32.1C244.054 32.1 244.186 32.084 244.306 32.052C244.434 32.012 244.542 31.956 244.63 31.884C244.726 31.812 244.798 31.728 244.846 31.632C244.894 31.528 244.918 31.416 244.918 31.296C244.918 31.088 244.842 30.92 244.69 30.792C244.61 30.736 244.482 30.676 244.306 30.612C244.138 30.54 243.918 30.468 243.646 30.396C243.182 30.276 242.802 30.14 242.506 29.988C242.21 29.836 241.982 29.664 241.822 29.472C241.702 29.32 241.614 29.156 241.558 28.98C241.502 28.796 241.474 28.596 241.474 28.38C241.474 28.116 241.53 27.876 241.642 27.66C241.762 27.436 241.922 27.244 242.122 27.084C242.33 26.916 242.57 26.788 242.842 26.7C243.122 26.612 243.418 26.568 243.73 26.568C244.026 26.568 244.318 26.608 244.606 26.688C244.902 26.768 245.174 26.884 245.422 27.036C245.67 27.188 245.878 27.368 246.046 27.576L245.338 28.356C245.186 28.204 245.018 28.072 244.834 27.96C244.658 27.84 244.478 27.748 244.294 27.684C244.11 27.62 243.942 27.588 243.79 27.588C243.622 27.588 243.47 27.604 243.334 27.636C243.198 27.668 243.082 27.716 242.986 27.78C242.898 27.844 242.83 27.924 242.782 28.02C242.734 28.116 242.71 28.224 242.71 28.344C242.718 28.448 242.742 28.548 242.782 28.644C242.83 28.732 242.894 28.808 242.974 28.872C243.062 28.936 243.194 29.004 243.37 29.076C243.546 29.148 243.77 29.216 244.042 29.28C244.442 29.384 244.77 29.5 245.026 29.628C245.29 29.748 245.498 29.888 245.65 30.048C245.81 30.2 245.922 30.376 245.986 30.576C246.05 30.776 246.082 31 246.082 31.248C246.082 31.608 245.978 31.932 245.77 32.22C245.57 32.5 245.298 32.72 244.954 32.88C244.61 33.04 244.226 33.12 243.802 33.12Z" fill="#1D1933"/>
<defs>
<linearGradient id="paint0_linear_183_1006" x1="360" y1="23.5" x2="0" y2="23.5" gradientUnits="userSpaceOnUse">
<stop stop-color="#43A3D5"/>
<stop offset="1" stop-color="#9C60DA"/>
</linearGradient>
</defs>
</svg>
