<svg width="269" height="30" viewBox="0 0 269 30" fill="none" xmlns="http://www.w3.org/2000/svg">
<path d="M7.75187 19.8592C7.74616 20.8374 8.07464 21.2801 8.758 21.6292C9.38139 21.9484 10.0012 21.8641 10.631 21.762C13.5309 21.2908 16.2065 20.2669 18.5708 18.4947C19.2292 18.0013 19.8197 17.433 20.3017 16.7625C20.361 16.6804 20.3888 16.5269 20.3553 16.4341C19.8197 14.9639 19.2806 13.4945 18.7236 12.0322C18.2994 10.9184 17.6339 10.5792 16.4636 10.8427C15.4546 11.0697 14.5727 11.5681 13.7372 12.15C11.6179 13.6252 9.87481 15.4588 8.55806 17.685C8.12533 18.4183 7.78258 19.188 7.75187 19.8592ZM9.46993 20.5089C9.46065 20.4854 9.45208 20.4611 9.4428 20.4375C9.10147 20.4447 8.97365 20.3497 9.05506 20.0106C9.17431 19.5143 9.31927 19.0095 9.5492 18.5576C10.3183 17.0481 11.4308 15.7993 12.6604 14.6526C13.653 13.7266 14.7148 12.889 15.973 12.3464C16.3186 12.1979 16.6978 12.1079 17.0705 12.0465C17.364 11.9987 17.4854 12.12 17.434 12.4171C17.3662 12.8062 17.2719 13.2025 17.1119 13.5623C16.4964 14.9482 15.5431 16.0985 14.4949 17.1731C13.4209 18.2734 12.2577 19.2666 10.8731 19.9599C10.4261 20.1848 9.93908 20.329 9.46993 20.5089Z" fill="#9C60DA"/>
<path d="M20.9487 18.0292C18.5022 20.6182 15.4124 21.9412 12.052 22.8223C12.122 22.858 12.1706 22.8902 12.2241 22.9102C13.2652 23.2964 14.3056 23.687 15.3518 24.0597C15.5253 24.1218 15.7345 24.1418 15.9166 24.114C17.3733 23.8905 18.795 23.5449 20.1011 22.8302C20.828 22.4325 21.4699 21.9312 21.9377 21.2358C21.9948 21.1508 22.0462 21.0116 22.0162 20.9273C21.6727 19.9656 21.3128 19.0095 20.9487 18.0292Z" fill="#9C60DA"/>
<path d="M9.95907 4.9164C9.74057 5.23128 9.55634 5.4819 9.38853 5.74322C9.13432 6.13807 8.9965 6.56291 9.12361 7.03558C9.29427 7.67176 9.77841 8.06661 10.4768 8.14087C10.7681 8.17157 11.0616 8.18728 11.3808 8.21227C11.3458 8.27367 11.3165 8.33222 11.2815 8.38649C11.1373 8.61069 10.9738 8.82489 10.8488 9.05908C10.4611 9.7838 10.6232 10.5335 11.278 11.0276C11.8521 11.461 12.5347 11.5952 13.2288 11.6709C13.4523 11.6952 13.598 11.5553 13.6451 11.3368C13.7022 11.0762 13.7558 10.8148 13.7944 10.5507C13.8443 10.2115 13.7265 10.0551 13.3902 9.98016C13.0717 9.90876 12.754 9.83807 12.4005 9.75953C12.6097 9.4575 12.7925 9.20688 12.9603 8.94627C13.221 8.54428 13.3638 8.11231 13.2302 7.62964C13.0567 7.00488 12.5797 6.61432 11.8935 6.53863C11.595 6.50579 11.2951 6.48936 10.9652 6.46366C11.1202 6.23161 11.2723 6.01812 11.4101 5.79535C11.9749 4.87927 11.7428 3.93035 10.7724 3.4691C10.284 3.23705 9.72843 3.13709 9.19501 3.01357C8.93366 2.95288 8.77228 3.09211 8.71087 3.35415C8.65018 3.61405 8.59948 3.87609 8.56092 4.13956C8.51379 4.46515 8.62947 4.61937 8.95366 4.69292C9.27285 4.76646 9.59204 4.83572 9.95907 4.9164Z" fill="#9C60DA"/>
<path d="M5.2262 14.3827C5.17907 13.9808 5.16764 13.5959 5.0841 13.2268C4.86702 12.2671 3.92087 11.8066 3.03399 12.2357C2.65411 12.4192 2.31206 12.6813 1.9129 12.9326C1.84435 12.6356 1.76865 12.3542 1.7151 12.0693C1.6287 11.6102 1.46731 11.4917 1.01388 11.5795C0.795372 11.6217 0.575438 11.6574 0.359787 11.7088C0.0920105 11.7723 -0.0286694 11.9215 0.00489235 12.1872C0.077013 12.7627 0.193409 13.3289 0.487608 13.8401C1.00103 14.7319 1.88505 14.9625 2.76122 14.4299C2.994 14.2885 3.21465 14.1286 3.46029 13.9643C3.48528 14.2799 3.50242 14.5698 3.53241 14.8583C3.65666 16.0585 4.74277 16.6319 5.79674 16.0442C6.11379 15.8679 6.40442 15.6444 6.75288 15.4116C6.82429 15.7151 6.90212 15.9935 6.95425 16.2763C7.0428 16.7547 7.19847 16.8689 7.67047 16.7761C7.87969 16.7347 8.09106 16.7018 8.29885 16.654C8.58091 16.5883 8.7023 16.4391 8.66589 16.1585C8.59305 15.5923 8.47809 15.0346 8.19174 14.5298C7.6769 13.6245 6.78716 13.3917 5.90028 13.9336C5.67392 14.0714 5.45756 14.2278 5.2262 14.3827Z" fill="#9C60DA"/>
<path d="M0.915337 7.36974C0.914623 7.89168 0.853212 7.95094 1.48017 8.01306C3.62025 8.22441 5.40115 9.23259 6.96925 10.6328C7.60192 11.1983 8.1389 11.8716 8.70516 12.5092C8.93652 12.7698 8.97936 12.7948 9.27499 12.597C9.41566 12.5028 9.55705 12.4106 9.69629 12.315C9.93551 12.1507 9.95765 12.0422 9.78912 11.813C8.51379 10.0765 6.92426 8.70565 4.99984 7.73317C3.90302 7.1791 2.74479 6.82209 1.51373 6.71999C1.44304 6.71428 1.37163 6.70785 1.30094 6.70571C1.00674 6.69643 0.920336 6.77997 0.915337 7.07628C0.913908 7.17339 0.915337 7.27192 0.915337 7.36974Z" fill="#9C60DA"/>
<path d="M22.5982 22.5082C21.36 23.8634 19.7683 24.5495 17.9753 25.0365C18.4137 25.2007 18.7729 25.3356 19.1328 25.4699C20.4231 25.9511 21.7156 26.4281 23.0038 26.9172C23.3037 27.0307 23.5764 27.0557 23.8171 26.8129C24.0584 26.5702 24.027 26.2967 23.9135 25.9982C23.5058 24.9265 23.1123 23.8498 22.7124 22.7759C22.6817 22.6931 22.6439 22.6131 22.5982 22.5082Z" fill="#9C60DA"/>
<path d="M15.0269 5.83605C15.0269 6.08524 15.029 6.33442 15.0261 6.5829C15.024 6.80281 15.1254 6.91349 15.3482 6.91134C15.5617 6.9092 15.7752 6.9092 15.9887 6.91134C16.2115 6.91349 16.3115 6.8021 16.31 6.58219C16.3072 6.08381 16.3086 5.58614 16.3093 5.08776C16.3093 4.8807 16.2115 4.77289 16.0016 4.77289C15.7795 4.77289 15.5567 4.77289 15.3346 4.77289C15.1247 4.77289 15.0261 4.88142 15.0269 5.08776C15.0276 5.33767 15.0269 5.58686 15.0269 5.83605Z" fill="#9C60DA"/>
<path d="M4.56854 19.3108C4.80847 19.3108 5.04911 19.3087 5.28904 19.3115C5.50826 19.3144 5.62108 19.2144 5.61894 18.991C5.61751 18.7689 5.61965 18.5461 5.61751 18.3241C5.61537 18.1284 5.51326 18.0292 5.31831 18.0292C4.80275 18.0285 4.28648 18.027 3.77092 18.0299C3.57383 18.0313 3.48171 18.1413 3.481 18.3341C3.481 18.5561 3.481 18.7789 3.481 19.001C3.481 19.2094 3.5874 19.3108 3.79448 19.3101C4.05298 19.3108 4.31076 19.3108 4.56854 19.3108Z" fill="#9C60DA"/>
<path d="M1.86505 3.98533C1.8979 4.04317 1.92075 4.11385 1.96717 4.16098C2.33492 4.53512 2.70552 4.90712 3.07898 5.27555C3.21751 5.41192 3.36175 5.40264 3.49957 5.26412C3.65595 5.10633 3.81305 4.94925 3.97086 4.79216C4.12081 4.64294 4.11082 4.49728 3.96514 4.35233C3.60668 3.9939 3.25535 3.6269 2.88261 3.28418C2.80906 3.21634 2.60555 3.18136 2.53985 3.23205C2.31706 3.40484 2.12783 3.62119 1.93075 3.82611C1.8979 3.8611 1.89076 3.92107 1.86505 3.98533Z" fill="#9C60DA"/>
<path d="M36.8665 24V7.2H47.0425V9.024H38.7385V22.176H46.9945V24H36.8665ZM37.7305 16.272V14.448H45.6985V16.272H37.7305ZM54.0502 24L48.7702 11.472H50.7622L54.9382 21.72L54.4582 21.984L59.0422 11.472H60.9622L55.3462 24H54.0502ZM68.2447 24.24C66.9967 24.24 65.8847 23.968 64.9087 23.424C63.9487 22.88 63.1967 22.12 62.6527 21.144C62.1087 20.168 61.8367 19.048 61.8367 17.784C61.8367 16.808 61.9887 15.928 62.2927 15.144C62.5967 14.344 63.0207 13.648 63.5647 13.056C64.1247 12.464 64.7887 12.008 65.5567 11.688C66.3247 11.352 67.1567 11.184 68.0527 11.184C68.9007 11.184 69.6687 11.336 70.3567 11.64C71.0607 11.944 71.6607 12.368 72.1567 12.912C72.6687 13.44 73.0527 14.072 73.3087 14.808C73.5647 15.544 73.6767 16.352 73.6447 17.232L73.6207 18.072H63.1807L62.9167 16.56H72.2527L71.8207 16.968V16.392C71.7887 15.816 71.6207 15.264 71.3167 14.736C71.0127 14.192 70.5807 13.752 70.0207 13.416C69.4767 13.08 68.8207 12.912 68.0527 12.912C67.1567 12.912 66.3807 13.096 65.7247 13.464C65.0687 13.816 64.5647 14.344 64.2127 15.048C63.8607 15.752 63.6847 16.624 63.6847 17.664C63.6847 18.656 63.8767 19.52 64.2607 20.256C64.6447 20.976 65.1887 21.536 65.8927 21.936C66.6127 22.336 67.4767 22.536 68.4847 22.536C69.0767 22.536 69.6607 22.44 70.2367 22.248C70.8287 22.04 71.4767 21.64 72.1807 21.048L73.1167 22.344C72.7487 22.712 72.3087 23.04 71.7967 23.328C71.2847 23.6 70.7247 23.824 70.1167 24C69.5087 24.16 68.8847 24.24 68.2447 24.24ZM76.2012 24V11.472H77.9772L78.0492 14.088L77.7612 14.208C77.9212 13.664 78.2332 13.168 78.6972 12.72C79.1612 12.272 79.7132 11.912 80.3532 11.64C81.0092 11.352 81.6812 11.208 82.3692 11.208C83.2972 11.208 84.0732 11.392 84.6972 11.76C85.3212 12.128 85.7932 12.696 86.1132 13.464C86.4332 14.232 86.5932 15.208 86.5932 16.392V24H84.7692V16.488C84.7692 15.656 84.6572 14.976 84.4332 14.448C84.2252 13.904 83.8972 13.504 83.4492 13.248C83.0012 12.992 82.4492 12.872 81.7932 12.888C81.2492 12.888 80.7452 12.984 80.2812 13.176C79.8172 13.352 79.4172 13.6 79.0812 13.92C78.7452 14.24 78.4812 14.608 78.2892 15.024C78.0972 15.44 78.0012 15.888 78.0012 16.368V24H77.1132C77.0012 24 76.8732 24 76.7292 24C76.5852 24 76.4092 24 76.2012 24ZM91.7573 24V8.184H93.5573V24H91.7573ZM88.9253 13.2V11.472H96.7253V13.2H88.9253ZM104.362 24.24C103.114 24.24 102.002 23.96 101.026 23.4C100.066 22.84 99.3064 22.064 98.7464 21.072C98.2024 20.08 97.9304 18.952 97.9304 17.688C97.9304 16.44 98.2024 15.328 98.7464 14.352C99.3064 13.376 100.066 12.608 101.026 12.048C102.002 11.488 103.114 11.208 104.362 11.208C105.594 11.208 106.69 11.488 107.65 12.048C108.626 12.608 109.386 13.376 109.93 14.352C110.49 15.328 110.77 16.44 110.77 17.688C110.77 18.952 110.49 20.08 109.93 21.072C109.386 22.064 108.626 22.84 107.65 23.4C106.69 23.96 105.594 24.24 104.362 24.24ZM104.362 22.536C105.242 22.536 106.026 22.328 106.714 21.912C107.402 21.48 107.938 20.904 108.322 20.184C108.706 19.448 108.898 18.616 108.898 17.688C108.898 16.76 108.706 15.936 108.322 15.216C107.938 14.496 107.402 13.936 106.714 13.536C106.026 13.12 105.242 12.912 104.362 12.912C103.482 12.912 102.69 13.12 101.986 13.536C101.298 13.936 100.754 14.504 100.354 15.24C99.9704 15.96 99.7864 16.776 99.8024 17.688C99.7864 18.616 99.9704 19.448 100.354 20.184C100.754 20.904 101.298 21.48 101.986 21.912C102.69 22.328 103.482 22.536 104.362 22.536ZM117.501 24.24C116.429 24.24 115.469 24.04 114.621 23.64C113.773 23.24 113.101 22.712 112.605 22.056L113.877 20.952C114.341 21.512 114.885 21.936 115.509 22.224C116.149 22.512 116.861 22.656 117.645 22.656C118.045 22.656 118.405 22.616 118.725 22.536C119.045 22.44 119.325 22.304 119.565 22.128C119.805 21.952 119.989 21.744 120.117 21.504C120.245 21.264 120.309 21 120.309 20.712C120.309 20.184 120.077 19.744 119.613 19.392C119.405 19.248 119.109 19.104 118.725 18.96C118.341 18.8 117.877 18.648 117.333 18.504C116.437 18.248 115.693 17.992 115.101 17.736C114.509 17.464 114.045 17.152 113.709 16.8C113.469 16.512 113.285 16.2 113.157 15.864C113.045 15.528 112.989 15.16 112.989 14.76C112.989 14.248 113.093 13.776 113.301 13.344C113.525 12.912 113.829 12.536 114.213 12.216C114.613 11.88 115.077 11.632 115.605 11.472C116.149 11.296 116.733 11.208 117.357 11.208C117.949 11.208 118.533 11.288 119.109 11.448C119.685 11.608 120.221 11.84 120.717 12.144C121.213 12.448 121.637 12.808 121.989 13.224L120.885 14.424C120.581 14.104 120.245 13.816 119.877 13.56C119.509 13.304 119.117 13.104 118.701 12.96C118.301 12.816 117.885 12.744 117.453 12.744C117.069 12.744 116.709 12.792 116.373 12.888C116.053 12.984 115.773 13.12 115.533 13.296C115.309 13.456 115.133 13.656 115.005 13.896C114.893 14.136 114.837 14.4 114.837 14.688C114.837 14.928 114.885 15.144 114.981 15.336C115.077 15.528 115.213 15.696 115.389 15.84C115.613 16.016 115.925 16.184 116.325 16.344C116.741 16.488 117.253 16.64 117.861 16.8C118.565 16.992 119.157 17.192 119.637 17.4C120.133 17.592 120.541 17.824 120.861 18.096C121.293 18.416 121.597 18.784 121.773 19.2C121.965 19.616 122.061 20.088 122.061 20.616C122.061 21.32 121.861 21.944 121.461 22.488C121.077 23.032 120.541 23.464 119.853 23.784C119.165 24.088 118.381 24.24 117.501 24.24ZM131.199 18.216V16.416H137.967V18.216H131.199ZM148.499 24V7.2H150.323L156.779 17.688L155.915 17.664L162.443 7.2H164.147V24H162.275V16.32C162.275 14.88 162.299 13.584 162.347 12.432C162.395 11.28 162.483 10.136 162.611 9L162.947 9.672L156.923 19.128H155.627L149.771 9.792L150.035 9C150.163 10.072 150.251 11.176 150.299 12.312C150.347 13.432 150.371 14.768 150.371 16.32V24H148.499ZM173.925 24.24C172.677 24.24 171.565 23.96 170.589 23.4C169.629 22.84 168.869 22.064 168.309 21.072C167.765 20.08 167.493 18.952 167.493 17.688C167.493 16.44 167.765 15.328 168.309 14.352C168.869 13.376 169.629 12.608 170.589 12.048C171.565 11.488 172.677 11.208 173.925 11.208C175.157 11.208 176.253 11.488 177.213 12.048C178.189 12.608 178.949 13.376 179.493 14.352C180.053 15.328 180.333 16.44 180.333 17.688C180.333 18.952 180.053 20.08 179.493 21.072C178.949 22.064 178.189 22.84 177.213 23.4C176.253 23.96 175.157 24.24 173.925 24.24ZM173.925 22.536C174.805 22.536 175.589 22.328 176.277 21.912C176.965 21.48 177.501 20.904 177.885 20.184C178.269 19.448 178.461 18.616 178.461 17.688C178.461 16.76 178.269 15.936 177.885 15.216C177.501 14.496 176.965 13.936 176.277 13.536C175.589 13.12 174.805 12.912 173.925 12.912C173.045 12.912 172.253 13.12 171.549 13.536C170.861 13.936 170.317 14.504 169.917 15.24C169.533 15.96 169.349 16.776 169.365 17.688C169.349 18.616 169.533 19.448 169.917 20.184C170.317 20.904 170.861 21.48 171.549 21.912C172.253 22.328 173.045 22.536 173.925 22.536ZM187.063 24.24C185.991 24.24 185.031 24.04 184.183 23.64C183.335 23.24 182.663 22.712 182.167 22.056L183.439 20.952C183.903 21.512 184.447 21.936 185.071 22.224C185.711 22.512 186.423 22.656 187.207 22.656C187.607 22.656 187.967 22.616 188.287 22.536C188.607 22.44 188.887 22.304 189.127 22.128C189.367 21.952 189.551 21.744 189.679 21.504C189.807 21.264 189.871 21 189.871 20.712C189.871 20.184 189.639 19.744 189.175 19.392C188.967 19.248 188.671 19.104 188.287 18.96C187.903 18.8 187.439 18.648 186.895 18.504C185.999 18.248 185.255 17.992 184.663 17.736C184.071 17.464 183.607 17.152 183.271 16.8C183.031 16.512 182.847 16.2 182.719 15.864C182.607 15.528 182.551 15.16 182.551 14.76C182.551 14.248 182.655 13.776 182.863 13.344C183.087 12.912 183.391 12.536 183.775 12.216C184.175 11.88 184.639 11.632 185.167 11.472C185.711 11.296 186.295 11.208 186.919 11.208C187.511 11.208 188.095 11.288 188.671 11.448C189.247 11.608 189.783 11.84 190.279 12.144C190.775 12.448 191.199 12.808 191.551 13.224L190.447 14.424C190.143 14.104 189.807 13.816 189.439 13.56C189.071 13.304 188.679 13.104 188.263 12.96C187.863 12.816 187.447 12.744 187.015 12.744C186.631 12.744 186.271 12.792 185.935 12.888C185.615 12.984 185.335 13.12 185.095 13.296C184.871 13.456 184.695 13.656 184.567 13.896C184.455 14.136 184.399 14.4 184.399 14.688C184.399 14.928 184.447 15.144 184.543 15.336C184.639 15.528 184.775 15.696 184.951 15.84C185.175 16.016 185.487 16.184 185.887 16.344C186.303 16.488 186.815 16.64 187.423 16.8C188.127 16.992 188.719 17.192 189.199 17.4C189.695 17.592 190.103 17.824 190.423 18.096C190.855 18.416 191.159 18.784 191.335 19.2C191.527 19.616 191.623 20.088 191.623 20.616C191.623 21.32 191.423 21.944 191.023 22.488C190.639 23.032 190.103 23.464 189.415 23.784C188.727 24.088 187.943 24.24 187.063 24.24ZM196.171 24V8.184H197.971V24H196.171ZM193.339 13.2V11.472H201.139V13.2H193.339ZM207.79 24.24C206.83 24.24 206.014 24.048 205.342 23.664C204.686 23.264 204.182 22.688 203.83 21.936C203.494 21.184 203.326 20.248 203.326 19.128V11.472H205.15V18.768C205.15 19.616 205.262 20.328 205.486 20.904C205.726 21.464 206.078 21.888 206.542 22.176C207.022 22.464 207.606 22.608 208.294 22.608C208.822 22.608 209.31 22.52 209.758 22.344C210.206 22.152 210.598 21.896 210.934 21.576C211.27 21.256 211.534 20.88 211.726 20.448C211.918 20.016 212.014 19.56 212.014 19.08V11.472H213.814V24H212.038L211.966 21.36L212.254 21.216C212.062 21.776 211.742 22.288 211.294 22.752C210.846 23.2 210.31 23.56 209.686 23.832C209.078 24.104 208.446 24.24 207.79 24.24ZM217.318 24V11.472H219.118L219.166 14.808L218.974 14.352C219.15 13.792 219.43 13.272 219.814 12.792C220.214 12.312 220.686 11.928 221.23 11.64C221.774 11.352 222.374 11.208 223.03 11.208C223.302 11.208 223.558 11.232 223.798 11.28C224.038 11.312 224.238 11.36 224.398 11.424L223.894 13.44C223.686 13.344 223.47 13.28 223.246 13.248C223.038 13.2 222.838 13.176 222.646 13.176C222.102 13.176 221.614 13.272 221.182 13.464C220.75 13.656 220.382 13.928 220.078 14.28C219.774 14.616 219.542 15.008 219.382 15.456C219.222 15.904 219.142 16.384 219.142 16.896V24H217.318ZM230.628 24.24C229.54 24.24 228.556 23.96 227.676 23.4C226.796 22.824 226.1 22.048 225.588 21.072C225.076 20.08 224.82 18.96 224.82 17.712C224.82 16.448 225.084 15.328 225.612 14.352C226.14 13.376 226.844 12.608 227.724 12.048C228.62 11.488 229.62 11.208 230.724 11.208C231.38 11.208 231.988 11.304 232.548 11.496C233.108 11.688 233.604 11.96 234.036 12.312C234.484 12.648 234.852 13.048 235.14 13.512C235.444 13.96 235.652 14.448 235.764 14.976L235.236 14.712L235.308 11.472H237.108V24H235.284V20.928L235.764 20.616C235.652 21.096 235.436 21.56 235.116 22.008C234.796 22.44 234.404 22.824 233.94 23.16C233.492 23.496 232.98 23.76 232.404 23.952C231.844 24.144 231.252 24.24 230.628 24.24ZM231.036 22.512C231.868 22.512 232.612 22.312 233.268 21.912C233.924 21.496 234.436 20.928 234.804 20.208C235.188 19.472 235.38 18.64 235.38 17.712C235.38 16.784 235.188 15.96 234.804 15.24C234.436 14.52 233.924 13.952 233.268 13.536C232.612 13.12 231.868 12.912 231.036 12.912C230.188 12.912 229.436 13.12 228.78 13.536C228.14 13.952 227.628 14.52 227.244 15.24C226.876 15.96 226.692 16.784 226.692 17.712C226.692 18.624 226.876 19.448 227.244 20.184C227.612 20.904 228.124 21.472 228.78 21.888C229.436 22.304 230.188 22.512 231.036 22.512ZM229.908 9.624L229.26 8.64L232.668 5.784L233.844 7.296L229.908 9.624ZM240.615 24V11.472H242.415L242.463 14.808L242.271 14.352C242.447 13.792 242.727 13.272 243.111 12.792C243.511 12.312 243.983 11.928 244.527 11.64C245.071 11.352 245.671 11.208 246.327 11.208C246.599 11.208 246.855 11.232 247.095 11.28C247.335 11.312 247.535 11.36 247.695 11.424L247.191 13.44C246.983 13.344 246.767 13.28 246.543 13.248C246.335 13.2 246.135 13.176 245.943 13.176C245.399 13.176 244.911 13.272 244.479 13.464C244.047 13.656 243.679 13.928 243.375 14.28C243.071 14.616 242.839 15.008 242.679 15.456C242.519 15.904 242.439 16.384 242.439 16.896V24H240.615ZM250.048 24V11.472H251.848V24H250.048ZM250.936 8.76C250.488 8.76 250.144 8.648 249.904 8.424C249.68 8.184 249.568 7.864 249.568 7.464C249.568 7.064 249.688 6.744 249.928 6.504C250.168 6.264 250.504 6.144 250.936 6.144C251.368 6.144 251.704 6.264 251.944 6.504C252.184 6.728 252.304 7.048 252.304 7.464C252.304 7.848 252.184 8.16 251.944 8.4C251.704 8.64 251.368 8.76 250.936 8.76ZM261.323 24.24C260.075 24.24 258.963 23.96 257.987 23.4C257.027 22.84 256.267 22.064 255.707 21.072C255.163 20.08 254.891 18.952 254.891 17.688C254.891 16.44 255.163 15.328 255.707 14.352C256.267 13.376 257.027 12.608 257.987 12.048C258.963 11.488 260.075 11.208 261.323 11.208C262.555 11.208 263.651 11.488 264.611 12.048C265.587 12.608 266.347 13.376 266.891 14.352C267.451 15.328 267.731 16.44 267.731 17.688C267.731 18.952 267.451 20.08 266.891 21.072C266.347 22.064 265.587 22.84 264.611 23.4C263.651 23.96 262.555 24.24 261.323 24.24ZM261.323 22.536C262.203 22.536 262.987 22.328 263.675 21.912C264.363 21.48 264.899 20.904 265.283 20.184C265.667 19.448 265.859 18.616 265.859 17.688C265.859 16.76 265.667 15.936 265.283 15.216C264.899 14.496 264.363 13.936 263.675 13.536C262.987 13.12 262.203 12.912 261.323 12.912C260.443 12.912 259.651 13.12 258.947 13.536C258.259 13.936 257.715 14.504 257.315 15.24C256.931 15.96 256.747 16.776 256.763 17.688C256.747 18.616 256.931 19.448 257.315 20.184C257.715 20.904 258.259 21.48 258.947 21.912C259.651 22.328 260.443 22.536 261.323 22.536Z" fill="url(#paint0_linear_602_6526)"/>
<defs>
<linearGradient id="paint0_linear_602_6526" x1="269" y1="15" x2="34" y2="15" gradientUnits="userSpaceOnUse">
<stop stop-color="#43A3D5"/>
<stop offset="1" stop-color="#9C60DA"/>
</linearGradient>
</defs>
</svg>
