<svg width="166" height="40" viewBox="0 0 166 40" fill="none" xmlns="http://www.w3.org/2000/svg">
<path d="M34.667 17.0578C34.6643 19.0178 34.6497 20.6818 34.539 22.0485C34.4097 23.6351 34.1443 24.9605 33.5523 26.0605C33.2937 26.5426 32.9657 26.9841 32.579 27.3711C31.4683 28.4818 30.055 28.9845 28.263 29.2245C26.5123 29.4605 24.267 29.4605 21.4043 29.4605H21.263C18.399 29.4605 16.1563 29.4605 14.4043 29.2245C12.6137 28.9845 11.199 28.4818 10.0897 27.3711C9.10567 26.3871 8.59633 25.1631 8.327 23.6445C8.06033 22.1511 8.01233 20.2951 8.003 17.9898C8.00033 17.4031 7.99944 16.7823 8.00033 16.1271V16.0551C8.00033 13.1911 8.00033 10.9485 8.23633 9.19648C8.47633 7.40581 8.979 5.99115 10.0897 4.88181C11.2003 3.77248 12.6137 3.26848 14.4043 3.02848C15.9617 2.81915 17.9643 2.79515 20.403 2.79248C20.6498 2.79248 20.8865 2.89053 21.0611 3.06507C21.2356 3.2396 21.3337 3.47632 21.3337 3.72315C21.3337 3.96998 21.2356 4.20669 21.0611 4.38123C20.8865 4.55576 20.6498 4.65381 20.403 4.65381C17.9297 4.65648 16.091 4.67781 14.6523 4.87115C13.067 5.08448 12.111 5.48981 11.4043 6.19648C10.6977 6.90315 10.2937 7.86048 10.0803 9.44715C9.863 11.0605 9.86033 13.1778 9.86033 16.1271V17.1725L11.103 16.0871C11.6477 15.6106 12.3532 15.3588 13.0765 15.3828C13.7999 15.4068 14.4871 15.7048 14.999 16.2165L20.319 21.5365C20.7318 21.9495 21.277 22.2036 21.8587 22.2541C22.4404 22.3046 23.0213 22.1482 23.499 21.8125L23.8697 21.5525C24.5587 21.0682 25.3917 20.832 26.2324 20.8826C27.0731 20.9333 27.8717 21.2677 28.4977 21.8311L32.0083 24.9911C32.3617 24.2485 32.5723 23.2738 32.6843 21.8978C32.7897 20.6018 32.8043 19.0285 32.8057 17.0578C32.8057 16.811 32.9037 16.5743 33.0783 16.3997C33.2528 16.2252 33.4895 16.1271 33.7363 16.1271C33.9832 16.1271 34.2199 16.2252 34.3944 16.3997C34.569 16.5743 34.667 16.811 34.667 17.0578Z" fill="#1D1933"/>
<path d="M28.8346 7.05194C29.2641 7.05194 29.6755 7.2185 29.9792 7.51385C30.2828 7.80922 30.4538 8.20942 30.4538 8.62714C30.4538 9.04485 30.2828 9.44505 29.9792 9.74042C29.6755 10.0358 29.2641 10.2023 28.8346 10.2023C28.4052 10.2023 27.9938 10.0358 27.6901 9.74042C27.3865 9.44505 27.2155 9.04484 27.2155 8.62714C27.2155 8.20943 27.3865 7.80922 27.6901 7.51385C27.9938 7.2185 28.4052 7.05195 28.8346 7.05194Z" fill="#1D1933"/>
<path fill-rule="evenodd" clip-rule="evenodd" d="M28.6667 2.79413C31.4947 2.79413 32.9101 2.79339 33.7887 3.67206C34.6674 4.55072 34.6667 5.96613 34.6667 8.79413C34.6667 11.6217 34.6672 13.0366 33.7887 13.9152C32.9101 14.7939 31.4947 14.7941 28.6667 14.7941C25.8389 14.7941 24.4242 14.7939 23.5456 13.9152C22.6669 13.0366 22.6667 11.6219 22.6667 8.79413C22.6667 5.96613 22.6669 4.55072 23.5456 3.67206C24.4242 2.79358 25.8391 2.79413 28.6667 2.79413ZM27.9098 4.12714C27.7942 4.12714 27.6969 4.20859 27.6784 4.31659L27.5065 5.50897C27.2154 5.62142 26.9656 5.77406 26.7253 5.9494L25.5729 5.49921C25.4712 5.45896 25.3461 5.49994 25.2907 5.59882L24.3659 7.15546C24.3057 7.25446 24.3337 7.37604 24.4216 7.44354L25.3971 8.17694C25.3786 8.32994 25.3649 8.47864 25.3649 8.62714C25.3649 8.77563 25.3786 8.91966 25.3971 9.06366L24.4216 9.81073C24.3337 9.87823 24.3057 9.99982 24.3659 10.0988L25.2907 11.6555C25.3461 11.7543 25.4712 11.7908 25.5729 11.7551L26.7253 11.3C26.9657 11.4799 27.2153 11.6328 27.5065 11.7453L27.6784 12.9377C27.6969 13.0457 27.7942 13.1271 27.9098 13.1271H29.7604C29.8759 13.1269 29.9724 13.0455 29.9909 12.9377L30.1628 11.7453C30.454 11.6283 30.7036 11.4799 30.944 11.3L32.0964 11.7551C32.1981 11.7909 32.3231 11.7544 32.3786 11.6555L33.3034 10.0988C33.3589 9.99982 33.3356 9.87823 33.2477 9.81073L32.2721 9.06366C32.2906 8.91966 32.3044 8.77564 32.3044 8.62714C32.3044 8.47864 32.2906 8.32994 32.2721 8.17694L33.2477 7.44354C33.3356 7.37604 33.3589 7.25446 33.3034 7.15546L32.3786 5.59882C32.3231 5.49991 32.1981 5.4589 32.0964 5.49921L30.944 5.9494C30.7036 5.77407 30.4539 5.62142 30.1628 5.50897L29.9909 4.31659C29.9815 4.26359 29.9532 4.21544 29.9108 4.18085C29.8686 4.14636 29.8155 4.1271 29.7604 4.12714H27.9098Z" fill="#1D1933"/>
<path d="M7 10.5376C6.37216 11.3732 6 12.4119 6 13.5376V26.2075C6 28.9689 8.23858 31.2075 11 31.2075H23.6699C24.7931 31.2075 25.8294 30.8367 26.6641 30.2114H29.4082C28.2073 31.9298 26.2576 33.0858 24.0303 33.1987L23.6699 33.2075H11L10.6396 33.1987C7.06044 33.0172 4.19024 30.1471 4.00879 26.5679L4 26.2075V13.5376C4 11.1589 5.18656 9.05745 7 7.79248V10.5376Z" fill="#1D1933"/>
<path d="M3 14.5376C2.37216 15.3732 2 16.4119 2 17.5376V30.2075C2 32.9689 4.23858 35.2075 7 35.2075H19.6699C20.7931 35.2075 21.8294 34.8367 22.6641 34.2114H25.4082C24.2073 35.9298 22.2576 37.0858 20.0303 37.1987L19.6699 37.2075H7L6.63965 37.1987C3.06044 37.0172 0.19024 34.1471 0.00878906 30.5679L0 30.2075V17.5376C1.71599e-06 15.1589 1.18656 13.0574 3 11.7925V14.5376Z" fill="#1D1933"/>
<path d="M52.887 18.2C51.8737 18.2 50.927 18.02 50.047 17.66C49.167 17.2867 48.3937 16.7733 47.727 16.12C47.0603 15.4667 46.5403 14.7067 46.167 13.84C45.807 12.96 45.627 12.0133 45.627 11C45.627 10 45.807 9.06667 46.167 8.2C46.5403 7.33333 47.0537 6.58 47.707 5.94C48.3737 5.28667 49.147 4.78 50.027 4.42C50.907 4.06 51.8537 3.88 52.867 3.88C53.5737 3.88 54.2603 3.98 54.927 4.18C55.607 4.38 56.2203 4.66 56.767 5.02C57.3137 5.38 57.7603 5.79333 58.107 6.26L56.707 7.72C56.307 7.33333 55.8937 7.01333 55.467 6.76C55.0537 6.50667 54.627 6.31333 54.187 6.18C53.747 6.04667 53.307 5.98 52.867 5.98C52.147 5.98 51.4803 6.10667 50.867 6.36C50.267 6.61333 49.7337 6.96667 49.267 7.42C48.8137 7.87333 48.4603 8.40667 48.207 9.02C47.9537 9.62 47.827 10.28 47.827 11C47.827 11.6933 47.9603 12.3533 48.227 12.98C48.4937 13.5933 48.8603 14.1333 49.327 14.6C49.807 15.0667 50.3537 15.4333 50.967 15.7C51.5937 15.9667 52.2537 16.1 52.947 16.1C53.467 16.1 53.9603 16.0267 54.427 15.88C54.8937 15.72 55.307 15.5 55.667 15.22C56.027 14.94 56.307 14.62 56.507 14.26C56.707 13.8867 56.807 13.4933 56.807 13.08V12.68L57.107 12.96H52.827V10.82H59.027C59.0537 10.9667 59.0737 11.1133 59.087 11.26C59.1003 11.3933 59.107 11.5267 59.107 11.66C59.1203 11.78 59.127 11.9 59.127 12.02C59.127 12.94 58.967 13.78 58.647 14.54C58.327 15.2867 57.8803 15.9333 57.307 16.48C56.747 17.0267 56.087 17.4533 55.327 17.76C54.5803 18.0533 53.767 18.2 52.887 18.2ZM66.3195 18.2C65.2395 18.2 64.2795 17.9733 63.4395 17.52C62.6128 17.0533 61.9595 16.42 61.4795 15.62C61.0128 14.82 60.7795 13.9 60.7795 12.86C60.7795 12.0333 60.9128 11.28 61.1795 10.6C61.4462 9.92 61.8128 9.33333 62.2795 8.84C62.7595 8.33333 63.3262 7.94667 63.9795 7.68C64.6462 7.4 65.3662 7.26 66.1395 7.26C66.8195 7.26 67.4528 7.39333 68.0395 7.66C68.6262 7.91333 69.1328 8.26667 69.5595 8.72C69.9995 9.17333 70.3328 9.71333 70.5595 10.34C70.7995 10.9533 70.9128 11.6267 70.8995 12.36L70.8795 13.24H62.2995L61.8395 11.6H69.0995L68.7995 11.94V11.46C68.7595 11.02 68.6128 10.6267 68.3595 10.28C68.1062 9.93333 67.7862 9.66 67.3995 9.46C67.0128 9.26 66.5928 9.16 66.1395 9.16C65.4195 9.16 64.8128 9.3 64.3195 9.58C63.8262 9.84667 63.4528 10.2467 63.1995 10.78C62.9462 11.3 62.8195 11.9467 62.8195 12.72C62.8195 13.4533 62.9728 14.0933 63.2795 14.64C63.5862 15.1733 64.0195 15.5867 64.5795 15.88C65.1395 16.1733 65.7862 16.32 66.5195 16.32C67.0395 16.32 67.5195 16.2333 67.9595 16.06C68.4128 15.8867 68.8995 15.5733 69.4195 15.12L70.4595 16.58C70.1395 16.9 69.7462 17.18 69.2795 17.42C68.8262 17.66 68.3395 17.8533 67.8195 18C67.3128 18.1333 66.8128 18.2 66.3195 18.2ZM73.1382 18V7.5H75.2183V10.8L75.0182 10C75.1649 9.49333 75.4116 9.03333 75.7582 8.62C76.1182 8.20667 76.5249 7.88 76.9782 7.64C77.4449 7.4 77.9249 7.28 78.4183 7.28C78.6449 7.28 78.8583 7.3 79.0583 7.34C79.2716 7.38 79.4382 7.42667 79.5582 7.48L79.0183 9.72C78.8583 9.65333 78.6782 9.6 78.4783 9.56C78.2916 9.50667 78.1049 9.48 77.9183 9.48C77.5583 9.48 77.2116 9.55333 76.8782 9.7C76.5583 9.83333 76.2716 10.0267 76.0182 10.28C75.7783 10.52 75.5849 10.8067 75.4382 11.14C75.2916 11.46 75.2183 11.8133 75.2183 12.2V18H73.1382ZM85.6554 18.2C84.5754 18.2 83.6154 17.9733 82.7754 17.52C81.9488 17.0533 81.2954 16.42 80.8154 15.62C80.3488 14.82 80.1154 13.9 80.1154 12.86C80.1154 12.0333 80.2488 11.28 80.5154 10.6C80.7821 9.92 81.1488 9.33333 81.6154 8.84C82.0954 8.33333 82.6621 7.94667 83.3154 7.68C83.9821 7.4 84.7021 7.26 85.4754 7.26C86.1554 7.26 86.7888 7.39333 87.3754 7.66C87.9621 7.91333 88.4688 8.26667 88.8954 8.72C89.3354 9.17333 89.6688 9.71333 89.8954 10.34C90.1354 10.9533 90.2488 11.6267 90.2354 12.36L90.2154 13.24H81.6354L81.1754 11.6H88.4354L88.1354 11.94V11.46C88.0954 11.02 87.9488 10.6267 87.6954 10.28C87.4421 9.93333 87.1221 9.66 86.7354 9.46C86.3488 9.26 85.9288 9.16 85.4754 9.16C84.7554 9.16 84.1488 9.3 83.6554 9.58C83.1621 9.84667 82.7888 10.2467 82.5354 10.78C82.2821 11.3 82.1554 11.9467 82.1554 12.72C82.1554 13.4533 82.3088 14.0933 82.6154 14.64C82.9221 15.1733 83.3554 15.5867 83.9154 15.88C84.4754 16.1733 85.1221 16.32 85.8554 16.32C86.3754 16.32 86.8554 16.2333 87.2954 16.06C87.7488 15.8867 88.2354 15.5733 88.7554 15.12L89.7954 16.58C89.4754 16.9 89.0821 17.18 88.6154 17.42C88.1621 17.66 87.6754 17.8533 87.1554 18C86.6488 18.1333 86.1488 18.2 85.6554 18.2ZM92.4742 18V7.5H94.5342V9.66L94.1742 9.9C94.3075 9.43333 94.5675 9.00667 94.9542 8.62C95.3409 8.22 95.8009 7.9 96.3342 7.66C96.8675 7.40667 97.4142 7.28 97.9742 7.28C98.7742 7.28 99.4409 7.44 99.9742 7.76C100.508 8.06667 100.908 8.54 101.174 9.18C101.441 9.82 101.574 10.6267 101.574 11.6V18H99.5142V11.74C99.5142 11.14 99.4342 10.6467 99.2742 10.26C99.1142 9.86 98.8675 9.57333 98.5342 9.4C98.2009 9.21333 97.7875 9.13333 97.2942 9.16C96.8942 9.16 96.5275 9.22667 96.1942 9.36C95.8609 9.48 95.5675 9.65333 95.3142 9.88C95.0742 10.1067 94.8809 10.3733 94.7342 10.68C94.6009 10.9733 94.5342 11.2933 94.5342 11.64V18H93.5142C93.3409 18 93.1675 18 92.9942 18C92.8209 18 92.6475 18 92.4742 18ZM108.829 18.2C107.855 18.2 106.982 17.96 106.209 17.48C105.449 17 104.842 16.3467 104.389 15.52C103.949 14.6933 103.729 13.7667 103.729 12.74C103.729 11.7133 103.949 10.7867 104.389 9.96C104.842 9.13333 105.449 8.48 106.209 8C106.982 7.52 107.855 7.28 108.829 7.28C109.762 7.28 110.609 7.47333 111.369 7.86C112.142 8.23333 112.729 8.74667 113.129 9.4L111.989 10.8C111.775 10.4933 111.502 10.2133 111.169 9.96C110.835 9.70667 110.482 9.50667 110.109 9.36C109.735 9.21333 109.375 9.14 109.029 9.14C108.389 9.14 107.815 9.3 107.309 9.62C106.815 9.92667 106.422 10.3533 106.129 10.9C105.835 11.4467 105.689 12.06 105.689 12.74C105.689 13.42 105.842 14.0333 106.149 14.58C106.455 15.1133 106.862 15.54 107.369 15.86C107.875 16.18 108.435 16.34 109.049 16.34C109.409 16.34 109.755 16.28 110.089 16.16C110.435 16.04 110.769 15.86 111.089 15.62C111.409 15.38 111.709 15.0867 111.989 14.74L113.129 16.14C112.702 16.74 112.089 17.2333 111.289 17.62C110.502 18.0067 109.682 18.2 108.829 18.2ZM115.412 18V7.5H117.472V18H115.412ZM116.412 5.18C115.972 5.18 115.632 5.06667 115.392 4.84C115.152 4.61333 115.032 4.29333 115.032 3.88C115.032 3.49333 115.152 3.18 115.392 2.94C115.645 2.7 115.985 2.58 116.412 2.58C116.852 2.58 117.192 2.69333 117.432 2.92C117.672 3.14667 117.792 3.46667 117.792 3.88C117.792 4.26667 117.665 4.58 117.412 4.82C117.172 5.06 116.839 5.18 116.412 5.18ZM124.678 18.2C123.812 18.2 123.018 17.96 122.298 17.48C121.592 17 121.025 16.3467 120.598 15.52C120.172 14.6933 119.958 13.76 119.958 12.72C119.958 11.6667 120.172 10.7333 120.598 9.92C121.038 9.09333 121.625 8.44667 122.358 7.98C123.105 7.51333 123.938 7.28 124.858 7.28C125.405 7.28 125.905 7.36 126.358 7.52C126.812 7.68 127.205 7.90667 127.538 8.2C127.885 8.48 128.165 8.80667 128.378 9.18C128.605 9.55333 128.745 9.95333 128.798 10.38L128.338 10.22V7.5H130.418V18H128.338V15.5L128.818 15.36C128.738 15.72 128.572 16.0733 128.318 16.42C128.078 16.7533 127.765 17.0533 127.378 17.32C127.005 17.5867 126.585 17.8 126.118 17.96C125.665 18.12 125.185 18.2 124.678 18.2ZM125.218 16.3C125.845 16.3 126.398 16.1467 126.878 15.84C127.358 15.5333 127.732 15.1133 127.998 14.58C128.278 14.0333 128.418 13.4133 128.418 12.72C128.418 12.04 128.278 11.4333 127.998 10.9C127.732 10.3667 127.358 9.94667 126.878 9.64C126.398 9.33333 125.845 9.18 125.218 9.18C124.605 9.18 124.058 9.33333 123.578 9.64C123.112 9.94667 122.738 10.3667 122.458 10.9C122.192 11.4333 122.058 12.04 122.058 12.72C122.058 13.4133 122.192 14.0333 122.458 14.58C122.738 15.1133 123.112 15.5333 123.578 15.84C124.058 16.1467 124.605 16.3 125.218 16.3ZM137.674 18.2C136.715 18.2 135.854 17.9667 135.094 17.5C134.348 17.02 133.754 16.3733 133.314 15.56C132.874 14.7333 132.654 13.7933 132.654 12.74C132.654 11.6867 132.868 10.7533 133.294 9.94C133.734 9.11333 134.328 8.46667 135.075 8C135.821 7.52 136.668 7.28 137.615 7.28C138.135 7.28 138.635 7.36667 139.114 7.54C139.608 7.7 140.048 7.92667 140.435 8.22C140.821 8.5 141.121 8.81333 141.335 9.16C141.561 9.49333 141.675 9.83333 141.675 10.18L141.075 10.22V3.2H143.135V18H141.075V15.5H141.475C141.475 15.82 141.368 16.14 141.155 16.46C140.941 16.7667 140.655 17.0533 140.295 17.32C139.948 17.5867 139.541 17.8 139.075 17.96C138.621 18.12 138.155 18.2 137.674 18.2ZM137.954 16.42C138.581 16.42 139.135 16.26 139.615 15.94C140.095 15.62 140.468 15.1867 140.735 14.64C141.015 14.08 141.155 13.4467 141.155 12.74C141.155 12.0333 141.015 11.4067 140.735 10.86C140.468 10.3 140.095 9.86 139.615 9.54C139.135 9.22 138.581 9.06 137.954 9.06C137.328 9.06 136.775 9.22 136.295 9.54C135.814 9.86 135.434 10.3 135.154 10.86C134.888 11.4067 134.755 12.0333 134.755 12.74C134.755 13.4467 134.888 14.08 135.154 14.64C135.434 15.1867 135.814 15.62 136.295 15.94C136.775 16.26 137.328 16.42 137.954 16.42ZM150.69 18.2C149.664 18.2 148.744 17.9667 147.93 17.5C147.13 17.02 146.497 16.3733 146.03 15.56C145.564 14.7333 145.33 13.7933 145.33 12.74C145.33 11.6867 145.564 10.7533 146.03 9.94C146.497 9.11333 147.13 8.46667 147.93 8C148.744 7.52 149.664 7.28 150.69 7.28C151.704 7.28 152.61 7.52 153.41 8C154.224 8.46667 154.864 9.11333 155.33 9.94C155.797 10.7533 156.03 11.6867 156.03 12.74C156.03 13.7933 155.797 14.7333 155.33 15.56C154.864 16.3733 154.224 17.02 153.41 17.5C152.61 17.9667 151.704 18.2 150.69 18.2ZM150.69 16.32C151.317 16.32 151.877 16.1667 152.37 15.86C152.864 15.54 153.25 15.1133 153.53 14.58C153.81 14.0333 153.944 13.42 153.93 12.74C153.944 12.0467 153.81 11.4333 153.53 10.9C153.25 10.3533 152.864 9.92667 152.37 9.62C151.877 9.31333 151.317 9.16 150.69 9.16C150.064 9.16 149.497 9.32 148.99 9.64C148.497 9.94667 148.11 10.3733 147.83 10.92C147.55 11.4533 147.417 12.06 147.43 12.74C147.417 13.42 147.55 14.0333 147.83 14.58C148.11 15.1133 148.497 15.54 148.99 15.86C149.497 16.1667 150.064 16.32 150.69 16.32ZM158.275 18V7.5H160.355V10.8L160.155 10C160.302 9.49333 160.548 9.03333 160.895 8.62C161.255 8.20667 161.662 7.88 162.115 7.64C162.582 7.4 163.062 7.28 163.555 7.28C163.782 7.28 163.995 7.3 164.195 7.34C164.408 7.38 164.575 7.42667 164.695 7.48L164.155 9.72C163.995 9.65333 163.815 9.6 163.615 9.56C163.428 9.50667 163.242 9.48 163.055 9.48C162.695 9.48 162.348 9.55333 162.015 9.7C161.695 9.83333 161.408 10.0267 161.155 10.28C160.915 10.52 160.722 10.8067 160.575 11.14C160.428 11.46 160.355 11.8133 160.355 12.2V18H158.275ZM50.487 38.2C49.527 38.2 48.667 37.9667 47.907 37.5C47.1603 37.02 46.567 36.3733 46.127 35.56C45.687 34.7333 45.467 33.7933 45.467 32.74C45.467 31.6867 45.6803 30.7533 46.107 29.94C46.547 29.1133 47.1403 28.4667 47.887 28C48.6337 27.52 49.4803 27.28 50.427 27.28C50.947 27.28 51.447 27.3667 51.927 27.54C52.4203 27.7 52.8603 27.9267 53.247 28.22C53.6337 28.5 53.9337 28.8133 54.147 29.16C54.3737 29.4933 54.487 29.8333 54.487 30.18L53.887 30.22V23.2H55.947V38H53.887V35.5H54.287C54.287 35.82 54.1803 36.14 53.967 36.46C53.7537 36.7667 53.467 37.0533 53.107 37.32C52.7603 37.5867 52.3537 37.8 51.887 37.96C51.4337 38.12 50.967 38.2 50.487 38.2ZM50.767 36.42C51.3937 36.42 51.947 36.26 52.427 35.94C52.907 35.62 53.2803 35.1867 53.547 34.64C53.827 34.08 53.967 33.4467 53.967 32.74C53.967 32.0333 53.827 31.4067 53.547 30.86C53.2803 30.3 52.907 29.86 52.427 29.54C51.947 29.22 51.3937 29.06 50.767 29.06C50.1403 29.06 49.587 29.22 49.107 29.54C48.627 29.86 48.247 30.3 47.967 30.86C47.7003 31.4067 47.567 32.0333 47.567 32.74C47.567 33.4467 47.7003 34.08 47.967 34.64C48.247 35.1867 48.627 35.62 49.107 35.94C49.587 36.26 50.1403 36.42 50.767 36.42ZM63.6828 38.2C62.6028 38.2 61.6428 37.9733 60.8028 37.52C59.9761 37.0533 59.3228 36.42 58.8428 35.62C58.3761 34.82 58.1428 33.9 58.1428 32.86C58.1428 32.0333 58.2761 31.28 58.5428 30.6C58.8094 29.92 59.1761 29.3333 59.6428 28.84C60.1228 28.3333 60.6894 27.9467 61.3428 27.68C62.0094 27.4 62.7294 27.26 63.5028 27.26C64.1828 27.26 64.8161 27.3933 65.4028 27.66C65.9894 27.9133 66.4961 28.2667 66.9228 28.72C67.3628 29.1733 67.6961 29.7133 67.9228 30.34C68.1628 30.9533 68.2761 31.6267 68.2628 32.36L68.2428 33.24H59.6628L59.2028 31.6H66.4628L66.1628 31.94V31.46C66.1228 31.02 65.9761 30.6267 65.7228 30.28C65.4694 29.9333 65.1494 29.66 64.7628 29.46C64.3761 29.26 63.9561 29.16 63.5028 29.16C62.7828 29.16 62.1761 29.3 61.6828 29.58C61.1894 29.8467 60.8161 30.2467 60.5628 30.78C60.3094 31.3 60.1828 31.9467 60.1828 32.72C60.1828 33.4533 60.3361 34.0933 60.6428 34.64C60.9494 35.1733 61.3828 35.5867 61.9428 35.88C62.5028 36.1733 63.1494 36.32 63.8828 36.32C64.4028 36.32 64.8828 36.2333 65.3228 36.06C65.7761 35.8867 66.2628 35.5733 66.7828 35.12L67.8228 36.58C67.5028 36.9 67.1094 37.18 66.6428 37.42C66.1894 37.66 65.7028 37.8533 65.1828 38C64.6761 38.1333 64.1761 38.2 63.6828 38.2ZM82.887 38.2C81.8737 38.2 80.927 38.02 80.047 37.66C79.167 37.2867 78.3937 36.7733 77.727 36.12C77.0603 35.4667 76.5403 34.7067 76.167 33.84C75.807 32.96 75.627 32.0133 75.627 31C75.627 30 75.807 29.0667 76.167 28.2C76.5403 27.3333 77.0537 26.58 77.707 25.94C78.3737 25.2867 79.147 24.78 80.027 24.42C80.907 24.06 81.8537 23.88 82.867 23.88C83.5737 23.88 84.2603 23.98 84.927 24.18C85.607 24.38 86.2203 24.66 86.767 25.02C87.3137 25.38 87.7603 25.7933 88.107 26.26L86.707 27.72C86.307 27.3333 85.8937 27.0133 85.467 26.76C85.0537 26.5067 84.627 26.3133 84.187 26.18C83.747 26.0467 83.307 25.98 82.867 25.98C82.147 25.98 81.4803 26.1067 80.867 26.36C80.267 26.6133 79.7337 26.9667 79.267 27.42C78.8137 27.8733 78.4603 28.4067 78.207 29.02C77.9537 29.62 77.827 30.28 77.827 31C77.827 31.6933 77.9603 32.3533 78.227 32.98C78.4937 33.5933 78.8603 34.1333 79.327 34.6C79.807 35.0667 80.3537 35.4333 80.967 35.7C81.5937 35.9667 82.2537 36.1 82.947 36.1C83.467 36.1 83.9603 36.0267 84.427 35.88C84.8937 35.72 85.307 35.5 85.667 35.22C86.027 34.94 86.307 34.62 86.507 34.26C86.707 33.8867 86.807 33.4933 86.807 33.08V32.68L87.107 32.96H82.827V30.82H89.027C89.0537 30.9667 89.0737 31.1133 89.087 31.26C89.1003 31.3933 89.107 31.5267 89.107 31.66C89.1203 31.78 89.127 31.9 89.127 32.02C89.127 32.94 88.967 33.78 88.647 34.54C88.327 35.2867 87.8803 35.9333 87.307 36.48C86.747 37.0267 86.087 37.4533 85.327 37.76C84.5803 38.0533 83.767 38.2 82.887 38.2ZM95.4595 38.2C94.5928 38.2 93.7995 37.96 93.0795 37.48C92.3728 37 91.8062 36.3467 91.3795 35.52C90.9528 34.6933 90.7395 33.76 90.7395 32.72C90.7395 31.6667 90.9528 30.7333 91.3795 29.92C91.8195 29.0933 92.4062 28.4467 93.1395 27.98C93.8862 27.5133 94.7195 27.28 95.6395 27.28C96.1862 27.28 96.6862 27.36 97.1395 27.52C97.5928 27.68 97.9862 27.9067 98.3195 28.2C98.6662 28.48 98.9462 28.8067 99.1595 29.18C99.3862 29.5533 99.5262 29.9533 99.5795 30.38L99.1195 30.22V27.5H101.2V38H99.1195V35.5L99.5995 35.36C99.5195 35.72 99.3528 36.0733 99.0995 36.42C98.8595 36.7533 98.5462 37.0533 98.1595 37.32C97.7862 37.5867 97.3662 37.8 96.8995 37.96C96.4462 38.12 95.9662 38.2 95.4595 38.2ZM95.9995 36.3C96.6262 36.3 97.1795 36.1467 97.6595 35.84C98.1395 35.5333 98.5128 35.1133 98.7795 34.58C99.0595 34.0333 99.1995 33.4133 99.1995 32.72C99.1995 32.04 99.0595 31.4333 98.7795 30.9C98.5128 30.3667 98.1395 29.9467 97.6595 29.64C97.1795 29.3333 96.6262 29.18 95.9995 29.18C95.3862 29.18 94.8395 29.3333 94.3595 29.64C93.8928 29.9467 93.5195 30.3667 93.2395 30.9C92.9728 31.4333 92.8395 32.04 92.8395 32.72C92.8395 33.4133 92.9728 34.0333 93.2395 34.58C93.5195 35.1133 93.8928 35.5333 94.3595 35.84C94.8395 36.1467 95.3862 36.3 95.9995 36.3ZM104.116 38V23.2H106.176V38H104.116ZM113.8 38.2C112.72 38.2 111.76 37.9733 110.92 37.52C110.093 37.0533 109.44 36.42 108.96 35.62C108.493 34.82 108.26 33.9 108.26 32.86C108.26 32.0333 108.393 31.28 108.66 30.6C108.927 29.92 109.293 29.3333 109.76 28.84C110.24 28.3333 110.807 27.9467 111.46 27.68C112.127 27.4 112.847 27.26 113.62 27.26C114.3 27.26 114.933 27.3933 115.52 27.66C116.107 27.9133 116.613 28.2667 117.04 28.72C117.48 29.1733 117.813 29.7133 118.04 30.34C118.28 30.9533 118.393 31.6267 118.38 32.36L118.36 33.24H109.78L109.32 31.6H116.58L116.28 31.94V31.46C116.24 31.02 116.093 30.6267 115.84 30.28C115.587 29.9333 115.267 29.66 114.88 29.46C114.493 29.26 114.073 29.16 113.62 29.16C112.9 29.16 112.293 29.3 111.8 29.58C111.307 29.8467 110.933 30.2467 110.68 30.78C110.427 31.3 110.3 31.9467 110.3 32.72C110.3 33.4533 110.453 34.0933 110.76 34.64C111.067 35.1733 111.5 35.5867 112.06 35.88C112.62 36.1733 113.267 36.32 114 36.32C114.52 36.32 115 36.2333 115.44 36.06C115.893 35.8867 116.38 35.5733 116.9 35.12L117.94 36.58C117.62 36.9 117.227 37.18 116.76 37.42C116.307 37.66 115.82 37.8533 115.3 38C114.793 38.1333 114.293 38.2 113.8 38.2ZM120.619 38V27.5H122.699V30.8L122.499 30C122.645 29.4933 122.892 29.0333 123.239 28.62C123.599 28.2067 124.005 27.88 124.459 27.64C124.925 27.4 125.405 27.28 125.899 27.28C126.125 27.28 126.339 27.3 126.539 27.34C126.752 27.38 126.919 27.4267 127.039 27.48L126.499 29.72C126.339 29.6533 126.159 29.6 125.959 29.56C125.772 29.5067 125.585 29.48 125.399 29.48C125.039 29.48 124.692 29.5533 124.359 29.7C124.039 29.8333 123.752 30.0267 123.499 30.28C123.259 30.52 123.065 30.8067 122.919 31.14C122.772 31.46 122.699 31.8133 122.699 32.2V38H120.619ZM129.025 38V27.5H131.085V38H129.025ZM130.025 25.18C129.585 25.18 129.245 25.0667 129.005 24.84C128.765 24.6133 128.645 24.2933 128.645 23.88C128.645 23.4933 128.765 23.18 129.005 22.94C129.258 22.7 129.598 22.58 130.025 22.58C130.465 22.58 130.805 22.6933 131.045 22.92C131.285 23.1467 131.405 23.4667 131.405 23.88C131.405 24.2667 131.278 24.58 131.025 24.82C130.785 25.06 130.452 25.18 130.025 25.18ZM138.292 38.2C137.425 38.2 136.632 37.96 135.912 37.48C135.205 37 134.638 36.3467 134.212 35.52C133.785 34.6933 133.572 33.76 133.572 32.72C133.572 31.6667 133.785 30.7333 134.212 29.92C134.652 29.0933 135.238 28.4467 135.972 27.98C136.718 27.5133 137.552 27.28 138.472 27.28C139.018 27.28 139.518 27.36 139.972 27.52C140.425 27.68 140.818 27.9067 141.152 28.2C141.498 28.48 141.778 28.8067 141.992 29.18C142.218 29.5533 142.358 29.9533 142.412 30.38L141.952 30.22V27.5H144.032V38H141.952V35.5L142.432 35.36C142.352 35.72 142.185 36.0733 141.932 36.42C141.692 36.7533 141.378 37.0533 140.992 37.32C140.618 37.5867 140.198 37.8 139.732 37.96C139.278 38.12 138.798 38.2 138.292 38.2ZM138.832 36.3C139.458 36.3 140.012 36.1467 140.492 35.84C140.972 35.5333 141.345 35.1133 141.612 34.58C141.892 34.0333 142.032 33.4133 142.032 32.72C142.032 32.04 141.892 31.4333 141.612 30.9C141.345 30.3667 140.972 29.9467 140.492 29.64C140.012 29.3333 139.458 29.18 138.832 29.18C138.218 29.18 137.672 29.3333 137.192 29.64C136.725 29.9467 136.352 30.3667 136.072 30.9C135.805 31.4333 135.672 32.04 135.672 32.72C135.672 33.4133 135.805 34.0333 136.072 34.58C136.352 35.1133 136.725 35.5333 137.192 35.84C137.672 36.1467 138.218 36.3 138.832 36.3Z" fill="#1D1933"/>
</svg>
