<svg width="257" height="88" viewBox="0 0 257 88" fill="none" xmlns="http://www.w3.org/2000/svg">
<path d="M110.5 22.5L122.5 34.5L145 12" stroke="url(#paint0_linear_606_11794)" stroke-width="6"/>
<path d="M2.44563 82V80.224H5.15763V66.976H2.44563V65.2H9.74163V66.976H7.02963V80.224H9.74163V82H2.44563ZM13.1577 82V69.472H14.9577L15.0057 72.328L14.6457 72.448C14.7737 71.968 14.9817 71.536 15.2697 71.152C15.5737 70.752 15.9337 70.408 16.3497 70.12C16.7657 69.832 17.2217 69.616 17.7177 69.472C18.2137 69.312 18.7337 69.232 19.2777 69.232C19.9337 69.232 20.5177 69.344 21.0297 69.568C21.5577 69.776 21.9977 70.144 22.3497 70.672C22.7177 71.184 22.9977 71.864 23.1897 72.712L22.7577 72.496L22.9257 72.088C23.0857 71.72 23.3177 71.368 23.6217 71.032C23.9417 70.68 24.3017 70.368 24.7017 70.096C25.1177 69.824 25.5657 69.616 26.0457 69.472C26.5417 69.312 27.0457 69.232 27.5577 69.232C28.4377 69.232 29.1817 69.424 29.7897 69.808C30.3977 70.176 30.8537 70.744 31.1577 71.512C31.4777 72.28 31.6377 73.256 31.6377 74.44V82H29.7897V74.536C29.7897 73.704 29.6857 73.024 29.4777 72.496C29.2697 71.968 28.9577 71.576 28.5417 71.32C28.1417 71.048 27.6297 70.912 27.0057 70.912C26.4617 70.912 25.9577 71.008 25.4937 71.2C25.0457 71.376 24.6537 71.632 24.3177 71.968C23.9977 72.288 23.7417 72.656 23.5497 73.072C23.3737 73.488 23.2857 73.936 23.2857 74.416V82H21.4617V74.512C21.4617 73.712 21.3497 73.048 21.1257 72.52C20.9177 71.992 20.6057 71.592 20.1897 71.32C19.7737 71.048 19.2617 70.912 18.6537 70.912C18.1257 70.912 17.6377 71.008 17.1897 71.2C16.7417 71.376 16.3497 71.624 16.0137 71.944C15.6937 72.264 15.4377 72.632 15.2457 73.048C15.0697 73.464 14.9817 73.912 14.9817 74.392V82H13.1577ZM39.9449 82.24C38.8569 82.24 37.8729 81.96 36.9929 81.4C36.1129 80.824 35.4169 80.048 34.9049 79.072C34.3929 78.08 34.1369 76.96 34.1369 75.712C34.1369 74.448 34.4009 73.328 34.9289 72.352C35.4569 71.376 36.1609 70.608 37.0409 70.048C37.9369 69.488 38.9369 69.208 40.0409 69.208C40.6969 69.208 41.3049 69.304 41.8649 69.496C42.4249 69.688 42.9209 69.96 43.3529 70.312C43.8009 70.648 44.1689 71.048 44.4569 71.512C44.7609 71.96 44.9689 72.448 45.0809 72.976L44.5529 72.712L44.6249 69.472H46.4249V82H44.6009V78.928L45.0809 78.616C44.9689 79.096 44.7529 79.56 44.4329 80.008C44.1129 80.44 43.7209 80.824 43.2569 81.16C42.8089 81.496 42.2969 81.76 41.7209 81.952C41.1609 82.144 40.5689 82.24 39.9449 82.24ZM40.3529 80.512C41.1849 80.512 41.9289 80.312 42.5849 79.912C43.2409 79.496 43.7529 78.928 44.1209 78.208C44.5049 77.472 44.6969 76.64 44.6969 75.712C44.6969 74.784 44.5049 73.96 44.1209 73.24C43.7529 72.52 43.2409 71.952 42.5849 71.536C41.9289 71.12 41.1849 70.912 40.3529 70.912C39.5049 70.912 38.7529 71.12 38.0969 71.536C37.4569 71.952 36.9449 72.52 36.5609 73.24C36.1929 73.96 36.0089 74.784 36.0089 75.712C36.0089 76.624 36.1929 77.448 36.5609 78.184C36.9289 78.904 37.4409 79.472 38.0969 79.888C38.7529 80.304 39.5049 80.512 40.3529 80.512ZM55.3317 87.52C54.4037 87.52 53.5237 87.376 52.6917 87.088C51.8597 86.8 51.1717 86.44 50.6277 86.008L51.3477 84.496C51.6677 84.752 52.0357 84.976 52.4517 85.168C52.8837 85.376 53.3477 85.536 53.8437 85.648C54.3397 85.776 54.8437 85.84 55.3557 85.84C56.2837 85.84 57.0677 85.664 57.7077 85.312C58.3637 84.976 58.8597 84.472 59.1957 83.8C59.5477 83.128 59.7237 82.296 59.7237 81.304V78.904L60.0117 78.832C59.8677 79.44 59.5557 80.008 59.0757 80.536C58.5957 81.048 58.0117 81.464 57.3237 81.784C56.6357 82.088 55.9077 82.24 55.1397 82.24C53.9717 82.24 52.9237 81.96 51.9957 81.4C51.0837 80.84 50.3637 80.072 49.8357 79.096C49.3077 78.104 49.0437 76.984 49.0437 75.736C49.0437 74.472 49.3077 73.352 49.8357 72.376C50.3797 71.384 51.1077 70.608 52.0197 70.048C52.9317 69.488 53.9557 69.208 55.0917 69.208C55.5877 69.208 56.0677 69.272 56.5317 69.4C56.9957 69.512 57.4197 69.68 57.8037 69.904C58.2037 70.128 58.5637 70.384 58.8837 70.672C59.2037 70.96 59.4677 71.272 59.6757 71.608C59.8997 71.944 60.0597 72.288 60.1557 72.64L59.6517 72.568L59.7237 69.472H61.5237V81.232C61.5237 82.24 61.3797 83.128 61.0917 83.896C60.8037 84.68 60.3797 85.336 59.8197 85.864C59.2757 86.408 58.6197 86.816 57.8517 87.088C57.0997 87.376 56.2597 87.52 55.3317 87.52ZM55.3557 80.512C56.2037 80.512 56.9557 80.312 57.6117 79.912C58.2837 79.496 58.8117 78.928 59.1957 78.208C59.5797 77.488 59.7717 76.656 59.7717 75.712C59.7717 74.784 59.5797 73.96 59.1957 73.24C58.8277 72.52 58.3077 71.952 57.6357 71.536C56.9637 71.12 56.2037 70.912 55.3557 70.912C54.4917 70.912 53.7237 71.12 53.0517 71.536C52.3957 71.952 51.8757 72.52 51.4917 73.24C51.1077 73.96 50.9157 74.784 50.9157 75.712C50.9157 76.624 51.0997 77.448 51.4677 78.184C51.8517 78.904 52.3717 79.472 53.0277 79.888C53.6997 80.304 54.4757 80.512 55.3557 80.512ZM70.5454 82.24C69.2974 82.24 68.1854 81.968 67.2094 81.424C66.2494 80.88 65.4974 80.12 64.9534 79.144C64.4094 78.168 64.1374 77.048 64.1374 75.784C64.1374 74.808 64.2894 73.928 64.5934 73.144C64.8974 72.344 65.3214 71.648 65.8654 71.056C66.4254 70.464 67.0894 70.008 67.8574 69.688C68.6254 69.352 69.4574 69.184 70.3534 69.184C71.2014 69.184 71.9694 69.336 72.6574 69.64C73.3614 69.944 73.9614 70.368 74.4574 70.912C74.9694 71.44 75.3534 72.072 75.6094 72.808C75.8654 73.544 75.9774 74.352 75.9454 75.232L75.9214 76.072H65.4814L65.2174 74.56H74.5534L74.1214 74.968V74.392C74.0894 73.816 73.9214 73.264 73.6174 72.736C73.3134 72.192 72.8814 71.752 72.3214 71.416C71.7774 71.08 71.1214 70.912 70.3534 70.912C69.4574 70.912 68.6814 71.096 68.0254 71.464C67.3694 71.816 66.8654 72.344 66.5134 73.048C66.1614 73.752 65.9854 74.624 65.9854 75.664C65.9854 76.656 66.1774 77.52 66.5614 78.256C66.9454 78.976 67.4894 79.536 68.1934 79.936C68.9134 80.336 69.7774 80.536 70.7854 80.536C71.3774 80.536 71.9614 80.44 72.5374 80.248C73.1294 80.04 73.7774 79.64 74.4814 79.048L75.4174 80.344C75.0494 80.712 74.6094 81.04 74.0974 81.328C73.5854 81.6 73.0254 81.824 72.4174 82C71.8094 82.16 71.1854 82.24 70.5454 82.24ZM78.478 82V69.472H80.278L80.326 72.328L79.966 72.448C80.094 71.968 80.302 71.536 80.59 71.152C80.894 70.752 81.254 70.408 81.67 70.12C82.086 69.832 82.542 69.616 83.038 69.472C83.534 69.312 84.054 69.232 84.598 69.232C85.254 69.232 85.838 69.344 86.35 69.568C86.878 69.776 87.318 70.144 87.67 70.672C88.038 71.184 88.318 71.864 88.51 72.712L88.078 72.496L88.246 72.088C88.406 71.72 88.638 71.368 88.942 71.032C89.262 70.68 89.622 70.368 90.022 70.096C90.438 69.824 90.886 69.616 91.366 69.472C91.862 69.312 92.366 69.232 92.878 69.232C93.758 69.232 94.502 69.424 95.11 69.808C95.718 70.176 96.174 70.744 96.478 71.512C96.798 72.28 96.958 73.256 96.958 74.44V82H95.11V74.536C95.11 73.704 95.006 73.024 94.798 72.496C94.59 71.968 94.278 71.576 93.862 71.32C93.462 71.048 92.95 70.912 92.326 70.912C91.782 70.912 91.278 71.008 90.814 71.2C90.366 71.376 89.974 71.632 89.638 71.968C89.318 72.288 89.062 72.656 88.87 73.072C88.694 73.488 88.606 73.936 88.606 74.416V82H86.782V74.512C86.782 73.712 86.67 73.048 86.446 72.52C86.238 71.992 85.926 71.592 85.51 71.32C85.094 71.048 84.582 70.912 83.974 70.912C83.446 70.912 82.958 71.008 82.51 71.2C82.062 71.376 81.67 71.624 81.334 71.944C81.014 72.264 80.758 72.632 80.566 73.048C80.39 73.464 80.302 73.912 80.302 74.392V82H78.478ZM105.337 86.464C103.385 85.248 101.897 83.728 100.873 81.904C99.8492 80.08 99.3372 78.048 99.3372 75.808C99.3372 73.584 99.8492 71.56 100.873 69.736C101.913 67.896 103.409 66.368 105.361 65.152L106.345 66.28C104.633 67.48 103.321 68.896 102.409 70.528C101.513 72.144 101.065 73.904 101.065 75.808C101.065 77.712 101.513 79.48 102.409 81.112C103.321 82.728 104.633 84.136 106.345 85.336L105.337 86.464ZM113.075 82.24C112.003 82.24 111.043 82.04 110.195 81.64C109.347 81.24 108.675 80.712 108.179 80.056L109.451 78.952C109.915 79.512 110.459 79.936 111.083 80.224C111.723 80.512 112.435 80.656 113.219 80.656C113.619 80.656 113.979 80.616 114.299 80.536C114.619 80.44 114.899 80.304 115.139 80.128C115.379 79.952 115.563 79.744 115.691 79.504C115.819 79.264 115.883 79 115.883 78.712C115.883 78.184 115.651 77.744 115.187 77.392C114.979 77.248 114.683 77.104 114.299 76.96C113.915 76.8 113.451 76.648 112.907 76.504C112.011 76.248 111.267 75.992 110.675 75.736C110.083 75.464 109.619 75.152 109.283 74.8C109.043 74.512 108.859 74.2 108.731 73.864C108.619 73.528 108.563 73.16 108.563 72.76C108.563 72.248 108.667 71.776 108.875 71.344C109.099 70.912 109.403 70.536 109.787 70.216C110.187 69.88 110.651 69.632 111.179 69.472C111.723 69.296 112.307 69.208 112.931 69.208C113.523 69.208 114.107 69.288 114.683 69.448C115.259 69.608 115.795 69.84 116.291 70.144C116.787 70.448 117.211 70.808 117.563 71.224L116.459 72.424C116.155 72.104 115.819 71.816 115.451 71.56C115.083 71.304 114.691 71.104 114.275 70.96C113.875 70.816 113.459 70.744 113.027 70.744C112.643 70.744 112.283 70.792 111.947 70.888C111.627 70.984 111.347 71.12 111.107 71.296C110.883 71.456 110.707 71.656 110.579 71.896C110.467 72.136 110.411 72.4 110.411 72.688C110.411 72.928 110.459 73.144 110.555 73.336C110.651 73.528 110.787 73.696 110.963 73.84C111.187 74.016 111.499 74.184 111.899 74.344C112.315 74.488 112.827 74.64 113.435 74.8C114.139 74.992 114.731 75.192 115.211 75.4C115.707 75.592 116.115 75.824 116.435 76.096C116.867 76.416 117.171 76.784 117.347 77.2C117.539 77.616 117.635 78.088 117.635 78.616C117.635 79.32 117.435 79.944 117.035 80.488C116.651 81.032 116.115 81.464 115.427 81.784C114.739 82.088 113.955 82.24 113.075 82.24ZM120.551 86.464L119.567 85.336C121.279 84.136 122.583 82.728 123.479 81.112C124.375 79.48 124.823 77.712 124.823 75.808C124.823 73.904 124.375 72.144 123.479 70.528C122.583 68.896 121.279 67.48 119.567 66.28L120.575 65.152C122.527 66.368 124.015 67.888 125.039 69.712C126.063 71.536 126.575 73.568 126.575 75.808C126.575 78.032 126.055 80.064 125.015 81.904C123.991 83.728 122.503 85.248 120.551 86.464ZM136.503 82V65.2H146.679V67.024H138.375V80.176H146.631V82H136.503ZM137.367 74.272V72.448H145.335V74.272H137.367ZM158.67 82L154.326 76.408L154.11 76.144L148.902 69.472H151.182L155.454 74.968L155.694 75.28L160.926 82H158.67ZM148.806 82L153.918 75.4L154.998 76.696L150.966 82H148.806ZM155.814 75.856L154.782 74.584L158.43 69.472H160.614L155.814 75.856ZM167.618 82.24C166.434 82.24 165.378 81.96 164.45 81.4C163.522 80.824 162.786 80.048 162.242 79.072C161.714 78.08 161.45 76.96 161.45 75.712C161.45 74.464 161.714 73.352 162.242 72.376C162.786 71.384 163.522 70.608 164.45 70.048C165.378 69.488 166.442 69.208 167.642 69.208C168.714 69.208 169.69 69.424 170.57 69.856C171.45 70.272 172.154 70.856 172.682 71.608L171.626 72.904C171.322 72.504 170.954 72.152 170.522 71.848C170.106 71.544 169.65 71.312 169.154 71.152C168.674 70.976 168.194 70.888 167.714 70.888C166.866 70.888 166.106 71.104 165.434 71.536C164.762 71.952 164.226 72.52 163.826 73.24C163.442 73.96 163.25 74.784 163.25 75.712C163.25 76.64 163.442 77.472 163.826 78.208C164.226 78.928 164.762 79.496 165.434 79.912C166.106 80.328 166.858 80.536 167.69 80.536C168.17 80.536 168.642 80.464 169.106 80.32C169.57 80.16 170.01 79.936 170.426 79.648C170.842 79.36 171.226 79 171.578 78.568L172.634 79.864C172.09 80.584 171.362 81.16 170.45 81.592C169.538 82.024 168.594 82.24 167.618 82.24ZM175.019 82V64.24H176.819V82H175.019ZM184.684 82.24C183.724 82.24 182.908 82.048 182.236 81.664C181.58 81.264 181.076 80.688 180.724 79.936C180.388 79.184 180.22 78.248 180.22 77.128V69.472H182.044V76.768C182.044 77.616 182.156 78.328 182.38 78.904C182.62 79.464 182.972 79.888 183.436 80.176C183.916 80.464 184.5 80.608 185.188 80.608C185.716 80.608 186.204 80.52 186.652 80.344C187.1 80.152 187.492 79.896 187.828 79.576C188.164 79.256 188.428 78.88 188.62 78.448C188.812 78.016 188.908 77.56 188.908 77.08V69.472H190.708V82H188.932L188.86 79.36L189.148 79.216C188.956 79.776 188.636 80.288 188.188 80.752C187.74 81.2 187.204 81.56 186.58 81.832C185.972 82.104 185.34 82.24 184.684 82.24ZM194.213 82V69.472H196.013V82H194.213ZM193.565 67.624L192.917 66.64L196.325 63.784L197.501 65.296L193.565 67.624ZM204.598 82.24C203.462 82.24 202.438 81.96 201.526 81.4C200.63 80.84 199.918 80.072 199.39 79.096C198.878 78.104 198.622 76.984 198.622 75.736C198.622 74.472 198.886 73.352 199.414 72.376C199.942 71.384 200.654 70.608 201.55 70.048C202.446 69.488 203.454 69.208 204.574 69.208C205.198 69.208 205.798 69.304 206.374 69.496C206.966 69.688 207.494 69.96 207.958 70.312C208.422 70.648 208.806 71.04 209.11 71.488C209.414 71.92 209.598 72.376 209.662 72.856L209.11 72.664V64.24H210.91V82H209.134L209.086 78.88L209.542 78.712C209.478 79.16 209.294 79.6 208.99 80.032C208.702 80.448 208.334 80.824 207.886 81.16C207.438 81.496 206.926 81.76 206.35 81.952C205.79 82.144 205.206 82.24 204.598 82.24ZM204.862 80.584C205.694 80.584 206.438 80.376 207.094 79.96C207.75 79.544 208.262 78.968 208.63 78.232C209.014 77.496 209.206 76.656 209.206 75.712C209.206 74.768 209.014 73.936 208.63 73.216C208.262 72.48 207.75 71.904 207.094 71.488C206.438 71.056 205.694 70.84 204.862 70.84C203.998 70.84 203.238 71.056 202.582 71.488C201.942 71.904 201.43 72.48 201.046 73.216C200.678 73.936 200.494 74.768 200.494 75.712C200.494 76.64 200.678 77.472 201.046 78.208C201.414 78.944 201.926 79.528 202.582 79.96C203.238 80.376 203.998 80.584 204.862 80.584ZM219.312 82.24C218.224 82.24 217.24 81.96 216.36 81.4C215.48 80.824 214.784 80.048 214.272 79.072C213.76 78.08 213.504 76.96 213.504 75.712C213.504 74.448 213.768 73.328 214.296 72.352C214.824 71.376 215.528 70.608 216.408 70.048C217.304 69.488 218.304 69.208 219.408 69.208C220.064 69.208 220.672 69.304 221.232 69.496C221.792 69.688 222.288 69.96 222.72 70.312C223.168 70.648 223.536 71.048 223.824 71.512C224.128 71.96 224.336 72.448 224.448 72.976L223.92 72.712L223.992 69.472H225.792V82H223.968V78.928L224.448 78.616C224.336 79.096 224.12 79.56 223.8 80.008C223.48 80.44 223.088 80.824 222.624 81.16C222.176 81.496 221.664 81.76 221.088 81.952C220.528 82.144 219.936 82.24 219.312 82.24ZM219.72 80.512C220.552 80.512 221.296 80.312 221.952 79.912C222.608 79.496 223.12 78.928 223.488 78.208C223.872 77.472 224.064 76.64 224.064 75.712C224.064 74.784 223.872 73.96 223.488 73.24C223.12 72.52 222.608 71.952 221.952 71.536C221.296 71.12 220.552 70.912 219.72 70.912C218.872 70.912 218.12 71.12 217.464 71.536C216.824 71.952 216.312 72.52 215.928 73.24C215.56 73.96 215.376 74.784 215.376 75.712C215.376 76.624 215.56 77.448 215.928 78.184C216.296 78.904 216.808 79.472 217.464 79.888C218.12 80.304 218.872 80.512 219.72 80.512ZM234.267 86.464C232.315 85.248 230.827 83.728 229.803 81.904C228.779 80.08 228.267 78.048 228.267 75.808C228.267 73.584 228.779 71.56 229.803 69.736C230.843 67.896 232.339 66.368 234.291 65.152L235.275 66.28C233.563 67.48 232.251 68.896 231.339 70.528C230.443 72.144 229.995 73.904 229.995 75.808C229.995 77.712 230.443 79.48 231.339 81.112C232.251 82.728 233.563 84.136 235.275 85.336L234.267 86.464ZM242.004 82.24C240.932 82.24 239.972 82.04 239.124 81.64C238.276 81.24 237.604 80.712 237.108 80.056L238.38 78.952C238.844 79.512 239.388 79.936 240.012 80.224C240.652 80.512 241.364 80.656 242.148 80.656C242.548 80.656 242.908 80.616 243.228 80.536C243.548 80.44 243.828 80.304 244.068 80.128C244.308 79.952 244.492 79.744 244.62 79.504C244.748 79.264 244.812 79 244.812 78.712C244.812 78.184 244.58 77.744 244.116 77.392C243.908 77.248 243.612 77.104 243.228 76.96C242.844 76.8 242.38 76.648 241.836 76.504C240.94 76.248 240.196 75.992 239.604 75.736C239.012 75.464 238.548 75.152 238.212 74.8C237.972 74.512 237.788 74.2 237.66 73.864C237.548 73.528 237.492 73.16 237.492 72.76C237.492 72.248 237.596 71.776 237.804 71.344C238.028 70.912 238.332 70.536 238.716 70.216C239.116 69.88 239.58 69.632 240.108 69.472C240.652 69.296 241.236 69.208 241.86 69.208C242.452 69.208 243.036 69.288 243.612 69.448C244.188 69.608 244.724 69.84 245.22 70.144C245.716 70.448 246.14 70.808 246.492 71.224L245.388 72.424C245.084 72.104 244.748 71.816 244.38 71.56C244.012 71.304 243.62 71.104 243.204 70.96C242.804 70.816 242.388 70.744 241.956 70.744C241.572 70.744 241.212 70.792 240.876 70.888C240.556 70.984 240.276 71.12 240.036 71.296C239.812 71.456 239.636 71.656 239.508 71.896C239.396 72.136 239.34 72.4 239.34 72.688C239.34 72.928 239.388 73.144 239.484 73.336C239.58 73.528 239.716 73.696 239.892 73.84C240.116 74.016 240.428 74.184 240.828 74.344C241.244 74.488 241.756 74.64 242.364 74.8C243.068 74.992 243.66 75.192 244.14 75.4C244.636 75.592 245.044 75.824 245.364 76.096C245.796 76.416 246.1 76.784 246.276 77.2C246.468 77.616 246.564 78.088 246.564 78.616C246.564 79.32 246.364 79.944 245.964 80.488C245.58 81.032 245.044 81.464 244.356 81.784C243.668 82.088 242.884 82.24 242.004 82.24ZM249.481 86.464L248.497 85.336C250.209 84.136 251.513 82.728 252.409 81.112C253.305 79.48 253.753 77.712 253.753 75.808C253.753 73.904 253.305 72.144 252.409 70.528C251.513 68.896 250.209 67.48 248.497 66.28L249.505 65.152C251.457 66.368 252.945 67.888 253.969 69.712C254.993 71.536 255.505 73.568 255.505 75.808C255.505 78.032 254.985 80.064 253.945 81.904C252.921 83.728 251.433 85.248 249.481 86.464Z" fill="url(#paint1_linear_606_11794)"/>
<defs>
<linearGradient id="paint0_linear_606_11794" x1="145" y1="23.25" x2="110.5" y2="23.25" gradientUnits="userSpaceOnUse">
<stop stop-color="#43A3D5"/>
<stop offset="1" stop-color="#9C60DA"/>
</linearGradient>
<linearGradient id="paint1_linear_606_11794" x1="256.5" y1="73" x2="0.5" y2="73" gradientUnits="userSpaceOnUse">
<stop stop-color="#43A3D5"/>
<stop offset="1" stop-color="#9C60DA"/>
</linearGradient>
</defs>
</svg>
