<svg width="360" height="110" viewBox="0 0 360 110" fill="none" xmlns="http://www.w3.org/2000/svg">
<g clip-path="url(#clip0_785_27)">
<path d="M101.895 58.5336L116.037 44.3914M108.966 65.6046L123.108 51.4625M116.037 65.6046L101.895 51.4625M123.108 58.5336L108.966 44.3914" stroke="#E1DDF4" stroke-width="3" stroke-linecap="round" stroke-linejoin="round"/>
</g>
<path d="M134.878 64L141.526 47.2H144.982L151.582 64H147.454L144.286 55.48C144.158 55.144 144.03 54.784 143.902 54.4C143.774 54.016 143.646 53.624 143.518 53.224C143.39 52.808 143.262 52.408 143.134 52.024C143.022 51.624 142.926 51.256 142.846 50.92L143.566 50.896C143.47 51.296 143.358 51.688 143.23 52.072C143.118 52.456 142.998 52.84 142.87 53.224C142.758 53.592 142.63 53.968 142.486 54.352C142.342 54.72 142.206 55.104 142.078 55.504L138.91 64H134.878ZM138.046 60.784L139.318 57.712H147.046L148.294 60.784H138.046ZM161.366 64V47.2H168.398C169.63 47.2 170.758 47.408 171.782 47.824C172.806 48.224 173.686 48.8 174.422 49.552C175.174 50.304 175.75 51.192 176.15 52.216C176.55 53.24 176.75 54.368 176.75 55.6C176.75 56.832 176.55 57.968 176.15 59.008C175.75 60.032 175.174 60.92 174.422 61.672C173.686 62.408 172.806 62.984 171.782 63.4C170.758 63.8 169.63 64 168.398 64H161.366ZM165.446 61.216L164.894 60.4H168.278C168.95 60.4 169.55 60.288 170.078 60.064C170.606 59.824 171.054 59.496 171.422 59.08C171.806 58.664 172.102 58.16 172.31 57.568C172.518 56.976 172.622 56.32 172.622 55.6C172.622 54.88 172.518 54.224 172.31 53.632C172.102 53.04 171.806 52.536 171.422 52.12C171.054 51.704 170.606 51.384 170.078 51.16C169.55 50.92 168.95 50.8 168.278 50.8H164.822L165.446 50.032V61.216ZM179.905 64V47.2H191.617V50.68H183.865V60.52H191.857V64H179.905ZM181.825 57.112V53.8H190.537V57.112H181.825ZM195.374 64V47.2H199.022L207.83 59.2L207.038 59.08C206.958 58.552 206.894 58.048 206.846 57.568C206.798 57.088 206.75 56.616 206.702 56.152C206.67 55.688 206.638 55.216 206.606 54.736C206.59 54.256 206.574 53.736 206.558 53.176C206.558 52.616 206.558 52.008 206.558 51.352V47.2H210.518V64H206.822L197.63 51.616L198.854 51.784C198.934 52.552 198.998 53.208 199.046 53.752C199.11 54.28 199.158 54.752 199.19 55.168C199.238 55.584 199.27 55.96 199.286 56.296C199.302 56.632 199.31 56.968 199.31 57.304C199.326 57.624 199.334 57.984 199.334 58.384V64H195.374ZM214.061 64V61.288L223.085 49.288L224.501 50.944H214.685V47.2H227.357V49.888L218.381 61.912L216.941 60.424H227.621V64H214.061ZM231.116 64V47.2H242.828V50.68H235.076V60.52H243.068V64H231.116ZM233.036 57.112V53.8H241.748V57.112H233.036ZM246.585 64V47.2H250.665V60.4H258.153V64H246.585Z" fill="#E1DDF4"/>
<defs>
<clipPath id="clip0_785_27">
<rect width="24" height="24" fill="white" transform="matrix(1 0 0 -1 100.5 67)"/>
</clipPath>
</defs>
</svg>
