<svg width="360" height="110" viewBox="0 0 360 110" fill="none" xmlns="http://www.w3.org/2000/svg">
<g clip-path="url(#clip0_846_1918)">
<path d="M60.5088 66.9728C60.6827 65.8779 60.8531 64.8066 61.0286 63.7027C60.7679 63.7027 60.5385 63.6854 60.3151 63.7132C60.2472 63.7215 60.1669 63.845 60.1394 63.9305C59.8289 64.8888 59.53 65.8504 59.2176 66.808C59.196 66.8747 59.0919 66.9611 59.0261 66.9614C56.4149 66.9676 53.8034 66.9651 51.1922 66.963C51.1556 66.963 51.1186 66.9546 51.0656 66.9481C51.2552 65.8973 51.4419 64.8573 51.6309 63.8172C51.7878 62.9529 51.9526 62.09 52.0968 61.2238C52.108 61.1556 52.0028 61.0194 51.9241 60.9926C49.8446 60.282 47.9418 59.2811 46.3674 57.7364C45.0718 56.4648 44.1726 54.9559 43.6077 53.2478C43.5986 53.22 43.5989 53.1894 43.5892 53.1191C44.1212 53.1931 44.6363 53.2623 45.1511 53.3367C45.8974 53.4444 46.6415 53.5716 47.3901 53.6608C47.9625 53.7291 48.3667 53.4417 48.643 52.9835C49.0363 53.4435 49.405 53.9223 49.8233 54.3548C50.9466 55.5168 52.369 56.1478 53.9485 56.3744C55.4928 56.5957 57.0557 56.6914 58.6101 56.8433C60.464 57.0245 62.2775 57.3431 63.7827 58.539C65.2042 59.6686 65.6645 61.201 65.4492 62.9161C65.2863 64.2167 64.9683 65.4988 64.7117 66.7876C64.6988 66.8524 64.612 66.9518 64.5581 66.9528C63.2378 66.9756 61.9175 66.9877 60.5968 67C60.5686 67 60.5401 66.9827 60.5088 66.9728Z" fill="#E1DDF4"/>
<path d="M53.7006 51.0149C53.7173 48.357 55.8729 46.2581 58.5681 46.2757C61.2194 46.2927 63.3628 48.4292 63.3431 51.0359C63.323 53.6905 61.1589 55.8039 58.4778 55.7875C55.8425 55.7711 53.6844 53.6151 53.7006 51.0149Z" fill="#E1DDF4"/>
<path d="M43.5102 47.3126C44.8121 47.3129 45.7335 48.1066 45.9134 49.3825C46.0816 50.5756 45.3666 51.6885 44.1472 51.9756C43.5826 52.1087 42.9704 52.1009 42.3838 52.0732C41.8684 52.0488 41.4536 51.6021 41.504 51.0881C41.5996 50.1147 41.729 49.1377 41.9496 48.1856C42.1056 47.5136 42.58 47.3123 43.5102 47.3126Z" fill="#E1DDF4"/>
<path d="M43.9489 46.476C43.989 46.2108 43.9774 45.9361 44.0836 45.7169C44.1485 45.5832 44.4069 45.4446 44.5583 45.4635C45.8582 45.6258 47.1541 45.8222 48.4507 46.0117C48.7552 46.0562 48.879 46.2343 48.8332 46.5371C48.5481 48.4311 48.2642 50.3253 47.9841 52.2201C47.913 52.7017 47.7968 52.798 47.3089 52.7301C46.63 52.6356 45.9516 52.5375 45.2275 52.4343C46.4814 51.5962 46.9849 50.4559 46.697 49.0228C46.4905 47.9933 45.6991 46.6961 43.9489 46.476ZM48.1555 46.8641C48.1558 46.8085 48.1558 46.7532 48.1561 46.6977C48.0136 46.5989 47.8538 46.4047 47.7325 46.4257C47.5853 46.4513 47.4706 46.6585 47.3418 46.7872C47.4697 46.9082 47.5875 47.1098 47.7285 47.1268C47.8579 47.1425 48.0123 46.9595 48.1555 46.8641Z" fill="#E1DDF4"/>
<path d="M47.9747 43C48.2401 43.1093 48.4704 43.2044 48.7239 43.3087C48.4782 43.8832 48.2395 44.4478 47.9926 45.0091C47.976 45.0464 47.897 45.0828 47.8516 45.0779C47.6263 45.0529 47.4026 45.014 47.1347 44.9732C47.418 44.3083 47.6921 43.6643 47.9747 43Z" fill="#E1DDF4"/>
<path d="M51.2784 44.9529C51.3783 45.2066 51.4707 45.4409 51.5716 45.6965C50.9456 45.9358 50.3331 46.1698 49.7384 46.3973C49.6522 46.1466 49.5711 45.9095 49.4787 45.64C50.0545 45.4203 50.6574 45.19 51.2784 44.9529Z" fill="#E1DDF4"/>
<path d="M49.5056 47.7942C50.0549 48.1795 50.574 48.5434 51.118 48.925C50.9635 49.1414 50.8137 49.3513 50.6514 49.5788C50.2438 49.2933 49.8465 49.0194 49.457 48.7354C49.4119 48.7024 49.3862 48.6086 49.3931 48.5474C49.4201 48.3054 49.4633 48.0655 49.5056 47.7942Z" fill="#E1DDF4"/>
</g>
<path d="M85.6347 64.24C84.2907 64.24 83.0747 64.024 81.9867 63.592C80.8987 63.16 79.9627 62.552 79.1787 61.768C78.3947 60.984 77.7947 60.064 77.3787 59.008C76.9627 57.936 76.7547 56.776 76.7547 55.528C76.7547 54.28 76.9707 53.136 77.4027 52.096C77.8507 51.04 78.4827 50.12 79.2987 49.336C80.1147 48.552 81.0747 47.944 82.1787 47.512C83.2987 47.08 84.5147 46.864 85.8267 46.864C86.7547 46.864 87.6267 46.984 88.4427 47.224C89.2747 47.464 90.0267 47.792 90.6987 48.208C91.3707 48.624 91.9387 49.104 92.4027 49.648L89.9307 52.264C89.5307 51.88 89.1147 51.56 88.6827 51.304C88.2667 51.048 87.8187 50.848 87.3387 50.704C86.8587 50.544 86.3467 50.464 85.8027 50.464C85.0987 50.464 84.4507 50.592 83.8587 50.848C83.2827 51.104 82.7707 51.464 82.3227 51.928C81.8907 52.376 81.5547 52.912 81.3147 53.536C81.0747 54.144 80.9547 54.808 80.9547 55.528C80.9547 56.248 81.0827 56.92 81.3387 57.544C81.5947 58.168 81.9467 58.712 82.3947 59.176C82.8427 59.624 83.3707 59.984 83.9787 60.256C84.6027 60.512 85.2667 60.64 85.9707 60.64C86.4667 60.64 86.9307 60.56 87.3627 60.4C87.8107 60.24 88.1947 60.024 88.5147 59.752C88.8347 59.48 89.0907 59.16 89.2827 58.792C89.4747 58.408 89.5707 58 89.5707 57.568V56.944L90.0987 57.76H85.4667V54.568H93.3627C93.3947 54.744 93.4187 54.984 93.4347 55.288C93.4507 55.592 93.4587 55.888 93.4587 56.176C93.4747 56.464 93.4827 56.68 93.4827 56.824C93.4827 57.912 93.2827 58.912 92.8827 59.824C92.4987 60.72 91.9547 61.496 91.2507 62.152C90.5467 62.808 89.7147 63.32 88.7547 63.688C87.7947 64.056 86.7547 64.24 85.6347 64.24ZM100.904 64.216C99.8321 64.216 98.8721 63.936 98.0241 63.376C97.1921 62.8 96.5281 62.016 96.0321 61.024C95.5361 60.016 95.2881 58.88 95.2881 57.616C95.2881 56.32 95.5361 55.176 96.0321 54.184C96.5281 53.192 97.2081 52.416 98.0721 51.856C98.9361 51.28 99.9201 50.992 101.024 50.992C101.632 50.992 102.184 51.08 102.68 51.256C103.192 51.432 103.64 51.68 104.024 52C104.408 52.304 104.736 52.664 105.008 53.08C105.28 53.48 105.48 53.912 105.608 54.376L104.816 54.28V51.256H108.632V64H104.744V60.928L105.608 60.904C105.48 61.352 105.272 61.776 104.984 62.176C104.696 62.576 104.344 62.928 103.928 63.232C103.512 63.536 103.048 63.776 102.536 63.952C102.024 64.128 101.48 64.216 100.904 64.216ZM101.96 60.976C102.552 60.976 103.064 60.84 103.496 60.568C103.928 60.296 104.264 59.912 104.504 59.416C104.744 58.904 104.864 58.304 104.864 57.616C104.864 56.928 104.744 56.336 104.504 55.84C104.264 55.328 103.928 54.936 103.496 54.664C103.064 54.376 102.552 54.232 101.96 54.232C101.384 54.232 100.88 54.376 100.448 54.664C100.032 54.936 99.7041 55.328 99.4641 55.84C99.2241 56.336 99.1041 56.928 99.1041 57.616C99.1041 58.304 99.2241 58.904 99.4641 59.416C99.7041 59.912 100.032 60.296 100.448 60.568C100.88 60.84 101.384 60.976 101.96 60.976ZM112.044 64V46.24H115.884V64H112.044ZM125.147 64.24C123.739 64.24 122.515 63.96 121.475 63.4C120.435 62.824 119.627 62.048 119.051 61.072C118.475 60.08 118.187 58.952 118.187 57.688C118.187 56.712 118.347 55.816 118.667 55C118.987 54.184 119.435 53.48 120.011 52.888C120.587 52.28 121.267 51.816 122.051 51.496C122.851 51.16 123.723 50.992 124.667 50.992C125.563 50.992 126.379 51.152 127.115 51.472C127.867 51.792 128.515 52.24 129.059 52.816C129.603 53.392 130.019 54.072 130.307 54.856C130.595 55.64 130.723 56.496 130.691 57.424L130.667 58.456H120.515L119.963 56.296H127.547L127.139 56.752V56.272C127.107 55.872 126.979 55.52 126.755 55.216C126.547 54.896 126.267 54.648 125.915 54.472C125.563 54.296 125.163 54.208 124.715 54.208C124.091 54.208 123.555 54.336 123.107 54.592C122.675 54.832 122.347 55.192 122.123 55.672C121.899 56.136 121.787 56.712 121.787 57.4C121.787 58.104 121.931 58.72 122.219 59.248C122.523 59.76 122.955 60.16 123.515 60.448C124.091 60.736 124.771 60.88 125.555 60.88C126.099 60.88 126.579 60.8 126.995 60.64C127.427 60.48 127.891 60.208 128.387 59.824L130.187 62.368C129.691 62.8 129.163 63.152 128.603 63.424C128.043 63.696 127.467 63.896 126.875 64.024C126.299 64.168 125.723 64.24 125.147 64.24ZM133.138 64V51.256H136.786L136.954 55.408L136.234 54.616C136.426 53.928 136.738 53.312 137.17 52.768C137.618 52.224 138.138 51.792 138.73 51.472C139.322 51.152 139.954 50.992 140.626 50.992C140.914 50.992 141.178 51.016 141.418 51.064C141.674 51.112 141.906 51.168 142.114 51.232L141.058 55.48C140.882 55.368 140.642 55.28 140.338 55.216C140.05 55.136 139.746 55.096 139.426 55.096C139.074 55.096 138.746 55.16 138.442 55.288C138.138 55.4 137.882 55.568 137.674 55.792C137.466 56.016 137.298 56.28 137.17 56.584C137.058 56.888 137.002 57.232 137.002 57.616V64H133.138ZM144.275 64V51.256H148.115V64H144.275ZM146.195 48.736C145.475 48.736 144.907 48.568 144.491 48.232C144.091 47.88 143.891 47.384 143.891 46.744C143.891 46.168 144.099 45.696 144.515 45.328C144.931 44.96 145.491 44.776 146.195 44.776C146.915 44.776 147.475 44.952 147.875 45.304C148.275 45.64 148.475 46.12 148.475 46.744C148.475 47.336 148.267 47.816 147.851 48.184C147.451 48.552 146.899 48.736 146.195 48.736ZM156.428 64.216C155.356 64.216 154.396 63.936 153.548 63.376C152.716 62.8 152.052 62.016 151.556 61.024C151.06 60.016 150.812 58.88 150.812 57.616C150.812 56.32 151.06 55.176 151.556 54.184C152.052 53.192 152.732 52.416 153.596 51.856C154.46 51.28 155.444 50.992 156.548 50.992C157.156 50.992 157.708 51.08 158.204 51.256C158.716 51.432 159.164 51.68 159.548 52C159.932 52.304 160.26 52.664 160.532 53.08C160.804 53.48 161.004 53.912 161.132 54.376L160.34 54.28V51.256H164.156V64H160.268V60.928L161.132 60.904C161.004 61.352 160.796 61.776 160.508 62.176C160.22 62.576 159.868 62.928 159.452 63.232C159.036 63.536 158.572 63.776 158.06 63.952C157.548 64.128 157.004 64.216 156.428 64.216ZM157.484 60.976C158.076 60.976 158.588 60.84 159.02 60.568C159.452 60.296 159.788 59.912 160.028 59.416C160.268 58.904 160.388 58.304 160.388 57.616C160.388 56.928 160.268 56.336 160.028 55.84C159.788 55.328 159.452 54.936 159.02 54.664C158.588 54.376 158.076 54.232 157.484 54.232C156.908 54.232 156.404 54.376 155.972 54.664C155.556 54.936 155.228 55.328 154.988 55.84C154.748 56.336 154.628 56.928 154.628 57.616C154.628 58.304 154.748 58.904 154.988 59.416C155.228 59.912 155.556 60.296 155.972 60.568C156.404 60.84 156.908 60.976 157.484 60.976ZM180.055 64.264C178.951 64.264 177.967 63.984 177.103 63.424C176.255 62.848 175.583 62.064 175.087 61.072C174.591 60.064 174.343 58.92 174.343 57.64C174.343 56.36 174.591 55.224 175.087 54.232C175.583 53.224 176.263 52.432 177.127 51.856C177.991 51.28 178.983 50.992 180.103 50.992C180.679 50.992 181.231 51.08 181.759 51.256C182.287 51.432 182.767 51.672 183.199 51.976C183.631 52.28 183.983 52.632 184.255 53.032C184.527 53.416 184.687 53.816 184.735 54.232L183.823 54.448V46.24H187.687V64H184.111L183.895 61.096L184.663 61.216C184.615 61.616 184.455 62 184.183 62.368C183.927 62.736 183.591 63.064 183.175 63.352C182.759 63.624 182.279 63.84 181.735 64C181.207 64.176 180.647 64.264 180.055 64.264ZM181.039 61.072C181.631 61.072 182.143 60.928 182.575 60.64C183.007 60.352 183.335 59.952 183.559 59.44C183.799 58.928 183.919 58.328 183.919 57.64C183.919 56.936 183.799 56.328 183.559 55.816C183.335 55.304 183.007 54.904 182.575 54.616C182.143 54.328 181.631 54.184 181.039 54.184C180.447 54.184 179.935 54.328 179.503 54.616C179.087 54.904 178.759 55.304 178.519 55.816C178.279 56.328 178.159 56.936 178.159 57.64C178.159 58.328 178.279 58.928 178.519 59.44C178.759 59.952 179.087 60.352 179.503 60.64C179.935 60.928 180.447 61.072 181.039 61.072ZM197.006 64.24C195.598 64.24 194.374 63.96 193.334 63.4C192.294 62.824 191.486 62.048 190.91 61.072C190.334 60.08 190.046 58.952 190.046 57.688C190.046 56.712 190.206 55.816 190.526 55C190.846 54.184 191.294 53.48 191.87 52.888C192.446 52.28 193.126 51.816 193.91 51.496C194.71 51.16 195.582 50.992 196.526 50.992C197.422 50.992 198.238 51.152 198.974 51.472C199.726 51.792 200.374 52.24 200.918 52.816C201.462 53.392 201.878 54.072 202.166 54.856C202.454 55.64 202.582 56.496 202.55 57.424L202.526 58.456H192.374L191.822 56.296H199.406L198.998 56.752V56.272C198.966 55.872 198.838 55.52 198.614 55.216C198.406 54.896 198.126 54.648 197.774 54.472C197.422 54.296 197.022 54.208 196.574 54.208C195.95 54.208 195.414 54.336 194.966 54.592C194.534 54.832 194.206 55.192 193.982 55.672C193.758 56.136 193.646 56.712 193.646 57.4C193.646 58.104 193.79 58.72 194.078 59.248C194.382 59.76 194.814 60.16 195.374 60.448C195.95 60.736 196.63 60.88 197.414 60.88C197.958 60.88 198.438 60.8 198.854 60.64C199.286 60.48 199.75 60.208 200.246 59.824L202.046 62.368C201.55 62.8 201.022 63.152 200.462 63.424C199.902 63.696 199.326 63.896 198.734 64.024C198.158 64.168 197.582 64.24 197.006 64.24ZM220.172 64.144C218.78 64.144 217.54 63.864 216.452 63.304C215.364 62.728 214.508 61.944 213.884 60.952C213.276 59.96 212.972 58.824 212.972 57.544V47.2H217.1V57.328C217.1 57.936 217.236 58.488 217.508 58.984C217.78 59.464 218.148 59.848 218.612 60.136C219.076 60.408 219.596 60.544 220.172 60.544C220.78 60.544 221.316 60.408 221.78 60.136C222.26 59.848 222.644 59.464 222.932 58.984C223.22 58.488 223.364 57.936 223.364 57.328V47.2H227.348V57.544C227.348 58.824 227.036 59.96 226.412 60.952C225.804 61.944 224.956 62.728 223.868 63.304C222.78 63.864 221.548 64.144 220.172 64.144ZM235.332 64.24C234.084 64.24 232.98 64.04 232.02 63.64C231.076 63.24 230.324 62.704 229.764 62.032L232.092 60.016C232.588 60.512 233.148 60.88 233.772 61.12C234.396 61.344 234.988 61.456 235.548 61.456C235.772 61.456 235.972 61.432 236.148 61.384C236.324 61.336 236.468 61.272 236.58 61.192C236.708 61.096 236.804 60.992 236.868 60.88C236.932 60.752 236.964 60.608 236.964 60.448C236.964 60.128 236.82 59.88 236.532 59.704C236.388 59.624 236.148 59.528 235.812 59.416C235.476 59.304 235.044 59.176 234.516 59.032C233.764 58.84 233.108 58.616 232.548 58.36C232.004 58.088 231.556 57.776 231.204 57.424C230.884 57.088 230.636 56.72 230.46 56.32C230.284 55.904 230.196 55.44 230.196 54.928C230.196 54.336 230.332 53.8 230.604 53.32C230.892 52.84 231.268 52.424 231.732 52.072C232.212 51.72 232.756 51.456 233.364 51.28C233.988 51.088 234.628 50.992 235.284 50.992C235.988 50.992 236.66 51.072 237.3 51.232C237.94 51.392 238.532 51.616 239.076 51.904C239.636 52.192 240.132 52.536 240.564 52.936L238.548 55.192C238.26 54.92 237.932 54.68 237.564 54.472C237.212 54.248 236.844 54.072 236.46 53.944C236.076 53.816 235.724 53.752 235.404 53.752C235.164 53.752 234.948 53.776 234.756 53.824C234.58 53.856 234.428 53.92 234.3 54.016C234.172 54.096 234.076 54.2 234.012 54.328C233.948 54.44 233.916 54.576 233.916 54.736C233.916 54.896 233.956 55.048 234.036 55.192C234.132 55.336 234.26 55.456 234.42 55.552C234.58 55.648 234.836 55.76 235.188 55.888C235.54 56 236.02 56.144 236.628 56.32C237.38 56.528 238.028 56.76 238.572 57.016C239.116 57.272 239.548 57.576 239.868 57.928C240.124 58.2 240.316 58.52 240.444 58.888C240.572 59.24 240.636 59.624 240.636 60.04C240.636 60.856 240.404 61.584 239.94 62.224C239.492 62.848 238.868 63.344 238.068 63.712C237.268 64.064 236.356 64.24 235.332 64.24ZM247.263 64.264C246.319 64.264 245.511 64.064 244.839 63.664C244.183 63.248 243.671 62.656 243.303 61.888C242.951 61.12 242.775 60.2 242.775 59.128V51.256H246.639V58.6C246.639 59.112 246.719 59.552 246.879 59.92C247.039 60.288 247.279 60.576 247.599 60.784C247.919 60.976 248.303 61.072 248.751 61.072C249.087 61.072 249.391 61.016 249.663 60.904C249.951 60.792 250.191 60.64 250.383 60.448C250.591 60.24 250.751 60.008 250.863 59.752C250.975 59.48 251.031 59.184 251.031 58.864V51.256H254.895V64H251.271L251.103 61.384L251.823 61.096C251.631 61.704 251.311 62.248 250.863 62.728C250.415 63.192 249.879 63.568 249.255 63.856C248.631 64.128 247.967 64.264 247.263 64.264ZM263.021 64.216C261.949 64.216 260.989 63.936 260.141 63.376C259.309 62.8 258.645 62.016 258.149 61.024C257.653 60.016 257.405 58.88 257.405 57.616C257.405 56.32 257.653 55.176 258.149 54.184C258.645 53.192 259.325 52.416 260.189 51.856C261.053 51.28 262.037 50.992 263.141 50.992C263.749 50.992 264.301 51.08 264.797 51.256C265.309 51.432 265.757 51.68 266.141 52C266.525 52.304 266.853 52.664 267.125 53.08C267.397 53.48 267.597 53.912 267.725 54.376L266.933 54.28V51.256H270.749V64H266.861V60.928L267.725 60.904C267.597 61.352 267.389 61.776 267.101 62.176C266.813 62.576 266.461 62.928 266.045 63.232C265.629 63.536 265.165 63.776 264.653 63.952C264.141 64.128 263.597 64.216 263.021 64.216ZM264.077 60.976C264.669 60.976 265.181 60.84 265.613 60.568C266.045 60.296 266.381 59.912 266.621 59.416C266.861 58.904 266.981 58.304 266.981 57.616C266.981 56.928 266.861 56.336 266.621 55.84C266.381 55.328 266.045 54.936 265.613 54.664C265.181 54.376 264.669 54.232 264.077 54.232C263.501 54.232 262.997 54.376 262.565 54.664C262.149 54.936 261.821 55.328 261.581 55.84C261.341 56.336 261.221 56.928 261.221 57.616C261.221 58.304 261.341 58.904 261.581 59.416C261.821 59.912 262.149 60.296 262.565 60.568C262.997 60.84 263.501 60.976 264.077 60.976ZM262.637 49.864L261.509 48.112L265.805 44.704L267.557 47.224L262.637 49.864ZM274.138 64V51.256H277.786L277.954 55.408L277.234 54.616C277.426 53.928 277.738 53.312 278.17 52.768C278.618 52.224 279.138 51.792 279.73 51.472C280.322 51.152 280.954 50.992 281.626 50.992C281.914 50.992 282.178 51.016 282.418 51.064C282.674 51.112 282.906 51.168 283.114 51.232L282.058 55.48C281.882 55.368 281.642 55.28 281.338 55.216C281.05 55.136 280.746 55.096 280.426 55.096C280.074 55.096 279.746 55.16 279.442 55.288C279.138 55.4 278.882 55.568 278.674 55.792C278.466 56.016 278.298 56.28 278.17 56.584C278.058 56.888 278.002 57.232 278.002 57.616V64H274.138ZM285.275 64V51.256H289.115V64H285.275ZM287.195 48.736C286.475 48.736 285.907 48.568 285.491 48.232C285.091 47.88 284.891 47.384 284.891 46.744C284.891 46.168 285.099 45.696 285.515 45.328C285.931 44.96 286.491 44.776 287.195 44.776C287.915 44.776 288.475 44.952 288.875 45.304C289.275 45.64 289.475 46.12 289.475 46.744C289.475 47.336 289.267 47.816 288.851 48.184C288.451 48.552 287.899 48.736 287.195 48.736ZM298.724 64.24C297.396 64.24 296.212 63.952 295.172 63.376C294.148 62.8 293.332 62.016 292.724 61.024C292.132 60.032 291.836 58.896 291.836 57.616C291.836 56.336 292.132 55.2 292.724 54.208C293.332 53.216 294.148 52.432 295.172 51.856C296.212 51.28 297.396 50.992 298.724 50.992C300.052 50.992 301.228 51.28 302.252 51.856C303.292 52.432 304.108 53.216 304.7 54.208C305.292 55.2 305.588 56.336 305.588 57.616C305.588 58.896 305.292 60.032 304.7 61.024C304.108 62.016 303.292 62.8 302.252 63.376C301.228 63.952 300.052 64.24 298.724 64.24ZM298.724 60.928C299.3 60.928 299.812 60.784 300.26 60.496C300.708 60.208 301.06 59.816 301.316 59.32C301.572 58.824 301.692 58.256 301.676 57.616C301.692 56.976 301.572 56.408 301.316 55.912C301.06 55.4 300.708 55 300.26 54.712C299.812 54.424 299.3 54.28 298.724 54.28C298.148 54.28 297.628 54.424 297.164 54.712C296.716 55 296.364 55.4 296.108 55.912C295.852 56.408 295.732 56.976 295.748 57.616C295.732 58.256 295.852 58.824 296.108 59.32C296.364 59.816 296.716 60.208 297.164 60.496C297.628 60.784 298.148 60.928 298.724 60.928ZM312.395 64.24C311.147 64.24 310.043 64.04 309.083 63.64C308.139 63.24 307.387 62.704 306.827 62.032L309.155 60.016C309.651 60.512 310.211 60.88 310.835 61.12C311.459 61.344 312.051 61.456 312.611 61.456C312.835 61.456 313.035 61.432 313.211 61.384C313.387 61.336 313.531 61.272 313.643 61.192C313.771 61.096 313.867 60.992 313.931 60.88C313.995 60.752 314.027 60.608 314.027 60.448C314.027 60.128 313.883 59.88 313.595 59.704C313.451 59.624 313.211 59.528 312.875 59.416C312.539 59.304 312.107 59.176 311.579 59.032C310.827 58.84 310.171 58.616 309.611 58.36C309.067 58.088 308.619 57.776 308.267 57.424C307.947 57.088 307.699 56.72 307.523 56.32C307.347 55.904 307.259 55.44 307.259 54.928C307.259 54.336 307.395 53.8 307.667 53.32C307.955 52.84 308.331 52.424 308.795 52.072C309.275 51.72 309.819 51.456 310.427 51.28C311.051 51.088 311.691 50.992 312.347 50.992C313.051 50.992 313.723 51.072 314.363 51.232C315.003 51.392 315.595 51.616 316.139 51.904C316.699 52.192 317.195 52.536 317.627 52.936L315.611 55.192C315.323 54.92 314.995 54.68 314.627 54.472C314.275 54.248 313.907 54.072 313.523 53.944C313.139 53.816 312.787 53.752 312.467 53.752C312.227 53.752 312.011 53.776 311.819 53.824C311.643 53.856 311.491 53.92 311.363 54.016C311.235 54.096 311.139 54.2 311.075 54.328C311.011 54.44 310.979 54.576 310.979 54.736C310.979 54.896 311.019 55.048 311.099 55.192C311.195 55.336 311.323 55.456 311.483 55.552C311.643 55.648 311.899 55.76 312.251 55.888C312.603 56 313.083 56.144 313.691 56.32C314.443 56.528 315.091 56.76 315.635 57.016C316.179 57.272 316.611 57.576 316.931 57.928C317.187 58.2 317.379 58.52 317.507 58.888C317.635 59.24 317.699 59.624 317.699 60.04C317.699 60.856 317.467 61.584 317.003 62.224C316.555 62.848 315.931 63.344 315.131 63.712C314.331 64.064 313.419 64.24 312.395 64.24Z" fill="#E1DDF4"/>
<defs>
<clipPath id="clip0_846_1918">
<rect width="24" height="24" fill="white" transform="translate(41.5 43)"/>
</clipPath>
</defs>
</svg>
