<svg width="25" height="24" viewBox="0 0 25 24" fill="none" xmlns="http://www.w3.org/2000/svg">
<g clip-path="url(#clip0_561_3664)">
<path d="M19.5088 23.9728C19.6827 22.8779 19.8531 21.8066 20.0286 20.7027C19.7679 20.7027 19.5385 20.6854 19.3151 20.7132C19.2472 20.7215 19.1669 20.845 19.1394 20.9305C18.8289 21.8888 18.53 22.8504 18.2176 23.808C18.196 23.8747 18.0919 23.9611 18.0261 23.9614C15.4149 23.9676 12.8034 23.9651 10.1922 23.963C10.1556 23.963 10.1186 23.9546 10.0656 23.9481C10.2552 22.8973 10.4419 21.8573 10.6309 20.8172C10.7878 19.9529 10.9526 19.09 11.0968 18.2238C11.108 18.1556 11.0028 18.0194 10.9241 17.9926C8.84462 17.282 6.94183 16.2811 5.36739 14.7364C4.07182 13.4648 3.17259 11.9559 2.60767 10.2478C2.59858 10.22 2.5989 10.1894 2.58918 10.1191C3.1212 10.1931 3.6363 10.2623 4.15109 10.3367C4.89741 10.4444 5.64155 10.5716 6.39007 10.6608C6.96251 10.7291 7.36669 10.4417 7.64304 9.98354C8.03625 10.4435 8.40503 10.9223 8.82331 11.3548C9.94657 12.5168 11.369 13.1478 12.9485 13.3744C14.4928 13.5957 16.0557 13.6914 17.6101 13.8433C19.464 14.0245 21.2775 14.3431 22.7827 15.539C24.2042 16.6686 24.6645 18.201 24.4492 19.9161C24.2863 21.2167 23.9683 22.4988 23.7117 23.7876C23.6988 23.8524 23.612 23.9518 23.5581 23.9528C22.2378 23.9756 20.9175 23.9877 19.5968 24C19.5686 24 19.5401 23.9827 19.5088 23.9728Z" fill="#9C60DA"/>
<path d="M12.7006 8.01492C12.7173 5.35697 14.8729 3.25808 17.5681 3.27567C20.2194 3.29265 22.3628 5.4292 22.3431 8.03591C22.323 10.6905 20.1589 12.8039 17.4778 12.7875C14.8425 12.7711 12.6844 10.6151 12.7006 8.01492Z" fill="#9C60DA"/>
<path d="M2.51023 4.31262C3.81207 4.31292 4.73355 5.10661 4.91339 6.38249C5.08165 7.57563 4.36665 8.68852 3.14721 8.97561C2.5826 9.10866 1.97038 9.10095 1.38384 9.07316C0.868431 9.04878 0.453595 8.60208 0.50404 8.08808C0.599602 7.11474 0.729004 6.13768 0.949581 5.18563C1.10561 4.51358 1.57998 4.31231 2.51023 4.31262Z" fill="#9C60DA"/>
<path d="M2.94888 3.47602C2.98898 3.21085 2.97739 2.9361 3.0836 2.71692C3.14846 2.58325 3.40695 2.44464 3.55828 2.46347C4.85825 2.62585 6.15414 2.82219 7.45066 3.01173C7.75521 3.05618 7.87897 3.23431 7.83322 3.53715C7.5481 5.43106 7.26423 7.32527 6.98412 9.22011C6.913 9.70169 6.79676 9.798 6.30892 9.73009C5.62996 9.63562 4.95162 9.53746 4.22754 9.43435C5.48144 8.59621 5.98495 7.45586 5.69701 6.02284C5.49053 4.99331 4.69908 3.69613 2.94888 3.47602ZM7.15551 3.86407C7.15582 3.8085 7.15582 3.75324 7.15614 3.69767C7.01358 3.59889 6.85378 3.40471 6.73253 3.4257C6.58527 3.45133 6.47059 3.65847 6.34182 3.7872C6.46965 3.90821 6.58746 4.1098 6.72846 4.12677C6.85786 4.14252 7.01232 3.95946 7.15551 3.86407Z" fill="#9C60DA"/>
<path d="M6.97472 0C7.24011 0.109282 7.4704 0.204363 7.72387 0.308706C7.47823 0.883206 7.23948 1.44783 6.99258 2.00906C6.97598 2.04641 6.89702 2.08284 6.85159 2.0779C6.62631 2.05289 6.4026 2.01399 6.13471 1.97325C6.41796 1.30829 6.69211 0.664334 6.97472 0Z" fill="#9C60DA"/>
<path d="M10.2784 1.95287C10.3783 2.20663 10.4707 2.44093 10.5716 2.69654C9.94563 2.93579 9.33309 3.16979 8.7384 3.3973C8.65224 3.14664 8.57109 2.90955 8.47866 2.64005C9.05454 2.42025 9.65737 2.18996 10.2784 1.95287Z" fill="#9C60DA"/>
<path d="M8.50561 4.7942C9.05486 5.17946 9.57403 5.54342 10.118 5.92498C9.96348 6.14139 9.81372 6.35131 9.65142 6.57882C9.24379 6.29327 8.8465 6.01945 8.45704 5.73544C8.41192 5.70241 8.38623 5.60856 8.39313 5.54744C8.42007 5.30541 8.46331 5.06555 8.50561 4.7942Z" fill="#9C60DA"/>
</g>
<defs>
<clipPath id="clip0_561_3664">
<rect width="24" height="24" fill="white" transform="translate(0.5)"/>
</clipPath>
</defs>
</svg>
