<svg width="132" height="30" viewBox="0 0 132 30" fill="none" xmlns="http://www.w3.org/2000/svg">
<g clip-path="url(#clip0_650_19548)">
<path d="M1.39491 18.5336L15.537 4.39145M8.46598 25.6046L22.6081 11.4625M15.537 25.6046L1.39491 11.4625M22.6081 18.5336L8.46598 4.39145" stroke="#9C60DA" stroke-width="3" stroke-linecap="round" stroke-linejoin="round"/>
</g>
<path d="M34.7094 24L41.1414 7.2H43.2774L49.6614 24H47.6214L43.5174 13.104C43.4054 12.8 43.2774 12.448 43.1334 12.048C43.0054 11.632 42.8614 11.208 42.7014 10.776C42.5574 10.328 42.4134 9.896 42.2694 9.48C42.1414 9.064 42.0214 8.696 41.9094 8.376H42.3894C42.2614 8.776 42.1254 9.184 41.9814 9.6C41.8534 10 41.7174 10.408 41.5734 10.824C41.4294 11.224 41.2854 11.624 41.1414 12.024C40.9974 12.424 40.8534 12.824 40.7094 13.224L36.6294 24H34.7094ZM37.4454 19.368L38.1414 17.544H46.0854L46.8534 19.368H37.4454ZM59.4564 24V7.2H65.7924C66.9444 7.2 67.9924 7.408 68.9364 7.824C69.8964 8.224 70.7284 8.8 71.4324 9.552C72.1364 10.304 72.6804 11.192 73.0644 12.216C73.4484 13.24 73.6404 14.368 73.6404 15.6C73.6404 16.832 73.4484 17.968 73.0644 19.008C72.6804 20.032 72.1364 20.92 71.4324 21.672C70.7444 22.408 69.9204 22.984 68.9604 23.4C68.0004 23.8 66.9444 24 65.7924 24H59.4564ZM61.3284 22.512L61.1124 22.176H65.6724C66.5524 22.176 67.3604 22.024 68.0964 21.72C68.8484 21.4 69.4884 20.952 70.0164 20.376C70.5604 19.784 70.9764 19.088 71.2644 18.288C71.5684 17.488 71.7204 16.592 71.7204 15.6C71.7204 14.608 71.5684 13.712 71.2644 12.912C70.9764 12.112 70.5604 11.424 70.0164 10.848C69.4724 10.256 68.8324 9.808 68.0964 9.504C67.3604 9.184 66.5524 9.024 65.6724 9.024H61.0404L61.3284 8.736V22.512ZM82.0923 24.24C80.8443 24.24 79.7323 23.968 78.7563 23.424C77.7963 22.88 77.0443 22.12 76.5003 21.144C75.9563 20.168 75.6843 19.048 75.6843 17.784C75.6843 16.808 75.8363 15.928 76.1403 15.144C76.4443 14.344 76.8683 13.648 77.4123 13.056C77.9723 12.464 78.6363 12.008 79.4043 11.688C80.1723 11.352 81.0043 11.184 81.9003 11.184C82.7483 11.184 83.5163 11.336 84.2043 11.64C84.9083 11.944 85.5083 12.368 86.0043 12.912C86.5163 13.44 86.9003 14.072 87.1563 14.808C87.4123 15.544 87.5243 16.352 87.4923 17.232L87.4683 18.072H77.0283L76.7643 16.56H86.1003L85.6683 16.968V16.392C85.6363 15.816 85.4683 15.264 85.1643 14.736C84.8603 14.192 84.4283 13.752 83.8683 13.416C83.3243 13.08 82.6683 12.912 81.9003 12.912C81.0043 12.912 80.2283 13.096 79.5723 13.464C78.9163 13.816 78.4123 14.344 78.0603 15.048C77.7083 15.752 77.5323 16.624 77.5323 17.664C77.5323 18.656 77.7243 19.52 78.1083 20.256C78.4923 20.976 79.0363 21.536 79.7403 21.936C80.4603 22.336 81.3243 22.536 82.3323 22.536C82.9243 22.536 83.5083 22.44 84.0843 22.248C84.6763 22.04 85.3243 21.64 86.0283 21.048L86.9643 22.344C86.5963 22.712 86.1563 23.04 85.6443 23.328C85.1323 23.6 84.5723 23.824 83.9643 24C83.3563 24.16 82.7323 24.24 82.0923 24.24ZM90.0489 24V11.472H91.8249L91.8969 14.088L91.6089 14.208C91.7689 13.664 92.0809 13.168 92.5449 12.72C93.0089 12.272 93.5609 11.912 94.2009 11.64C94.8569 11.352 95.5289 11.208 96.2169 11.208C97.1449 11.208 97.9209 11.392 98.5449 11.76C99.1689 12.128 99.6409 12.696 99.9609 13.464C100.281 14.232 100.441 15.208 100.441 16.392V24H98.6169V16.488C98.6169 15.656 98.5049 14.976 98.2809 14.448C98.0729 13.904 97.7449 13.504 97.2969 13.248C96.8489 12.992 96.2969 12.872 95.6409 12.888C95.0969 12.888 94.5929 12.984 94.1289 13.176C93.6649 13.352 93.2649 13.6 92.9289 13.92C92.5929 14.24 92.3289 14.608 92.1369 15.024C91.9449 15.44 91.8489 15.888 91.8489 16.368V24H90.9609C90.8489 24 90.7209 24 90.5769 24C90.4329 24 90.2569 24 90.0489 24ZM103.181 24V22.44L110.093 12.696L110.309 13.08H103.181V11.472H111.989V13.008L105.101 22.728L104.861 22.368H112.253V24H103.181ZM120.295 24.24C119.047 24.24 117.935 23.968 116.959 23.424C115.999 22.88 115.247 22.12 114.703 21.144C114.159 20.168 113.887 19.048 113.887 17.784C113.887 16.808 114.039 15.928 114.343 15.144C114.647 14.344 115.071 13.648 115.615 13.056C116.175 12.464 116.839 12.008 117.607 11.688C118.375 11.352 119.207 11.184 120.103 11.184C120.951 11.184 121.719 11.336 122.407 11.64C123.111 11.944 123.711 12.368 124.207 12.912C124.719 13.44 125.103 14.072 125.359 14.808C125.615 15.544 125.727 16.352 125.695 17.232L125.671 18.072H115.231L114.967 16.56H124.303L123.871 16.968V16.392C123.839 15.816 123.671 15.264 123.367 14.736C123.063 14.192 122.631 13.752 122.071 13.416C121.527 13.08 120.871 12.912 120.103 12.912C119.207 12.912 118.431 13.096 117.775 13.464C117.119 13.816 116.615 14.344 116.263 15.048C115.911 15.752 115.735 16.624 115.735 17.664C115.735 18.656 115.927 19.52 116.311 20.256C116.695 20.976 117.239 21.536 117.943 21.936C118.663 22.336 119.527 22.536 120.535 22.536C121.127 22.536 121.711 22.44 122.287 22.248C122.879 22.04 123.527 21.64 124.231 21.048L125.167 22.344C124.799 22.712 124.359 23.04 123.847 23.328C123.335 23.6 122.775 23.824 122.167 24C121.559 24.16 120.935 24.24 120.295 24.24ZM128.3 24V6.24H130.1V24H128.3Z" fill="url(#paint0_linear_650_19548)"/>
<defs>
<linearGradient id="paint0_linear_650_19548" x1="132" y1="15" x2="34" y2="15" gradientUnits="userSpaceOnUse">
<stop stop-color="#43A3D5"/>
<stop offset="1" stop-color="#9C60DA"/>
</linearGradient>
<clipPath id="clip0_650_19548">
<rect width="24" height="24" fill="white" transform="matrix(1 0 0 -1 0 27)"/>
</clipPath>
</defs>
</svg>
