<svg width="96" height="71" viewBox="0 0 96 71" fill="none" xmlns="http://www.w3.org/2000/svg">
<rect width="94.2857" height="71" transform="translate(0.857178)" fill="#1D1933"/>
<path d="M51.2001 26.6667L49.3334 24.8L52.8001 21.3333L49.3334 17.8667L51.2001 16L54.6667 19.4667L58.1334 16L60.0001 17.8667L56.5334 21.3333L60.0001 24.8L58.1334 26.6667L54.6667 23.2L51.2001 26.6667ZM53.8334 14.6667L49.1001 9.93334L50.9667 8.06667L53.8001 10.9L59.4667 5.23334L61.3334 7.13334L53.8334 14.6667ZM34.6667 22.6667V20H46.6667V22.6667H34.6667ZM34.6667 12V9.33334H46.6667V12H34.6667Z" fill="url(#paint0_linear_118_655)" fill-opacity="0.8"/>
<path d="M15.6316 53V41.8H20.8796C21.6583 41.8 22.3516 41.9547 22.9596 42.264C23.5676 42.5733 24.0423 42.9947 24.3836 43.528C24.725 44.0613 24.8956 44.6747 24.8956 45.368C24.8956 46.1467 24.725 46.8293 24.3836 47.416C24.0423 48.0027 23.5676 48.4613 22.9596 48.792C22.3516 49.112 21.6583 49.272 20.8796 49.272H18.8636V53H15.6316ZM21.5036 53L18.6556 47.944L22.1916 47.544L25.3596 53H21.5036ZM18.8636 46.872H20.3356C20.6023 46.872 20.821 46.824 20.9916 46.728C21.173 46.6213 21.3063 46.4773 21.3916 46.296C21.4876 46.1147 21.5356 45.896 21.5356 45.64C21.5356 45.4053 21.4876 45.208 21.3916 45.048C21.3063 44.8773 21.1676 44.7493 20.9756 44.664C20.7943 44.568 20.5596 44.52 20.2716 44.52H18.8636V46.872ZM26.9441 53V41.8H35.3121V44.6H30.2561V50.2H35.6001V53H26.9441ZM28.5921 48.648V46.024H34.7201V48.648H28.5921ZM42.9756 53.16C42.0156 53.16 41.1623 53.016 40.4156 52.728C39.6796 52.44 39.0556 52.0347 38.5436 51.512C38.0316 50.9893 37.6423 50.3707 37.3756 49.656C37.1196 48.9413 36.9916 48.1627 36.9916 47.32C36.9916 46.4667 37.1356 45.688 37.4236 44.984C37.7223 44.2693 38.149 43.6507 38.7036 43.128C39.2583 42.6053 39.9143 42.2 40.6716 41.912C41.4396 41.624 42.293 41.48 43.2316 41.48C43.8823 41.48 44.485 41.56 45.0396 41.72C45.605 41.88 46.1116 42.0987 46.5596 42.376C47.0183 42.6427 47.413 42.9467 47.7436 43.288L45.6956 45.464C45.4823 45.2613 45.253 45.0853 45.0076 44.936C44.7623 44.776 44.4903 44.6533 44.1916 44.568C43.893 44.472 43.557 44.424 43.1836 44.424C42.7996 44.424 42.4476 44.4987 42.1276 44.648C41.8076 44.7867 41.5303 44.984 41.2956 45.24C41.061 45.496 40.8743 45.8053 40.7356 46.168C40.6076 46.52 40.5436 46.904 40.5436 47.32C40.5436 47.736 40.613 48.1253 40.7516 48.488C40.8903 48.84 41.0823 49.144 41.3276 49.4C41.573 49.656 41.8663 49.8587 42.2076 50.008C42.549 50.1467 42.9223 50.216 43.3276 50.216C43.605 50.216 43.8556 50.1733 44.0796 50.088C44.3143 49.992 44.5116 49.8693 44.6716 49.72C44.8423 49.56 44.9756 49.3733 45.0716 49.16C45.1676 48.936 45.2156 48.696 45.2156 48.44V47.976L45.6636 48.744H42.8156V46.312H48.3196C48.3303 46.4293 48.341 46.6213 48.3516 46.888C48.373 47.1547 48.3836 47.4213 48.3836 47.688C48.3943 47.944 48.3996 48.12 48.3996 48.216C48.3996 48.9307 48.2663 49.592 47.9996 50.2C47.733 50.808 47.3543 51.3307 46.8636 51.768C46.3836 52.2053 45.813 52.5467 45.1516 52.792C44.4903 53.0373 43.765 53.16 42.9756 53.16ZM50.3191 53V41.8H55.5671C56.3458 41.8 57.0391 41.9547 57.6471 42.264C58.2551 42.5733 58.7298 42.9947 59.0711 43.528C59.4125 44.0613 59.5831 44.6747 59.5831 45.368C59.5831 46.1467 59.4125 46.8293 59.0711 47.416C58.7298 48.0027 58.2551 48.4613 57.6471 48.792C57.0391 49.112 56.3458 49.272 55.5671 49.272H53.5511V53H50.3191ZM56.1911 53L53.3431 47.944L56.8791 47.544L60.0471 53H56.1911ZM53.5511 46.872H55.0231C55.2898 46.872 55.5085 46.824 55.6791 46.728C55.8605 46.6213 55.9938 46.4773 56.0791 46.296C56.1751 46.1147 56.2231 45.896 56.2231 45.64C56.2231 45.4053 56.1751 45.208 56.0791 45.048C55.9938 44.8773 55.8551 44.7493 55.6631 44.664C55.4818 44.568 55.2471 44.52 54.9591 44.52H53.5511V46.872ZM60.0316 53L64.5276 41.8H67.2476L71.7116 53H68.2876L66.4956 48.104C66.3783 47.7733 66.277 47.4907 66.1916 47.256C66.1063 47.0213 66.0316 46.8027 65.9676 46.6C65.9036 46.3867 65.8396 46.1627 65.7756 45.928C65.7116 45.6827 65.6476 45.3947 65.5836 45.064H66.1276C66.0636 45.3947 65.9996 45.6827 65.9356 45.928C65.8716 46.1627 65.8023 46.3867 65.7276 46.6C65.6636 46.8027 65.5836 47.0213 65.4876 47.256C65.4023 47.4907 65.301 47.7733 65.1836 48.104L63.3916 53H60.0316ZM62.2716 51.336L63.2796 48.984H68.4796L69.3916 51.336H62.2716ZM76.5985 53.16C75.7558 53.16 75.0092 53.0693 74.3585 52.888C73.7185 52.696 73.1532 52.4293 72.6625 52.088C72.1825 51.7467 71.7505 51.3467 71.3665 50.888L73.3665 48.648C73.8998 49.3307 74.4545 49.784 75.0305 50.008C75.6172 50.2213 76.1665 50.328 76.6785 50.328C76.8812 50.328 77.0625 50.312 77.2225 50.28C77.3825 50.2373 77.5052 50.1733 77.5905 50.088C77.6758 50.0027 77.7185 49.8853 77.7185 49.736C77.7185 49.5973 77.6705 49.48 77.5745 49.384C77.4892 49.288 77.3718 49.208 77.2225 49.144C77.0732 49.0693 76.9078 49.0107 76.7265 48.968C76.5558 48.9147 76.3852 48.872 76.2145 48.84C76.0545 48.808 75.9105 48.776 75.7825 48.744C75.1425 48.5947 74.5825 48.4133 74.1025 48.2C73.6225 47.9867 73.2225 47.7307 72.9025 47.432C72.5825 47.1333 72.3425 46.792 72.1825 46.408C72.0332 46.024 71.9585 45.592 71.9585 45.112C71.9585 44.568 72.0812 44.072 72.3265 43.624C72.5825 43.176 72.9185 42.792 73.3345 42.472C73.7612 42.152 74.2412 41.9067 74.7745 41.736C75.3185 41.5653 75.8785 41.48 76.4545 41.48C77.2972 41.48 78.0012 41.56 78.5665 41.72C79.1318 41.8693 79.6065 42.088 79.9905 42.376C80.3745 42.664 80.7052 43 80.9825 43.384L78.9665 45.32C78.7318 45.096 78.4865 44.9147 78.2305 44.776C77.9745 44.6267 77.7078 44.52 77.4305 44.456C77.1638 44.3813 76.8972 44.344 76.6305 44.344C76.3852 44.344 76.1772 44.3653 76.0065 44.408C75.8358 44.44 75.7025 44.4987 75.6065 44.584C75.5105 44.6587 75.4625 44.7653 75.4625 44.904C75.4625 45.0427 75.5212 45.16 75.6385 45.256C75.7665 45.3413 75.9212 45.416 76.1025 45.48C76.2945 45.544 76.4812 45.5973 76.6625 45.64C76.8545 45.672 77.0145 45.6987 77.1425 45.72C77.7292 45.8267 78.2678 45.976 78.7585 46.168C79.2492 46.3493 79.6758 46.584 80.0385 46.872C80.4118 47.1493 80.6945 47.5013 80.8865 47.928C81.0892 48.344 81.1905 48.84 81.1905 49.416C81.1905 50.2373 80.9825 50.9253 80.5665 51.48C80.1612 52.0347 79.6118 52.456 78.9185 52.744C78.2252 53.0213 77.4518 53.16 76.5985 53.16ZM27.5132 69.16C26.7559 69.16 26.0732 68.9733 25.4652 68.6C24.8679 68.2267 24.3932 67.7147 24.0412 67.064C23.6999 66.4027 23.5292 65.656 23.5292 64.824C23.5292 63.9813 23.7052 63.2347 24.0572 62.584C24.4092 61.9227 24.8839 61.4053 25.4812 61.032C26.0785 60.6587 26.7505 60.472 27.4972 60.472C27.9132 60.472 28.3132 60.536 28.6972 60.664C29.0919 60.792 29.4439 60.9733 29.7532 61.208C30.0625 61.432 30.3185 61.6933 30.5212 61.992C30.7239 62.28 30.8465 62.584 30.8892 62.904L30.5212 62.776V57.16H31.7212V69H30.5372L30.5052 66.92L30.8092 66.808C30.7665 67.1067 30.6439 67.4 30.4412 67.688C30.2492 67.9653 30.0039 68.216 29.7052 68.44C29.4065 68.664 29.0652 68.84 28.6812 68.968C28.3079 69.096 27.9185 69.16 27.5132 69.16ZM27.6892 68.056C28.2439 68.056 28.7399 67.9173 29.1772 67.64C29.6145 67.3627 29.9559 66.9787 30.2012 66.488C30.4572 65.9973 30.5852 65.4373 30.5852 64.808C30.5852 64.1787 30.4572 63.624 30.2012 63.144C29.9559 62.6533 29.6145 62.2693 29.1772 61.992C28.7399 61.704 28.2439 61.56 27.6892 61.56C27.1132 61.56 26.6065 61.704 26.1692 61.992C25.7425 62.2693 25.4012 62.6533 25.1452 63.144C24.8999 63.624 24.7772 64.1787 24.7772 64.808C24.7772 65.4267 24.8999 65.9813 25.1452 66.472C25.3905 66.9627 25.7319 67.352 26.1692 67.64C26.6065 67.9173 27.1132 68.056 27.6892 68.056ZM37.7387 69.16C36.9067 69.16 36.1654 68.9787 35.5147 68.616C34.8747 68.2533 34.3734 67.7467 34.0107 67.096C33.648 66.4453 33.4667 65.6987 33.4667 64.856C33.4667 64.2053 33.568 63.6187 33.7707 63.096C33.9734 62.5627 34.256 62.0987 34.6187 61.704C34.992 61.3093 35.4347 61.0053 35.9467 60.792C36.4587 60.568 37.0134 60.456 37.6107 60.456C38.176 60.456 38.688 60.5573 39.1467 60.76C39.616 60.9627 40.016 61.2453 40.3467 61.608C40.688 61.96 40.944 62.3813 41.1147 62.872C41.2854 63.3627 41.36 63.9013 41.3387 64.488L41.3227 65.048H34.3627L34.1867 64.04H40.4107L40.1227 64.312V63.928C40.1014 63.544 39.9894 63.176 39.7867 62.824C39.584 62.4613 39.296 62.168 38.9227 61.944C38.56 61.72 38.1227 61.608 37.6107 61.608C37.0134 61.608 36.496 61.7307 36.0587 61.976C35.6214 62.2107 35.2854 62.5627 35.0507 63.032C34.816 63.5013 34.6987 64.0827 34.6987 64.776C34.6987 65.4373 34.8267 66.0133 35.0827 66.504C35.3387 66.984 35.7014 67.3573 36.1707 67.624C36.6507 67.8907 37.2267 68.024 37.8987 68.024C38.2934 68.024 38.6827 67.96 39.0667 67.832C39.4614 67.6933 39.8934 67.4267 40.3627 67.032L40.9867 67.896C40.7414 68.1413 40.448 68.36 40.1067 68.552C39.7654 68.7333 39.392 68.8827 38.9867 69C38.5814 69.1067 38.1654 69.16 37.7387 69.16ZM50.4874 69.16C49.8474 69.16 49.3034 69.032 48.8554 68.776C48.4181 68.5093 48.0821 68.1253 47.8474 67.624C47.6234 67.1227 47.5114 66.4987 47.5114 65.752V60.648H48.7274V65.512C48.7274 66.0773 48.8021 66.552 48.9514 66.936C49.1114 67.3093 49.3461 67.592 49.6554 67.784C49.9754 67.976 50.3648 68.072 50.8234 68.072C51.1754 68.072 51.5008 68.0133 51.7994 67.896C52.0981 67.768 52.3594 67.5973 52.5834 67.384C52.8074 67.1707 52.9834 66.92 53.1114 66.632C53.2394 66.344 53.3034 66.04 53.3034 65.72V60.648H54.5034V69H53.3194L53.2714 67.24L53.4634 67.144C53.3354 67.5173 53.1221 67.8587 52.8234 68.168C52.5248 68.4667 52.1674 68.7067 51.7514 68.888C51.3461 69.0693 50.9248 69.16 50.4874 69.16ZM59.5759 69.16C58.8613 69.16 58.2213 69.0267 57.6559 68.76C57.0906 68.4933 56.6426 68.1413 56.3119 67.704L57.1599 66.968C57.4693 67.3413 57.8319 67.624 58.2479 67.816C58.6746 68.008 59.1493 68.104 59.6719 68.104C59.9386 68.104 60.1786 68.0773 60.3919 68.024C60.6053 67.96 60.7919 67.8693 60.9519 67.752C61.1119 67.6347 61.2346 67.496 61.3199 67.336C61.4053 67.176 61.4479 67 61.4479 66.808C61.4479 66.456 61.2933 66.1627 60.9839 65.928C60.8453 65.832 60.6479 65.736 60.3919 65.64C60.1359 65.5333 59.8266 65.432 59.4639 65.336C58.8666 65.1653 58.3706 64.9947 57.9759 64.824C57.5813 64.6427 57.2719 64.4347 57.0479 64.2C56.8879 64.008 56.7653 63.8 56.6799 63.576C56.6053 63.352 56.5679 63.1067 56.5679 62.84C56.5679 62.4987 56.6373 62.184 56.7759 61.896C56.9253 61.608 57.1279 61.3573 57.3839 61.144C57.6506 60.92 57.9599 60.7547 58.3119 60.648C58.6746 60.5307 59.0639 60.472 59.4799 60.472C59.8746 60.472 60.2639 60.5253 60.6479 60.632C61.0319 60.7387 61.3893 60.8933 61.7199 61.096C62.0506 61.2987 62.3333 61.5387 62.5679 61.816L61.8319 62.616C61.6293 62.4027 61.4053 62.2107 61.1599 62.04C60.9146 61.8693 60.6533 61.736 60.3759 61.64C60.1093 61.544 59.8319 61.496 59.5439 61.496C59.2879 61.496 59.0479 61.528 58.8239 61.592C58.6106 61.656 58.4239 61.7467 58.2639 61.864C58.1146 61.9707 57.9973 62.104 57.9119 62.264C57.8373 62.424 57.7999 62.6 57.7999 62.792C57.7999 62.952 57.8319 63.096 57.8959 63.224C57.9599 63.352 58.0506 63.464 58.1679 63.56C58.3173 63.6773 58.5253 63.7893 58.7919 63.896C59.0693 63.992 59.4106 64.0933 59.8159 64.2C60.2853 64.328 60.6799 64.4613 60.9999 64.6C61.3306 64.728 61.6026 64.8827 61.8159 65.064C62.1039 65.2773 62.3066 65.5227 62.4239 65.8C62.5519 66.0773 62.6159 66.392 62.6159 66.744C62.6159 67.2133 62.4826 67.6293 62.2159 67.992C61.9599 68.3547 61.6026 68.6427 61.1439 68.856C60.6853 69.0587 60.1626 69.16 59.5759 69.16ZM68.1922 69.16C67.3602 69.16 66.6189 68.9733 65.9682 68.6C65.3282 68.2267 64.8215 67.7093 64.4482 67.048C64.0855 66.3867 63.9042 65.6347 63.9042 64.792C63.9042 63.96 64.0855 63.2187 64.4482 62.568C64.8215 61.9173 65.3282 61.4053 65.9682 61.032C66.6189 60.6587 67.3602 60.472 68.1922 60.472C69.0135 60.472 69.7442 60.6587 70.3842 61.032C71.0349 61.4053 71.5415 61.9173 71.9042 62.568C72.2775 63.2187 72.4642 63.96 72.4642 64.792C72.4642 65.6347 72.2775 66.3867 71.9042 67.048C71.5415 67.7093 71.0349 68.2267 70.3842 68.6C69.7442 68.9733 69.0135 69.16 68.1922 69.16ZM68.1922 68.024C68.7789 68.024 69.3015 67.8853 69.7602 67.608C70.2189 67.32 70.5762 66.936 70.8322 66.456C71.0882 65.9653 71.2162 65.4107 71.2162 64.792C71.2162 64.1733 71.0882 63.624 70.8322 63.144C70.5762 62.664 70.2189 62.2907 69.7602 62.024C69.3015 61.7467 68.7789 61.608 68.1922 61.608C67.6055 61.608 67.0775 61.7467 66.6082 62.024C66.1495 62.2907 65.7869 62.6693 65.5202 63.16C65.2642 63.64 65.1415 64.184 65.1522 64.792C65.1415 65.4107 65.2642 65.9653 65.5202 66.456C65.7869 66.936 66.1495 67.32 66.6082 67.608C67.0775 67.8853 67.6055 68.024 68.1922 68.024Z" fill="url(#paint1_linear_118_655)"/>
<defs>
<linearGradient id="paint0_linear_118_655" x1="61.3334" y1="15.95" x2="34.6667" y2="15.95" gradientUnits="userSpaceOnUse">
<stop stop-color="#43A3D5"/>
<stop offset="1" stop-color="#9C60DA"/>
</linearGradient>
<linearGradient id="paint1_linear_118_655" x1="82.0001" y1="54" x2="14.0001" y2="54" gradientUnits="userSpaceOnUse">
<stop stop-color="#43A3D5"/>
<stop offset="1" stop-color="#9C60DA"/>
</linearGradient>
</defs>
</svg>
