<svg width="90" height="113" viewBox="0 0 90 113" fill="none" xmlns="http://www.w3.org/2000/svg">
<g clip-path="url(#clip0_513_11824)">
<rect opacity="0.8" width="90" height="113" fill="#9C60DA"/>
<g clip-path="url(#clip1_513_11824)">
<path d="M56.6719 65.7516L51.9984 61.0781C51.7875 60.8672 51.5016 60.75 51.2016 60.75H50.4375C51.7313 59.0953 52.5 57.0141 52.5 54.75C52.5 49.3641 48.1359 45 42.75 45C37.3641 45 33 49.3641 33 54.75C33 60.1359 37.3641 64.5 42.75 64.5C45.0141 64.5 47.0953 63.7313 48.75 62.4375V63.2016C48.75 63.5016 48.8672 63.7875 49.0781 63.9984L53.7516 68.6719C54.1922 69.1125 54.9047 69.1125 55.3406 68.6719L56.6672 67.3453C57.1078 66.9047 57.1078 66.1922 56.6719 65.7516ZM42.75 60.75C39.4359 60.75 36.75 58.0688 36.75 54.75C36.75 51.4359 39.4312 48.75 42.75 48.75C46.0641 48.75 48.75 51.4312 48.75 54.75C48.75 58.0641 46.0688 60.75 42.75 60.75Z" fill="#E1DDF4"/>
</g>
</g>
<defs>
<clipPath id="clip0_513_11824">
<rect width="90" height="113" fill="white"/>
</clipPath>
<clipPath id="clip1_513_11824">
<rect width="24" height="24" fill="white" transform="translate(33 45)"/>
</clipPath>
</defs>
</svg>
