<svg width="250" height="152" viewBox="0 0 250 152" fill="none" xmlns="http://www.w3.org/2000/svg">
<path d="M108.5 22.5L120.5 34.5L143 12" stroke="url(#paint0_linear_886_4691)" stroke-width="6"/>
<path d="M17.2572 82V65.2H19.0812L25.5372 75.688L24.6732 75.664L31.2012 65.2H32.9052V82H31.0332V74.32C31.0332 72.88 31.0572 71.584 31.1052 70.432C31.1532 69.28 31.2412 68.136 31.3692 67L31.7052 67.672L25.6812 77.128H24.3852L18.5292 67.792L18.7932 67C18.9212 68.072 19.0092 69.176 19.0572 70.312C19.1052 71.432 19.1292 72.768 19.1292 74.32V82H17.2572ZM42.6587 82.24C41.4107 82.24 40.2987 81.968 39.3227 81.424C38.3627 80.88 37.6107 80.12 37.0667 79.144C36.5227 78.168 36.2507 77.048 36.2507 75.784C36.2507 74.808 36.4027 73.928 36.7067 73.144C37.0107 72.344 37.4347 71.648 37.9787 71.056C38.5387 70.464 39.2027 70.008 39.9707 69.688C40.7387 69.352 41.5707 69.184 42.4667 69.184C43.3147 69.184 44.0827 69.336 44.7707 69.64C45.4747 69.944 46.0747 70.368 46.5707 70.912C47.0827 71.44 47.4667 72.072 47.7227 72.808C47.9787 73.544 48.0907 74.352 48.0587 75.232L48.0347 76.072H37.5947L37.3307 74.56H46.6667L46.2347 74.968V74.392C46.2027 73.816 46.0347 73.264 45.7307 72.736C45.4267 72.192 44.9947 71.752 44.4347 71.416C43.8907 71.08 43.2347 70.912 42.4667 70.912C41.5707 70.912 40.7947 71.096 40.1387 71.464C39.4827 71.816 38.9787 72.344 38.6267 73.048C38.2747 73.752 38.0987 74.624 38.0987 75.664C38.0987 76.656 38.2907 77.52 38.6747 78.256C39.0587 78.976 39.6027 79.536 40.3067 79.936C41.0267 80.336 41.8907 80.536 42.8987 80.536C43.4907 80.536 44.0747 80.44 44.6507 80.248C45.2427 80.04 45.8907 79.64 46.5947 79.048L47.5307 80.344C47.1627 80.712 46.7227 81.04 46.2107 81.328C45.6987 81.6 45.1387 81.824 44.5307 82C43.9227 82.16 43.2987 82.24 42.6587 82.24ZM50.6153 82V69.472H52.3913L52.4633 72.088L52.1753 72.208C52.3353 71.664 52.6473 71.168 53.1113 70.72C53.5753 70.272 54.1273 69.912 54.7673 69.64C55.4233 69.352 56.0953 69.208 56.7833 69.208C57.7113 69.208 58.4873 69.392 59.1113 69.76C59.7353 70.128 60.2073 70.696 60.5273 71.464C60.8473 72.232 61.0073 73.208 61.0073 74.392V82H59.1833V74.488C59.1833 73.656 59.0713 72.976 58.8473 72.448C58.6393 71.904 58.3113 71.504 57.8633 71.248C57.4153 70.992 56.8633 70.872 56.2073 70.888C55.6633 70.888 55.1593 70.984 54.6953 71.176C54.2313 71.352 53.8313 71.6 53.4953 71.92C53.1593 72.24 52.8953 72.608 52.7033 73.024C52.5113 73.44 52.4153 73.888 52.4153 74.368V82H51.5273C51.4153 82 51.2873 82 51.1433 82C50.9993 82 50.8233 82 50.6153 82ZM68.5474 82.24C67.4754 82.24 66.5154 82.04 65.6674 81.64C64.8194 81.24 64.1474 80.712 63.6514 80.056L64.9234 78.952C65.3874 79.512 65.9314 79.936 66.5554 80.224C67.1954 80.512 67.9074 80.656 68.6914 80.656C69.0914 80.656 69.4514 80.616 69.7714 80.536C70.0914 80.44 70.3714 80.304 70.6114 80.128C70.8514 79.952 71.0354 79.744 71.1634 79.504C71.2914 79.264 71.3554 79 71.3554 78.712C71.3554 78.184 71.1234 77.744 70.6594 77.392C70.4514 77.248 70.1554 77.104 69.7714 76.96C69.3874 76.8 68.9234 76.648 68.3794 76.504C67.4834 76.248 66.7394 75.992 66.1474 75.736C65.5554 75.464 65.0914 75.152 64.7554 74.8C64.5154 74.512 64.3314 74.2 64.2034 73.864C64.0914 73.528 64.0354 73.16 64.0354 72.76C64.0354 72.248 64.1394 71.776 64.3474 71.344C64.5714 70.912 64.8754 70.536 65.2594 70.216C65.6594 69.88 66.1234 69.632 66.6514 69.472C67.1954 69.296 67.7794 69.208 68.4034 69.208C68.9954 69.208 69.5794 69.288 70.1554 69.448C70.7314 69.608 71.2674 69.84 71.7634 70.144C72.2594 70.448 72.6834 70.808 73.0354 71.224L71.9314 72.424C71.6274 72.104 71.2914 71.816 70.9234 71.56C70.5554 71.304 70.1634 71.104 69.7474 70.96C69.3474 70.816 68.9314 70.744 68.4994 70.744C68.1154 70.744 67.7554 70.792 67.4194 70.888C67.0994 70.984 66.8194 71.12 66.5794 71.296C66.3554 71.456 66.1794 71.656 66.0514 71.896C65.9394 72.136 65.8834 72.4 65.8834 72.688C65.8834 72.928 65.9314 73.144 66.0274 73.336C66.1234 73.528 66.2594 73.696 66.4354 73.84C66.6594 74.016 66.9714 74.184 67.3714 74.344C67.7874 74.488 68.2994 74.64 68.9074 74.8C69.6114 74.992 70.2034 75.192 70.6834 75.4C71.1794 75.592 71.5874 75.824 71.9074 76.096C72.3394 76.416 72.6434 76.784 72.8194 77.2C73.0114 77.616 73.1074 78.088 73.1074 78.616C73.1074 79.32 72.9074 79.944 72.5074 80.488C72.1234 81.032 71.5874 81.464 70.8994 81.784C70.2114 82.088 69.4274 82.24 68.5474 82.24ZM80.8238 82.24C79.7358 82.24 78.7518 81.96 77.8718 81.4C76.9918 80.824 76.2958 80.048 75.7838 79.072C75.2718 78.08 75.0158 76.96 75.0158 75.712C75.0158 74.448 75.2798 73.328 75.8078 72.352C76.3358 71.376 77.0398 70.608 77.9198 70.048C78.8158 69.488 79.8158 69.208 80.9198 69.208C81.5758 69.208 82.1838 69.304 82.7438 69.496C83.3038 69.688 83.7998 69.96 84.2318 70.312C84.6798 70.648 85.0478 71.048 85.3358 71.512C85.6398 71.96 85.8478 72.448 85.9598 72.976L85.4318 72.712L85.5038 69.472H87.3038V82H85.4798V78.928L85.9598 78.616C85.8478 79.096 85.6318 79.56 85.3118 80.008C84.9918 80.44 84.5998 80.824 84.1358 81.16C83.6878 81.496 83.1758 81.76 82.5998 81.952C82.0398 82.144 81.4478 82.24 80.8238 82.24ZM81.2318 80.512C82.0638 80.512 82.8078 80.312 83.4638 79.912C84.1198 79.496 84.6318 78.928 84.9998 78.208C85.3838 77.472 85.5758 76.64 85.5758 75.712C85.5758 74.784 85.3838 73.96 84.9998 73.24C84.6318 72.52 84.1198 71.952 83.4638 71.536C82.8078 71.12 82.0638 70.912 81.2318 70.912C80.3838 70.912 79.6318 71.12 78.9758 71.536C78.3358 71.952 77.8238 72.52 77.4398 73.24C77.0718 73.96 76.8878 74.784 76.8878 75.712C76.8878 76.624 77.0718 77.448 77.4398 78.184C77.8078 78.904 78.3198 79.472 78.9758 79.888C79.6318 80.304 80.3838 80.512 81.2318 80.512ZM96.2106 87.52C95.2826 87.52 94.4026 87.376 93.5706 87.088C92.7386 86.8 92.0506 86.44 91.5066 86.008L92.2266 84.496C92.5466 84.752 92.9146 84.976 93.3306 85.168C93.7626 85.376 94.2266 85.536 94.7226 85.648C95.2186 85.776 95.7226 85.84 96.2346 85.84C97.1626 85.84 97.9466 85.664 98.5866 85.312C99.2426 84.976 99.7386 84.472 100.075 83.8C100.427 83.128 100.603 82.296 100.603 81.304V78.904L100.891 78.832C100.747 79.44 100.435 80.008 99.9546 80.536C99.4746 81.048 98.8906 81.464 98.2026 81.784C97.5146 82.088 96.7866 82.24 96.0186 82.24C94.8506 82.24 93.8026 81.96 92.8746 81.4C91.9626 80.84 91.2426 80.072 90.7146 79.096C90.1866 78.104 89.9226 76.984 89.9226 75.736C89.9226 74.472 90.1866 73.352 90.7146 72.376C91.2586 71.384 91.9866 70.608 92.8986 70.048C93.8106 69.488 94.8346 69.208 95.9706 69.208C96.4666 69.208 96.9466 69.272 97.4106 69.4C97.8746 69.512 98.2986 69.68 98.6826 69.904C99.0826 70.128 99.4426 70.384 99.7626 70.672C100.083 70.96 100.347 71.272 100.555 71.608C100.779 71.944 100.939 72.288 101.035 72.64L100.531 72.568L100.603 69.472H102.403V81.232C102.403 82.24 102.259 83.128 101.971 83.896C101.683 84.68 101.259 85.336 100.699 85.864C100.155 86.408 99.4986 86.816 98.7306 87.088C97.9786 87.376 97.1386 87.52 96.2106 87.52ZM96.2346 80.512C97.0826 80.512 97.8346 80.312 98.4906 79.912C99.1626 79.496 99.6906 78.928 100.075 78.208C100.459 77.488 100.651 76.656 100.651 75.712C100.651 74.784 100.459 73.96 100.075 73.24C99.7066 72.52 99.1866 71.952 98.5146 71.536C97.8426 71.12 97.0826 70.912 96.2346 70.912C95.3706 70.912 94.6026 71.12 93.9306 71.536C93.2746 71.952 92.7546 72.52 92.3706 73.24C91.9866 73.96 91.7946 74.784 91.7946 75.712C91.7946 76.624 91.9786 77.448 92.3466 78.184C92.7306 78.904 93.2506 79.472 93.9066 79.888C94.5786 80.304 95.3546 80.512 96.2346 80.512ZM111.424 82.24C110.176 82.24 109.064 81.968 108.088 81.424C107.128 80.88 106.376 80.12 105.832 79.144C105.288 78.168 105.016 77.048 105.016 75.784C105.016 74.808 105.168 73.928 105.472 73.144C105.776 72.344 106.2 71.648 106.744 71.056C107.304 70.464 107.968 70.008 108.736 69.688C109.504 69.352 110.336 69.184 111.232 69.184C112.08 69.184 112.848 69.336 113.536 69.64C114.24 69.944 114.84 70.368 115.336 70.912C115.848 71.44 116.232 72.072 116.488 72.808C116.744 73.544 116.856 74.352 116.824 75.232L116.8 76.072H106.36L106.096 74.56H115.432L115 74.968V74.392C114.968 73.816 114.8 73.264 114.496 72.736C114.192 72.192 113.76 71.752 113.2 71.416C112.656 71.08 112 70.912 111.232 70.912C110.336 70.912 109.56 71.096 108.904 71.464C108.248 71.816 107.744 72.344 107.392 73.048C107.04 73.752 106.864 74.624 106.864 75.664C106.864 76.656 107.056 77.52 107.44 78.256C107.824 78.976 108.368 79.536 109.072 79.936C109.792 80.336 110.656 80.536 111.664 80.536C112.256 80.536 112.84 80.44 113.416 80.248C114.008 80.04 114.656 79.64 115.36 79.048L116.296 80.344C115.928 80.712 115.488 81.04 114.976 81.328C114.464 81.6 113.904 81.824 113.296 82C112.688 82.16 112.064 82.24 111.424 82.24ZM119.357 82V69.472H121.157L121.205 72.328L120.845 72.448C120.973 71.968 121.181 71.536 121.469 71.152C121.773 70.752 122.133 70.408 122.549 70.12C122.965 69.832 123.421 69.616 123.917 69.472C124.413 69.312 124.933 69.232 125.477 69.232C126.133 69.232 126.717 69.344 127.229 69.568C127.757 69.776 128.197 70.144 128.549 70.672C128.917 71.184 129.197 71.864 129.389 72.712L128.957 72.496L129.125 72.088C129.285 71.72 129.517 71.368 129.821 71.032C130.141 70.68 130.501 70.368 130.901 70.096C131.317 69.824 131.765 69.616 132.245 69.472C132.741 69.312 133.245 69.232 133.757 69.232C134.637 69.232 135.381 69.424 135.989 69.808C136.597 70.176 137.053 70.744 137.357 71.512C137.677 72.28 137.837 73.256 137.837 74.44V82H135.989V74.536C135.989 73.704 135.885 73.024 135.677 72.496C135.469 71.968 135.157 71.576 134.741 71.32C134.341 71.048 133.829 70.912 133.205 70.912C132.661 70.912 132.157 71.008 131.693 71.2C131.245 71.376 130.853 71.632 130.517 71.968C130.197 72.288 129.941 72.656 129.749 73.072C129.573 73.488 129.485 73.936 129.485 74.416V82H127.661V74.512C127.661 73.712 127.549 73.048 127.325 72.52C127.117 71.992 126.805 71.592 126.389 71.32C125.973 71.048 125.461 70.912 124.853 70.912C124.325 70.912 123.837 71.008 123.389 71.2C122.941 71.376 122.549 71.624 122.213 71.944C121.893 72.264 121.637 72.632 121.445 73.048C121.269 73.464 121.181 73.912 121.181 74.392V82H119.357ZM148.695 82V65.2H158.871V67.024H150.567V80.176H158.823V82H148.695ZM149.559 74.272V72.448H157.527V74.272H149.559ZM162.342 82V69.472H164.118L164.19 72.088L163.902 72.208C164.062 71.664 164.374 71.168 164.838 70.72C165.302 70.272 165.854 69.912 166.494 69.64C167.15 69.352 167.822 69.208 168.51 69.208C169.438 69.208 170.214 69.392 170.838 69.76C171.462 70.128 171.934 70.696 172.254 71.464C172.574 72.232 172.734 73.208 172.734 74.392V82H170.91V74.488C170.91 73.656 170.798 72.976 170.574 72.448C170.366 71.904 170.038 71.504 169.59 71.248C169.142 70.992 168.59 70.872 167.934 70.888C167.39 70.888 166.886 70.984 166.422 71.176C165.958 71.352 165.558 71.6 165.222 71.92C164.886 72.24 164.622 72.608 164.43 73.024C164.238 73.44 164.142 73.888 164.142 74.368V82H163.254C163.142 82 163.014 82 162.87 82C162.726 82 162.55 82 162.342 82ZM180.058 82L174.778 69.472H176.77L180.946 79.72L180.466 79.984L185.05 69.472H186.97L181.354 82H180.058ZM189.564 82V69.472H191.364V82H189.564ZM190.452 66.76C190.004 66.76 189.66 66.648 189.42 66.424C189.196 66.184 189.084 65.864 189.084 65.464C189.084 65.064 189.204 64.744 189.444 64.504C189.684 64.264 190.02 64.144 190.452 64.144C190.884 64.144 191.22 64.264 191.46 64.504C191.7 64.728 191.82 65.048 191.82 65.464C191.82 65.848 191.7 66.16 191.46 66.4C191.22 66.64 190.884 66.76 190.452 66.76ZM200.191 82.24C199.103 82.24 198.119 81.96 197.239 81.4C196.359 80.824 195.663 80.048 195.151 79.072C194.639 78.08 194.383 76.96 194.383 75.712C194.383 74.448 194.647 73.328 195.175 72.352C195.703 71.376 196.407 70.608 197.287 70.048C198.183 69.488 199.183 69.208 200.287 69.208C200.943 69.208 201.551 69.304 202.111 69.496C202.671 69.688 203.167 69.96 203.599 70.312C204.047 70.648 204.415 71.048 204.703 71.512C205.007 71.96 205.215 72.448 205.327 72.976L204.799 72.712L204.871 69.472H206.671V82H204.847V78.928L205.327 78.616C205.215 79.096 204.999 79.56 204.679 80.008C204.359 80.44 203.967 80.824 203.503 81.16C203.055 81.496 202.543 81.76 201.967 81.952C201.407 82.144 200.815 82.24 200.191 82.24ZM200.599 80.512C201.431 80.512 202.175 80.312 202.831 79.912C203.487 79.496 203.999 78.928 204.367 78.208C204.751 77.472 204.943 76.64 204.943 75.712C204.943 74.784 204.751 73.96 204.367 73.24C203.999 72.52 203.487 71.952 202.831 71.536C202.175 71.12 201.431 70.912 200.599 70.912C199.751 70.912 198.999 71.12 198.343 71.536C197.703 71.952 197.191 72.52 196.807 73.24C196.439 73.96 196.255 74.784 196.255 75.712C196.255 76.624 196.439 77.448 196.807 78.184C197.175 78.904 197.687 79.472 198.343 79.888C198.999 80.304 199.751 80.512 200.599 80.512ZM215.266 82.24C214.13 82.24 213.106 81.96 212.194 81.4C211.298 80.84 210.586 80.072 210.058 79.096C209.546 78.104 209.29 76.984 209.29 75.736C209.29 74.472 209.554 73.352 210.082 72.376C210.61 71.384 211.322 70.608 212.218 70.048C213.114 69.488 214.122 69.208 215.242 69.208C215.866 69.208 216.466 69.304 217.042 69.496C217.634 69.688 218.162 69.96 218.626 70.312C219.09 70.648 219.474 71.04 219.778 71.488C220.082 71.92 220.266 72.376 220.33 72.856L219.778 72.664V64.24H221.578V82H219.802L219.754 78.88L220.21 78.712C220.146 79.16 219.962 79.6 219.658 80.032C219.37 80.448 219.002 80.824 218.554 81.16C218.106 81.496 217.594 81.76 217.018 81.952C216.458 82.144 215.874 82.24 215.266 82.24ZM215.53 80.584C216.362 80.584 217.106 80.376 217.762 79.96C218.418 79.544 218.93 78.968 219.298 78.232C219.682 77.496 219.874 76.656 219.874 75.712C219.874 74.768 219.682 73.936 219.298 73.216C218.93 72.48 218.418 71.904 217.762 71.488C217.106 71.056 216.362 70.84 215.53 70.84C214.666 70.84 213.906 71.056 213.25 71.488C212.61 71.904 212.098 72.48 211.714 73.216C211.346 73.936 211.162 74.768 211.162 75.712C211.162 76.64 211.346 77.472 211.714 78.208C212.082 78.944 212.594 79.528 213.25 79.96C213.906 80.376 214.666 80.584 215.53 80.584ZM229.98 82.24C228.892 82.24 227.908 81.96 227.028 81.4C226.148 80.824 225.452 80.048 224.94 79.072C224.428 78.08 224.172 76.96 224.172 75.712C224.172 74.448 224.436 73.328 224.964 72.352C225.492 71.376 226.196 70.608 227.076 70.048C227.972 69.488 228.972 69.208 230.076 69.208C230.732 69.208 231.34 69.304 231.9 69.496C232.46 69.688 232.956 69.96 233.388 70.312C233.836 70.648 234.204 71.048 234.492 71.512C234.796 71.96 235.004 72.448 235.116 72.976L234.588 72.712L234.66 69.472H236.46V82H234.636V78.928L235.116 78.616C235.004 79.096 234.788 79.56 234.468 80.008C234.148 80.44 233.756 80.824 233.292 81.16C232.844 81.496 232.332 81.76 231.756 81.952C231.196 82.144 230.604 82.24 229.98 82.24ZM230.388 80.512C231.22 80.512 231.964 80.312 232.62 79.912C233.276 79.496 233.788 78.928 234.156 78.208C234.54 77.472 234.732 76.64 234.732 75.712C234.732 74.784 234.54 73.96 234.156 73.24C233.788 72.52 233.276 71.952 232.62 71.536C231.964 71.12 231.22 70.912 230.388 70.912C229.54 70.912 228.788 71.12 228.132 71.536C227.492 71.952 226.98 72.52 226.596 73.24C226.228 73.96 226.044 74.784 226.044 75.712C226.044 76.624 226.228 77.448 226.596 78.184C226.964 78.904 227.476 79.472 228.132 79.888C228.788 80.304 229.54 80.512 230.388 80.512Z" fill="url(#paint1_linear_886_4691)"/>
<path d="M2.84331 114V102.8H9.62731V104.016H4.09131V112.784H9.59531V114H2.84331ZM3.41931 108.848V107.632H8.73131V108.848H3.41931ZM11.9254 114V105.648H13.1254L13.1574 107.552L12.9174 107.632C13.0028 107.312 13.1414 107.024 13.3334 106.768C13.5361 106.501 13.7761 106.272 14.0534 106.08C14.3308 105.888 14.6348 105.744 14.9654 105.648C15.2961 105.541 15.6428 105.488 16.0054 105.488C16.4428 105.488 16.8321 105.563 17.1734 105.712C17.5254 105.851 17.8188 106.096 18.0534 106.448C18.2988 106.789 18.4854 107.243 18.6134 107.808L18.3254 107.664L18.4374 107.392C18.5441 107.147 18.6988 106.912 18.9014 106.688C19.1148 106.453 19.3548 106.245 19.6214 106.064C19.8988 105.883 20.1974 105.744 20.5174 105.648C20.8481 105.541 21.1841 105.488 21.5254 105.488C22.1121 105.488 22.6081 105.616 23.0134 105.872C23.4188 106.117 23.7228 106.496 23.9254 107.008C24.1388 107.52 24.2454 108.171 24.2454 108.96V114H23.0134V109.024C23.0134 108.469 22.9441 108.016 22.8054 107.664C22.6668 107.312 22.4588 107.051 22.1814 106.88C21.9148 106.699 21.5734 106.608 21.1574 106.608C20.7948 106.608 20.4588 106.672 20.1494 106.8C19.8508 106.917 19.5894 107.088 19.3654 107.312C19.1521 107.525 18.9814 107.771 18.8534 108.048C18.7361 108.325 18.6774 108.624 18.6774 108.944V114H17.4614V109.008C17.4614 108.475 17.3868 108.032 17.2374 107.68C17.0988 107.328 16.8908 107.061 16.6134 106.88C16.3361 106.699 15.9948 106.608 15.5894 106.608C15.2374 106.608 14.9121 106.672 14.6134 106.8C14.3148 106.917 14.0534 107.083 13.8294 107.296C13.6161 107.509 13.4454 107.755 13.3174 108.032C13.2001 108.309 13.1414 108.608 13.1414 108.928V114H11.9254ZM35.2439 114.16C34.8493 114.16 34.4653 114.101 34.0919 113.984C33.7186 113.856 33.3773 113.685 33.0679 113.472C32.7693 113.259 32.5133 113.013 32.2999 112.736C32.0973 112.459 31.9586 112.171 31.8839 111.872L32.2359 111.888L32.1879 113.984H31.0039V102.16H32.2039V107.648L31.9639 107.712C32.0386 107.413 32.1719 107.131 32.3639 106.864C32.5666 106.587 32.8173 106.347 33.1159 106.144C33.4146 105.931 33.7399 105.765 34.0919 105.648C34.4546 105.531 34.8279 105.472 35.2119 105.472C35.9586 105.472 36.6253 105.659 37.2119 106.032C37.8093 106.405 38.2839 106.917 38.6359 107.568C38.9879 108.219 39.1639 108.965 39.1639 109.808C39.1639 110.651 38.9933 111.403 38.6519 112.064C38.3106 112.715 37.8413 113.227 37.2439 113.6C36.6573 113.973 35.9906 114.16 35.2439 114.16ZM35.0519 113.024C35.6173 113.024 36.1186 112.885 36.5559 112.608C36.9933 112.32 37.3346 111.936 37.5799 111.456C37.8359 110.965 37.9639 110.416 37.9639 109.808C37.9639 109.189 37.8359 108.64 37.5799 108.16C37.3346 107.68 36.9933 107.301 36.5559 107.024C36.1186 106.747 35.6173 106.608 35.0519 106.608C34.4866 106.608 33.9853 106.747 33.5479 107.024C33.1106 107.301 32.7639 107.68 32.5079 108.16C32.2626 108.64 32.1399 109.189 32.1399 109.808C32.1399 110.427 32.2626 110.981 32.5079 111.472C32.7639 111.952 33.1106 112.331 33.5479 112.608C33.9853 112.885 34.4866 113.024 35.0519 113.024ZM40.9102 114V105.648H42.1102L42.1422 107.872L42.0142 107.568C42.1315 107.195 42.3182 106.848 42.5742 106.528C42.8409 106.208 43.1555 105.952 43.5182 105.76C43.8809 105.568 44.2809 105.472 44.7182 105.472C44.8995 105.472 45.0702 105.488 45.2302 105.52C45.3902 105.541 45.5235 105.573 45.6302 105.616L45.2942 106.96C45.1555 106.896 45.0115 106.853 44.8622 106.832C44.7235 106.8 44.5902 106.784 44.4622 106.784C44.0995 106.784 43.7742 106.848 43.4862 106.976C43.1982 107.104 42.9529 107.285 42.7502 107.52C42.5475 107.744 42.3929 108.005 42.2862 108.304C42.1795 108.603 42.1262 108.923 42.1262 109.264V114H40.9102ZM50.1996 114.16C49.3676 114.16 48.6262 113.979 47.9756 113.616C47.3356 113.253 46.8342 112.747 46.4716 112.096C46.1089 111.445 45.9276 110.699 45.9276 109.856C45.9276 109.205 46.0289 108.619 46.2316 108.096C46.4342 107.563 46.7169 107.099 47.0796 106.704C47.4529 106.309 47.8956 106.005 48.4076 105.792C48.9196 105.568 49.4742 105.456 50.0716 105.456C50.6369 105.456 51.1489 105.557 51.6076 105.76C52.0769 105.963 52.4769 106.245 52.8076 106.608C53.1489 106.96 53.4049 107.381 53.5756 107.872C53.7462 108.363 53.8209 108.901 53.7996 109.488L53.7836 110.048H46.8236L46.6476 109.04H52.8716L52.5836 109.312V108.928C52.5622 108.544 52.4502 108.176 52.2476 107.824C52.0449 107.461 51.7569 107.168 51.3836 106.944C51.0209 106.72 50.5836 106.608 50.0716 106.608C49.4742 106.608 48.9569 106.731 48.5196 106.976C48.0822 107.211 47.7462 107.563 47.5116 108.032C47.2769 108.501 47.1596 109.083 47.1596 109.776C47.1596 110.437 47.2876 111.013 47.5436 111.504C47.7996 111.984 48.1622 112.357 48.6316 112.624C49.1116 112.891 49.6876 113.024 50.3596 113.024C50.7542 113.024 51.1436 112.96 51.5276 112.832C51.9222 112.693 52.3542 112.427 52.8236 112.032L53.4476 112.896C53.2022 113.141 52.9089 113.36 52.5676 113.552C52.2262 113.733 51.8529 113.883 51.4476 114C51.0422 114.107 50.6262 114.16 50.1996 114.16ZM57.9397 114L54.4197 105.648H55.7477L58.5317 112.48L58.2117 112.656L61.2677 105.648H62.5477L58.8037 114H57.9397ZM67.4027 114.16C66.5707 114.16 65.8294 113.979 65.1787 113.616C64.5387 113.253 64.0374 112.747 63.6747 112.096C63.312 111.445 63.1307 110.699 63.1307 109.856C63.1307 109.205 63.232 108.619 63.4347 108.096C63.6374 107.563 63.92 107.099 64.2827 106.704C64.656 106.309 65.0987 106.005 65.6107 105.792C66.1227 105.568 66.6774 105.456 67.2747 105.456C67.84 105.456 68.352 105.557 68.8107 105.76C69.28 105.963 69.68 106.245 70.0107 106.608C70.352 106.96 70.608 107.381 70.7787 107.872C70.9494 108.363 71.024 108.901 71.0027 109.488L70.9867 110.048H64.0267L63.8507 109.04H70.0747L69.7867 109.312V108.928C69.7654 108.544 69.6534 108.176 69.4507 107.824C69.248 107.461 68.96 107.168 68.5867 106.944C68.224 106.72 67.7867 106.608 67.2747 106.608C66.6774 106.608 66.16 106.731 65.7227 106.976C65.2854 107.211 64.9494 107.563 64.7147 108.032C64.48 108.501 64.3627 109.083 64.3627 109.776C64.3627 110.437 64.4907 111.013 64.7467 111.504C65.0027 111.984 65.3654 112.357 65.8347 112.624C66.3147 112.891 66.8907 113.024 67.5627 113.024C67.9574 113.024 68.3467 112.96 68.7307 112.832C69.1254 112.693 69.5574 112.427 70.0267 112.032L70.6507 112.896C70.4054 113.141 70.112 113.36 69.7707 113.552C69.4294 113.733 69.056 113.883 68.6507 114C68.2454 114.107 67.8294 114.16 67.4027 114.16ZM78.3434 114V103.456H79.5434V114H78.3434ZM76.4554 106.8V105.648H81.6554V106.8H76.4554ZM86.7308 114.16C85.8988 114.16 85.1575 113.979 84.5068 113.616C83.8668 113.253 83.3655 112.747 83.0028 112.096C82.6401 111.445 82.4588 110.699 82.4588 109.856C82.4588 109.205 82.5601 108.619 82.7628 108.096C82.9655 107.563 83.2481 107.099 83.6108 106.704C83.9841 106.309 84.4268 106.005 84.9388 105.792C85.4508 105.568 86.0055 105.456 86.6028 105.456C87.1681 105.456 87.6801 105.557 88.1388 105.76C88.6081 105.963 89.0081 106.245 89.3388 106.608C89.6801 106.96 89.9361 107.381 90.1068 107.872C90.2775 108.363 90.3521 108.901 90.3308 109.488L90.3148 110.048H83.3548L83.1788 109.04H89.4028L89.1148 109.312V108.928C89.0935 108.544 88.9815 108.176 88.7788 107.824C88.5761 107.461 88.2881 107.168 87.9148 106.944C87.5521 106.72 87.1148 106.608 86.6028 106.608C86.0055 106.608 85.4881 106.731 85.0508 106.976C84.6135 107.211 84.2775 107.563 84.0428 108.032C83.8081 108.501 83.6908 109.083 83.6908 109.776C83.6908 110.437 83.8188 111.013 84.0748 111.504C84.3308 111.984 84.6935 112.357 85.1628 112.624C85.6428 112.891 86.2188 113.024 86.8908 113.024C87.2855 113.024 87.6748 112.96 88.0588 112.832C88.4535 112.693 88.8855 112.427 89.3548 112.032L89.9788 112.896C89.7335 113.141 89.4401 113.36 89.0988 113.552C88.7575 113.733 88.3841 113.883 87.9788 114C87.5735 114.107 87.1575 114.16 86.7308 114.16ZM96.5036 114V105.648H97.7036L97.7356 107.552L97.4956 107.632C97.5809 107.312 97.7196 107.024 97.9116 106.768C98.1142 106.501 98.3542 106.272 98.6316 106.08C98.9089 105.888 99.2129 105.744 99.5436 105.648C99.8742 105.541 100.221 105.488 100.584 105.488C101.021 105.488 101.41 105.563 101.752 105.712C102.104 105.851 102.397 106.096 102.632 106.448C102.877 106.789 103.064 107.243 103.192 107.808L102.904 107.664L103.016 107.392C103.122 107.147 103.277 106.912 103.48 106.688C103.693 106.453 103.933 106.245 104.2 106.064C104.477 105.883 104.776 105.744 105.096 105.648C105.426 105.541 105.762 105.488 106.104 105.488C106.69 105.488 107.186 105.616 107.592 105.872C107.997 106.117 108.301 106.496 108.504 107.008C108.717 107.52 108.824 108.171 108.824 108.96V114H107.592V109.024C107.592 108.469 107.522 108.016 107.384 107.664C107.245 107.312 107.037 107.051 106.76 106.88C106.493 106.699 106.152 106.608 105.736 106.608C105.373 106.608 105.037 106.672 104.728 106.8C104.429 106.917 104.168 107.088 103.944 107.312C103.73 107.525 103.56 107.771 103.432 108.048C103.314 108.325 103.256 108.624 103.256 108.944V114H102.04V109.008C102.04 108.475 101.965 108.032 101.816 107.68C101.677 107.328 101.469 107.061 101.192 106.88C100.914 106.699 100.573 106.608 100.168 106.608C99.8156 106.608 99.4902 106.672 99.1916 106.8C98.8929 106.917 98.6316 107.083 98.4076 107.296C98.1942 107.509 98.0236 107.755 97.8956 108.032C97.7782 108.309 97.7196 108.608 97.7196 108.928V114H96.5036ZM114.362 114.16C113.636 114.16 112.98 113.973 112.394 113.6C111.807 113.216 111.343 112.699 111.002 112.048C110.66 111.387 110.49 110.64 110.49 109.808C110.49 108.965 110.666 108.219 111.018 107.568C111.37 106.917 111.839 106.405 112.426 106.032C113.023 105.659 113.69 105.472 114.426 105.472C114.863 105.472 115.268 105.536 115.642 105.664C116.015 105.792 116.346 105.973 116.634 106.208C116.932 106.432 117.178 106.699 117.37 107.008C117.572 107.307 117.711 107.632 117.786 107.984L117.434 107.808L117.482 105.648H118.682V114H117.466V111.952L117.786 111.744C117.711 112.064 117.567 112.373 117.354 112.672C117.14 112.96 116.879 113.216 116.57 113.44C116.271 113.664 115.93 113.84 115.546 113.968C115.172 114.096 114.778 114.16 114.362 114.16ZM114.634 113.008C115.188 113.008 115.684 112.875 116.122 112.608C116.559 112.331 116.9 111.952 117.146 111.472C117.402 110.981 117.53 110.427 117.53 109.808C117.53 109.189 117.402 108.64 117.146 108.16C116.9 107.68 116.559 107.301 116.122 107.024C115.684 106.747 115.188 106.608 114.634 106.608C114.068 106.608 113.567 106.747 113.13 107.024C112.703 107.301 112.362 107.68 112.106 108.16C111.86 108.64 111.738 109.189 111.738 109.808C111.738 110.416 111.86 110.965 112.106 111.456C112.351 111.936 112.692 112.315 113.13 112.592C113.567 112.869 114.068 113.008 114.634 113.008ZM121.02 114V105.648H122.204L122.252 107.392L122.06 107.472C122.166 107.109 122.374 106.779 122.684 106.48C122.993 106.181 123.361 105.941 123.788 105.76C124.225 105.568 124.673 105.472 125.132 105.472C125.75 105.472 126.268 105.595 126.684 105.84C127.1 106.085 127.414 106.464 127.628 106.976C127.841 107.488 127.948 108.139 127.948 108.928V114H126.732V108.992C126.732 108.437 126.657 107.984 126.508 107.632C126.369 107.269 126.15 107.003 125.852 106.832C125.553 106.661 125.185 106.581 124.748 106.592C124.385 106.592 124.049 106.656 123.74 106.784C123.43 106.901 123.164 107.067 122.94 107.28C122.716 107.493 122.54 107.739 122.412 108.016C122.284 108.293 122.22 108.592 122.22 108.912V114H121.628C121.553 114 121.468 114 121.372 114C121.276 114 121.158 114 121.02 114ZM133.63 114.16C132.873 114.16 132.19 113.973 131.582 113.6C130.985 113.227 130.51 112.715 130.158 112.064C129.817 111.403 129.646 110.656 129.646 109.824C129.646 108.981 129.822 108.235 130.174 107.584C130.526 106.923 131.001 106.405 131.598 106.032C132.196 105.659 132.868 105.472 133.614 105.472C134.03 105.472 134.43 105.536 134.814 105.664C135.209 105.792 135.561 105.973 135.87 106.208C136.18 106.432 136.436 106.693 136.638 106.992C136.841 107.28 136.964 107.584 137.006 107.904L136.638 107.776V102.16H137.838V114H136.654L136.622 111.92L136.926 111.808C136.884 112.107 136.761 112.4 136.558 112.688C136.366 112.965 136.121 113.216 135.822 113.44C135.524 113.664 135.182 113.84 134.798 113.968C134.425 114.096 134.036 114.16 133.63 114.16ZM133.806 113.056C134.361 113.056 134.857 112.917 135.294 112.64C135.732 112.363 136.073 111.979 136.318 111.488C136.574 110.997 136.702 110.437 136.702 109.808C136.702 109.179 136.574 108.624 136.318 108.144C136.073 107.653 135.732 107.269 135.294 106.992C134.857 106.704 134.361 106.56 133.806 106.56C133.23 106.56 132.724 106.704 132.286 106.992C131.86 107.269 131.518 107.653 131.262 108.144C131.017 108.624 130.894 109.179 130.894 109.808C130.894 110.427 131.017 110.981 131.262 111.472C131.508 111.963 131.849 112.352 132.286 112.64C132.724 112.917 133.23 113.056 133.806 113.056ZM143.44 114.16C142.714 114.16 142.058 113.973 141.472 113.6C140.885 113.216 140.421 112.699 140.08 112.048C139.738 111.387 139.568 110.64 139.568 109.808C139.568 108.965 139.744 108.219 140.096 107.568C140.448 106.917 140.917 106.405 141.504 106.032C142.101 105.659 142.768 105.472 143.504 105.472C143.941 105.472 144.346 105.536 144.72 105.664C145.093 105.792 145.424 105.973 145.712 106.208C146.01 106.432 146.256 106.699 146.448 107.008C146.65 107.307 146.789 107.632 146.864 107.984L146.512 107.808L146.56 105.648H147.76V114H146.544V111.952L146.864 111.744C146.789 112.064 146.645 112.373 146.432 112.672C146.218 112.96 145.957 113.216 145.648 113.44C145.349 113.664 145.008 113.84 144.624 113.968C144.25 114.096 143.856 114.16 143.44 114.16ZM143.712 113.008C144.266 113.008 144.762 112.875 145.2 112.608C145.637 112.331 145.978 111.952 146.224 111.472C146.48 110.981 146.608 110.427 146.608 109.808C146.608 109.189 146.48 108.64 146.224 108.16C145.978 107.68 145.637 107.301 145.2 107.024C144.762 106.747 144.266 106.608 143.712 106.608C143.146 106.608 142.645 106.747 142.208 107.024C141.781 107.301 141.44 107.68 141.184 108.16C140.938 108.64 140.816 109.189 140.816 109.808C140.816 110.416 140.938 110.965 141.184 111.456C141.429 111.936 141.77 112.315 142.208 112.592C142.645 112.869 143.146 113.008 143.712 113.008ZM150.082 114V105.648H151.282L151.314 107.552L151.074 107.632C151.159 107.312 151.298 107.024 151.49 106.768C151.692 106.501 151.932 106.272 152.21 106.08C152.487 105.888 152.791 105.744 153.122 105.648C153.452 105.541 153.799 105.488 154.162 105.488C154.599 105.488 154.988 105.563 155.33 105.712C155.682 105.851 155.975 106.096 156.21 106.448C156.455 106.789 156.642 107.243 156.77 107.808L156.482 107.664L156.594 107.392C156.7 107.147 156.855 106.912 157.058 106.688C157.271 106.453 157.511 106.245 157.778 106.064C158.055 105.883 158.354 105.744 158.674 105.648C159.004 105.541 159.34 105.488 159.682 105.488C160.268 105.488 160.764 105.616 161.17 105.872C161.575 106.117 161.879 106.496 162.082 107.008C162.295 107.52 162.402 108.171 162.402 108.96V114H161.17V109.024C161.17 108.469 161.1 108.016 160.962 107.664C160.823 107.312 160.615 107.051 160.338 106.88C160.071 106.699 159.73 106.608 159.314 106.608C158.951 106.608 158.615 106.672 158.306 106.8C158.007 106.917 157.746 107.088 157.522 107.312C157.308 107.525 157.138 107.771 157.01 108.048C156.892 108.325 156.834 108.624 156.834 108.944V114H155.618V109.008C155.618 108.475 155.543 108.032 155.394 107.68C155.255 107.328 155.047 107.061 154.77 106.88C154.492 106.699 154.151 106.608 153.746 106.608C153.394 106.608 153.068 106.672 152.77 106.8C152.471 106.917 152.21 107.083 151.986 107.296C151.772 107.509 151.602 107.755 151.474 108.032C151.356 108.309 151.298 108.608 151.298 108.928V114H150.082ZM168.372 114.16C167.54 114.16 166.798 113.973 166.148 113.6C165.508 113.227 165.001 112.709 164.628 112.048C164.265 111.387 164.084 110.635 164.084 109.792C164.084 108.96 164.265 108.219 164.628 107.568C165.001 106.917 165.508 106.405 166.148 106.032C166.798 105.659 167.54 105.472 168.372 105.472C169.193 105.472 169.924 105.659 170.564 106.032C171.214 106.405 171.721 106.917 172.084 107.568C172.457 108.219 172.644 108.96 172.644 109.792C172.644 110.635 172.457 111.387 172.084 112.048C171.721 112.709 171.214 113.227 170.564 113.6C169.924 113.973 169.193 114.16 168.372 114.16ZM168.372 113.024C168.958 113.024 169.481 112.885 169.94 112.608C170.398 112.32 170.756 111.936 171.012 111.456C171.268 110.965 171.396 110.411 171.396 109.792C171.396 109.173 171.268 108.624 171.012 108.144C170.756 107.664 170.398 107.291 169.94 107.024C169.481 106.747 168.958 106.608 168.372 106.608C167.785 106.608 167.257 106.747 166.788 107.024C166.329 107.291 165.966 107.669 165.7 108.16C165.444 108.64 165.321 109.184 165.332 109.792C165.321 110.411 165.444 110.965 165.7 111.456C165.966 111.936 166.329 112.32 166.788 112.608C167.257 112.885 167.785 113.024 168.372 113.024ZM177.131 114.16C176.416 114.16 175.776 114.027 175.211 113.76C174.645 113.493 174.197 113.141 173.867 112.704L174.715 111.968C175.024 112.341 175.387 112.624 175.803 112.816C176.229 113.008 176.704 113.104 177.227 113.104C177.493 113.104 177.733 113.077 177.947 113.024C178.16 112.96 178.347 112.869 178.507 112.752C178.667 112.635 178.789 112.496 178.875 112.336C178.96 112.176 179.003 112 179.003 111.808C179.003 111.456 178.848 111.163 178.539 110.928C178.4 110.832 178.203 110.736 177.947 110.64C177.691 110.533 177.381 110.432 177.019 110.336C176.421 110.165 175.925 109.995 175.531 109.824C175.136 109.643 174.827 109.435 174.603 109.2C174.443 109.008 174.32 108.8 174.235 108.576C174.16 108.352 174.123 108.107 174.123 107.84C174.123 107.499 174.192 107.184 174.331 106.896C174.48 106.608 174.683 106.357 174.939 106.144C175.205 105.92 175.515 105.755 175.867 105.648C176.229 105.531 176.619 105.472 177.035 105.472C177.429 105.472 177.819 105.525 178.203 105.632C178.587 105.739 178.944 105.893 179.275 106.096C179.605 106.299 179.888 106.539 180.123 106.816L179.387 107.616C179.184 107.403 178.96 107.211 178.715 107.04C178.469 106.869 178.208 106.736 177.931 106.64C177.664 106.544 177.387 106.496 177.099 106.496C176.843 106.496 176.603 106.528 176.379 106.592C176.165 106.656 175.979 106.747 175.819 106.864C175.669 106.971 175.552 107.104 175.467 107.264C175.392 107.424 175.355 107.6 175.355 107.792C175.355 107.952 175.387 108.096 175.451 108.224C175.515 108.352 175.605 108.464 175.723 108.56C175.872 108.677 176.08 108.789 176.347 108.896C176.624 108.992 176.965 109.093 177.371 109.2C177.84 109.328 178.235 109.461 178.555 109.6C178.885 109.728 179.157 109.883 179.371 110.064C179.659 110.277 179.861 110.523 179.979 110.8C180.107 111.077 180.171 111.392 180.171 111.744C180.171 112.213 180.037 112.629 179.771 112.992C179.515 113.355 179.157 113.643 178.699 113.856C178.24 114.059 177.717 114.16 177.131 114.16ZM186.535 114V105.648H187.735L187.767 107.872L187.639 107.568C187.757 107.195 187.943 106.848 188.199 106.528C188.466 106.208 188.781 105.952 189.143 105.76C189.506 105.568 189.906 105.472 190.343 105.472C190.525 105.472 190.695 105.488 190.855 105.52C191.015 105.541 191.149 105.573 191.255 105.616L190.919 106.96C190.781 106.896 190.637 106.853 190.487 106.832C190.349 106.8 190.215 106.784 190.087 106.784C189.725 106.784 189.399 106.848 189.111 106.976C188.823 107.104 188.578 107.285 188.375 107.52C188.173 107.744 188.018 108.005 187.911 108.304C187.805 108.603 187.751 108.923 187.751 109.264V114H186.535ZM195.825 114.16C194.993 114.16 194.251 113.979 193.601 113.616C192.961 113.253 192.459 112.747 192.097 112.096C191.734 111.445 191.553 110.699 191.553 109.856C191.553 109.205 191.654 108.619 191.857 108.096C192.059 107.563 192.342 107.099 192.705 106.704C193.078 106.309 193.521 106.005 194.033 105.792C194.545 105.568 195.099 105.456 195.697 105.456C196.262 105.456 196.774 105.557 197.233 105.76C197.702 105.963 198.102 106.245 198.433 106.608C198.774 106.96 199.03 107.381 199.201 107.872C199.371 108.363 199.446 108.901 199.425 109.488L199.409 110.048H192.449L192.273 109.04H198.497L198.209 109.312V108.928C198.187 108.544 198.075 108.176 197.873 107.824C197.67 107.461 197.382 107.168 197.009 106.944C196.646 106.72 196.209 106.608 195.697 106.608C195.099 106.608 194.582 106.731 194.145 106.976C193.707 107.211 193.371 107.563 193.137 108.032C192.902 108.501 192.785 109.083 192.785 109.776C192.785 110.437 192.913 111.013 193.169 111.504C193.425 111.984 193.787 112.357 194.257 112.624C194.737 112.891 195.313 113.024 195.985 113.024C196.379 113.024 196.769 112.96 197.153 112.832C197.547 112.693 197.979 112.427 198.449 112.032L199.073 112.896C198.827 113.141 198.534 113.36 198.193 113.552C197.851 113.733 197.478 113.883 197.073 114C196.667 114.107 196.251 114.16 195.825 114.16ZM202.281 114V103.456H203.481V114H202.281ZM200.393 106.8V105.648H205.593V106.8H200.393ZM210.684 114.16C209.852 114.16 209.111 113.973 208.46 113.6C207.82 113.227 207.314 112.709 206.94 112.048C206.578 111.387 206.396 110.635 206.396 109.792C206.396 108.96 206.578 108.219 206.94 107.568C207.314 106.917 207.82 106.405 208.46 106.032C209.111 105.659 209.852 105.472 210.684 105.472C211.506 105.472 212.236 105.659 212.876 106.032C213.527 106.405 214.034 106.917 214.396 107.568C214.77 108.219 214.956 108.96 214.956 109.792C214.956 110.635 214.77 111.387 214.396 112.048C214.034 112.709 213.527 113.227 212.876 113.6C212.236 113.973 211.506 114.16 210.684 114.16ZM210.684 113.024C211.271 113.024 211.794 112.885 212.252 112.608C212.711 112.32 213.068 111.936 213.324 111.456C213.58 110.965 213.708 110.411 213.708 109.792C213.708 109.173 213.58 108.624 213.324 108.144C213.068 107.664 212.711 107.291 212.252 107.024C211.794 106.747 211.271 106.608 210.684 106.608C210.098 106.608 209.57 106.747 209.1 107.024C208.642 107.291 208.279 107.669 208.012 108.16C207.756 108.64 207.634 109.184 207.644 109.792C207.634 110.411 207.756 110.965 208.012 111.456C208.279 111.936 208.642 112.32 209.1 112.608C209.57 112.885 210.098 113.024 210.684 113.024ZM216.707 114V105.648H217.907L217.939 107.872L217.811 107.568C217.928 107.195 218.115 106.848 218.371 106.528C218.638 106.208 218.952 105.952 219.315 105.76C219.678 105.568 220.078 105.472 220.515 105.472C220.696 105.472 220.867 105.488 221.027 105.52C221.187 105.541 221.32 105.573 221.427 105.616L221.091 106.96C220.952 106.896 220.808 106.853 220.659 106.832C220.52 106.8 220.387 106.784 220.259 106.784C219.896 106.784 219.571 106.848 219.283 106.976C218.995 107.104 218.75 107.285 218.547 107.52C218.344 107.744 218.19 108.005 218.083 108.304C217.976 108.603 217.923 108.923 217.923 109.264V114H216.707ZM222.676 114V105.648H223.86L223.908 107.392L223.716 107.472C223.822 107.109 224.03 106.779 224.34 106.48C224.649 106.181 225.017 105.941 225.444 105.76C225.881 105.568 226.329 105.472 226.788 105.472C227.406 105.472 227.924 105.595 228.34 105.84C228.756 106.085 229.07 106.464 229.284 106.976C229.497 107.488 229.604 108.139 229.604 108.928V114H228.388V108.992C228.388 108.437 228.313 107.984 228.164 107.632C228.025 107.269 227.806 107.003 227.508 106.832C227.209 106.661 226.841 106.581 226.404 106.592C226.041 106.592 225.705 106.656 225.396 106.784C225.086 106.901 224.82 107.067 224.596 107.28C224.372 107.493 224.196 107.739 224.068 108.016C223.94 108.293 223.876 108.592 223.876 108.912V114H223.284C223.209 114 223.124 114 223.028 114C222.932 114 222.814 114 222.676 114ZM235.591 114.16C234.759 114.16 234.017 113.973 233.367 113.6C232.727 113.227 232.22 112.709 231.847 112.048C231.484 111.387 231.303 110.635 231.303 109.792C231.303 108.96 231.484 108.219 231.847 107.568C232.22 106.917 232.727 106.405 233.367 106.032C234.017 105.659 234.759 105.472 235.591 105.472C236.412 105.472 237.143 105.659 237.783 106.032C238.433 106.405 238.94 106.917 239.303 107.568C239.676 108.219 239.863 108.96 239.863 109.792C239.863 110.635 239.676 111.387 239.303 112.048C238.94 112.709 238.433 113.227 237.783 113.6C237.143 113.973 236.412 114.16 235.591 114.16ZM235.591 113.024C236.177 113.024 236.7 112.885 237.159 112.608C237.617 112.32 237.975 111.936 238.231 111.456C238.487 110.965 238.615 110.411 238.615 109.792C238.615 109.173 238.487 108.624 238.231 108.144C237.975 107.664 237.617 107.291 237.159 107.024C236.7 106.747 236.177 106.608 235.591 106.608C235.004 106.608 234.476 106.747 234.007 107.024C233.548 107.291 233.185 107.669 232.919 108.16C232.663 108.64 232.54 109.184 232.551 109.792C232.54 110.411 232.663 110.965 232.919 111.456C233.185 111.936 233.548 112.32 234.007 112.608C234.476 112.885 235.004 113.024 235.591 113.024ZM242.061 110.144C241.987 109.472 241.928 108.779 241.885 108.064C241.843 107.339 241.811 106.624 241.789 105.92C241.768 105.216 241.757 104.549 241.757 103.92V102.8H243.053V103.92C243.053 104.581 243.043 105.275 243.021 106C243 106.725 242.963 107.445 242.909 108.16C242.867 108.864 242.808 109.525 242.733 110.144H242.061ZM242.349 114.16C242.061 114.16 241.837 114.075 241.677 113.904C241.528 113.733 241.453 113.488 241.453 113.168C241.453 112.88 241.533 112.645 241.693 112.464C241.864 112.272 242.083 112.176 242.349 112.176C242.637 112.176 242.856 112.267 243.005 112.448C243.165 112.619 243.245 112.859 243.245 113.168C243.245 113.467 243.16 113.707 242.989 113.888C242.829 114.069 242.616 114.16 242.349 114.16ZM107.009 134L102.673 122.8H104.081L106.865 130.096C106.993 130.427 107.105 130.72 107.201 130.976C107.297 131.232 107.383 131.477 107.457 131.712C107.543 131.936 107.623 132.16 107.697 132.384C107.772 132.608 107.852 132.853 107.937 133.12L107.521 133.136C107.628 132.773 107.729 132.437 107.825 132.128C107.932 131.819 108.039 131.504 108.145 131.184C108.263 130.853 108.407 130.469 108.577 130.032L111.345 122.8H112.753L108.289 134H107.009ZM116.627 134.16C115.902 134.16 115.246 133.973 114.659 133.6C114.073 133.216 113.609 132.699 113.267 132.048C112.926 131.387 112.755 130.64 112.755 129.808C112.755 128.965 112.931 128.219 113.283 127.568C113.635 126.917 114.105 126.405 114.691 126.032C115.289 125.659 115.955 125.472 116.691 125.472C117.129 125.472 117.534 125.536 117.907 125.664C118.281 125.792 118.611 125.973 118.899 126.208C119.198 126.432 119.443 126.699 119.635 127.008C119.838 127.307 119.977 127.632 120.051 127.984L119.699 127.808L119.747 125.648H120.947V134H119.731V131.952L120.051 131.744C119.977 132.064 119.833 132.373 119.619 132.672C119.406 132.96 119.145 133.216 118.835 133.44C118.537 133.664 118.195 133.84 117.811 133.968C117.438 134.096 117.043 134.16 116.627 134.16ZM116.899 133.008C117.454 133.008 117.95 132.875 118.387 132.608C118.825 132.331 119.166 131.952 119.411 131.472C119.667 130.981 119.795 130.427 119.795 129.808C119.795 129.189 119.667 128.64 119.411 128.16C119.166 127.68 118.825 127.301 118.387 127.024C117.95 126.747 117.454 126.608 116.899 126.608C116.334 126.608 115.833 126.747 115.395 127.024C114.969 127.301 114.627 127.68 114.371 128.16C114.126 128.64 114.003 129.189 114.003 129.808C114.003 130.416 114.126 130.965 114.371 131.456C114.617 131.936 114.958 132.315 115.395 132.592C115.833 132.869 116.334 133.008 116.899 133.008ZM123.317 134V122.16H124.517V134H123.317ZM130.403 134.16C129.571 134.16 128.829 133.979 128.179 133.616C127.539 133.253 127.037 132.747 126.675 132.096C126.312 131.445 126.131 130.699 126.131 129.856C126.131 129.205 126.232 128.619 126.435 128.096C126.637 127.563 126.92 127.099 127.283 126.704C127.656 126.309 128.099 126.005 128.611 125.792C129.123 125.568 129.677 125.456 130.275 125.456C130.84 125.456 131.352 125.557 131.811 125.76C132.28 125.963 132.68 126.245 133.011 126.608C133.352 126.96 133.608 127.381 133.779 127.872C133.949 128.363 134.024 128.901 134.003 129.488L133.987 130.048H127.027L126.851 129.04H133.075L132.787 129.312V128.928C132.765 128.544 132.653 128.176 132.451 127.824C132.248 127.461 131.96 127.168 131.587 126.944C131.224 126.72 130.787 126.608 130.275 126.608C129.677 126.608 129.16 126.731 128.723 126.976C128.285 127.211 127.949 127.563 127.715 128.032C127.48 128.501 127.363 129.083 127.363 129.776C127.363 130.437 127.491 131.013 127.747 131.504C128.003 131.984 128.365 132.357 128.835 132.624C129.315 132.891 129.891 133.024 130.563 133.024C130.957 133.024 131.347 132.96 131.731 132.832C132.125 132.693 132.557 132.427 133.027 132.032L133.651 132.896C133.405 133.141 133.112 133.36 132.771 133.552C132.429 133.733 132.056 133.883 131.651 134C131.245 134.107 130.829 134.16 130.403 134.16ZM138.667 134.16C138.027 134.16 137.483 134.032 137.035 133.776C136.598 133.509 136.262 133.125 136.027 132.624C135.803 132.123 135.691 131.499 135.691 130.752V125.648H136.907V130.512C136.907 131.077 136.982 131.552 137.131 131.936C137.291 132.309 137.526 132.592 137.835 132.784C138.155 132.976 138.544 133.072 139.003 133.072C139.355 133.072 139.68 133.013 139.979 132.896C140.278 132.768 140.539 132.597 140.763 132.384C140.987 132.171 141.163 131.92 141.291 131.632C141.419 131.344 141.483 131.04 141.483 130.72V125.648H142.683V134H141.499L141.451 132.24L141.643 132.144C141.515 132.517 141.302 132.859 141.003 133.168C140.704 133.467 140.347 133.707 139.931 133.888C139.526 134.069 139.104 134.16 138.667 134.16ZM145.468 130.144C145.393 129.472 145.334 128.779 145.292 128.064C145.249 127.339 145.217 126.624 145.196 125.92C145.174 125.216 145.164 124.549 145.164 123.92V122.8H146.46V123.92C146.46 124.581 146.449 125.275 146.428 126C146.406 126.725 146.369 127.445 146.316 128.16C146.273 128.864 146.214 129.525 146.14 130.144H145.468ZM145.756 134.16C145.468 134.16 145.244 134.075 145.084 133.904C144.934 133.733 144.86 133.488 144.86 133.168C144.86 132.88 144.94 132.645 145.1 132.464C145.27 132.272 145.489 132.176 145.756 132.176C146.044 132.176 146.262 132.267 146.412 132.448C146.572 132.619 146.652 132.859 146.652 133.168C146.652 133.467 146.566 133.707 146.396 133.888C146.236 134.069 146.022 134.16 145.756 134.16Z" fill="#E1DDF4"/>
<defs>
<linearGradient id="paint0_linear_886_4691" x1="143" y1="23.25" x2="108.5" y2="23.25" gradientUnits="userSpaceOnUse">
<stop stop-color="#43A3D5"/>
<stop offset="1" stop-color="#9C60DA"/>
</linearGradient>
<linearGradient id="paint1_linear_886_4691" x1="238.5" y1="73" x2="14.5" y2="73" gradientUnits="userSpaceOnUse">
<stop stop-color="#43A3D5"/>
<stop offset="1" stop-color="#9C60DA"/>
</linearGradient>
</defs>
</svg>
