<svg width="250" height="155" viewBox="0 0 250 155" fill="none" xmlns="http://www.w3.org/2000/svg">
<path d="M106.5 22.5L118.5 34.5L141 12" stroke="url(#paint0_linear_0_1)" stroke-width="6"/>
<path d="M20.43 82V80.224H23.142V66.976H20.43V65.2H27.726V66.976H25.014V80.224H27.726V82H20.43ZM31.1421 82V69.472H32.9421L32.9901 72.328L32.6301 72.448C32.7581 71.968 32.9661 71.536 33.2541 71.152C33.5581 70.752 33.9181 70.408 34.3341 70.12C34.7501 69.832 35.2061 69.616 35.7021 69.472C36.1981 69.312 36.7181 69.232 37.2621 69.232C37.9181 69.232 38.5021 69.344 39.0141 69.568C39.5421 69.776 39.9821 70.144 40.3341 70.672C40.7021 71.184 40.9821 71.864 41.1741 72.712L40.7421 72.496L40.9101 72.088C41.0701 71.72 41.3021 71.368 41.6061 71.032C41.9261 70.68 42.2861 70.368 42.6861 70.096C43.1021 69.824 43.5501 69.616 44.0301 69.472C44.5261 69.312 45.0301 69.232 45.5421 69.232C46.4221 69.232 47.1661 69.424 47.7741 69.808C48.3821 70.176 48.8381 70.744 49.1421 71.512C49.4621 72.28 49.6221 73.256 49.6221 74.44V82H47.7741V74.536C47.7741 73.704 47.6701 73.024 47.4621 72.496C47.2541 71.968 46.9421 71.576 46.5261 71.32C46.1261 71.048 45.6141 70.912 44.9901 70.912C44.4461 70.912 43.9421 71.008 43.4781 71.2C43.0301 71.376 42.6381 71.632 42.3021 71.968C41.9821 72.288 41.7261 72.656 41.5341 73.072C41.3581 73.488 41.2701 73.936 41.2701 74.416V82H39.4461V74.512C39.4461 73.712 39.3341 73.048 39.1101 72.52C38.9021 71.992 38.5901 71.592 38.1741 71.32C37.7581 71.048 37.2461 70.912 36.6381 70.912C36.1101 70.912 35.6221 71.008 35.1741 71.2C34.7261 71.376 34.3341 71.624 33.9981 71.944C33.6781 72.264 33.4221 72.632 33.2301 73.048C33.0541 73.464 32.9661 73.912 32.9661 74.392V82H31.1421ZM57.9293 82.24C56.8413 82.24 55.8573 81.96 54.9773 81.4C54.0973 80.824 53.4013 80.048 52.8893 79.072C52.3773 78.08 52.1213 76.96 52.1213 75.712C52.1213 74.448 52.3853 73.328 52.9133 72.352C53.4413 71.376 54.1453 70.608 55.0253 70.048C55.9213 69.488 56.9213 69.208 58.0253 69.208C58.6813 69.208 59.2893 69.304 59.8493 69.496C60.4093 69.688 60.9053 69.96 61.3373 70.312C61.7853 70.648 62.1533 71.048 62.4413 71.512C62.7453 71.96 62.9533 72.448 63.0653 72.976L62.5373 72.712L62.6093 69.472H64.4093V82H62.5853V78.928L63.0653 78.616C62.9533 79.096 62.7373 79.56 62.4173 80.008C62.0973 80.44 61.7053 80.824 61.2413 81.16C60.7933 81.496 60.2813 81.76 59.7053 81.952C59.1453 82.144 58.5533 82.24 57.9293 82.24ZM58.3372 80.512C59.1693 80.512 59.9133 80.312 60.5693 79.912C61.2253 79.496 61.7373 78.928 62.1053 78.208C62.4893 77.472 62.6813 76.64 62.6813 75.712C62.6813 74.784 62.4893 73.96 62.1053 73.24C61.7373 72.52 61.2253 71.952 60.5693 71.536C59.9133 71.12 59.1693 70.912 58.3372 70.912C57.4893 70.912 56.7373 71.12 56.0813 71.536C55.4413 71.952 54.9293 72.52 54.5453 73.24C54.1773 73.96 53.9933 74.784 53.9933 75.712C53.9933 76.624 54.1773 77.448 54.5453 78.184C54.9133 78.904 55.4253 79.472 56.0813 79.888C56.7373 80.304 57.4893 80.512 58.3372 80.512ZM73.3161 87.52C72.3881 87.52 71.5081 87.376 70.6761 87.088C69.8441 86.8 69.1561 86.44 68.6121 86.008L69.3321 84.496C69.6521 84.752 70.0201 84.976 70.4361 85.168C70.8681 85.376 71.3321 85.536 71.8281 85.648C72.3241 85.776 72.8281 85.84 73.3401 85.84C74.2681 85.84 75.0521 85.664 75.6921 85.312C76.3481 84.976 76.8441 84.472 77.1801 83.8C77.5321 83.128 77.7081 82.296 77.7081 81.304V78.904L77.9961 78.832C77.8521 79.44 77.5401 80.008 77.0601 80.536C76.5801 81.048 75.9961 81.464 75.3081 81.784C74.6201 82.088 73.8921 82.24 73.1241 82.24C71.9561 82.24 70.9081 81.96 69.9801 81.4C69.0681 80.84 68.3481 80.072 67.8201 79.096C67.2921 78.104 67.0281 76.984 67.0281 75.736C67.0281 74.472 67.2921 73.352 67.8201 72.376C68.3641 71.384 69.0921 70.608 70.0041 70.048C70.9161 69.488 71.9401 69.208 73.0761 69.208C73.5721 69.208 74.0521 69.272 74.5161 69.4C74.9801 69.512 75.4041 69.68 75.7881 69.904C76.1881 70.128 76.5481 70.384 76.8681 70.672C77.1881 70.96 77.4521 71.272 77.6601 71.608C77.8841 71.944 78.0441 72.288 78.1401 72.64L77.6361 72.568L77.7081 69.472H79.5081V81.232C79.5081 82.24 79.3641 83.128 79.0761 83.896C78.7881 84.68 78.3641 85.336 77.8041 85.864C77.2601 86.408 76.6041 86.816 75.8361 87.088C75.0841 87.376 74.2441 87.52 73.3161 87.52ZM73.3401 80.512C74.1881 80.512 74.9401 80.312 75.5961 79.912C76.2681 79.496 76.7961 78.928 77.1801 78.208C77.5641 77.488 77.7561 76.656 77.7561 75.712C77.7561 74.784 77.5641 73.96 77.1801 73.24C76.8121 72.52 76.2921 71.952 75.6201 71.536C74.9481 71.12 74.1881 70.912 73.3401 70.912C72.4761 70.912 71.7081 71.12 71.0361 71.536C70.3801 71.952 69.8601 72.52 69.4761 73.24C69.0921 73.96 68.9001 74.784 68.9001 75.712C68.9001 76.624 69.0841 77.448 69.4521 78.184C69.8361 78.904 70.3561 79.472 71.0121 79.888C71.6841 80.304 72.4601 80.512 73.3401 80.512ZM88.5298 82.24C87.2818 82.24 86.1698 81.968 85.1938 81.424C84.2338 80.88 83.4818 80.12 82.9378 79.144C82.3938 78.168 82.1218 77.048 82.1218 75.784C82.1218 74.808 82.2738 73.928 82.5778 73.144C82.8818 72.344 83.3058 71.648 83.8498 71.056C84.4098 70.464 85.0738 70.008 85.8418 69.688C86.6098 69.352 87.4418 69.184 88.3378 69.184C89.1858 69.184 89.9538 69.336 90.6418 69.64C91.3458 69.944 91.9458 70.368 92.4418 70.912C92.9538 71.44 93.3378 72.072 93.5938 72.808C93.8498 73.544 93.9618 74.352 93.9298 75.232L93.9058 76.072H83.4658L83.2018 74.56H92.5378L92.1058 74.968V74.392C92.0738 73.816 91.9058 73.264 91.6018 72.736C91.2978 72.192 90.8658 71.752 90.3058 71.416C89.7618 71.08 89.1058 70.912 88.3378 70.912C87.4418 70.912 86.6658 71.096 86.0098 71.464C85.3538 71.816 84.8498 72.344 84.4978 73.048C84.1458 73.752 83.9698 74.624 83.9698 75.664C83.9698 76.656 84.1618 77.52 84.5458 78.256C84.9298 78.976 85.4738 79.536 86.1778 79.936C86.8978 80.336 87.7618 80.536 88.7698 80.536C89.3618 80.536 89.9458 80.44 90.5218 80.248C91.1138 80.04 91.7618 79.64 92.4658 79.048L93.4018 80.344C93.0338 80.712 92.5938 81.04 92.0818 81.328C91.5698 81.6 91.0098 81.824 90.4018 82C89.7938 82.16 89.1698 82.24 88.5298 82.24ZM96.4864 82V69.472H98.2624L98.3344 72.088L98.0464 72.208C98.2064 71.664 98.5184 71.168 98.9824 70.72C99.4464 70.272 99.9984 69.912 100.638 69.64C101.294 69.352 101.966 69.208 102.654 69.208C103.582 69.208 104.358 69.392 104.982 69.76C105.606 70.128 106.078 70.696 106.398 71.464C106.718 72.232 106.878 73.208 106.878 74.392V82H105.054V74.488C105.054 73.656 104.942 72.976 104.718 72.448C104.51 71.904 104.182 71.504 103.734 71.248C103.286 70.992 102.734 70.872 102.078 70.888C101.534 70.888 101.03 70.984 100.566 71.176C100.102 71.352 99.7024 71.6 99.3664 71.92C99.0304 72.24 98.7664 72.608 98.5744 73.024C98.3824 73.44 98.2864 73.888 98.2864 74.368V82H97.3984C97.2864 82 97.1584 82 97.0144 82C96.8704 82 96.6944 82 96.4864 82ZM114.419 82.24C113.347 82.24 112.387 82.04 111.539 81.64C110.691 81.24 110.019 80.712 109.523 80.056L110.795 78.952C111.259 79.512 111.803 79.936 112.427 80.224C113.067 80.512 113.779 80.656 114.562 80.656C114.963 80.656 115.323 80.616 115.643 80.536C115.963 80.44 116.243 80.304 116.483 80.128C116.723 79.952 116.907 79.744 117.035 79.504C117.163 79.264 117.227 79 117.227 78.712C117.227 78.184 116.995 77.744 116.531 77.392C116.323 77.248 116.027 77.104 115.643 76.96C115.259 76.8 114.795 76.648 114.251 76.504C113.355 76.248 112.611 75.992 112.019 75.736C111.427 75.464 110.963 75.152 110.627 74.8C110.387 74.512 110.203 74.2 110.075 73.864C109.963 73.528 109.907 73.16 109.907 72.76C109.907 72.248 110.011 71.776 110.219 71.344C110.443 70.912 110.747 70.536 111.131 70.216C111.531 69.88 111.995 69.632 112.523 69.472C113.067 69.296 113.651 69.208 114.275 69.208C114.867 69.208 115.451 69.288 116.027 69.448C116.603 69.608 117.139 69.84 117.635 70.144C118.131 70.448 118.555 70.808 118.907 71.224L117.803 72.424C117.499 72.104 117.163 71.816 116.795 71.56C116.427 71.304 116.035 71.104 115.618 70.96C115.219 70.816 114.803 70.744 114.371 70.744C113.987 70.744 113.627 70.792 113.291 70.888C112.971 70.984 112.691 71.12 112.451 71.296C112.227 71.456 112.051 71.656 111.923 71.896C111.811 72.136 111.755 72.4 111.755 72.688C111.755 72.928 111.803 73.144 111.899 73.336C111.995 73.528 112.131 73.696 112.307 73.84C112.531 74.016 112.843 74.184 113.243 74.344C113.659 74.488 114.171 74.64 114.779 74.8C115.483 74.992 116.075 75.192 116.555 75.4C117.051 75.592 117.459 75.824 117.779 76.096C118.211 76.416 118.515 76.784 118.691 77.2C118.883 77.616 118.979 78.088 118.979 78.616C118.979 79.32 118.779 79.944 118.379 80.488C117.995 81.032 117.459 81.464 116.771 81.784C116.083 82.088 115.299 82.24 114.419 82.24ZM129.245 82V65.2H139.421V67.024H131.117V80.176H139.373V82H129.245ZM130.109 74.272V72.448H138.077V74.272H130.109ZM142.893 82V69.472H144.669L144.741 72.088L144.453 72.208C144.613 71.664 144.925 71.168 145.389 70.72C145.853 70.272 146.405 69.912 147.045 69.64C147.701 69.352 148.373 69.208 149.061 69.208C149.989 69.208 150.765 69.392 151.389 69.76C152.013 70.128 152.485 70.696 152.805 71.464C153.125 72.232 153.285 73.208 153.285 74.392V82H151.461V74.488C151.461 73.656 151.349 72.976 151.125 72.448C150.917 71.904 150.589 71.504 150.141 71.248C149.693 70.992 149.141 70.872 148.485 70.888C147.941 70.888 147.437 70.984 146.973 71.176C146.509 71.352 146.109 71.6 145.773 71.92C145.437 72.24 145.173 72.608 144.981 73.024C144.789 73.44 144.693 73.888 144.693 74.368V82H143.805C143.693 82 143.565 82 143.421 82C143.277 82 143.101 82 142.893 82ZM160.609 82L155.329 69.472H157.321L161.497 79.72L161.017 79.984L165.601 69.472H167.521L161.905 82H160.609ZM170.115 82V69.472H171.915V82H170.115ZM171.003 66.76C170.555 66.76 170.211 66.648 169.971 66.424C169.747 66.184 169.635 65.864 169.635 65.464C169.635 65.064 169.755 64.744 169.995 64.504C170.235 64.264 170.571 64.144 171.003 64.144C171.435 64.144 171.771 64.264 172.011 64.504C172.251 64.728 172.371 65.048 172.371 65.464C172.371 65.848 172.251 66.16 172.011 66.4C171.771 66.64 171.435 66.76 171.003 66.76ZM180.742 82.24C179.654 82.24 178.67 81.96 177.79 81.4C176.91 80.824 176.214 80.048 175.702 79.072C175.19 78.08 174.934 76.96 174.934 75.712C174.934 74.448 175.198 73.328 175.726 72.352C176.254 71.376 176.958 70.608 177.838 70.048C178.734 69.488 179.734 69.208 180.838 69.208C181.494 69.208 182.102 69.304 182.662 69.496C183.222 69.688 183.718 69.96 184.15 70.312C184.598 70.648 184.966 71.048 185.254 71.512C185.558 71.96 185.766 72.448 185.878 72.976L185.35 72.712L185.422 69.472H187.222V82H185.398V78.928L185.878 78.616C185.766 79.096 185.55 79.56 185.23 80.008C184.91 80.44 184.518 80.824 184.054 81.16C183.606 81.496 183.094 81.76 182.518 81.952C181.958 82.144 181.366 82.24 180.742 82.24ZM181.15 80.512C181.982 80.512 182.726 80.312 183.382 79.912C184.038 79.496 184.55 78.928 184.918 78.208C185.302 77.472 185.494 76.64 185.494 75.712C185.494 74.784 185.302 73.96 184.918 73.24C184.55 72.52 184.038 71.952 183.382 71.536C182.726 71.12 181.982 70.912 181.15 70.912C180.302 70.912 179.55 71.12 178.894 71.536C178.254 71.952 177.742 72.52 177.358 73.24C176.99 73.96 176.806 74.784 176.806 75.712C176.806 76.624 176.99 77.448 177.358 78.184C177.726 78.904 178.238 79.472 178.894 79.888C179.55 80.304 180.302 80.512 181.15 80.512ZM195.817 82.24C194.681 82.24 193.657 81.96 192.745 81.4C191.849 80.84 191.137 80.072 190.609 79.096C190.097 78.104 189.841 76.984 189.841 75.736C189.841 74.472 190.105 73.352 190.633 72.376C191.161 71.384 191.873 70.608 192.769 70.048C193.665 69.488 194.673 69.208 195.793 69.208C196.417 69.208 197.017 69.304 197.593 69.496C198.185 69.688 198.713 69.96 199.177 70.312C199.641 70.648 200.025 71.04 200.329 71.488C200.633 71.92 200.817 72.376 200.881 72.856L200.329 72.664V64.24H202.129V82H200.353L200.305 78.88L200.761 78.712C200.697 79.16 200.513 79.6 200.209 80.032C199.921 80.448 199.553 80.824 199.105 81.16C198.657 81.496 198.145 81.76 197.569 81.952C197.009 82.144 196.425 82.24 195.817 82.24ZM196.081 80.584C196.913 80.584 197.657 80.376 198.313 79.96C198.969 79.544 199.481 78.968 199.849 78.232C200.233 77.496 200.425 76.656 200.425 75.712C200.425 74.768 200.233 73.936 199.849 73.216C199.481 72.48 198.969 71.904 198.313 71.488C197.657 71.056 196.913 70.84 196.081 70.84C195.217 70.84 194.457 71.056 193.801 71.488C193.161 71.904 192.649 72.48 192.265 73.216C191.897 73.936 191.713 74.768 191.713 75.712C191.713 76.64 191.897 77.472 192.265 78.208C192.633 78.944 193.145 79.528 193.801 79.96C194.457 80.376 195.217 80.584 196.081 80.584ZM210.531 82.24C209.443 82.24 208.459 81.96 207.579 81.4C206.699 80.824 206.003 80.048 205.491 79.072C204.979 78.08 204.723 76.96 204.723 75.712C204.723 74.448 204.987 73.328 205.515 72.352C206.043 71.376 206.747 70.608 207.627 70.048C208.523 69.488 209.523 69.208 210.627 69.208C211.283 69.208 211.891 69.304 212.451 69.496C213.011 69.688 213.507 69.96 213.939 70.312C214.387 70.648 214.755 71.048 215.043 71.512C215.347 71.96 215.555 72.448 215.667 72.976L215.139 72.712L215.211 69.472H217.011V82H215.187V78.928L215.667 78.616C215.555 79.096 215.339 79.56 215.019 80.008C214.699 80.44 214.307 80.824 213.843 81.16C213.395 81.496 212.883 81.76 212.307 81.952C211.747 82.144 211.155 82.24 210.531 82.24ZM210.939 80.512C211.771 80.512 212.515 80.312 213.171 79.912C213.827 79.496 214.339 78.928 214.707 78.208C215.091 77.472 215.283 76.64 215.283 75.712C215.283 74.784 215.091 73.96 214.707 73.24C214.339 72.52 213.827 71.952 213.171 71.536C212.515 71.12 211.771 70.912 210.939 70.912C210.091 70.912 209.339 71.12 208.683 71.536C208.043 71.952 207.531 72.52 207.147 73.24C206.779 73.96 206.595 74.784 206.595 75.712C206.595 76.624 206.779 77.448 207.147 78.184C207.515 78.904 208.027 79.472 208.683 79.888C209.339 80.304 210.091 80.512 210.939 80.512ZM224.622 82.24C223.55 82.24 222.59 82.04 221.742 81.64C220.894 81.24 220.222 80.712 219.726 80.056L220.998 78.952C221.462 79.512 222.006 79.936 222.63 80.224C223.27 80.512 223.982 80.656 224.766 80.656C225.166 80.656 225.526 80.616 225.846 80.536C226.166 80.44 226.446 80.304 226.686 80.128C226.926 79.952 227.11 79.744 227.238 79.504C227.366 79.264 227.43 79 227.43 78.712C227.43 78.184 227.198 77.744 226.734 77.392C226.526 77.248 226.23 77.104 225.846 76.96C225.462 76.8 224.998 76.648 224.454 76.504C223.558 76.248 222.814 75.992 222.222 75.736C221.63 75.464 221.166 75.152 220.83 74.8C220.59 74.512 220.406 74.2 220.278 73.864C220.166 73.528 220.11 73.16 220.11 72.76C220.11 72.248 220.214 71.776 220.422 71.344C220.646 70.912 220.95 70.536 221.334 70.216C221.734 69.88 222.198 69.632 222.726 69.472C223.27 69.296 223.854 69.208 224.478 69.208C225.07 69.208 225.654 69.288 226.23 69.448C226.806 69.608 227.342 69.84 227.838 70.144C228.334 70.448 228.758 70.808 229.11 71.224L228.006 72.424C227.702 72.104 227.366 71.816 226.998 71.56C226.63 71.304 226.238 71.104 225.822 70.96C225.422 70.816 225.006 70.744 224.574 70.744C224.19 70.744 223.83 70.792 223.494 70.888C223.174 70.984 222.894 71.12 222.654 71.296C222.43 71.456 222.254 71.656 222.126 71.896C222.014 72.136 221.958 72.4 221.958 72.688C221.958 72.928 222.006 73.144 222.102 73.336C222.198 73.528 222.334 73.696 222.51 73.84C222.734 74.016 223.046 74.184 223.446 74.344C223.862 74.488 224.374 74.64 224.982 74.8C225.686 74.992 226.278 75.192 226.758 75.4C227.254 75.592 227.662 75.824 227.982 76.096C228.414 76.416 228.718 76.784 228.894 77.2C229.086 77.616 229.182 78.088 229.182 78.616C229.182 79.32 228.982 79.944 228.582 80.488C228.198 81.032 227.662 81.464 226.974 81.784C226.286 82.088 225.502 82.24 224.622 82.24Z" fill="url(#paint1_linear_0_1)"/>
<path d="M14.2496 114V102.8H21.0336V104.016H15.4976V112.784H21.0016V114H14.2496ZM14.8256 108.848V107.632H20.1376V108.848H14.8256ZM23.3317 114V105.648H24.5317L24.5637 107.552L24.3237 107.632C24.409 107.312 24.5477 107.024 24.7397 106.768C24.9424 106.501 25.1824 106.272 25.4597 106.08C25.737 105.888 26.041 105.744 26.3717 105.648C26.7024 105.541 27.049 105.488 27.4117 105.488C27.849 105.488 28.2384 105.563 28.5797 105.712C28.9317 105.851 29.225 106.096 29.4597 106.448C29.705 106.789 29.8917 107.243 30.0197 107.808L29.7317 107.664L29.8437 107.392C29.9504 107.147 30.105 106.912 30.3077 106.688C30.521 106.453 30.761 106.245 31.0277 106.064C31.305 105.883 31.6037 105.744 31.9237 105.648C32.2544 105.541 32.5904 105.488 32.9317 105.488C33.5184 105.488 34.0144 105.616 34.4197 105.872C34.825 106.117 35.129 106.496 35.3317 107.008C35.545 107.52 35.6517 108.171 35.6517 108.96V114H34.4197V109.024C34.4197 108.469 34.3504 108.016 34.2117 107.664C34.073 107.312 33.865 107.051 33.5877 106.88C33.321 106.699 32.9797 106.608 32.5637 106.608C32.201 106.608 31.865 106.672 31.5557 106.8C31.257 106.917 30.9957 107.088 30.7717 107.312C30.5584 107.525 30.3877 107.771 30.2597 108.048C30.1424 108.325 30.0837 108.624 30.0837 108.944V114H28.8677V109.008C28.8677 108.475 28.793 108.032 28.6437 107.68C28.505 107.328 28.297 107.061 28.0197 106.88C27.7424 106.699 27.401 106.608 26.9957 106.608C26.6437 106.608 26.3184 106.672 26.0197 106.8C25.721 106.917 25.4597 107.083 25.2357 107.296C25.0224 107.509 24.8517 107.755 24.7237 108.032C24.6064 108.309 24.5477 108.608 24.5477 108.928V114H23.3317ZM46.6502 114.16C46.2555 114.16 45.8715 114.101 45.4982 113.984C45.1249 113.856 44.7835 113.685 44.4742 113.472C44.1755 113.259 43.9195 113.013 43.7062 112.736C43.5035 112.459 43.3649 112.171 43.2902 111.872L43.6422 111.888L43.5942 113.984H42.4102V102.16H43.6102V107.648L43.3702 107.712C43.4449 107.413 43.5782 107.131 43.7702 106.864C43.9729 106.587 44.2235 106.347 44.5222 106.144C44.8209 105.931 45.1462 105.765 45.4982 105.648C45.8609 105.531 46.2342 105.472 46.6182 105.472C47.3649 105.472 48.0315 105.659 48.6182 106.032C49.2155 106.405 49.6902 106.917 50.0422 107.568C50.3942 108.219 50.5702 108.965 50.5702 109.808C50.5702 110.651 50.3995 111.403 50.0582 112.064C49.7169 112.715 49.2475 113.227 48.6502 113.6C48.0635 113.973 47.3969 114.16 46.6502 114.16ZM46.4582 113.024C47.0235 113.024 47.5249 112.885 47.9622 112.608C48.3995 112.32 48.7409 111.936 48.9862 111.456C49.2422 110.965 49.3702 110.416 49.3702 109.808C49.3702 109.189 49.2422 108.64 48.9862 108.16C48.7409 107.68 48.3995 107.301 47.9622 107.024C47.5249 106.747 47.0235 106.608 46.4582 106.608C45.8929 106.608 45.3915 106.747 44.9542 107.024C44.5169 107.301 44.1702 107.68 43.9142 108.16C43.6689 108.64 43.5462 109.189 43.5462 109.808C43.5462 110.427 43.6689 110.981 43.9142 111.472C44.1702 111.952 44.5169 112.331 44.9542 112.608C45.3915 112.885 45.8929 113.024 46.4582 113.024ZM52.3164 114V105.648H53.5164L53.5484 107.872L53.4204 107.568C53.5378 107.195 53.7244 106.848 53.9804 106.528C54.2471 106.208 54.5618 105.952 54.9244 105.76C55.2871 105.568 55.6871 105.472 56.1244 105.472C56.3058 105.472 56.4764 105.488 56.6364 105.52C56.7964 105.541 56.9298 105.573 57.0364 105.616L56.7004 106.96C56.5618 106.896 56.4178 106.853 56.2684 106.832C56.1298 106.8 55.9964 106.784 55.8684 106.784C55.5058 106.784 55.1804 106.848 54.8924 106.976C54.6044 107.104 54.3591 107.285 54.1564 107.52C53.9538 107.744 53.7991 108.005 53.6924 108.304C53.5858 108.603 53.5324 108.923 53.5324 109.264V114H52.3164ZM61.6058 114.16C60.7738 114.16 60.0325 113.979 59.3818 113.616C58.7418 113.253 58.2405 112.747 57.8778 112.096C57.5151 111.445 57.3338 110.699 57.3338 109.856C57.3338 109.205 57.4351 108.619 57.6378 108.096C57.8405 107.563 58.1231 107.099 58.4858 106.704C58.8591 106.309 59.3018 106.005 59.8138 105.792C60.3258 105.568 60.8805 105.456 61.4778 105.456C62.0431 105.456 62.5551 105.557 63.0138 105.76C63.4831 105.963 63.8831 106.245 64.2138 106.608C64.5551 106.96 64.8111 107.381 64.9818 107.872C65.1525 108.363 65.2271 108.901 65.2058 109.488L65.1898 110.048H58.2298L58.0538 109.04H64.2778L63.9898 109.312V108.928C63.9685 108.544 63.8565 108.176 63.6538 107.824C63.4511 107.461 63.1631 107.168 62.7898 106.944C62.4271 106.72 61.9898 106.608 61.4778 106.608C60.8805 106.608 60.3631 106.731 59.9258 106.976C59.4885 107.211 59.1525 107.563 58.9178 108.032C58.6831 108.501 58.5658 109.083 58.5658 109.776C58.5658 110.437 58.6938 111.013 58.9498 111.504C59.2058 111.984 59.5685 112.357 60.0378 112.624C60.5178 112.891 61.0938 113.024 61.7658 113.024C62.1605 113.024 62.5498 112.96 62.9338 112.832C63.3285 112.693 63.7605 112.427 64.2298 112.032L64.8538 112.896C64.6085 113.141 64.3151 113.36 63.9738 113.552C63.6325 113.733 63.2591 113.883 62.8538 114C62.4485 114.107 62.0325 114.16 61.6058 114.16ZM69.3459 114L65.8259 105.648H67.1539L69.9379 112.48L69.6179 112.656L72.6739 105.648H73.9539L70.2099 114H69.3459ZM78.8089 114.16C77.9769 114.16 77.2356 113.979 76.5849 113.616C75.9449 113.253 75.4436 112.747 75.0809 112.096C74.7183 111.445 74.5369 110.699 74.5369 109.856C74.5369 109.205 74.6383 108.619 74.8409 108.096C75.0436 107.563 75.3263 107.099 75.6889 106.704C76.0623 106.309 76.5049 106.005 77.0169 105.792C77.5289 105.568 78.0836 105.456 78.6809 105.456C79.2463 105.456 79.7583 105.557 80.2169 105.76C80.6863 105.963 81.0863 106.245 81.4169 106.608C81.7583 106.96 82.0143 107.381 82.1849 107.872C82.3556 108.363 82.4303 108.901 82.4089 109.488L82.3929 110.048H75.4329L75.2569 109.04H81.4809L81.1929 109.312V108.928C81.1716 108.544 81.0596 108.176 80.8569 107.824C80.6543 107.461 80.3663 107.168 79.9929 106.944C79.6303 106.72 79.1929 106.608 78.6809 106.608C78.0836 106.608 77.5663 106.731 77.1289 106.976C76.6916 107.211 76.3556 107.563 76.1209 108.032C75.8863 108.501 75.7689 109.083 75.7689 109.776C75.7689 110.437 75.8969 111.013 76.1529 111.504C76.4089 111.984 76.7716 112.357 77.2409 112.624C77.7209 112.891 78.2969 113.024 78.9689 113.024C79.3636 113.024 79.7529 112.96 80.1369 112.832C80.5316 112.693 80.9636 112.427 81.4329 112.032L82.0569 112.896C81.8116 113.141 81.5183 113.36 81.1769 113.552C80.8356 113.733 80.4623 113.883 80.0569 114C79.6516 114.107 79.2356 114.16 78.8089 114.16ZM91.3337 114.16C90.619 114.16 89.979 114.027 89.4137 113.76C88.8484 113.493 88.4004 113.141 88.0697 112.704L88.9177 111.968C89.227 112.341 89.5897 112.624 90.0057 112.816C90.4324 113.008 90.907 113.104 91.4297 113.104C91.6964 113.104 91.9364 113.077 92.1497 113.024C92.363 112.96 92.5497 112.869 92.7097 112.752C92.8697 112.635 92.9924 112.496 93.0777 112.336C93.163 112.176 93.2057 112 93.2057 111.808C93.2057 111.456 93.051 111.163 92.7417 110.928C92.603 110.832 92.4057 110.736 92.1497 110.64C91.8937 110.533 91.5844 110.432 91.2217 110.336C90.6244 110.165 90.1284 109.995 89.7337 109.824C89.339 109.643 89.0297 109.435 88.8057 109.2C88.6457 109.008 88.523 108.8 88.4377 108.576C88.363 108.352 88.3257 108.107 88.3257 107.84C88.3257 107.499 88.395 107.184 88.5337 106.896C88.683 106.608 88.8857 106.357 89.1417 106.144C89.4084 105.92 89.7177 105.755 90.0697 105.648C90.4324 105.531 90.8217 105.472 91.2377 105.472C91.6324 105.472 92.0217 105.525 92.4057 105.632C92.7897 105.739 93.147 105.893 93.4777 106.096C93.8084 106.299 94.091 106.539 94.3257 106.816L93.5897 107.616C93.387 107.403 93.163 107.211 92.9177 107.04C92.6724 106.869 92.411 106.736 92.1337 106.64C91.867 106.544 91.5897 106.496 91.3017 106.496C91.0457 106.496 90.8057 106.528 90.5817 106.592C90.3684 106.656 90.1817 106.747 90.0217 106.864C89.8724 106.971 89.755 107.104 89.6697 107.264C89.595 107.424 89.5577 107.6 89.5577 107.792C89.5577 107.952 89.5897 108.096 89.6537 108.224C89.7177 108.352 89.8084 108.464 89.9257 108.56C90.075 108.677 90.283 108.789 90.5497 108.896C90.827 108.992 91.1684 109.093 91.5737 109.2C92.043 109.328 92.4377 109.461 92.7577 109.6C93.0884 109.728 93.3604 109.883 93.5737 110.064C93.8617 110.277 94.0644 110.523 94.1817 110.8C94.3097 111.077 94.3737 111.392 94.3737 111.744C94.3737 112.213 94.2404 112.629 93.9737 112.992C93.7177 113.355 93.3604 113.643 92.9017 113.856C92.443 114.059 91.9204 114.16 91.3337 114.16ZM99.2139 114.16C98.5739 114.16 98.0299 114.032 97.5819 113.776C97.1446 113.509 96.8086 113.125 96.5739 112.624C96.3499 112.123 96.2379 111.499 96.2379 110.752V105.648H97.4539V110.512C97.4539 111.077 97.5286 111.552 97.6779 111.936C97.8379 112.309 98.0726 112.592 98.3819 112.784C98.7019 112.976 99.0913 113.072 99.5499 113.072C99.9019 113.072 100.227 113.013 100.526 112.896C100.825 112.768 101.086 112.597 101.31 112.384C101.534 112.171 101.71 111.92 101.838 111.632C101.966 111.344 102.03 111.04 102.03 110.72V105.648H103.23V114H102.046L101.998 112.24L102.19 112.144C102.062 112.517 101.849 112.859 101.55 113.168C101.251 113.467 100.894 113.707 100.478 113.888C100.073 114.069 99.6513 114.16 99.2139 114.16ZM108.83 114.16C108.105 114.16 107.449 113.973 106.862 113.6C106.276 113.216 105.812 112.699 105.47 112.048C105.129 111.387 104.958 110.64 104.958 109.808C104.958 108.965 105.134 108.219 105.486 107.568C105.838 106.917 106.308 106.405 106.894 106.032C107.492 105.659 108.158 105.472 108.894 105.472C109.332 105.472 109.737 105.536 110.11 105.664C110.484 105.792 110.814 105.973 111.102 106.208C111.401 106.432 111.646 106.699 111.838 107.008C112.041 107.307 112.18 107.632 112.254 107.984L111.902 107.808L111.95 105.648H113.15V114H111.934V111.952L112.254 111.744C112.18 112.064 112.036 112.373 111.822 112.672C111.609 112.96 111.348 113.216 111.038 113.44C110.74 113.664 110.398 113.84 110.014 113.968C109.641 114.096 109.246 114.16 108.83 114.16ZM109.102 113.008C109.657 113.008 110.153 112.875 110.59 112.608C111.028 112.331 111.369 111.952 111.614 111.472C111.87 110.981 111.998 110.427 111.998 109.808C111.998 109.189 111.87 108.64 111.614 108.16C111.369 107.68 111.028 107.301 110.59 107.024C110.153 106.747 109.657 106.608 109.102 106.608C108.537 106.608 108.036 106.747 107.598 107.024C107.172 107.301 106.83 107.68 106.574 108.16C106.329 108.64 106.206 109.189 106.206 109.808C106.206 110.416 106.329 110.965 106.574 111.456C106.82 111.936 107.161 112.315 107.598 112.592C108.036 112.869 108.537 113.008 109.102 113.008ZM118.224 114.16C117.51 114.16 116.87 114.027 116.304 113.76C115.739 113.493 115.291 113.141 114.96 112.704L115.808 111.968C116.118 112.341 116.48 112.624 116.896 112.816C117.323 113.008 117.798 113.104 118.32 113.104C118.587 113.104 118.827 113.077 119.04 113.024C119.254 112.96 119.44 112.869 119.6 112.752C119.76 112.635 119.883 112.496 119.968 112.336C120.054 112.176 120.096 112 120.096 111.808C120.096 111.456 119.942 111.163 119.632 110.928C119.494 110.832 119.296 110.736 119.04 110.64C118.784 110.533 118.475 110.432 118.112 110.336C117.515 110.165 117.019 109.995 116.624 109.824C116.23 109.643 115.92 109.435 115.696 109.2C115.536 109.008 115.414 108.8 115.328 108.576C115.254 108.352 115.216 108.107 115.216 107.84C115.216 107.499 115.286 107.184 115.424 106.896C115.574 106.608 115.776 106.357 116.032 106.144C116.299 105.92 116.608 105.755 116.96 105.648C117.323 105.531 117.712 105.472 118.128 105.472C118.523 105.472 118.912 105.525 119.296 105.632C119.68 105.739 120.038 105.893 120.368 106.096C120.699 106.299 120.982 106.539 121.216 106.816L120.48 107.616C120.278 107.403 120.054 107.211 119.808 107.04C119.563 106.869 119.302 106.736 119.024 106.64C118.758 106.544 118.48 106.496 118.192 106.496C117.936 106.496 117.696 106.528 117.472 106.592C117.259 106.656 117.072 106.747 116.912 106.864C116.763 106.971 116.646 107.104 116.56 107.264C116.486 107.424 116.448 107.6 116.448 107.792C116.448 107.952 116.48 108.096 116.544 108.224C116.608 108.352 116.699 108.464 116.816 108.56C116.966 108.677 117.174 108.789 117.44 108.896C117.718 108.992 118.059 109.093 118.464 109.2C118.934 109.328 119.328 109.461 119.648 109.6C119.979 109.728 120.251 109.883 120.464 110.064C120.752 110.277 120.955 110.523 121.072 110.8C121.2 111.077 121.264 111.392 121.264 111.744C121.264 112.213 121.131 112.629 120.864 112.992C120.608 113.355 120.251 113.643 119.792 113.856C119.334 114.059 118.811 114.16 118.224 114.16ZM127.949 114V105.648H129.149V114H127.949ZM128.541 103.84C128.242 103.84 128.013 103.765 127.853 103.616C127.704 103.456 127.629 103.243 127.629 102.976C127.629 102.709 127.709 102.496 127.869 102.336C128.029 102.176 128.253 102.096 128.541 102.096C128.829 102.096 129.053 102.176 129.213 102.336C129.373 102.485 129.453 102.699 129.453 102.976C129.453 103.232 129.373 103.44 129.213 103.6C129.053 103.76 128.829 103.84 128.541 103.84ZM131.754 114V105.648H132.954L132.986 107.552L132.746 107.632C132.831 107.312 132.97 107.024 133.162 106.768C133.364 106.501 133.604 106.272 133.882 106.08C134.159 105.888 134.463 105.744 134.794 105.648C135.124 105.541 135.471 105.488 135.834 105.488C136.271 105.488 136.66 105.563 137.002 105.712C137.354 105.851 137.647 106.096 137.882 106.448C138.127 106.789 138.314 107.243 138.442 107.808L138.154 107.664L138.266 107.392C138.372 107.147 138.527 106.912 138.73 106.688C138.943 106.453 139.183 106.245 139.45 106.064C139.727 105.883 140.026 105.744 140.346 105.648C140.676 105.541 141.012 105.488 141.354 105.488C141.94 105.488 142.436 105.616 142.842 105.872C143.247 106.117 143.551 106.496 143.754 107.008C143.967 107.52 144.074 108.171 144.074 108.96V114H142.842V109.024C142.842 108.469 142.772 108.016 142.634 107.664C142.495 107.312 142.287 107.051 142.01 106.88C141.743 106.699 141.402 106.608 140.986 106.608C140.623 106.608 140.287 106.672 139.978 106.8C139.679 106.917 139.418 107.088 139.194 107.312C138.98 107.525 138.81 107.771 138.682 108.048C138.564 108.325 138.506 108.624 138.506 108.944V114H137.29V109.008C137.29 108.475 137.215 108.032 137.066 107.68C136.927 107.328 136.719 107.061 136.442 106.88C136.164 106.699 135.823 106.608 135.418 106.608C135.066 106.608 134.74 106.672 134.442 106.8C134.143 106.917 133.882 107.083 133.658 107.296C133.444 107.509 133.274 107.755 133.146 108.032C133.028 108.309 132.97 108.608 132.97 108.928V114H131.754ZM149.612 114.16C148.886 114.16 148.23 113.973 147.644 113.6C147.057 113.216 146.593 112.699 146.252 112.048C145.91 111.387 145.74 110.64 145.74 109.808C145.74 108.965 145.916 108.219 146.268 107.568C146.62 106.917 147.089 106.405 147.676 106.032C148.273 105.659 148.94 105.472 149.676 105.472C150.113 105.472 150.518 105.536 150.892 105.664C151.265 105.792 151.596 105.973 151.884 106.208C152.182 106.432 152.428 106.699 152.62 107.008C152.822 107.307 152.961 107.632 153.036 107.984L152.684 107.808L152.732 105.648H153.932V114H152.716V111.952L153.036 111.744C152.961 112.064 152.817 112.373 152.604 112.672C152.39 112.96 152.129 113.216 151.82 113.44C151.521 113.664 151.18 113.84 150.796 113.968C150.422 114.096 150.028 114.16 149.612 114.16ZM149.884 113.008C150.438 113.008 150.934 112.875 151.372 112.608C151.809 112.331 152.15 111.952 152.396 111.472C152.652 110.981 152.78 110.427 152.78 109.808C152.78 109.189 152.652 108.64 152.396 108.16C152.15 107.68 151.809 107.301 151.372 107.024C150.934 106.747 150.438 106.608 149.884 106.608C149.318 106.608 148.817 106.747 148.38 107.024C147.953 107.301 147.612 107.68 147.356 108.16C147.11 108.64 146.988 109.189 146.988 109.808C146.988 110.416 147.11 110.965 147.356 111.456C147.601 111.936 147.942 112.315 148.38 112.592C148.817 112.869 149.318 113.008 149.884 113.008ZM159.87 117.68C159.251 117.68 158.664 117.584 158.11 117.392C157.555 117.2 157.096 116.96 156.734 116.672L157.214 115.664C157.427 115.835 157.672 115.984 157.95 116.112C158.238 116.251 158.547 116.357 158.878 116.432C159.208 116.517 159.544 116.56 159.886 116.56C160.504 116.56 161.027 116.443 161.454 116.208C161.891 115.984 162.222 115.648 162.446 115.2C162.68 114.752 162.798 114.197 162.798 113.536V111.936L162.99 111.888C162.894 112.293 162.686 112.672 162.366 113.024C162.046 113.365 161.656 113.643 161.198 113.856C160.739 114.059 160.254 114.16 159.742 114.16C158.963 114.16 158.264 113.973 157.646 113.6C157.038 113.227 156.558 112.715 156.206 112.064C155.854 111.403 155.678 110.656 155.678 109.824C155.678 108.981 155.854 108.235 156.206 107.584C156.568 106.923 157.054 106.405 157.662 106.032C158.27 105.659 158.952 105.472 159.71 105.472C160.04 105.472 160.36 105.515 160.67 105.6C160.979 105.675 161.262 105.787 161.518 105.936C161.784 106.085 162.024 106.256 162.238 106.448C162.451 106.64 162.627 106.848 162.766 107.072C162.915 107.296 163.022 107.525 163.086 107.76L162.75 107.712L162.798 105.648H163.998V113.488C163.998 114.16 163.902 114.752 163.71 115.264C163.518 115.787 163.235 116.224 162.862 116.576C162.499 116.939 162.062 117.211 161.55 117.392C161.048 117.584 160.488 117.68 159.87 117.68ZM159.886 113.008C160.451 113.008 160.952 112.875 161.39 112.608C161.838 112.331 162.19 111.952 162.446 111.472C162.702 110.992 162.83 110.437 162.83 109.808C162.83 109.189 162.702 108.64 162.446 108.16C162.2 107.68 161.854 107.301 161.406 107.024C160.958 106.747 160.451 106.608 159.886 106.608C159.31 106.608 158.798 106.747 158.35 107.024C157.912 107.301 157.566 107.68 157.31 108.16C157.054 108.64 156.926 109.189 156.926 109.808C156.926 110.416 157.048 110.965 157.294 111.456C157.55 111.936 157.896 112.315 158.334 112.592C158.782 112.869 159.299 113.008 159.886 113.008ZM170.012 114.16C169.18 114.16 168.439 113.979 167.788 113.616C167.148 113.253 166.647 112.747 166.284 112.096C165.921 111.445 165.74 110.699 165.74 109.856C165.74 109.205 165.841 108.619 166.044 108.096C166.247 107.563 166.529 107.099 166.892 106.704C167.265 106.309 167.708 106.005 168.22 105.792C168.732 105.568 169.287 105.456 169.884 105.456C170.449 105.456 170.961 105.557 171.42 105.76C171.889 105.963 172.289 106.245 172.62 106.608C172.961 106.96 173.217 107.381 173.388 107.872C173.559 108.363 173.633 108.901 173.612 109.488L173.596 110.048H166.636L166.46 109.04H172.684L172.396 109.312V108.928C172.375 108.544 172.263 108.176 172.06 107.824C171.857 107.461 171.569 107.168 171.196 106.944C170.833 106.72 170.396 106.608 169.884 106.608C169.287 106.608 168.769 106.731 168.332 106.976C167.895 107.211 167.559 107.563 167.324 108.032C167.089 108.501 166.972 109.083 166.972 109.776C166.972 110.437 167.1 111.013 167.356 111.504C167.612 111.984 167.975 112.357 168.444 112.624C168.924 112.891 169.5 113.024 170.172 113.024C170.567 113.024 170.956 112.96 171.34 112.832C171.735 112.693 172.167 112.427 172.636 112.032L173.26 112.896C173.015 113.141 172.721 113.36 172.38 113.552C172.039 113.733 171.665 113.883 171.26 114C170.855 114.107 170.439 114.16 170.012 114.16ZM175.316 114V105.648H176.5L176.548 107.392L176.356 107.472C176.463 107.109 176.671 106.779 176.98 106.48C177.29 106.181 177.658 105.941 178.084 105.76C178.522 105.568 178.97 105.472 179.428 105.472C180.047 105.472 180.564 105.595 180.98 105.84C181.396 106.085 181.711 106.464 181.924 106.976C182.138 107.488 182.244 108.139 182.244 108.928V114H181.028V108.992C181.028 108.437 180.954 107.984 180.804 107.632C180.666 107.269 180.447 107.003 180.148 106.832C179.85 106.661 179.482 106.581 179.044 106.592C178.682 106.592 178.346 106.656 178.036 106.784C177.727 106.901 177.46 107.067 177.236 107.28C177.012 107.493 176.836 107.739 176.708 108.016C176.58 108.293 176.516 108.592 176.516 108.912V114H175.924C175.85 114 175.764 114 175.668 114C175.572 114 175.455 114 175.316 114ZM187.271 114.16C186.557 114.16 185.917 114.027 185.351 113.76C184.786 113.493 184.338 113.141 184.007 112.704L184.855 111.968C185.165 112.341 185.527 112.624 185.943 112.816C186.37 113.008 186.845 113.104 187.367 113.104C187.634 113.104 187.874 113.077 188.087 113.024C188.301 112.96 188.487 112.869 188.647 112.752C188.807 112.635 188.93 112.496 189.015 112.336C189.101 112.176 189.143 112 189.143 111.808C189.143 111.456 188.989 111.163 188.679 110.928C188.541 110.832 188.343 110.736 188.087 110.64C187.831 110.533 187.522 110.432 187.159 110.336C186.562 110.165 186.066 109.995 185.671 109.824C185.277 109.643 184.967 109.435 184.743 109.2C184.583 109.008 184.461 108.8 184.375 108.576C184.301 108.352 184.263 108.107 184.263 107.84C184.263 107.499 184.333 107.184 184.471 106.896C184.621 106.608 184.823 106.357 185.079 106.144C185.346 105.92 185.655 105.755 186.007 105.648C186.37 105.531 186.759 105.472 187.175 105.472C187.57 105.472 187.959 105.525 188.343 105.632C188.727 105.739 189.085 105.893 189.415 106.096C189.746 106.299 190.029 106.539 190.263 106.816L189.527 107.616C189.325 107.403 189.101 107.211 188.855 107.04C188.61 106.869 188.349 106.736 188.071 106.64C187.805 106.544 187.527 106.496 187.239 106.496C186.983 106.496 186.743 106.528 186.519 106.592C186.306 106.656 186.119 106.747 185.959 106.864C185.81 106.971 185.693 107.104 185.607 107.264C185.533 107.424 185.495 107.6 185.495 107.792C185.495 107.952 185.527 108.096 185.591 108.224C185.655 108.352 185.746 108.464 185.863 108.56C186.013 108.677 186.221 108.789 186.487 108.896C186.765 108.992 187.106 109.093 187.511 109.2C187.981 109.328 188.375 109.461 188.695 109.6C189.026 109.728 189.298 109.883 189.511 110.064C189.799 110.277 190.002 110.523 190.119 110.8C190.247 111.077 190.311 111.392 190.311 111.744C190.311 112.213 190.178 112.629 189.911 112.992C189.655 113.355 189.298 113.643 188.839 113.856C188.381 114.059 187.858 114.16 187.271 114.16ZM199.412 114.16C198.697 114.16 198.057 114.027 197.492 113.76C196.926 113.493 196.478 113.141 196.148 112.704L196.996 111.968C197.305 112.341 197.668 112.624 198.084 112.816C198.51 113.008 198.985 113.104 199.508 113.104C199.774 113.104 200.014 113.077 200.228 113.024C200.441 112.96 200.628 112.869 200.788 112.752C200.948 112.635 201.07 112.496 201.156 112.336C201.241 112.176 201.284 112 201.284 111.808C201.284 111.456 201.129 111.163 200.82 110.928C200.681 110.832 200.484 110.736 200.228 110.64C199.972 110.533 199.662 110.432 199.3 110.336C198.702 110.165 198.206 109.995 197.812 109.824C197.417 109.643 197.108 109.435 196.884 109.2C196.724 109.008 196.601 108.8 196.516 108.576C196.441 108.352 196.404 108.107 196.404 107.84C196.404 107.499 196.473 107.184 196.612 106.896C196.761 106.608 196.964 106.357 197.22 106.144C197.486 105.92 197.796 105.755 198.148 105.648C198.51 105.531 198.9 105.472 199.316 105.472C199.71 105.472 200.1 105.525 200.484 105.632C200.868 105.739 201.225 105.893 201.556 106.096C201.886 106.299 202.169 106.539 202.404 106.816L201.668 107.616C201.465 107.403 201.241 107.211 200.996 107.04C200.75 106.869 200.489 106.736 200.212 106.64C199.945 106.544 199.668 106.496 199.38 106.496C199.124 106.496 198.884 106.528 198.66 106.592C198.446 106.656 198.26 106.747 198.1 106.864C197.95 106.971 197.833 107.104 197.748 107.264C197.673 107.424 197.636 107.6 197.636 107.792C197.636 107.952 197.668 108.096 197.732 108.224C197.796 108.352 197.886 108.464 198.004 108.56C198.153 108.677 198.361 108.789 198.628 108.896C198.905 108.992 199.246 109.093 199.652 109.2C200.121 109.328 200.516 109.461 200.836 109.6C201.166 109.728 201.438 109.883 201.652 110.064C201.94 110.277 202.142 110.523 202.26 110.8C202.388 111.077 202.452 111.392 202.452 111.744C202.452 112.213 202.318 112.629 202.052 112.992C201.796 113.355 201.438 113.643 200.98 113.856C200.521 114.059 199.998 114.16 199.412 114.16ZM208.012 114.16C207.18 114.16 206.439 113.979 205.788 113.616C205.148 113.253 204.647 112.747 204.284 112.096C203.921 111.445 203.74 110.699 203.74 109.856C203.74 109.205 203.841 108.619 204.044 108.096C204.247 107.563 204.529 107.099 204.892 106.704C205.265 106.309 205.708 106.005 206.22 105.792C206.732 105.568 207.287 105.456 207.884 105.456C208.449 105.456 208.961 105.557 209.42 105.76C209.889 105.963 210.289 106.245 210.62 106.608C210.961 106.96 211.217 107.381 211.388 107.872C211.559 108.363 211.633 108.901 211.612 109.488L211.596 110.048H204.636L204.46 109.04H210.684L210.396 109.312V108.928C210.375 108.544 210.263 108.176 210.06 107.824C209.857 107.461 209.569 107.168 209.196 106.944C208.833 106.72 208.396 106.608 207.884 106.608C207.287 106.608 206.769 106.731 206.332 106.976C205.895 107.211 205.559 107.563 205.324 108.032C205.089 108.501 204.972 109.083 204.972 109.776C204.972 110.437 205.1 111.013 205.356 111.504C205.612 111.984 205.975 112.357 206.444 112.624C206.924 112.891 207.5 113.024 208.172 113.024C208.567 113.024 208.956 112.96 209.34 112.832C209.735 112.693 210.167 112.427 210.636 112.032L211.26 112.896C211.015 113.141 210.721 113.36 210.38 113.552C210.039 113.733 209.665 113.883 209.26 114C208.855 114.107 208.439 114.16 208.012 114.16ZM213.316 114V105.648H214.516L214.548 107.872L214.42 107.568C214.538 107.195 214.724 106.848 214.98 106.528C215.247 106.208 215.562 105.952 215.924 105.76C216.287 105.568 216.687 105.472 217.124 105.472C217.306 105.472 217.476 105.488 217.636 105.52C217.796 105.541 217.93 105.573 218.036 105.616L217.7 106.96C217.562 106.896 217.418 106.853 217.268 106.832C217.13 106.8 216.996 106.784 216.868 106.784C216.506 106.784 216.18 106.848 215.892 106.976C215.604 107.104 215.359 107.285 215.156 107.52C214.954 107.744 214.799 108.005 214.692 108.304C214.586 108.603 214.532 108.923 214.532 109.264V114H213.316ZM222.19 114.16C221.464 114.16 220.808 113.973 220.222 113.6C219.635 113.216 219.171 112.699 218.83 112.048C218.488 111.387 218.318 110.64 218.318 109.808C218.318 108.965 218.494 108.219 218.846 107.568C219.198 106.917 219.667 106.405 220.254 106.032C220.851 105.659 221.518 105.472 222.254 105.472C222.691 105.472 223.096 105.536 223.47 105.664C223.843 105.792 224.174 105.973 224.462 106.208C224.76 106.432 225.006 106.699 225.198 107.008C225.4 107.307 225.539 107.632 225.614 107.984L225.262 107.808L225.31 105.648H226.51V114H225.294V111.952L225.614 111.744C225.539 112.064 225.395 112.373 225.182 112.672C224.968 112.96 224.707 113.216 224.398 113.44C224.099 113.664 223.758 113.84 223.374 113.968C223 114.096 222.606 114.16 222.19 114.16ZM222.462 113.008C223.016 113.008 223.512 112.875 223.95 112.608C224.387 112.331 224.728 111.952 224.974 111.472C225.23 110.981 225.358 110.427 225.358 109.808C225.358 109.189 225.23 108.64 224.974 108.16C224.728 107.68 224.387 107.301 223.95 107.024C223.512 106.747 223.016 106.608 222.462 106.608C221.896 106.608 221.395 106.747 220.958 107.024C220.531 107.301 220.19 107.68 219.934 108.16C219.688 108.64 219.566 109.189 219.566 109.808C219.566 110.416 219.688 110.965 219.934 111.456C220.179 111.936 220.52 112.315 220.958 112.592C221.395 112.869 221.896 113.008 222.462 113.008ZM223.662 104.192C223.438 104.192 223.24 104.144 223.07 104.048C222.91 103.952 222.723 103.808 222.51 103.616C222.36 103.477 222.232 103.376 222.126 103.312C222.03 103.248 221.928 103.216 221.822 103.216C221.64 103.216 221.486 103.296 221.358 103.456C221.23 103.605 221.144 103.835 221.102 104.144L220.238 104.032C220.28 103.552 220.451 103.147 220.75 102.816C221.048 102.475 221.432 102.304 221.902 102.304C222.104 102.304 222.286 102.347 222.446 102.432C222.606 102.517 222.792 102.656 223.006 102.848C223.166 102.976 223.294 103.077 223.39 103.152C223.486 103.227 223.592 103.264 223.71 103.264C223.87 103.264 224.003 103.189 224.11 103.04C224.227 102.891 224.302 102.688 224.334 102.432L225.214 102.544C225.192 102.843 225.112 103.12 224.974 103.376C224.846 103.621 224.67 103.819 224.446 103.968C224.222 104.117 223.96 104.192 223.662 104.192ZM232.544 114.16C231.712 114.16 230.97 113.973 230.32 113.6C229.68 113.227 229.173 112.709 228.8 112.048C228.437 111.387 228.256 110.635 228.256 109.792C228.256 108.96 228.437 108.219 228.8 107.568C229.173 106.917 229.68 106.405 230.32 106.032C230.97 105.659 231.712 105.472 232.544 105.472C233.365 105.472 234.096 105.659 234.736 106.032C235.386 106.405 235.893 106.917 236.256 107.568C236.629 108.219 236.816 108.96 236.816 109.792C236.816 110.635 236.629 111.387 236.256 112.048C235.893 112.709 235.386 113.227 234.736 113.6C234.096 113.973 233.365 114.16 232.544 114.16ZM232.544 113.024C233.13 113.024 233.653 112.885 234.112 112.608C234.57 112.32 234.928 111.936 235.184 111.456C235.44 110.965 235.568 110.411 235.568 109.792C235.568 109.173 235.44 108.624 235.184 108.144C234.928 107.664 234.57 107.291 234.112 107.024C233.653 106.747 233.13 106.608 232.544 106.608C231.957 106.608 231.429 106.747 230.96 107.024C230.501 107.291 230.138 107.669 229.872 108.16C229.616 108.64 229.493 109.184 229.504 109.792C229.493 110.411 229.616 110.965 229.872 111.456C230.138 111.936 230.501 112.32 230.96 112.608C231.429 112.885 231.957 113.024 232.544 113.024ZM4.09606 134.16C3.37073 134.16 2.71473 133.973 2.12806 133.6C1.5414 133.216 1.0774 132.699 0.736063 132.048C0.394729 131.387 0.224063 130.64 0.224063 129.808C0.224063 128.965 0.400063 128.219 0.752063 127.568C1.10406 126.917 1.5734 126.405 2.16006 126.032C2.7574 125.659 3.42406 125.472 4.16006 125.472C4.5974 125.472 5.00273 125.536 5.37606 125.664C5.7494 125.792 6.08006 125.973 6.36806 126.208C6.66673 126.432 6.91206 126.699 7.10406 127.008C7.30673 127.307 7.4454 127.632 7.52006 127.984L7.16806 127.808L7.21606 125.648H8.41606V134H7.20006V131.952L7.52006 131.744C7.4454 132.064 7.3014 132.373 7.08806 132.672C6.87473 132.96 6.6134 133.216 6.30406 133.44C6.0054 133.664 5.66406 133.84 5.28006 133.968C4.90673 134.096 4.51206 134.16 4.09606 134.16ZM4.36806 133.008C4.92273 133.008 5.41873 132.875 5.85606 132.608C6.2934 132.331 6.63473 131.952 6.88006 131.472C7.13606 130.981 7.26406 130.427 7.26406 129.808C7.26406 129.189 7.13606 128.64 6.88006 128.16C6.63473 127.68 6.2934 127.301 5.85606 127.024C5.41873 126.747 4.92273 126.608 4.36806 126.608C3.80273 126.608 3.3014 126.747 2.86406 127.024C2.4374 127.301 2.09606 127.68 1.84006 128.16C1.59473 128.64 1.47206 129.189 1.47206 129.808C1.47206 130.416 1.59473 130.965 1.84006 131.456C2.0854 131.936 2.42673 132.315 2.86406 132.592C3.3014 132.869 3.80273 133.008 4.36806 133.008ZM13.1584 134L9.63844 125.648H10.9664L13.7504 132.48L13.4304 132.656L16.4864 125.648H17.7664L14.0224 134H13.1584ZM22.2054 134.16C21.4801 134.16 20.8241 133.973 20.2374 133.6C19.6508 133.216 19.1868 132.699 18.8454 132.048C18.5041 131.387 18.3334 130.64 18.3334 129.808C18.3334 128.965 18.5094 128.219 18.8614 127.568C19.2134 126.917 19.6828 126.405 20.2694 126.032C20.8668 125.659 21.5334 125.472 22.2694 125.472C22.7068 125.472 23.1121 125.536 23.4854 125.664C23.8588 125.792 24.1894 125.973 24.4774 126.208C24.7761 126.432 25.0214 126.699 25.2134 127.008C25.4161 127.307 25.5548 127.632 25.6294 127.984L25.2774 127.808L25.3254 125.648H26.5254V134H25.3094V131.952L25.6294 131.744C25.5548 132.064 25.4108 132.373 25.1974 132.672C24.9841 132.96 24.7228 133.216 24.4134 133.44C24.1148 133.664 23.7734 133.84 23.3894 133.968C23.0161 134.096 22.6214 134.16 22.2054 134.16ZM22.4774 133.008C23.0321 133.008 23.5281 132.875 23.9654 132.608C24.4028 132.331 24.7441 131.952 24.9894 131.472C25.2454 130.981 25.3734 130.427 25.3734 129.808C25.3734 129.189 25.2454 128.64 24.9894 128.16C24.7441 127.68 24.4028 127.301 23.9654 127.024C23.5281 126.747 23.0321 126.608 22.4774 126.608C21.9121 126.608 21.4108 126.747 20.9734 127.024C20.5468 127.301 20.2054 127.68 19.9494 128.16C19.7041 128.64 19.5814 129.189 19.5814 129.808C19.5814 130.416 19.7041 130.965 19.9494 131.456C20.1948 131.936 20.5361 132.315 20.9734 132.592C21.4108 132.869 21.9121 133.008 22.4774 133.008ZM28.8953 134V122.16H30.0953V134H28.8953ZM32.7771 134V125.648H33.9771V134H32.7771ZM33.3691 123.84C33.0704 123.84 32.8411 123.765 32.6811 123.616C32.5317 123.456 32.4571 123.243 32.4571 122.976C32.4571 122.709 32.5371 122.496 32.6971 122.336C32.8571 122.176 33.0811 122.096 33.3691 122.096C33.6571 122.096 33.8811 122.176 34.0411 122.336C34.2011 122.485 34.2811 122.699 34.2811 122.976C34.2811 123.232 34.2011 123.44 34.0411 123.6C33.8811 123.76 33.6571 123.84 33.3691 123.84ZM39.8617 134.16C39.1364 134.16 38.4804 133.973 37.8937 133.6C37.307 133.216 36.843 132.699 36.5017 132.048C36.1604 131.387 35.9897 130.64 35.9897 129.808C35.9897 128.965 36.1657 128.219 36.5177 127.568C36.8697 126.917 37.339 126.405 37.9257 126.032C38.523 125.659 39.1897 125.472 39.9257 125.472C40.363 125.472 40.7684 125.536 41.1417 125.664C41.515 125.792 41.8457 125.973 42.1337 126.208C42.4324 126.432 42.6777 126.699 42.8697 127.008C43.0724 127.307 43.211 127.632 43.2857 127.984L42.9337 127.808L42.9817 125.648H44.1817V134H42.9657V131.952L43.2857 131.744C43.211 132.064 43.067 132.373 42.8537 132.672C42.6404 132.96 42.379 133.216 42.0697 133.44C41.771 133.664 41.4297 133.84 41.0457 133.968C40.6724 134.096 40.2777 134.16 39.8617 134.16ZM40.1337 133.008C40.6884 133.008 41.1844 132.875 41.6217 132.608C42.059 132.331 42.4004 131.952 42.6457 131.472C42.9017 130.981 43.0297 130.427 43.0297 129.808C43.0297 129.189 42.9017 128.64 42.6457 128.16C42.4004 127.68 42.059 127.301 41.6217 127.024C41.1844 126.747 40.6884 126.608 40.1337 126.608C39.5684 126.608 39.067 126.747 38.6297 127.024C38.203 127.301 37.8617 127.68 37.6057 128.16C37.3604 128.64 37.2377 129.189 37.2377 129.808C37.2377 130.416 37.3604 130.965 37.6057 131.456C37.851 131.936 38.1924 132.315 38.6297 132.592C39.067 132.869 39.5684 133.008 40.1337 133.008ZM49.9116 134.16C49.1542 134.16 48.4716 133.973 47.8636 133.6C47.2662 133.227 46.7916 132.715 46.4396 132.064C46.0982 131.403 45.9276 130.656 45.9276 129.824C45.9276 128.981 46.1036 128.235 46.4556 127.584C46.8076 126.923 47.2822 126.405 47.8796 126.032C48.4769 125.659 49.1489 125.472 49.8956 125.472C50.3116 125.472 50.7116 125.536 51.0956 125.664C51.4902 125.792 51.8422 125.973 52.1516 126.208C52.4609 126.432 52.7169 126.693 52.9196 126.992C53.1222 127.28 53.2449 127.584 53.2876 127.904L52.9196 127.776V122.16H54.1196V134H52.9356L52.9036 131.92L53.2076 131.808C53.1649 132.107 53.0422 132.4 52.8396 132.688C52.6476 132.965 52.4022 133.216 52.1036 133.44C51.8049 133.664 51.4636 133.84 51.0796 133.968C50.7062 134.096 50.3169 134.16 49.9116 134.16ZM50.0876 133.056C50.6422 133.056 51.1382 132.917 51.5756 132.64C52.0129 132.363 52.3542 131.979 52.5996 131.488C52.8556 130.997 52.9836 130.437 52.9836 129.808C52.9836 129.179 52.8556 128.624 52.5996 128.144C52.3542 127.653 52.0129 127.269 51.5756 126.992C51.1382 126.704 50.6422 126.56 50.0876 126.56C49.5116 126.56 49.0049 126.704 48.5676 126.992C48.1409 127.269 47.7996 127.653 47.5436 128.144C47.2982 128.624 47.1756 129.179 47.1756 129.808C47.1756 130.427 47.2982 130.981 47.5436 131.472C47.7889 131.963 48.1302 132.352 48.5676 132.64C49.0049 132.917 49.5116 133.056 50.0876 133.056ZM59.7211 134.16C58.9957 134.16 58.3397 133.973 57.7531 133.6C57.1664 133.216 56.7024 132.699 56.3611 132.048C56.0197 131.387 55.8491 130.64 55.8491 129.808C55.8491 128.965 56.0251 128.219 56.3771 127.568C56.7291 126.917 57.1984 126.405 57.7851 126.032C58.3824 125.659 59.0491 125.472 59.7851 125.472C60.2224 125.472 60.6277 125.536 61.0011 125.664C61.3744 125.792 61.7051 125.973 61.9931 126.208C62.2917 126.432 62.5371 126.699 62.7291 127.008C62.9317 127.307 63.0704 127.632 63.1451 127.984L62.7931 127.808L62.8411 125.648H64.0411V134H62.8251V131.952L63.1451 131.744C63.0704 132.064 62.9264 132.373 62.7131 132.672C62.4997 132.96 62.2384 133.216 61.9291 133.44C61.6304 133.664 61.2891 133.84 60.9051 133.968C60.5317 134.096 60.1371 134.16 59.7211 134.16ZM59.9931 133.008C60.5477 133.008 61.0437 132.875 61.4811 132.608C61.9184 132.331 62.2597 131.952 62.5051 131.472C62.7611 130.981 62.8891 130.427 62.8891 129.808C62.8891 129.189 62.7611 128.64 62.5051 128.16C62.2597 127.68 61.9184 127.301 61.4811 127.024C61.0437 126.747 60.5477 126.608 59.9931 126.608C59.4277 126.608 58.9264 126.747 58.4891 127.024C58.0624 127.301 57.7211 127.68 57.4651 128.16C57.2197 128.64 57.0971 129.189 57.0971 129.808C57.0971 130.416 57.2197 130.965 57.4651 131.456C57.7104 131.936 58.0517 132.315 58.4891 132.592C58.9264 132.869 59.4277 133.008 59.9931 133.008ZM69.1149 134.16C68.4003 134.16 67.7603 134.027 67.1949 133.76C66.6296 133.493 66.1816 133.141 65.8509 132.704L66.6989 131.968C67.0083 132.341 67.3709 132.624 67.7869 132.816C68.2136 133.008 68.6883 133.104 69.2109 133.104C69.4776 133.104 69.7176 133.077 69.9309 133.024C70.1443 132.96 70.3309 132.869 70.4909 132.752C70.6509 132.635 70.7736 132.496 70.8589 132.336C70.9443 132.176 70.9869 132 70.9869 131.808C70.9869 131.456 70.8323 131.163 70.5229 130.928C70.3843 130.832 70.1869 130.736 69.9309 130.64C69.6749 130.533 69.3656 130.432 69.0029 130.336C68.4056 130.165 67.9096 129.995 67.5149 129.824C67.1203 129.643 66.8109 129.435 66.5869 129.2C66.4269 129.008 66.3043 128.8 66.2189 128.576C66.1443 128.352 66.1069 128.107 66.1069 127.84C66.1069 127.499 66.1763 127.184 66.3149 126.896C66.4643 126.608 66.6669 126.357 66.9229 126.144C67.1896 125.92 67.4989 125.755 67.8509 125.648C68.2136 125.531 68.6029 125.472 69.0189 125.472C69.4136 125.472 69.8029 125.525 70.1869 125.632C70.5709 125.739 70.9283 125.893 71.2589 126.096C71.5896 126.299 71.8723 126.539 72.1069 126.816L71.3709 127.616C71.1683 127.403 70.9443 127.211 70.6989 127.04C70.4536 126.869 70.1923 126.736 69.9149 126.64C69.6483 126.544 69.3709 126.496 69.0829 126.496C68.8269 126.496 68.5869 126.528 68.3629 126.592C68.1496 126.656 67.9629 126.747 67.8029 126.864C67.6536 126.971 67.5363 127.104 67.4509 127.264C67.3763 127.424 67.3389 127.6 67.3389 127.792C67.3389 127.952 67.3709 128.096 67.4349 128.224C67.4989 128.352 67.5896 128.464 67.7069 128.56C67.8563 128.677 68.0643 128.789 68.3309 128.896C68.6083 128.992 68.9496 129.093 69.3549 129.2C69.8243 129.328 70.2189 129.461 70.5389 129.6C70.8696 129.728 71.1416 129.883 71.3549 130.064C71.6429 130.277 71.8456 130.523 71.9629 130.8C72.0909 131.077 72.1549 131.392 72.1549 131.744C72.1549 132.213 72.0216 132.629 71.7549 132.992C71.4989 133.355 71.1416 133.643 70.6829 133.856C70.2243 134.059 69.7016 134.16 69.1149 134.16ZM82.1996 134.16C81.3676 134.16 80.6262 133.979 79.9756 133.616C79.3356 133.253 78.8342 132.747 78.4716 132.096C78.1089 131.445 77.9276 130.699 77.9276 129.856C77.9276 129.205 78.0289 128.619 78.2316 128.096C78.4342 127.563 78.7169 127.099 79.0796 126.704C79.4529 126.309 79.8956 126.005 80.4076 125.792C80.9196 125.568 81.4742 125.456 82.0716 125.456C82.6369 125.456 83.1489 125.557 83.6076 125.76C84.0769 125.963 84.4769 126.245 84.8076 126.608C85.1489 126.96 85.4049 127.381 85.5756 127.872C85.7462 128.363 85.8209 128.901 85.7996 129.488L85.7836 130.048H78.8236L78.6476 129.04H84.8716L84.5836 129.312V128.928C84.5622 128.544 84.4502 128.176 84.2476 127.824C84.0449 127.461 83.7569 127.168 83.3836 126.944C83.0209 126.72 82.5836 126.608 82.0716 126.608C81.4742 126.608 80.9569 126.731 80.5196 126.976C80.0822 127.211 79.7462 127.563 79.5116 128.032C79.2769 128.501 79.1596 129.083 79.1596 129.776C79.1596 130.437 79.2876 131.013 79.5436 131.504C79.7996 131.984 80.1622 132.357 80.6316 132.624C81.1116 132.891 81.6876 133.024 82.3596 133.024C82.7542 133.024 83.1436 132.96 83.5276 132.832C83.9222 132.693 84.3542 132.427 84.8236 132.032L85.4476 132.896C85.2022 133.141 84.9089 133.36 84.5676 133.552C84.2262 133.733 83.8529 133.883 83.4476 134C83.0422 134.107 82.6262 134.16 82.1996 134.16ZM91.9883 137.52V125.648H93.1883L93.2203 127.68L92.9963 127.712C93.0923 127.307 93.3003 126.939 93.6203 126.608C93.9403 126.267 94.3296 125.995 94.7883 125.792C95.247 125.589 95.7323 125.488 96.2443 125.488C96.991 125.488 97.6576 125.675 98.2443 126.048C98.8416 126.421 99.3163 126.933 99.6683 127.584C100.02 128.235 100.196 128.981 100.196 129.824C100.196 130.656 100.026 131.397 99.6843 132.048C99.343 132.699 98.8736 133.216 98.2763 133.6C97.679 133.973 97.007 134.16 96.2603 134.16C95.7376 134.16 95.2416 134.053 94.7723 133.84C94.303 133.627 93.903 133.349 93.5723 133.008C93.2416 132.656 93.023 132.277 92.9163 131.872H93.2043V137.52H91.9883ZM96.0683 133.008C96.6336 133.008 97.135 132.869 97.5723 132.592C98.0096 132.315 98.3563 131.936 98.6123 131.456C98.8683 130.976 98.9963 130.432 98.9963 129.824C98.9963 129.205 98.8683 128.656 98.6123 128.176C98.3563 127.696 98.0096 127.317 97.5723 127.04C97.135 126.763 96.6336 126.624 96.0683 126.624C95.503 126.624 94.9963 126.763 94.5483 127.04C94.111 127.307 93.7643 127.68 93.5083 128.16C93.2523 128.64 93.1243 129.189 93.1243 129.808C93.1243 130.427 93.2523 130.976 93.5083 131.456C93.7643 131.936 94.111 132.315 94.5483 132.592C94.9963 132.869 95.503 133.008 96.0683 133.008ZM105.637 134.16C104.805 134.16 104.064 133.973 103.413 133.6C102.773 133.227 102.267 132.709 101.893 132.048C101.531 131.387 101.349 130.635 101.349 129.792C101.349 128.96 101.531 128.219 101.893 127.568C102.267 126.917 102.773 126.405 103.413 126.032C104.064 125.659 104.805 125.472 105.637 125.472C106.459 125.472 107.189 125.659 107.829 126.032C108.48 126.405 108.987 126.917 109.349 127.568C109.723 128.219 109.909 128.96 109.909 129.792C109.909 130.635 109.723 131.387 109.349 132.048C108.987 132.709 108.48 133.227 107.829 133.6C107.189 133.973 106.459 134.16 105.637 134.16ZM105.637 133.024C106.224 133.024 106.747 132.885 107.205 132.608C107.664 132.32 108.021 131.936 108.277 131.456C108.533 130.965 108.661 130.411 108.661 129.792C108.661 129.173 108.533 128.624 108.277 128.144C108.021 127.664 107.664 127.291 107.205 127.024C106.747 126.747 106.224 126.608 105.637 126.608C105.051 126.608 104.523 126.747 104.053 127.024C103.595 127.291 103.232 127.669 102.965 128.16C102.709 128.64 102.587 129.184 102.597 129.792C102.587 130.411 102.709 130.965 102.965 131.456C103.232 131.936 103.595 132.32 104.053 132.608C104.523 132.885 105.051 133.024 105.637 133.024ZM115.052 134.16C114.295 134.16 113.612 133.973 113.004 133.6C112.407 133.227 111.932 132.715 111.58 132.064C111.239 131.403 111.068 130.656 111.068 129.824C111.068 128.981 111.244 128.235 111.596 127.584C111.948 126.923 112.423 126.405 113.02 126.032C113.618 125.659 114.29 125.472 115.036 125.472C115.452 125.472 115.852 125.536 116.236 125.664C116.631 125.792 116.983 125.973 117.292 126.208C117.602 126.432 117.858 126.693 118.06 126.992C118.263 127.28 118.386 127.584 118.428 127.904L118.06 127.776V122.16H119.26V134H118.076L118.044 131.92L118.348 131.808C118.306 132.107 118.183 132.4 117.98 132.688C117.788 132.965 117.543 133.216 117.244 133.44C116.946 133.664 116.604 133.84 116.22 133.968C115.847 134.096 115.458 134.16 115.052 134.16ZM115.228 133.056C115.783 133.056 116.279 132.917 116.716 132.64C117.154 132.363 117.495 131.979 117.74 131.488C117.996 130.997 118.124 130.437 118.124 129.808C118.124 129.179 117.996 128.624 117.74 128.144C117.495 127.653 117.154 127.269 116.716 126.992C116.279 126.704 115.783 126.56 115.228 126.56C114.652 126.56 114.146 126.704 113.708 126.992C113.282 127.269 112.94 127.653 112.684 128.144C112.439 128.624 112.316 129.179 112.316 129.808C112.316 130.427 112.439 130.981 112.684 131.472C112.93 131.963 113.271 132.352 113.708 132.64C114.146 132.917 114.652 133.056 115.228 133.056ZM125.278 134.16C124.446 134.16 123.704 133.979 123.054 133.616C122.414 133.253 121.912 132.747 121.55 132.096C121.187 131.445 121.006 130.699 121.006 129.856C121.006 129.205 121.107 128.619 121.31 128.096C121.512 127.563 121.795 127.099 122.158 126.704C122.531 126.309 122.974 126.005 123.486 125.792C123.998 125.568 124.552 125.456 125.15 125.456C125.715 125.456 126.227 125.557 126.686 125.76C127.155 125.963 127.555 126.245 127.886 126.608C128.227 126.96 128.483 127.381 128.654 127.872C128.824 128.363 128.899 128.901 128.878 129.488L128.862 130.048H121.902L121.726 129.04H127.95L127.662 129.312V128.928C127.64 128.544 127.528 128.176 127.326 127.824C127.123 127.461 126.835 127.168 126.462 126.944C126.099 126.72 125.662 126.608 125.15 126.608C124.552 126.608 124.035 126.731 123.598 126.976C123.16 127.211 122.824 127.563 122.59 128.032C122.355 128.501 122.238 129.083 122.238 129.776C122.238 130.437 122.366 131.013 122.622 131.504C122.878 131.984 123.24 132.357 123.71 132.624C124.19 132.891 124.766 133.024 125.438 133.024C125.832 133.024 126.222 132.96 126.606 132.832C127 132.693 127.432 132.427 127.902 132.032L128.526 132.896C128.28 133.141 127.987 133.36 127.646 133.552C127.304 133.733 126.931 133.883 126.526 134C126.12 134.107 125.704 134.16 125.278 134.16ZM130.582 134V125.648H131.782L131.814 127.872L131.686 127.568C131.803 127.195 131.99 126.848 132.246 126.528C132.513 126.208 132.827 125.952 133.19 125.76C133.553 125.568 133.953 125.472 134.39 125.472C134.571 125.472 134.742 125.488 134.902 125.52C135.062 125.541 135.195 125.573 135.302 125.616L134.966 126.96C134.827 126.896 134.683 126.853 134.534 126.832C134.395 126.8 134.262 126.784 134.134 126.784C133.771 126.784 133.446 126.848 133.158 126.976C132.87 127.104 132.625 127.285 132.422 127.52C132.219 127.744 132.065 128.005 131.958 128.304C131.851 128.603 131.798 128.923 131.798 129.264V134H130.582ZM139.455 134.16C138.73 134.16 138.074 133.973 137.487 133.6C136.901 133.216 136.437 132.699 136.095 132.048C135.754 131.387 135.583 130.64 135.583 129.808C135.583 128.965 135.759 128.219 136.111 127.568C136.463 126.917 136.933 126.405 137.519 126.032C138.117 125.659 138.783 125.472 139.519 125.472C139.957 125.472 140.362 125.536 140.735 125.664C141.109 125.792 141.439 125.973 141.727 126.208C142.026 126.432 142.271 126.699 142.463 127.008C142.666 127.307 142.805 127.632 142.879 127.984L142.527 127.808L142.575 125.648H143.775V134H142.559V131.952L142.879 131.744C142.805 132.064 142.661 132.373 142.447 132.672C142.234 132.96 141.973 133.216 141.663 133.44C141.365 133.664 141.023 133.84 140.639 133.968C140.266 134.096 139.871 134.16 139.455 134.16ZM139.727 133.008C140.282 133.008 140.778 132.875 141.215 132.608C141.653 132.331 141.994 131.952 142.239 131.472C142.495 130.981 142.623 130.427 142.623 129.808C142.623 129.189 142.495 128.64 142.239 128.16C141.994 127.68 141.653 127.301 141.215 127.024C140.778 126.747 140.282 126.608 139.727 126.608C139.162 126.608 138.661 126.747 138.223 127.024C137.797 127.301 137.455 127.68 137.199 128.16C136.954 128.64 136.831 129.189 136.831 129.808C136.831 130.416 136.954 130.965 137.199 131.456C137.445 131.936 137.786 132.315 138.223 132.592C138.661 132.869 139.162 133.008 139.727 133.008ZM140.927 124.192C140.703 124.192 140.506 124.144 140.335 124.048C140.175 123.952 139.989 123.808 139.775 123.616C139.626 123.477 139.498 123.376 139.391 123.312C139.295 123.248 139.194 123.216 139.087 123.216C138.906 123.216 138.751 123.296 138.623 123.456C138.495 123.605 138.41 123.835 138.367 124.144L137.503 124.032C137.546 123.552 137.717 123.147 138.015 122.816C138.314 122.475 138.698 122.304 139.167 122.304C139.37 122.304 139.551 122.347 139.711 122.432C139.871 122.517 140.058 122.656 140.271 122.848C140.431 122.976 140.559 123.077 140.655 123.152C140.751 123.227 140.858 123.264 140.975 123.264C141.135 123.264 141.269 123.189 141.375 123.04C141.493 122.891 141.567 122.688 141.599 122.432L142.479 122.544C142.458 122.843 142.378 123.12 142.239 123.376C142.111 123.621 141.935 123.819 141.711 123.968C141.487 124.117 141.226 124.192 140.927 124.192ZM149.809 134.16C148.977 134.16 148.236 133.973 147.585 133.6C146.945 133.227 146.439 132.709 146.065 132.048C145.703 131.387 145.521 130.635 145.521 129.792C145.521 128.96 145.703 128.219 146.065 127.568C146.439 126.917 146.945 126.405 147.585 126.032C148.236 125.659 148.977 125.472 149.809 125.472C150.631 125.472 151.361 125.659 152.001 126.032C152.652 126.405 153.159 126.917 153.521 127.568C153.895 128.219 154.081 128.96 154.081 129.792C154.081 130.635 153.895 131.387 153.521 132.048C153.159 132.709 152.652 133.227 152.001 133.6C151.361 133.973 150.631 134.16 149.809 134.16ZM149.809 133.024C150.396 133.024 150.919 132.885 151.377 132.608C151.836 132.32 152.193 131.936 152.449 131.456C152.705 130.965 152.833 130.411 152.833 129.792C152.833 129.173 152.705 128.624 152.449 128.144C152.193 127.664 151.836 127.291 151.377 127.024C150.919 126.747 150.396 126.608 149.809 126.608C149.223 126.608 148.695 126.747 148.225 127.024C147.767 127.291 147.404 127.669 147.137 128.16C146.881 128.64 146.759 129.184 146.769 129.792C146.759 130.411 146.881 130.965 147.137 131.456C147.404 131.936 147.767 132.32 148.225 132.608C148.695 132.885 149.223 133.024 149.809 133.024ZM163.58 134.16C162.855 134.16 162.199 133.973 161.612 133.6C161.026 133.216 160.562 132.699 160.22 132.048C159.879 131.387 159.708 130.64 159.708 129.808C159.708 128.965 159.884 128.219 160.236 127.568C160.588 126.917 161.058 126.405 161.644 126.032C162.242 125.659 162.908 125.472 163.644 125.472C164.082 125.472 164.487 125.536 164.86 125.664C165.234 125.792 165.564 125.973 165.852 126.208C166.151 126.432 166.396 126.699 166.588 127.008C166.791 127.307 166.93 127.632 167.004 127.984L166.652 127.808L166.7 125.648H167.9V134H166.684V131.952L167.004 131.744C166.93 132.064 166.786 132.373 166.572 132.672C166.359 132.96 166.098 133.216 165.788 133.44C165.49 133.664 165.148 133.84 164.764 133.968C164.391 134.096 163.996 134.16 163.58 134.16ZM163.852 133.008C164.407 133.008 164.903 132.875 165.34 132.608C165.778 132.331 166.119 131.952 166.364 131.472C166.62 130.981 166.748 130.427 166.748 129.808C166.748 129.189 166.62 128.64 166.364 128.16C166.119 127.68 165.778 127.301 165.34 127.024C164.903 126.747 164.407 126.608 163.852 126.608C163.287 126.608 162.786 126.747 162.348 127.024C161.922 127.301 161.58 127.68 161.324 128.16C161.079 128.64 160.956 129.189 160.956 129.808C160.956 130.416 161.079 130.965 161.324 131.456C161.57 131.936 161.911 132.315 162.348 132.592C162.786 132.869 163.287 133.008 163.852 133.008ZM170.238 137.52V125.648H171.438L171.47 127.68L171.246 127.712C171.342 127.307 171.55 126.939 171.87 126.608C172.19 126.267 172.58 125.995 173.038 125.792C173.497 125.589 173.982 125.488 174.494 125.488C175.241 125.488 175.908 125.675 176.494 126.048C177.092 126.421 177.566 126.933 177.918 127.584C178.27 128.235 178.446 128.981 178.446 129.824C178.446 130.656 178.276 131.397 177.934 132.048C177.593 132.699 177.124 133.216 176.526 133.6C175.929 133.973 175.257 134.16 174.51 134.16C173.988 134.16 173.492 134.053 173.022 133.84C172.553 133.627 172.153 133.349 171.822 133.008C171.492 132.656 171.273 132.277 171.166 131.872H171.454V137.52H170.238ZM174.318 133.008C174.884 133.008 175.385 132.869 175.822 132.592C176.26 132.315 176.606 131.936 176.862 131.456C177.118 130.976 177.246 130.432 177.246 129.824C177.246 129.205 177.118 128.656 176.862 128.176C176.606 127.696 176.26 127.317 175.822 127.04C175.385 126.763 174.884 126.624 174.318 126.624C173.753 126.624 173.246 126.763 172.798 127.04C172.361 127.307 172.014 127.68 171.758 128.16C171.502 128.64 171.374 129.189 171.374 129.808C171.374 130.427 171.502 130.976 171.758 131.456C172.014 131.936 172.361 132.315 172.798 132.592C173.246 132.869 173.753 133.008 174.318 133.008ZM183.455 134.16C182.73 134.16 182.074 133.973 181.487 133.6C180.901 133.216 180.437 132.699 180.095 132.048C179.754 131.387 179.583 130.64 179.583 129.808C179.583 128.965 179.759 128.219 180.111 127.568C180.463 126.917 180.933 126.405 181.519 126.032C182.117 125.659 182.783 125.472 183.519 125.472C183.957 125.472 184.362 125.536 184.735 125.664C185.109 125.792 185.439 125.973 185.727 126.208C186.026 126.432 186.271 126.699 186.463 127.008C186.666 127.307 186.805 127.632 186.879 127.984L186.527 127.808L186.575 125.648H187.775V134H186.559V131.952L186.879 131.744C186.805 132.064 186.661 132.373 186.447 132.672C186.234 132.96 185.973 133.216 185.663 133.44C185.365 133.664 185.023 133.84 184.639 133.968C184.266 134.096 183.871 134.16 183.455 134.16ZM183.727 133.008C184.282 133.008 184.778 132.875 185.215 132.608C185.653 132.331 185.994 131.952 186.239 131.472C186.495 130.981 186.623 130.427 186.623 129.808C186.623 129.189 186.495 128.64 186.239 128.16C185.994 127.68 185.653 127.301 185.215 127.024C184.778 126.747 184.282 126.608 183.727 126.608C183.162 126.608 182.661 126.747 182.223 127.024C181.797 127.301 181.455 127.68 181.199 128.16C180.954 128.64 180.831 129.189 180.831 129.808C180.831 130.416 180.954 130.965 181.199 131.456C181.445 131.936 181.786 132.315 182.223 132.592C182.661 132.869 183.162 133.008 183.727 133.008ZM190.113 134V125.648H191.313L191.345 127.872L191.217 127.568C191.335 127.195 191.521 126.848 191.777 126.528C192.044 126.208 192.359 125.952 192.721 125.76C193.084 125.568 193.484 125.472 193.921 125.472C194.103 125.472 194.273 125.488 194.433 125.52C194.593 125.541 194.727 125.573 194.833 125.616L194.497 126.96C194.359 126.896 194.215 126.853 194.065 126.832C193.927 126.8 193.793 126.784 193.665 126.784C193.303 126.784 192.977 126.848 192.689 126.976C192.401 127.104 192.156 127.285 191.953 127.52C191.751 127.744 191.596 128.005 191.489 128.304C191.383 128.603 191.329 128.923 191.329 129.264V134H190.113ZM199.403 134.16C198.571 134.16 197.829 133.979 197.179 133.616C196.539 133.253 196.037 132.747 195.675 132.096C195.312 131.445 195.131 130.699 195.131 129.856C195.131 129.205 195.232 128.619 195.435 128.096C195.637 127.563 195.92 127.099 196.283 126.704C196.656 126.309 197.099 126.005 197.611 125.792C198.123 125.568 198.677 125.456 199.275 125.456C199.84 125.456 200.352 125.557 200.811 125.76C201.28 125.963 201.68 126.245 202.011 126.608C202.352 126.96 202.608 127.381 202.779 127.872C202.949 128.363 203.024 128.901 203.003 129.488L202.987 130.048H196.027L195.851 129.04H202.075L201.787 129.312V128.928C201.765 128.544 201.653 128.176 201.451 127.824C201.248 127.461 200.96 127.168 200.587 126.944C200.224 126.72 199.787 126.608 199.275 126.608C198.677 126.608 198.16 126.731 197.723 126.976C197.285 127.211 196.949 127.563 196.715 128.032C196.48 128.501 196.363 129.083 196.363 129.776C196.363 130.437 196.491 131.013 196.747 131.504C197.003 131.984 197.365 132.357 197.835 132.624C198.315 132.891 198.891 133.024 199.563 133.024C199.957 133.024 200.347 132.96 200.731 132.832C201.125 132.693 201.557 132.427 202.027 132.032L202.651 132.896C202.405 133.141 202.112 133.36 201.771 133.552C201.429 133.733 201.056 133.883 200.651 134C200.245 134.107 199.829 134.16 199.403 134.16ZM208.227 134.16C207.438 134.16 206.734 133.973 206.115 133.6C205.496 133.216 205.006 132.699 204.643 132.048C204.291 131.387 204.115 130.64 204.115 129.808C204.115 128.976 204.291 128.235 204.643 127.584C205.006 126.923 205.496 126.405 206.115 126.032C206.734 125.659 207.443 125.472 208.243 125.472C208.958 125.472 209.608 125.616 210.195 125.904C210.782 126.181 211.251 126.571 211.603 127.072L210.899 127.936C210.696 127.669 210.451 127.435 210.163 127.232C209.886 127.029 209.582 126.875 209.251 126.768C208.931 126.651 208.611 126.592 208.291 126.592C207.726 126.592 207.219 126.736 206.771 127.024C206.323 127.301 205.966 127.68 205.699 128.16C205.443 128.64 205.315 129.189 205.315 129.808C205.315 130.427 205.443 130.981 205.699 131.472C205.966 131.952 206.323 132.331 206.771 132.608C207.219 132.885 207.72 133.024 208.275 133.024C208.595 133.024 208.91 132.976 209.219 132.88C209.528 132.773 209.822 132.624 210.099 132.432C210.376 132.24 210.632 132 210.867 131.712L211.571 132.576C211.208 133.056 210.723 133.44 210.115 133.728C209.507 134.016 208.878 134.16 208.227 134.16ZM216.809 134.16C215.977 134.16 215.236 133.979 214.585 133.616C213.945 133.253 213.444 132.747 213.081 132.096C212.718 131.445 212.537 130.699 212.537 129.856C212.537 129.205 212.638 128.619 212.841 128.096C213.044 127.563 213.326 127.099 213.689 126.704C214.062 126.309 214.505 126.005 215.017 125.792C215.529 125.568 216.084 125.456 216.681 125.456C217.246 125.456 217.758 125.557 218.217 125.76C218.686 125.963 219.086 126.245 219.417 126.608C219.758 126.96 220.014 127.381 220.185 127.872C220.356 128.363 220.43 128.901 220.409 129.488L220.393 130.048H213.433L213.257 129.04H219.481L219.193 129.312V128.928C219.172 128.544 219.06 128.176 218.857 127.824C218.654 127.461 218.366 127.168 217.993 126.944C217.63 126.72 217.193 126.608 216.681 126.608C216.084 126.608 215.566 126.731 215.129 126.976C214.692 127.211 214.356 127.563 214.121 128.032C213.886 128.501 213.769 129.083 213.769 129.776C213.769 130.437 213.897 131.013 214.153 131.504C214.409 131.984 214.772 132.357 215.241 132.624C215.721 132.891 216.297 133.024 216.969 133.024C217.364 133.024 217.753 132.96 218.137 132.832C218.532 132.693 218.964 132.427 219.433 132.032L220.057 132.896C219.812 133.141 219.518 133.36 219.177 133.552C218.836 133.733 218.462 133.883 218.057 134C217.652 134.107 217.236 134.16 216.809 134.16ZM222.113 134V125.648H223.313L223.345 127.872L223.217 127.568C223.335 127.195 223.521 126.848 223.777 126.528C224.044 126.208 224.359 125.952 224.721 125.76C225.084 125.568 225.484 125.472 225.921 125.472C226.103 125.472 226.273 125.488 226.433 125.52C226.593 125.541 226.727 125.573 226.833 125.616L226.497 126.96C226.359 126.896 226.215 126.853 226.065 126.832C225.927 126.8 225.793 126.784 225.665 126.784C225.303 126.784 224.977 126.848 224.689 126.976C224.401 127.104 224.156 127.285 223.953 127.52C223.751 127.744 223.596 128.005 223.489 128.304C223.383 128.603 223.329 128.923 223.329 129.264V134H222.113ZM232.566 134V125.648H233.75L233.798 127.392L233.606 127.472C233.713 127.109 233.921 126.779 234.23 126.48C234.54 126.181 234.908 125.941 235.334 125.76C235.772 125.568 236.22 125.472 236.678 125.472C237.297 125.472 237.814 125.595 238.23 125.84C238.646 126.085 238.961 126.464 239.174 126.976C239.388 127.488 239.494 128.139 239.494 128.928V134H238.278V128.992C238.278 128.437 238.204 127.984 238.054 127.632C237.916 127.269 237.697 127.003 237.398 126.832C237.1 126.661 236.732 126.581 236.294 126.592C235.932 126.592 235.596 126.656 235.286 126.784C234.977 126.901 234.71 127.067 234.486 127.28C234.262 127.493 234.086 127.739 233.958 128.016C233.83 128.293 233.766 128.592 233.766 128.912V134H233.174C233.1 134 233.014 134 232.918 134C232.822 134 232.705 134 232.566 134ZM245.481 134.16C244.649 134.16 243.908 133.973 243.257 133.6C242.617 133.227 242.111 132.709 241.737 132.048C241.375 131.387 241.193 130.635 241.193 129.792C241.193 128.96 241.375 128.219 241.737 127.568C242.111 126.917 242.617 126.405 243.257 126.032C243.908 125.659 244.649 125.472 245.481 125.472C246.303 125.472 247.033 125.659 247.673 126.032C248.324 126.405 248.831 126.917 249.193 127.568C249.567 128.219 249.753 128.96 249.753 129.792C249.753 130.635 249.567 131.387 249.193 132.048C248.831 132.709 248.324 133.227 247.673 133.6C247.033 133.973 246.303 134.16 245.481 134.16ZM245.481 133.024C246.068 133.024 246.591 132.885 247.049 132.608C247.508 132.32 247.865 131.936 248.121 131.456C248.377 130.965 248.505 130.411 248.505 129.792C248.505 129.173 248.377 128.624 248.121 128.144C247.865 127.664 247.508 127.291 247.049 127.024C246.591 126.747 246.068 126.608 245.481 126.608C244.895 126.608 244.367 126.747 243.897 127.024C243.439 127.291 243.076 127.669 242.809 128.16C242.553 128.64 242.431 129.184 242.441 129.792C242.431 130.411 242.553 130.965 242.809 131.456C243.076 131.936 243.439 132.32 243.897 132.608C244.367 132.885 244.895 133.024 245.481 133.024ZM78.4961 154V145.648H79.6801L79.7281 147.392L79.5361 147.472C79.6428 147.109 79.8508 146.779 80.1601 146.48C80.4695 146.181 80.8375 145.941 81.2641 145.76C81.7015 145.568 82.1495 145.472 82.6081 145.472C83.2268 145.472 83.7441 145.595 84.1601 145.84C84.5761 146.085 84.8908 146.464 85.1041 146.976C85.3175 147.488 85.4241 148.139 85.4241 148.928V154H84.2081V148.992C84.2081 148.437 84.1335 147.984 83.9841 147.632C83.8455 147.269 83.6268 147.003 83.3281 146.832C83.0295 146.661 82.6615 146.581 82.2241 146.592C81.8615 146.592 81.5255 146.656 81.2161 146.784C80.9068 146.901 80.6401 147.067 80.4161 147.28C80.1921 147.493 80.0161 147.739 79.8881 148.016C79.7601 148.293 79.6961 148.592 79.6961 148.912V154H79.1041C79.0295 154 78.9441 154 78.8481 154C78.7521 154 78.6348 154 78.4961 154ZM91.4109 154.16C90.5789 154.16 89.8375 153.973 89.1869 153.6C88.5469 153.227 88.0402 152.709 87.6669 152.048C87.3042 151.387 87.1229 150.635 87.1229 149.792C87.1229 148.96 87.3042 148.219 87.6669 147.568C88.0402 146.917 88.5469 146.405 89.1869 146.032C89.8375 145.659 90.5789 145.472 91.4109 145.472C92.2322 145.472 92.9629 145.659 93.6029 146.032C94.2535 146.405 94.7602 146.917 95.1229 147.568C95.4962 148.219 95.6829 148.96 95.6829 149.792C95.6829 150.635 95.4962 151.387 95.1229 152.048C94.7602 152.709 94.2535 153.227 93.6029 153.6C92.9629 153.973 92.2322 154.16 91.4109 154.16ZM91.4109 153.024C91.9975 153.024 92.5202 152.885 92.9789 152.608C93.4375 152.32 93.7949 151.936 94.0509 151.456C94.3069 150.965 94.4349 150.411 94.4349 149.792C94.4349 149.173 94.3069 148.624 94.0509 148.144C93.7949 147.664 93.4375 147.291 92.9789 147.024C92.5202 146.747 91.9975 146.608 91.4109 146.608C90.8242 146.608 90.2962 146.747 89.8269 147.024C89.3682 147.291 89.0055 147.669 88.7389 148.16C88.4829 148.64 88.3602 149.184 88.3709 149.792C88.3602 150.411 88.4829 150.965 88.7389 151.456C89.0055 151.936 89.3682 152.32 89.8269 152.608C90.2962 152.885 90.8242 153.024 91.4109 153.024ZM100.17 154.16C99.455 154.16 98.815 154.027 98.2496 153.76C97.6843 153.493 97.2363 153.141 96.9056 152.704L97.7536 151.968C98.063 152.341 98.4256 152.624 98.8416 152.816C99.2683 153.008 99.743 153.104 100.266 153.104C100.532 153.104 100.772 153.077 100.986 153.024C101.199 152.96 101.386 152.869 101.546 152.752C101.706 152.635 101.828 152.496 101.914 152.336C101.999 152.176 102.042 152 102.042 151.808C102.042 151.456 101.887 151.163 101.578 150.928C101.439 150.832 101.242 150.736 100.986 150.64C100.73 150.533 100.42 150.432 100.058 150.336C99.4603 150.165 98.9643 149.995 98.5696 149.824C98.175 149.643 97.8656 149.435 97.6416 149.2C97.4816 149.008 97.359 148.8 97.2736 148.576C97.199 148.352 97.1616 148.107 97.1616 147.84C97.1616 147.499 97.231 147.184 97.3696 146.896C97.519 146.608 97.7216 146.357 97.9776 146.144C98.2443 145.92 98.5536 145.755 98.9056 145.648C99.2683 145.531 99.6576 145.472 100.074 145.472C100.468 145.472 100.858 145.525 101.242 145.632C101.626 145.739 101.983 145.893 102.314 146.096C102.644 146.299 102.927 146.539 103.162 146.816L102.426 147.616C102.223 147.403 101.999 147.211 101.754 147.04C101.508 146.869 101.247 146.736 100.97 146.64C100.703 146.544 100.426 146.496 100.138 146.496C99.8816 146.496 99.6416 146.528 99.4176 146.592C99.2043 146.656 99.0176 146.747 98.8576 146.864C98.7083 146.971 98.591 147.104 98.5056 147.264C98.431 147.424 98.3936 147.6 98.3936 147.792C98.3936 147.952 98.4256 148.096 98.4896 148.224C98.5536 148.352 98.6443 148.464 98.7616 148.56C98.911 148.677 99.119 148.789 99.3856 148.896C99.663 148.992 100.004 149.093 100.41 149.2C100.879 149.328 101.274 149.461 101.594 149.6C101.924 149.728 102.196 149.883 102.41 150.064C102.698 150.277 102.9 150.523 103.018 150.8C103.146 151.077 103.21 151.392 103.21 151.744C103.21 152.213 103.076 152.629 102.81 152.992C102.554 153.355 102.196 153.643 101.738 153.856C101.279 154.059 100.756 154.16 100.17 154.16ZM107.826 154.16C107.111 154.16 106.471 154.027 105.906 153.76C105.341 153.493 104.893 153.141 104.562 152.704L105.41 151.968C105.719 152.341 106.082 152.624 106.498 152.816C106.925 153.008 107.399 153.104 107.922 153.104C108.189 153.104 108.429 153.077 108.642 153.024C108.855 152.96 109.042 152.869 109.202 152.752C109.362 152.635 109.485 152.496 109.57 152.336C109.655 152.176 109.698 152 109.698 151.808C109.698 151.456 109.543 151.163 109.234 150.928C109.095 150.832 108.898 150.736 108.642 150.64C108.386 150.533 108.077 150.432 107.714 150.336C107.117 150.165 106.621 149.995 106.226 149.824C105.831 149.643 105.522 149.435 105.298 149.2C105.138 149.008 105.015 148.8 104.93 148.576C104.855 148.352 104.818 148.107 104.818 147.84C104.818 147.499 104.887 147.184 105.026 146.896C105.175 146.608 105.378 146.357 105.634 146.144C105.901 145.92 106.21 145.755 106.562 145.648C106.925 145.531 107.314 145.472 107.73 145.472C108.125 145.472 108.514 145.525 108.898 145.632C109.282 145.739 109.639 145.893 109.97 146.096C110.301 146.299 110.583 146.539 110.818 146.816L110.082 147.616C109.879 147.403 109.655 147.211 109.41 147.04C109.165 146.869 108.903 146.736 108.626 146.64C108.359 146.544 108.082 146.496 107.794 146.496C107.538 146.496 107.298 146.528 107.074 146.592C106.861 146.656 106.674 146.747 106.514 146.864C106.365 146.971 106.247 147.104 106.162 147.264C106.087 147.424 106.05 147.6 106.05 147.792C106.05 147.952 106.082 148.096 106.146 148.224C106.21 148.352 106.301 148.464 106.418 148.56C106.567 148.677 106.775 148.789 107.042 148.896C107.319 148.992 107.661 149.093 108.066 149.2C108.535 149.328 108.93 149.461 109.25 149.6C109.581 149.728 109.853 149.883 110.066 150.064C110.354 150.277 110.557 150.523 110.674 150.8C110.802 151.077 110.866 151.392 110.866 151.744C110.866 152.213 110.733 152.629 110.466 152.992C110.21 153.355 109.853 153.643 109.394 153.856C108.935 154.059 108.413 154.16 107.826 154.16ZM116.442 154.16C115.61 154.16 114.869 153.973 114.218 153.6C113.578 153.227 113.071 152.709 112.698 152.048C112.335 151.387 112.154 150.635 112.154 149.792C112.154 148.96 112.335 148.219 112.698 147.568C113.071 146.917 113.578 146.405 114.218 146.032C114.869 145.659 115.61 145.472 116.442 145.472C117.263 145.472 117.994 145.659 118.634 146.032C119.285 146.405 119.791 146.917 120.154 147.568C120.527 148.219 120.714 148.96 120.714 149.792C120.714 150.635 120.527 151.387 120.154 152.048C119.791 152.709 119.285 153.227 118.634 153.6C117.994 153.973 117.263 154.16 116.442 154.16ZM116.442 153.024C117.029 153.024 117.551 152.885 118.01 152.608C118.469 152.32 118.826 151.936 119.082 151.456C119.338 150.965 119.466 150.411 119.466 149.792C119.466 149.173 119.338 148.624 119.082 148.144C118.826 147.664 118.469 147.291 118.01 147.024C117.551 146.747 117.029 146.608 116.442 146.608C115.855 146.608 115.327 146.747 114.858 147.024C114.399 147.291 114.037 147.669 113.77 148.16C113.514 148.64 113.391 149.184 113.402 149.792C113.391 150.411 113.514 150.965 113.77 151.456C114.037 151.936 114.399 152.32 114.858 152.608C115.327 152.885 115.855 153.024 116.442 153.024ZM126.933 154V145.648H128.133L128.165 147.552L127.925 147.632C128.011 147.312 128.149 147.024 128.341 146.768C128.544 146.501 128.784 146.272 129.061 146.08C129.339 145.888 129.643 145.744 129.973 145.648C130.304 145.541 130.651 145.488 131.013 145.488C131.451 145.488 131.84 145.563 132.181 145.712C132.533 145.851 132.827 146.096 133.061 146.448C133.307 146.789 133.493 147.243 133.621 147.808L133.333 147.664L133.445 147.392C133.552 147.147 133.707 146.912 133.909 146.688C134.123 146.453 134.363 146.245 134.629 146.064C134.907 145.883 135.205 145.744 135.525 145.648C135.856 145.541 136.192 145.488 136.533 145.488C137.12 145.488 137.616 145.616 138.021 145.872C138.427 146.117 138.731 146.496 138.933 147.008C139.147 147.52 139.253 148.171 139.253 148.96V154H138.021V149.024C138.021 148.469 137.952 148.016 137.813 147.664C137.675 147.312 137.467 147.051 137.189 146.88C136.923 146.699 136.581 146.608 136.165 146.608C135.803 146.608 135.467 146.672 135.157 146.8C134.859 146.917 134.597 147.088 134.373 147.312C134.16 147.525 133.989 147.771 133.861 148.048C133.744 148.325 133.685 148.624 133.685 148.944V154H132.469V149.008C132.469 148.475 132.395 148.032 132.245 147.68C132.107 147.328 131.899 147.061 131.621 146.88C131.344 146.699 131.003 146.608 130.597 146.608C130.245 146.608 129.92 146.672 129.621 146.8C129.323 146.917 129.061 147.083 128.837 147.296C128.624 147.509 128.453 147.755 128.325 148.032C128.208 148.309 128.149 148.608 128.149 148.928V154H126.933ZM144.487 154.16C143.847 154.16 143.303 154.032 142.855 153.776C142.418 153.509 142.082 153.125 141.847 152.624C141.623 152.123 141.511 151.499 141.511 150.752V145.648H142.727V150.512C142.727 151.077 142.802 151.552 142.951 151.936C143.111 152.309 143.346 152.592 143.655 152.784C143.975 152.976 144.365 153.072 144.823 153.072C145.175 153.072 145.501 153.013 145.799 152.896C146.098 152.768 146.359 152.597 146.583 152.384C146.807 152.171 146.983 151.92 147.111 151.632C147.239 151.344 147.303 151.04 147.303 150.72V145.648H148.503V154H147.319L147.271 152.24L147.463 152.144C147.335 152.517 147.122 152.859 146.823 153.168C146.525 153.467 146.167 153.707 145.751 153.888C145.346 154.069 144.925 154.16 144.487 154.16ZM150.84 154V145.648H152.04L152.072 147.872L151.944 147.568C152.061 147.195 152.248 146.848 152.504 146.528C152.771 146.208 153.085 145.952 153.448 145.76C153.811 145.568 154.211 145.472 154.648 145.472C154.829 145.472 155 145.488 155.16 145.52C155.32 145.541 155.453 145.573 155.56 145.616L155.224 146.96C155.085 146.896 154.941 146.853 154.792 146.832C154.653 146.8 154.52 146.784 154.392 146.784C154.029 146.784 153.704 146.848 153.416 146.976C153.128 147.104 152.883 147.285 152.68 147.52C152.477 147.744 152.323 148.005 152.216 148.304C152.109 148.603 152.056 148.923 152.056 149.264V154H150.84ZM159.713 154.16C158.988 154.16 158.332 153.973 157.745 153.6C157.159 153.216 156.695 152.699 156.353 152.048C156.012 151.387 155.841 150.64 155.841 149.808C155.841 148.965 156.017 148.219 156.369 147.568C156.721 146.917 157.191 146.405 157.777 146.032C158.375 145.659 159.041 145.472 159.777 145.472C160.215 145.472 160.62 145.536 160.993 145.664C161.367 145.792 161.697 145.973 161.985 146.208C162.284 146.432 162.529 146.699 162.721 147.008C162.924 147.307 163.063 147.632 163.137 147.984L162.785 147.808L162.833 145.648H164.033V154H162.817V151.952L163.137 151.744C163.063 152.064 162.919 152.373 162.705 152.672C162.492 152.96 162.231 153.216 161.921 153.44C161.623 153.664 161.281 153.84 160.897 153.968C160.524 154.096 160.129 154.16 159.713 154.16ZM159.985 153.008C160.54 153.008 161.036 152.875 161.473 152.608C161.911 152.331 162.252 151.952 162.497 151.472C162.753 150.981 162.881 150.427 162.881 149.808C162.881 149.189 162.753 148.64 162.497 148.16C162.252 147.68 161.911 147.301 161.473 147.024C161.036 146.747 160.54 146.608 159.985 146.608C159.42 146.608 158.919 146.747 158.481 147.024C158.055 147.301 157.713 147.68 157.457 148.16C157.212 148.64 157.089 149.189 157.089 149.808C157.089 150.416 157.212 150.965 157.457 151.456C157.703 151.936 158.044 152.315 158.481 152.592C158.919 152.869 159.42 153.008 159.985 153.008ZM166.403 154V142.16H167.603V154H166.403ZM170.413 150.144C170.338 149.472 170.28 148.779 170.237 148.064C170.194 147.339 170.162 146.624 170.141 145.92C170.12 145.216 170.109 144.549 170.109 143.92V142.8H171.405V143.92C171.405 144.581 171.394 145.275 171.373 146C171.352 146.725 171.314 147.445 171.261 148.16C171.218 148.864 171.16 149.525 171.085 150.144H170.413ZM170.701 154.16C170.413 154.16 170.189 154.075 170.029 153.904C169.88 153.733 169.805 153.488 169.805 153.168C169.805 152.88 169.885 152.645 170.045 152.464C170.216 152.272 170.434 152.176 170.701 152.176C170.989 152.176 171.208 152.267 171.357 152.448C171.517 152.619 171.597 152.859 171.597 153.168C171.597 153.467 171.512 153.707 171.341 153.888C171.181 154.069 170.968 154.16 170.701 154.16Z" fill="#E1DDF4"/>
<defs>
<linearGradient id="paint0_linear_0_1" x1="141" y1="23.25" x2="106.5" y2="23.25" gradientUnits="userSpaceOnUse">
<stop stop-color="#43A3D5"/>
<stop offset="1" stop-color="#9C60DA"/>
</linearGradient>
<linearGradient id="paint1_linear_0_1" x1="230.5" y1="73" x2="18.5" y2="73" gradientUnits="userSpaceOnUse">
<stop stop-color="#43A3D5"/>
<stop offset="1" stop-color="#9C60DA"/>
</linearGradient>
</defs>
</svg>
