<svg width="274" height="158" viewBox="0 0 274 158" fill="none" xmlns="http://www.w3.org/2000/svg">
<mask id="path-1-inside-1_106_379" fill="white">
<path d="M135.934 4.58445C136.512 3.58651 137.953 3.58652 138.53 4.58445L159.76 41.2544C160.339 42.2544 159.618 43.5063 158.462 43.5063H116.002C114.847 43.5061 114.125 42.2543 114.704 41.2544L135.934 4.58445ZM137.233 32.6733C136.036 32.6733 135.066 33.6438 135.066 34.8403C135.066 36.0367 136.036 37.0063 137.233 37.0063C138.429 37.0061 139.399 36.0366 139.399 34.8403C139.399 33.6439 138.429 32.6735 137.233 32.6733ZM135.066 21.8413L136.149 30.5073H138.316L139.399 21.8413V17.5083H135.066V21.8413Z"/>
</mask>
<path d="M135.934 4.58445C136.512 3.58651 137.953 3.58652 138.53 4.58445L159.76 41.2544C160.339 42.2544 159.618 43.5063 158.462 43.5063H116.002C114.847 43.5061 114.125 42.2543 114.704 41.2544L135.934 4.58445ZM137.233 32.6733C136.036 32.6733 135.066 33.6438 135.066 34.8403C135.066 36.0367 136.036 37.0063 137.233 37.0063C138.429 37.0061 139.399 36.0366 139.399 34.8403C139.399 33.6439 138.429 32.6735 137.233 32.6733ZM135.066 21.8413L136.149 30.5073H138.316L139.399 21.8413V17.5083H135.066V21.8413Z" fill="#E50000"/>
<path d="M135.934 4.58445L137.232 5.33599L137.232 5.33599L135.934 4.58445ZM138.53 4.58445L139.829 3.83291L139.829 3.83289L138.53 4.58445ZM159.76 41.2544L158.462 42.0059L158.462 42.0059L159.76 41.2544ZM116.002 43.5063L116.002 45.0063H116.002V43.5063ZM114.704 41.2544L113.406 40.5028L113.406 40.5028L114.704 41.2544ZM137.233 32.6733L137.233 31.1733H137.233V32.6733ZM135.066 34.8403H133.566V34.8405L135.066 34.8403ZM137.233 37.0063V38.5063H137.233L137.233 37.0063ZM139.399 34.8403L140.899 34.8405V34.8403H139.399ZM135.066 21.8413H133.566C133.566 21.9035 133.57 21.9656 133.577 22.0273L135.066 21.8413ZM136.149 30.5073L134.66 30.6933C134.754 31.444 135.392 32.0073 136.149 32.0073V30.5073ZM138.316 30.5073V32.0073C139.072 32.0073 139.71 31.444 139.804 30.6933L138.316 30.5073ZM139.399 21.8413L140.887 22.0273C140.895 21.9656 140.899 21.9035 140.899 21.8413H139.399ZM139.399 17.5083H140.899C140.899 16.6799 140.227 16.0083 139.399 16.0083V17.5083ZM135.066 17.5083V16.0083C134.237 16.0083 133.566 16.6799 133.566 17.5083H135.066ZM135.934 4.58445L137.232 5.33599L137.232 5.33601L138.53 4.58445L139.829 3.83289C138.673 1.83707 135.791 1.83699 134.636 3.83291L135.934 4.58445ZM138.53 4.58445L137.232 5.33599L158.462 42.0059L159.76 41.2544L161.058 40.5028L139.829 3.83291L138.53 4.58445ZM159.76 41.2544L158.462 42.0059L158.462 42.0063V43.5063V45.0063C160.774 45.0063 162.216 42.5021 161.058 40.5028L159.76 41.2544ZM158.462 43.5063V42.0063H116.002V43.5063V45.0063H158.462V43.5063ZM116.002 43.5063L116.003 42.0063L116.002 42.0059L114.704 41.2544L113.406 40.5028C112.249 42.5024 113.691 45.0058 116.002 45.0063L116.002 43.5063ZM114.704 41.2544L116.002 42.0059L137.232 5.33599L135.934 4.58445L134.636 3.83291L113.406 40.5028L114.704 41.2544ZM137.233 32.6733V31.1733C135.208 31.1733 133.566 32.8154 133.566 34.8403H135.066H136.566C136.566 34.4722 136.865 34.1733 137.233 34.1733V32.6733ZM135.066 34.8403L133.566 34.8405C133.566 36.8659 135.208 38.5063 137.233 38.5063V37.0063V35.5063C136.864 35.5063 136.566 35.2075 136.566 34.8402L135.066 34.8403ZM137.233 37.0063L137.233 38.5063C139.257 38.506 140.898 36.8652 140.899 34.8405L139.399 34.8403L137.899 34.8402C137.899 35.2081 137.601 35.5063 137.232 35.5063L137.233 37.0063ZM139.399 34.8403H140.899C140.899 32.8161 139.258 31.1737 137.233 31.1733L137.233 32.6733L137.232 34.1733C137.6 34.1734 137.899 34.4717 137.899 34.8403H139.399ZM135.066 21.8413L133.577 22.0273L134.66 30.6933L136.149 30.5073L137.637 30.3213L136.554 21.6553L135.066 21.8413ZM136.149 30.5073V32.0073H138.316V30.5073V29.0073H136.149V30.5073ZM138.316 30.5073L139.804 30.6933L140.887 22.0273L139.399 21.8413L137.91 21.6553L136.827 30.3213L138.316 30.5073ZM139.399 21.8413H140.899V17.5083H139.399H137.899V21.8413H139.399ZM139.399 17.5083V16.0083H135.066V17.5083V19.0083H139.399V17.5083ZM135.066 17.5083H133.566V21.8413H135.066H136.566V17.5083H135.066Z" fill="#E50000" mask="url(#path-1-inside-1_106_379)"/>
<path d="M36.3267 80L29.8227 63.2H31.9347L36.1107 74.144C36.3027 74.64 36.4707 75.08 36.6147 75.464C36.7587 75.848 36.8867 76.216 36.9987 76.568C37.1267 76.904 37.2467 77.24 37.3587 77.576C37.4707 77.912 37.5907 78.28 37.7187 78.68L37.0947 78.704C37.2547 78.16 37.4067 77.656 37.5507 77.192C37.7107 76.728 37.8707 76.256 38.0307 75.776C38.2067 75.28 38.4227 74.704 38.6787 74.048L42.8307 63.2H44.9427L38.2467 80H36.3267ZM51.4015 80.24C50.1535 80.24 49.0415 79.96 48.0655 79.4C47.1055 78.84 46.3455 78.064 45.7855 77.072C45.2415 76.08 44.9695 74.952 44.9695 73.688C44.9695 72.44 45.2415 71.328 45.7855 70.352C46.3455 69.376 47.1055 68.608 48.0655 68.048C49.0415 67.488 50.1535 67.208 51.4015 67.208C52.6335 67.208 53.7295 67.488 54.6895 68.048C55.6655 68.608 56.4255 69.376 56.9695 70.352C57.5295 71.328 57.8095 72.44 57.8095 73.688C57.8095 74.952 57.5295 76.08 56.9695 77.072C56.4255 78.064 55.6655 78.84 54.6895 79.4C53.7295 79.96 52.6335 80.24 51.4015 80.24ZM51.4015 78.536C52.2815 78.536 53.0655 78.328 53.7535 77.912C54.4415 77.48 54.9775 76.904 55.3615 76.184C55.7455 75.448 55.9375 74.616 55.9375 73.688C55.9375 72.76 55.7455 71.936 55.3615 71.216C54.9775 70.496 54.4415 69.936 53.7535 69.536C53.0655 69.12 52.2815 68.912 51.4015 68.912C50.5215 68.912 49.7295 69.12 49.0255 69.536C48.3375 69.936 47.7935 70.504 47.3935 71.24C47.0095 71.96 46.8255 72.776 46.8415 73.688C46.8255 74.616 47.0095 75.448 47.3935 76.184C47.7935 76.904 48.3375 77.48 49.0255 77.912C49.7295 78.328 50.5215 78.536 51.4015 78.536ZM65.7156 80.24C64.5316 80.24 63.4756 79.96 62.5476 79.4C61.6196 78.824 60.8836 78.048 60.3396 77.072C59.8116 76.08 59.5476 74.96 59.5476 73.712C59.5476 72.464 59.8116 71.352 60.3396 70.376C60.8836 69.384 61.6196 68.608 62.5476 68.048C63.4756 67.488 64.5396 67.208 65.7396 67.208C66.8116 67.208 67.7876 67.424 68.6676 67.856C69.5476 68.272 70.2516 68.856 70.7796 69.608L69.7236 70.904C69.4196 70.504 69.0516 70.152 68.6196 69.848C68.2036 69.544 67.7476 69.312 67.2516 69.152C66.7716 68.976 66.2916 68.888 65.8116 68.888C64.9636 68.888 64.2036 69.104 63.5316 69.536C62.8596 69.952 62.3236 70.52 61.9236 71.24C61.5396 71.96 61.3476 72.784 61.3476 73.712C61.3476 74.64 61.5396 75.472 61.9236 76.208C62.3236 76.928 62.8596 77.496 63.5316 77.912C64.2036 78.328 64.9556 78.536 65.7876 78.536C66.2676 78.536 66.7396 78.464 67.2036 78.32C67.6676 78.16 68.1076 77.936 68.5236 77.648C68.9396 77.36 69.3236 77 69.6756 76.568L70.7316 77.864C70.1876 78.584 69.4596 79.16 68.5476 79.592C67.6356 80.024 66.6916 80.24 65.7156 80.24ZM78.5884 80.24C77.3404 80.24 76.2284 79.968 75.2524 79.424C74.2924 78.88 73.5404 78.12 72.9964 77.144C72.4524 76.168 72.1804 75.048 72.1804 73.784C72.1804 72.808 72.3324 71.928 72.6364 71.144C72.9404 70.344 73.3644 69.648 73.9084 69.056C74.4684 68.464 75.1324 68.008 75.9004 67.688C76.6684 67.352 77.5004 67.184 78.3964 67.184C79.2444 67.184 80.0124 67.336 80.7004 67.64C81.4044 67.944 82.0044 68.368 82.5004 68.912C83.0124 69.44 83.3964 70.072 83.6524 70.808C83.9084 71.544 84.0204 72.352 83.9884 73.232L83.9644 74.072H73.5244L73.2604 72.56H82.5964L82.1644 72.968V72.392C82.1324 71.816 81.9644 71.264 81.6604 70.736C81.3564 70.192 80.9244 69.752 80.3644 69.416C79.8204 69.08 79.1644 68.912 78.3964 68.912C77.5004 68.912 76.7244 69.096 76.0684 69.464C75.4124 69.816 74.9084 70.344 74.5564 71.048C74.2044 71.752 74.0284 72.624 74.0284 73.664C74.0284 74.656 74.2204 75.52 74.6044 76.256C74.9884 76.976 75.5324 77.536 76.2364 77.936C76.9564 78.336 77.8204 78.536 78.8284 78.536C79.4204 78.536 80.0044 78.44 80.5804 78.248C81.1724 78.04 81.8204 77.64 82.5244 77.048L83.4604 78.344C83.0924 78.712 82.6524 79.04 82.1404 79.328C81.6284 79.6 81.0684 79.824 80.4604 80C79.8524 80.16 79.2284 80.24 78.5884 80.24ZM75.6124 65.48L74.8204 64.808L77.5084 62.24H79.2844L81.9724 64.808L81.1804 65.48L78.0364 63.44H78.7564L75.6124 65.48ZM98.3595 80.24C97.2235 80.24 96.1995 79.96 95.2875 79.4C94.3915 78.84 93.6795 78.072 93.1515 77.096C92.6395 76.104 92.3835 74.984 92.3835 73.736C92.3835 72.472 92.6475 71.352 93.1755 70.376C93.7035 69.384 94.4155 68.608 95.3115 68.048C96.2075 67.488 97.2155 67.208 98.3355 67.208C98.9595 67.208 99.5595 67.304 100.136 67.496C100.728 67.688 101.256 67.96 101.72 68.312C102.184 68.648 102.568 69.04 102.872 69.488C103.176 69.92 103.36 70.376 103.424 70.856L102.872 70.664V62.24H104.672V80H102.896L102.848 76.88L103.304 76.712C103.24 77.16 103.056 77.6 102.752 78.032C102.464 78.448 102.096 78.824 101.648 79.16C101.2 79.496 100.688 79.76 100.112 79.952C99.5515 80.144 98.9675 80.24 98.3595 80.24ZM98.6235 78.584C99.4555 78.584 100.2 78.376 100.856 77.96C101.512 77.544 102.024 76.968 102.392 76.232C102.776 75.496 102.968 74.656 102.968 73.712C102.968 72.768 102.776 71.936 102.392 71.216C102.024 70.48 101.512 69.904 100.856 69.488C100.2 69.056 99.4555 68.84 98.6235 68.84C97.7595 68.84 96.9995 69.056 96.3435 69.488C95.7035 69.904 95.1915 70.48 94.8075 71.216C94.4395 71.936 94.2555 72.768 94.2555 73.712C94.2555 74.64 94.4395 75.472 94.8075 76.208C95.1755 76.944 95.6875 77.528 96.3435 77.96C96.9995 78.376 97.7595 78.584 98.6235 78.584ZM113.698 80.24C112.45 80.24 111.338 79.968 110.362 79.424C109.402 78.88 108.65 78.12 108.106 77.144C107.562 76.168 107.29 75.048 107.29 73.784C107.29 72.808 107.442 71.928 107.746 71.144C108.05 70.344 108.474 69.648 109.018 69.056C109.578 68.464 110.242 68.008 111.01 67.688C111.778 67.352 112.61 67.184 113.506 67.184C114.354 67.184 115.122 67.336 115.81 67.64C116.514 67.944 117.114 68.368 117.61 68.912C118.122 69.44 118.506 70.072 118.762 70.808C119.018 71.544 119.13 72.352 119.098 73.232L119.074 74.072H108.634L108.37 72.56H117.706L117.274 72.968V72.392C117.242 71.816 117.074 71.264 116.77 70.736C116.466 70.192 116.034 69.752 115.474 69.416C114.93 69.08 114.274 68.912 113.506 68.912C112.61 68.912 111.834 69.096 111.178 69.464C110.522 69.816 110.018 70.344 109.666 71.048C109.314 71.752 109.138 72.624 109.138 73.664C109.138 74.656 109.33 75.52 109.714 76.256C110.098 76.976 110.642 77.536 111.346 77.936C112.066 78.336 112.93 78.536 113.938 78.536C114.53 78.536 115.114 78.44 115.69 78.248C116.282 78.04 116.93 77.64 117.634 77.048L118.57 78.344C118.202 78.712 117.762 79.04 117.25 79.328C116.738 79.6 116.178 79.824 115.57 80C114.962 80.16 114.338 80.24 113.698 80.24ZM125.758 80.24C124.686 80.24 123.726 80.04 122.878 79.64C122.03 79.24 121.358 78.712 120.862 78.056L122.134 76.952C122.598 77.512 123.142 77.936 123.766 78.224C124.406 78.512 125.118 78.656 125.902 78.656C126.302 78.656 126.662 78.616 126.982 78.536C127.302 78.44 127.582 78.304 127.822 78.128C128.062 77.952 128.246 77.744 128.374 77.504C128.502 77.264 128.566 77 128.566 76.712C128.566 76.184 128.334 75.744 127.87 75.392C127.662 75.248 127.366 75.104 126.982 74.96C126.598 74.8 126.134 74.648 125.59 74.504C124.694 74.248 123.95 73.992 123.358 73.736C122.766 73.464 122.302 73.152 121.966 72.8C121.726 72.512 121.542 72.2 121.414 71.864C121.302 71.528 121.246 71.16 121.246 70.76C121.246 70.248 121.35 69.776 121.558 69.344C121.782 68.912 122.086 68.536 122.47 68.216C122.87 67.88 123.334 67.632 123.862 67.472C124.406 67.296 124.99 67.208 125.614 67.208C126.206 67.208 126.79 67.288 127.366 67.448C127.942 67.608 128.478 67.84 128.974 68.144C129.47 68.448 129.894 68.808 130.246 69.224L129.142 70.424C128.838 70.104 128.502 69.816 128.134 69.56C127.766 69.304 127.374 69.104 126.958 68.96C126.558 68.816 126.142 68.744 125.71 68.744C125.326 68.744 124.966 68.792 124.63 68.888C124.31 68.984 124.03 69.12 123.79 69.296C123.566 69.456 123.39 69.656 123.262 69.896C123.15 70.136 123.094 70.4 123.094 70.688C123.094 70.928 123.142 71.144 123.238 71.336C123.334 71.528 123.47 71.696 123.646 71.84C123.87 72.016 124.182 72.184 124.582 72.344C124.998 72.488 125.51 72.64 126.118 72.8C126.822 72.992 127.414 73.192 127.894 73.4C128.39 73.592 128.798 73.824 129.118 74.096C129.55 74.416 129.854 74.784 130.03 75.2C130.222 75.616 130.318 76.088 130.318 76.616C130.318 77.32 130.118 77.944 129.718 78.488C129.334 79.032 128.798 79.464 128.11 79.784C127.422 80.088 126.638 80.24 125.758 80.24ZM138.659 80.24C137.411 80.24 136.299 79.968 135.323 79.424C134.363 78.88 133.611 78.12 133.067 77.144C132.523 76.168 132.251 75.048 132.251 73.784C132.251 72.808 132.403 71.928 132.707 71.144C133.011 70.344 133.435 69.648 133.979 69.056C134.539 68.464 135.203 68.008 135.971 67.688C136.739 67.352 137.571 67.184 138.467 67.184C139.315 67.184 140.083 67.336 140.771 67.64C141.475 67.944 142.075 68.368 142.571 68.912C143.083 69.44 143.467 70.072 143.723 70.808C143.979 71.544 144.091 72.352 144.059 73.232L144.035 74.072H133.595L133.331 72.56H142.667L142.235 72.968V72.392C142.203 71.816 142.035 71.264 141.731 70.736C141.427 70.192 140.995 69.752 140.435 69.416C139.891 69.08 139.235 68.912 138.467 68.912C137.571 68.912 136.795 69.096 136.139 69.464C135.483 69.816 134.979 70.344 134.627 71.048C134.275 71.752 134.099 72.624 134.099 73.664C134.099 74.656 134.291 75.52 134.675 76.256C135.059 76.976 135.603 77.536 136.307 77.936C137.027 78.336 137.891 78.536 138.899 78.536C139.491 78.536 140.075 78.44 140.651 78.248C141.243 78.04 141.891 77.64 142.595 77.048L143.531 78.344C143.163 78.712 142.723 79.04 142.211 79.328C141.699 79.6 141.139 79.824 140.531 80C139.923 80.16 139.299 80.24 138.659 80.24ZM144.863 84.704L144.143 83.264C144.799 83.264 145.327 83.152 145.727 82.928C146.143 82.72 146.439 82.392 146.615 81.944C146.807 81.512 146.903 80.976 146.903 80.336V67.472H148.727V80.864C148.727 81.632 148.567 82.304 148.247 82.88C147.927 83.456 147.479 83.904 146.903 84.224C146.327 84.544 145.647 84.704 144.863 84.704ZM147.839 64.76C147.407 64.76 147.071 64.648 146.831 64.424C146.591 64.184 146.471 63.864 146.471 63.464C146.471 63.064 146.591 62.744 146.831 62.504C147.071 62.264 147.407 62.144 147.839 62.144C148.271 62.144 148.607 62.264 148.847 62.504C149.087 62.728 149.207 63.048 149.207 63.464C149.207 63.848 149.087 64.16 148.847 64.4C148.607 64.64 148.271 64.76 147.839 64.76ZM157.183 80.24C156.095 80.24 155.111 79.96 154.231 79.4C153.351 78.824 152.655 78.048 152.143 77.072C151.631 76.08 151.375 74.96 151.375 73.712C151.375 72.448 151.639 71.328 152.167 70.352C152.695 69.376 153.399 68.608 154.279 68.048C155.175 67.488 156.175 67.208 157.279 67.208C157.935 67.208 158.543 67.304 159.103 67.496C159.663 67.688 160.159 67.96 160.591 68.312C161.039 68.648 161.407 69.048 161.695 69.512C161.999 69.96 162.207 70.448 162.319 70.976L161.791 70.712L161.863 67.472H163.663V80H161.839V76.928L162.319 76.616C162.207 77.096 161.991 77.56 161.671 78.008C161.351 78.44 160.959 78.824 160.495 79.16C160.047 79.496 159.535 79.76 158.959 79.952C158.399 80.144 157.807 80.24 157.183 80.24ZM157.591 78.512C158.423 78.512 159.167 78.312 159.823 77.912C160.479 77.496 160.991 76.928 161.359 76.208C161.743 75.472 161.935 74.64 161.935 73.712C161.935 72.784 161.743 71.96 161.359 71.24C160.991 70.52 160.479 69.952 159.823 69.536C159.167 69.12 158.423 68.912 157.591 68.912C156.743 68.912 155.991 69.12 155.335 69.536C154.695 69.952 154.183 70.52 153.799 71.24C153.431 71.96 153.247 72.784 153.247 73.712C153.247 74.624 153.431 75.448 153.799 76.184C154.167 76.904 154.679 77.472 155.335 77.888C155.991 78.304 156.743 78.512 157.591 78.512ZM179.417 80.24C178.169 80.24 177.057 79.968 176.081 79.424C175.121 78.88 174.369 78.12 173.825 77.144C173.281 76.168 173.009 75.048 173.009 73.784C173.009 72.808 173.161 71.928 173.465 71.144C173.769 70.344 174.193 69.648 174.737 69.056C175.297 68.464 175.961 68.008 176.729 67.688C177.497 67.352 178.329 67.184 179.225 67.184C180.073 67.184 180.841 67.336 181.529 67.64C182.233 67.944 182.833 68.368 183.329 68.912C183.841 69.44 184.225 70.072 184.481 70.808C184.737 71.544 184.849 72.352 184.817 73.232L184.793 74.072H174.353L174.089 72.56H183.425L182.993 72.968V72.392C182.961 71.816 182.793 71.264 182.489 70.736C182.185 70.192 181.753 69.752 181.193 69.416C180.649 69.08 179.993 68.912 179.225 68.912C178.329 68.912 177.553 69.096 176.897 69.464C176.241 69.816 175.737 70.344 175.385 71.048C175.033 71.752 174.857 72.624 174.857 73.664C174.857 74.656 175.049 75.52 175.433 76.256C175.817 76.976 176.361 77.536 177.065 77.936C177.785 78.336 178.649 78.536 179.657 78.536C180.249 78.536 180.833 78.44 181.409 78.248C182.001 78.04 182.649 77.64 183.353 77.048L184.289 78.344C183.921 78.712 183.481 79.04 182.969 79.328C182.457 79.6 181.897 79.824 181.289 80C180.681 80.16 180.057 80.24 179.417 80.24ZM195.823 80L191.479 74.408L191.263 74.144L186.055 67.472H188.335L192.607 72.968L192.847 73.28L198.079 80H195.823ZM185.959 80L191.071 73.4L192.151 74.696L188.119 80H185.959ZM192.967 73.856L191.935 72.584L195.583 67.472H197.767L192.967 73.856ZM204.77 80.24C203.586 80.24 202.53 79.96 201.602 79.4C200.674 78.824 199.938 78.048 199.394 77.072C198.866 76.08 198.602 74.96 198.602 73.712C198.602 72.464 198.866 71.352 199.394 70.376C199.938 69.384 200.674 68.608 201.602 68.048C202.53 67.488 203.594 67.208 204.794 67.208C205.866 67.208 206.842 67.424 207.722 67.856C208.602 68.272 209.306 68.856 209.834 69.608L208.778 70.904C208.474 70.504 208.106 70.152 207.674 69.848C207.258 69.544 206.802 69.312 206.306 69.152C205.826 68.976 205.346 68.888 204.866 68.888C204.018 68.888 203.258 69.104 202.586 69.536C201.914 69.952 201.378 70.52 200.978 71.24C200.594 71.96 200.402 72.784 200.402 73.712C200.402 74.64 200.594 75.472 200.978 76.208C201.378 76.928 201.914 77.496 202.586 77.912C203.258 78.328 204.01 78.536 204.842 78.536C205.322 78.536 205.794 78.464 206.258 78.32C206.722 78.16 207.162 77.936 207.578 77.648C207.994 77.36 208.378 77 208.73 76.568L209.786 77.864C209.242 78.584 208.514 79.16 207.602 79.592C206.69 80.024 205.746 80.24 204.77 80.24ZM212.171 80V62.24H213.971V80H212.171ZM221.837 80.24C220.877 80.24 220.061 80.048 219.389 79.664C218.733 79.264 218.229 78.688 217.877 77.936C217.541 77.184 217.373 76.248 217.373 75.128V67.472H219.197V74.768C219.197 75.616 219.309 76.328 219.533 76.904C219.773 77.464 220.125 77.888 220.589 78.176C221.069 78.464 221.653 78.608 222.341 78.608C222.869 78.608 223.357 78.52 223.805 78.344C224.253 78.152 224.645 77.896 224.981 77.576C225.317 77.256 225.581 76.88 225.773 76.448C225.965 76.016 226.061 75.56 226.061 75.08V67.472H227.861V80H226.085L226.013 77.36L226.301 77.216C226.109 77.776 225.789 78.288 225.341 78.752C224.893 79.2 224.357 79.56 223.733 79.832C223.125 80.104 222.493 80.24 221.837 80.24ZM231.845 80V67.472H233.645V80H231.845ZM232.733 64.76C232.285 64.76 231.941 64.648 231.701 64.424C231.477 64.184 231.365 63.864 231.365 63.464C231.365 63.064 231.485 62.744 231.725 62.504C231.965 62.264 232.301 62.144 232.733 62.144C233.165 62.144 233.501 62.264 233.741 62.504C233.981 62.728 234.101 63.048 234.101 63.464C234.101 63.848 233.981 64.16 233.741 64.4C233.501 64.64 233.165 64.76 232.733 64.76ZM237.576 80V67.472H239.376L239.424 70.808L239.232 70.352C239.408 69.792 239.688 69.272 240.072 68.792C240.472 68.312 240.944 67.928 241.488 67.64C242.032 67.352 242.632 67.208 243.288 67.208C243.56 67.208 243.816 67.232 244.056 67.28C244.296 67.312 244.496 67.36 244.656 67.424L244.152 69.44C243.944 69.344 243.728 69.28 243.504 69.248C243.296 69.2 243.096 69.176 242.904 69.176C242.36 69.176 241.872 69.272 241.44 69.464C241.008 69.656 240.64 69.928 240.336 70.28C240.032 70.616 239.8 71.008 239.64 71.456C239.48 71.904 239.4 72.384 239.4 72.896V80H237.576ZM39.8579 105.24C38.6099 105.24 37.4979 104.968 36.5219 104.424C35.5619 103.88 34.8099 103.12 34.2659 102.144C33.7219 101.168 33.4499 100.048 33.4499 98.784C33.4499 97.808 33.6019 96.928 33.9059 96.144C34.2099 95.344 34.6339 94.648 35.1779 94.056C35.7379 93.464 36.4019 93.008 37.1699 92.688C37.9379 92.352 38.7699 92.184 39.6659 92.184C40.5139 92.184 41.2819 92.336 41.9699 92.64C42.6739 92.944 43.2739 93.368 43.7699 93.912C44.2819 94.44 44.6659 95.072 44.9219 95.808C45.1779 96.544 45.2899 97.352 45.2579 98.232L45.2339 99.072H34.7939L34.5299 97.56H43.8659L43.4339 97.968V97.392C43.4019 96.816 43.2339 96.264 42.9299 95.736C42.6259 95.192 42.1939 94.752 41.6339 94.416C41.0899 94.08 40.4339 93.912 39.6659 93.912C38.7699 93.912 37.9939 94.096 37.3379 94.464C36.6819 94.816 36.1779 95.344 35.8259 96.048C35.4739 96.752 35.2979 97.624 35.2979 98.664C35.2979 99.656 35.4899 100.52 35.8739 101.256C36.2579 101.976 36.8019 102.536 37.5059 102.936C38.2259 103.336 39.0899 103.536 40.0979 103.536C40.6899 103.536 41.2739 103.44 41.8499 103.248C42.4419 103.04 43.0899 102.64 43.7939 102.048L44.7299 103.344C44.3619 103.712 43.9219 104.04 43.4099 104.328C42.8979 104.6 42.3379 104.824 41.7299 105C41.1219 105.16 40.4979 105.24 39.8579 105.24ZM51.9185 105.24C50.8465 105.24 49.8865 105.04 49.0385 104.64C48.1905 104.24 47.5185 103.712 47.0225 103.056L48.2945 101.952C48.7585 102.512 49.3025 102.936 49.9265 103.224C50.5665 103.512 51.2785 103.656 52.0625 103.656C52.4625 103.656 52.8225 103.616 53.1425 103.536C53.4625 103.44 53.7425 103.304 53.9825 103.128C54.2225 102.952 54.4065 102.744 54.5345 102.504C54.6625 102.264 54.7265 102 54.7265 101.712C54.7265 101.184 54.4945 100.744 54.0305 100.392C53.8225 100.248 53.5265 100.104 53.1425 99.96C52.7585 99.8 52.2945 99.648 51.7505 99.504C50.8545 99.248 50.1105 98.992 49.5185 98.736C48.9265 98.464 48.4625 98.152 48.1265 97.8C47.8865 97.512 47.7025 97.2 47.5745 96.864C47.4625 96.528 47.4065 96.16 47.4065 95.76C47.4065 95.248 47.5105 94.776 47.7185 94.344C47.9425 93.912 48.2465 93.536 48.6305 93.216C49.0305 92.88 49.4945 92.632 50.0225 92.472C50.5665 92.296 51.1505 92.208 51.7745 92.208C52.3665 92.208 52.9505 92.288 53.5265 92.448C54.1025 92.608 54.6385 92.84 55.1345 93.144C55.6305 93.448 56.0545 93.808 56.4065 94.224L55.3025 95.424C54.9985 95.104 54.6625 94.816 54.2945 94.56C53.9265 94.304 53.5345 94.104 53.1185 93.96C52.7185 93.816 52.3025 93.744 51.8705 93.744C51.4865 93.744 51.1265 93.792 50.7905 93.888C50.4705 93.984 50.1905 94.12 49.9505 94.296C49.7265 94.456 49.5505 94.656 49.4225 94.896C49.3105 95.136 49.2545 95.4 49.2545 95.688C49.2545 95.928 49.3025 96.144 49.3985 96.336C49.4945 96.528 49.6305 96.696 49.8065 96.84C50.0305 97.016 50.3425 97.184 50.7425 97.344C51.1585 97.488 51.6705 97.64 52.2785 97.8C52.9825 97.992 53.5745 98.192 54.0545 98.4C54.5505 98.592 54.9585 98.824 55.2785 99.096C55.7105 99.416 56.0145 99.784 56.1905 100.2C56.3825 100.616 56.4785 101.088 56.4785 101.616C56.4785 102.32 56.2785 102.944 55.8785 103.488C55.4945 104.032 54.9585 104.464 54.2705 104.784C53.5825 105.088 52.7985 105.24 51.9185 105.24ZM63.4029 105.24C62.3309 105.24 61.3709 105.04 60.5229 104.64C59.6749 104.24 59.0029 103.712 58.5069 103.056L59.7789 101.952C60.2429 102.512 60.7869 102.936 61.4109 103.224C62.0509 103.512 62.7629 103.656 63.5469 103.656C63.9469 103.656 64.3069 103.616 64.6269 103.536C64.9469 103.44 65.2269 103.304 65.4669 103.128C65.7069 102.952 65.8909 102.744 66.0189 102.504C66.1469 102.264 66.2109 102 66.2109 101.712C66.2109 101.184 65.9789 100.744 65.5149 100.392C65.3069 100.248 65.0109 100.104 64.6269 99.96C64.2429 99.8 63.7789 99.648 63.2349 99.504C62.3389 99.248 61.5949 98.992 61.0029 98.736C60.4109 98.464 59.9469 98.152 59.6109 97.8C59.3709 97.512 59.1869 97.2 59.0589 96.864C58.9469 96.528 58.8909 96.16 58.8909 95.76C58.8909 95.248 58.9949 94.776 59.2029 94.344C59.4269 93.912 59.7309 93.536 60.1149 93.216C60.5149 92.88 60.9789 92.632 61.5069 92.472C62.0509 92.296 62.6349 92.208 63.2589 92.208C63.8509 92.208 64.4349 92.288 65.0109 92.448C65.5869 92.608 66.1229 92.84 66.6189 93.144C67.1149 93.448 67.5389 93.808 67.8909 94.224L66.7869 95.424C66.4829 95.104 66.1469 94.816 65.7789 94.56C65.4109 94.304 65.0189 94.104 64.6029 93.96C64.2029 93.816 63.7869 93.744 63.3549 93.744C62.9709 93.744 62.6109 93.792 62.2749 93.888C61.9549 93.984 61.6749 94.12 61.4349 94.296C61.2109 94.456 61.0349 94.656 60.9069 94.896C60.7949 95.136 60.7389 95.4 60.7389 95.688C60.7389 95.928 60.7869 96.144 60.8829 96.336C60.9789 96.528 61.1149 96.696 61.2909 96.84C61.5149 97.016 61.8269 97.184 62.2269 97.344C62.6429 97.488 63.1549 97.64 63.7629 97.8C64.4669 97.992 65.0589 98.192 65.5389 98.4C66.0349 98.592 66.4429 98.824 66.7629 99.096C67.1949 99.416 67.4989 99.784 67.6749 100.2C67.8669 100.616 67.9629 101.088 67.9629 101.616C67.9629 102.32 67.7629 102.944 67.3629 103.488C66.9789 104.032 66.4429 104.464 65.7549 104.784C65.0669 105.088 64.2829 105.24 63.4029 105.24ZM75.6793 105.24C74.5913 105.24 73.6073 104.96 72.7273 104.4C71.8473 103.824 71.1513 103.048 70.6393 102.072C70.1273 101.08 69.8713 99.96 69.8713 98.712C69.8713 97.448 70.1353 96.328 70.6633 95.352C71.1913 94.376 71.8953 93.608 72.7753 93.048C73.6713 92.488 74.6713 92.208 75.7753 92.208C76.4313 92.208 77.0393 92.304 77.5993 92.496C78.1593 92.688 78.6553 92.96 79.0873 93.312C79.5353 93.648 79.9033 94.048 80.1913 94.512C80.4953 94.96 80.7033 95.448 80.8153 95.976L80.2873 95.712L80.3593 92.472H82.1593V105H80.3353V101.928L80.8153 101.616C80.7033 102.096 80.4873 102.56 80.1673 103.008C79.8473 103.44 79.4553 103.824 78.9913 104.16C78.5433 104.496 78.0313 104.76 77.4553 104.952C76.8953 105.144 76.3033 105.24 75.6793 105.24ZM76.0872 103.512C76.9193 103.512 77.6633 103.312 78.3193 102.912C78.9753 102.496 79.4873 101.928 79.8553 101.208C80.2393 100.472 80.4313 99.64 80.4313 98.712C80.4313 97.784 80.2393 96.96 79.8553 96.24C79.4873 95.52 78.9753 94.952 78.3193 94.536C77.6633 94.12 76.9193 93.912 76.0872 93.912C75.2393 93.912 74.4873 94.12 73.8313 94.536C73.1913 94.952 72.6793 95.52 72.2953 96.24C71.9273 96.96 71.7433 97.784 71.7433 98.712C71.7433 99.624 71.9273 100.448 72.2953 101.184C72.6633 101.904 73.1753 102.472 73.8313 102.888C74.4873 103.304 75.2393 103.512 76.0872 103.512ZM90.6341 109.464C88.6821 108.248 87.1941 106.728 86.1701 104.904C85.1461 103.08 84.6341 101.048 84.6341 98.808C84.6341 96.584 85.1461 94.56 86.1701 92.736C87.2101 90.896 88.7061 89.368 90.6581 88.152L91.6421 89.28C89.9301 90.48 88.6181 91.896 87.7061 93.528C86.8101 95.144 86.3621 96.904 86.3621 98.808C86.3621 100.712 86.8101 102.48 87.7061 104.112C88.6181 105.728 89.9301 107.136 91.6421 108.336L90.6341 109.464ZM98.3716 105.24C97.2996 105.24 96.3396 105.04 95.4916 104.64C94.6436 104.24 93.9716 103.712 93.4756 103.056L94.7476 101.952C95.2116 102.512 95.7556 102.936 96.3796 103.224C97.0196 103.512 97.7316 103.656 98.5156 103.656C98.9156 103.656 99.2756 103.616 99.5956 103.536C99.9156 103.44 100.196 103.304 100.436 103.128C100.676 102.952 100.86 102.744 100.988 102.504C101.116 102.264 101.18 102 101.18 101.712C101.18 101.184 100.948 100.744 100.484 100.392C100.276 100.248 99.9796 100.104 99.5956 99.96C99.2116 99.8 98.7476 99.648 98.2036 99.504C97.3076 99.248 96.5636 98.992 95.9716 98.736C95.3796 98.464 94.9156 98.152 94.5796 97.8C94.3396 97.512 94.1556 97.2 94.0276 96.864C93.9156 96.528 93.8596 96.16 93.8596 95.76C93.8596 95.248 93.9636 94.776 94.1716 94.344C94.3956 93.912 94.6996 93.536 95.0836 93.216C95.4836 92.88 95.9476 92.632 96.4756 92.472C97.0196 92.296 97.6036 92.208 98.2276 92.208C98.8196 92.208 99.4036 92.288 99.9796 92.448C100.556 92.608 101.092 92.84 101.588 93.144C102.084 93.448 102.508 93.808 102.86 94.224L101.756 95.424C101.452 95.104 101.116 94.816 100.748 94.56C100.38 94.304 99.9876 94.104 99.5716 93.96C99.1716 93.816 98.7556 93.744 98.3236 93.744C97.9396 93.744 97.5796 93.792 97.2436 93.888C96.9236 93.984 96.6436 94.12 96.4036 94.296C96.1796 94.456 96.0036 94.656 95.8756 94.896C95.7636 95.136 95.7076 95.4 95.7076 95.688C95.7076 95.928 95.7556 96.144 95.8516 96.336C95.9476 96.528 96.0836 96.696 96.2596 96.84C96.4836 97.016 96.7956 97.184 97.1956 97.344C97.6116 97.488 98.1236 97.64 98.7316 97.8C99.4356 97.992 100.028 98.192 100.508 98.4C101.004 98.592 101.412 98.824 101.732 99.096C102.164 99.416 102.468 99.784 102.644 100.2C102.836 100.616 102.932 101.088 102.932 101.616C102.932 102.32 102.732 102.944 102.332 103.488C101.948 104.032 101.412 104.464 100.724 104.784C100.036 105.088 99.2516 105.24 98.3716 105.24ZM105.848 109.464L104.864 108.336C106.576 107.136 107.88 105.728 108.776 104.112C109.672 102.48 110.12 100.712 110.12 98.808C110.12 96.904 109.672 95.144 108.776 93.528C107.88 91.896 106.576 90.48 104.864 89.28L105.872 88.152C107.824 89.368 109.312 90.888 110.336 92.712C111.36 94.536 111.872 96.568 111.872 98.808C111.872 101.032 111.352 103.064 110.312 104.904C109.288 106.728 107.8 108.248 105.848 109.464ZM121.56 105V92.472H123.36V105H121.56ZM122.448 89.76C122 89.76 121.656 89.648 121.416 89.424C121.192 89.184 121.08 88.864 121.08 88.464C121.08 88.064 121.2 87.744 121.44 87.504C121.68 87.264 122.016 87.144 122.448 87.144C122.88 87.144 123.216 87.264 123.456 87.504C123.696 87.728 123.816 88.048 123.816 88.464C123.816 88.848 123.696 89.16 123.456 89.4C123.216 89.64 122.88 89.76 122.448 89.76ZM127.267 105V92.472H129.067L129.115 95.328L128.755 95.448C128.883 94.968 129.091 94.536 129.379 94.152C129.683 93.752 130.043 93.408 130.459 93.12C130.875 92.832 131.331 92.616 131.827 92.472C132.323 92.312 132.843 92.232 133.387 92.232C134.043 92.232 134.627 92.344 135.139 92.568C135.667 92.776 136.107 93.144 136.459 93.672C136.827 94.184 137.107 94.864 137.299 95.712L136.867 95.496L137.035 95.088C137.195 94.72 137.427 94.368 137.731 94.032C138.051 93.68 138.411 93.368 138.811 93.096C139.227 92.824 139.675 92.616 140.155 92.472C140.651 92.312 141.155 92.232 141.667 92.232C142.547 92.232 143.291 92.424 143.899 92.808C144.507 93.176 144.963 93.744 145.267 94.512C145.587 95.28 145.747 96.256 145.747 97.44V105H143.899V97.536C143.899 96.704 143.795 96.024 143.587 95.496C143.379 94.968 143.067 94.576 142.651 94.32C142.251 94.048 141.739 93.912 141.115 93.912C140.571 93.912 140.067 94.008 139.603 94.2C139.155 94.376 138.763 94.632 138.427 94.968C138.107 95.288 137.851 95.656 137.659 96.072C137.483 96.488 137.395 96.936 137.395 97.416V105H135.571V97.512C135.571 96.712 135.459 96.048 135.235 95.52C135.027 94.992 134.715 94.592 134.299 94.32C133.883 94.048 133.371 93.912 132.763 93.912C132.235 93.912 131.747 94.008 131.299 94.2C130.851 94.376 130.459 94.624 130.123 94.944C129.803 95.264 129.547 95.632 129.355 96.048C129.179 96.464 129.091 96.912 129.091 97.392V105H127.267ZM154.054 105.24C152.966 105.24 151.982 104.96 151.102 104.4C150.222 103.824 149.526 103.048 149.014 102.072C148.502 101.08 148.246 99.96 148.246 98.712C148.246 97.448 148.51 96.328 149.038 95.352C149.566 94.376 150.27 93.608 151.15 93.048C152.046 92.488 153.046 92.208 154.15 92.208C154.806 92.208 155.414 92.304 155.974 92.496C156.534 92.688 157.03 92.96 157.462 93.312C157.91 93.648 158.278 94.048 158.566 94.512C158.87 94.96 159.078 95.448 159.19 95.976L158.662 95.712L158.734 92.472H160.534V105H158.71V101.928L159.19 101.616C159.078 102.096 158.862 102.56 158.542 103.008C158.222 103.44 157.83 103.824 157.366 104.16C156.918 104.496 156.406 104.76 155.83 104.952C155.27 105.144 154.678 105.24 154.054 105.24ZM154.462 103.512C155.294 103.512 156.038 103.312 156.694 102.912C157.35 102.496 157.862 101.928 158.23 101.208C158.614 100.472 158.806 99.64 158.806 98.712C158.806 97.784 158.614 96.96 158.23 96.24C157.862 95.52 157.35 94.952 156.694 94.536C156.038 94.12 155.294 93.912 154.462 93.912C153.614 93.912 152.862 94.12 152.206 94.536C151.566 94.952 151.054 95.52 150.67 96.24C150.302 96.96 150.118 97.784 150.118 98.712C150.118 99.624 150.302 100.448 150.67 101.184C151.038 101.904 151.55 102.472 152.206 102.888C152.862 103.304 153.614 103.512 154.462 103.512ZM169.441 110.52C168.513 110.52 167.633 110.376 166.801 110.088C165.969 109.8 165.281 109.44 164.737 109.008L165.457 107.496C165.777 107.752 166.145 107.976 166.561 108.168C166.993 108.376 167.457 108.536 167.953 108.648C168.449 108.776 168.953 108.84 169.465 108.84C170.393 108.84 171.177 108.664 171.817 108.312C172.473 107.976 172.969 107.472 173.305 106.8C173.657 106.128 173.833 105.296 173.833 104.304V101.904L174.121 101.832C173.977 102.44 173.665 103.008 173.185 103.536C172.705 104.048 172.121 104.464 171.433 104.784C170.745 105.088 170.017 105.24 169.249 105.24C168.081 105.24 167.033 104.96 166.105 104.4C165.193 103.84 164.473 103.072 163.945 102.096C163.417 101.104 163.153 99.984 163.153 98.736C163.153 97.472 163.417 96.352 163.945 95.376C164.489 94.384 165.217 93.608 166.129 93.048C167.041 92.488 168.065 92.208 169.201 92.208C169.697 92.208 170.177 92.272 170.641 92.4C171.105 92.512 171.529 92.68 171.913 92.904C172.313 93.128 172.673 93.384 172.993 93.672C173.313 93.96 173.577 94.272 173.785 94.608C174.009 94.944 174.169 95.288 174.265 95.64L173.761 95.568L173.833 92.472H175.633V104.232C175.633 105.24 175.489 106.128 175.201 106.896C174.913 107.68 174.489 108.336 173.929 108.864C173.385 109.408 172.729 109.816 171.961 110.088C171.209 110.376 170.369 110.52 169.441 110.52ZM169.465 103.512C170.313 103.512 171.065 103.312 171.721 102.912C172.393 102.496 172.921 101.928 173.305 101.208C173.689 100.488 173.881 99.656 173.881 98.712C173.881 97.784 173.689 96.96 173.305 96.24C172.937 95.52 172.417 94.952 171.745 94.536C171.073 94.12 170.313 93.912 169.465 93.912C168.601 93.912 167.833 94.12 167.161 94.536C166.505 94.952 165.985 95.52 165.601 96.24C165.217 96.96 165.025 97.784 165.025 98.712C165.025 99.624 165.209 100.448 165.577 101.184C165.961 101.904 166.481 102.472 167.137 102.888C167.809 103.304 168.585 103.512 169.465 103.512ZM184.655 105.24C183.407 105.24 182.295 104.968 181.319 104.424C180.359 103.88 179.607 103.12 179.063 102.144C178.519 101.168 178.247 100.048 178.247 98.784C178.247 97.808 178.399 96.928 178.703 96.144C179.007 95.344 179.431 94.648 179.975 94.056C180.535 93.464 181.199 93.008 181.967 92.688C182.735 92.352 183.567 92.184 184.463 92.184C185.311 92.184 186.079 92.336 186.767 92.64C187.471 92.944 188.071 93.368 188.567 93.912C189.079 94.44 189.463 95.072 189.719 95.808C189.975 96.544 190.087 97.352 190.055 98.232L190.031 99.072H179.591L179.327 97.56H188.663L188.231 97.968V97.392C188.199 96.816 188.031 96.264 187.727 95.736C187.423 95.192 186.991 94.752 186.431 94.416C185.887 94.08 185.231 93.912 184.463 93.912C183.567 93.912 182.791 94.096 182.135 94.464C181.479 94.816 180.975 95.344 180.623 96.048C180.271 96.752 180.095 97.624 180.095 98.664C180.095 99.656 180.287 100.52 180.671 101.256C181.055 101.976 181.599 102.536 182.303 102.936C183.023 103.336 183.887 103.536 184.895 103.536C185.487 103.536 186.071 103.44 186.647 103.248C187.239 103.04 187.887 102.64 188.591 102.048L189.527 103.344C189.159 103.712 188.719 104.04 188.207 104.328C187.695 104.6 187.135 104.824 186.527 105C185.919 105.16 185.295 105.24 184.655 105.24ZM192.587 105V92.472H194.387L194.435 95.328L194.075 95.448C194.203 94.968 194.411 94.536 194.699 94.152C195.003 93.752 195.363 93.408 195.779 93.12C196.195 92.832 196.651 92.616 197.147 92.472C197.643 92.312 198.163 92.232 198.707 92.232C199.363 92.232 199.947 92.344 200.459 92.568C200.987 92.776 201.427 93.144 201.779 93.672C202.147 94.184 202.427 94.864 202.619 95.712L202.187 95.496L202.355 95.088C202.515 94.72 202.747 94.368 203.051 94.032C203.371 93.68 203.731 93.368 204.131 93.096C204.547 92.824 204.995 92.616 205.475 92.472C205.971 92.312 206.475 92.232 206.987 92.232C207.867 92.232 208.611 92.424 209.219 92.808C209.827 93.176 210.283 93.744 210.587 94.512C210.907 95.28 211.067 96.256 211.067 97.44V105H209.219V97.536C209.219 96.704 209.115 96.024 208.907 95.496C208.699 94.968 208.387 94.576 207.971 94.32C207.571 94.048 207.059 93.912 206.435 93.912C205.891 93.912 205.387 94.008 204.923 94.2C204.475 94.376 204.083 94.632 203.747 94.968C203.427 95.288 203.171 95.656 202.979 96.072C202.803 96.488 202.715 96.936 202.715 97.416V105H200.891V97.512C200.891 96.712 200.779 96.048 200.555 95.52C200.347 94.992 200.035 94.592 199.619 94.32C199.203 94.048 198.691 93.912 198.083 93.912C197.555 93.912 197.067 94.008 196.619 94.2C196.171 94.376 195.779 94.624 195.443 94.944C195.123 95.264 194.867 95.632 194.675 96.048C194.499 96.464 194.411 96.912 194.411 97.392V105H192.587ZM219.447 109.464C217.495 108.248 216.007 106.728 214.983 104.904C213.959 103.08 213.447 101.048 213.447 98.808C213.447 96.584 213.959 94.56 214.983 92.736C216.023 90.896 217.519 89.368 219.471 88.152L220.455 89.28C218.743 90.48 217.431 91.896 216.519 93.528C215.623 95.144 215.175 96.904 215.175 98.808C215.175 100.712 215.623 102.48 216.519 104.112C217.431 105.728 218.743 107.136 220.455 108.336L219.447 109.464ZM227.184 105.24C226.112 105.24 225.152 105.04 224.304 104.64C223.456 104.24 222.784 103.712 222.288 103.056L223.56 101.952C224.024 102.512 224.568 102.936 225.192 103.224C225.832 103.512 226.544 103.656 227.328 103.656C227.728 103.656 228.088 103.616 228.408 103.536C228.728 103.44 229.008 103.304 229.248 103.128C229.488 102.952 229.672 102.744 229.8 102.504C229.928 102.264 229.992 102 229.992 101.712C229.992 101.184 229.76 100.744 229.296 100.392C229.088 100.248 228.792 100.104 228.408 99.96C228.024 99.8 227.56 99.648 227.016 99.504C226.12 99.248 225.376 98.992 224.784 98.736C224.192 98.464 223.728 98.152 223.392 97.8C223.152 97.512 222.968 97.2 222.84 96.864C222.728 96.528 222.672 96.16 222.672 95.76C222.672 95.248 222.776 94.776 222.984 94.344C223.208 93.912 223.512 93.536 223.896 93.216C224.296 92.88 224.76 92.632 225.288 92.472C225.832 92.296 226.416 92.208 227.04 92.208C227.632 92.208 228.216 92.288 228.792 92.448C229.368 92.608 229.904 92.84 230.4 93.144C230.896 93.448 231.32 93.808 231.672 94.224L230.568 95.424C230.264 95.104 229.928 94.816 229.56 94.56C229.192 94.304 228.8 94.104 228.384 93.96C227.984 93.816 227.568 93.744 227.136 93.744C226.752 93.744 226.392 93.792 226.056 93.888C225.736 93.984 225.456 94.12 225.216 94.296C224.992 94.456 224.816 94.656 224.688 94.896C224.576 95.136 224.52 95.4 224.52 95.688C224.52 95.928 224.568 96.144 224.664 96.336C224.76 96.528 224.896 96.696 225.072 96.84C225.296 97.016 225.608 97.184 226.008 97.344C226.424 97.488 226.936 97.64 227.544 97.8C228.248 97.992 228.84 98.192 229.32 98.4C229.816 98.592 230.224 98.824 230.544 99.096C230.976 99.416 231.28 99.784 231.456 100.2C231.648 100.616 231.744 101.088 231.744 101.616C231.744 102.32 231.544 102.944 231.144 103.488C230.76 104.032 230.224 104.464 229.536 104.784C228.848 105.088 228.064 105.24 227.184 105.24ZM234.661 109.464L233.677 108.336C235.389 107.136 236.693 105.728 237.589 104.112C238.485 102.48 238.933 100.712 238.933 98.808C238.933 96.904 238.485 95.144 237.589 93.528C236.693 91.896 235.389 90.48 233.677 89.28L234.685 88.152C236.637 89.368 238.125 90.888 239.148 92.712C240.173 94.536 240.685 96.568 240.685 98.808C240.685 101.032 240.165 103.064 239.125 104.904C238.101 106.728 236.613 108.248 234.661 109.464Z" fill="#E50000"/>
<path d="M68.9938 134L73.2818 122.8H74.7058L78.9618 134H77.6018L74.8658 126.736C74.7911 126.533 74.7058 126.299 74.6098 126.032C74.5244 125.755 74.4284 125.472 74.3218 125.184C74.2258 124.885 74.1298 124.597 74.0338 124.32C73.9484 124.043 73.8684 123.797 73.7938 123.584H74.1138C74.0284 123.851 73.9378 124.123 73.8418 124.4C73.7564 124.667 73.6658 124.939 73.5698 125.216C73.4738 125.483 73.3778 125.749 73.2818 126.016C73.1858 126.283 73.0898 126.549 72.9938 126.816L70.2738 134H68.9938ZM70.8178 130.912L71.2818 129.696H76.5778L77.0898 130.912H70.8178ZM83.2634 134.16C82.5487 134.16 81.9087 134.027 81.3434 133.76C80.778 133.493 80.33 133.141 79.9994 132.704L80.8474 131.968C81.1567 132.341 81.5194 132.624 81.9354 132.816C82.362 133.008 82.8367 133.104 83.3594 133.104C83.626 133.104 83.866 133.077 84.0794 133.024C84.2927 132.96 84.4794 132.869 84.6394 132.752C84.7994 132.635 84.922 132.496 85.0074 132.336C85.0927 132.176 85.1354 132 85.1354 131.808C85.1354 131.456 84.9807 131.163 84.6714 130.928C84.5327 130.832 84.3354 130.736 84.0794 130.64C83.8234 130.533 83.514 130.432 83.1514 130.336C82.554 130.165 82.058 129.995 81.6634 129.824C81.2687 129.643 80.9594 129.435 80.7354 129.2C80.5754 129.008 80.4527 128.8 80.3674 128.576C80.2927 128.352 80.2554 128.107 80.2554 127.84C80.2554 127.499 80.3247 127.184 80.4634 126.896C80.6127 126.608 80.8154 126.357 81.0714 126.144C81.338 125.92 81.6474 125.755 81.9994 125.648C82.362 125.531 82.7514 125.472 83.1674 125.472C83.562 125.472 83.9514 125.525 84.3354 125.632C84.7194 125.739 85.0767 125.893 85.4074 126.096C85.738 126.299 86.0207 126.539 86.2554 126.816L85.5194 127.616C85.3167 127.403 85.0927 127.211 84.8474 127.04C84.602 126.869 84.3407 126.736 84.0634 126.64C83.7967 126.544 83.5194 126.496 83.2314 126.496C82.9754 126.496 82.7354 126.528 82.5114 126.592C82.298 126.656 82.1114 126.747 81.9514 126.864C81.802 126.971 81.6847 127.104 81.5994 127.264C81.5247 127.424 81.4874 127.6 81.4874 127.792C81.4874 127.952 81.5194 128.096 81.5834 128.224C81.6474 128.352 81.738 128.464 81.8554 128.56C82.0047 128.677 82.2127 128.789 82.4794 128.896C82.7567 128.992 83.098 129.093 83.5034 129.2C83.9727 129.328 84.3674 129.461 84.6874 129.6C85.018 129.728 85.29 129.883 85.5034 130.064C85.7914 130.277 85.994 130.523 86.1114 130.8C86.2394 131.077 86.3034 131.392 86.3034 131.744C86.3034 132.213 86.17 132.629 85.9034 132.992C85.6474 133.355 85.29 133.643 84.8314 133.856C84.3727 134.059 83.85 134.16 83.2634 134.16ZM92.62 134V132.816H94.428V123.984H92.62V122.8H97.484V123.984H95.676V132.816H97.484V134H92.62ZM99.7614 134V125.648H100.961L100.993 127.552L100.753 127.632C100.839 127.312 100.977 127.024 101.169 126.768C101.372 126.501 101.612 126.272 101.889 126.08C102.167 125.888 102.471 125.744 102.801 125.648C103.132 125.541 103.479 125.488 103.841 125.488C104.279 125.488 104.668 125.563 105.009 125.712C105.361 125.851 105.655 126.096 105.889 126.448C106.135 126.789 106.321 127.243 106.449 127.808L106.161 127.664L106.273 127.392C106.38 127.147 106.535 126.912 106.737 126.688C106.951 126.453 107.191 126.245 107.457 126.064C107.735 125.883 108.033 125.744 108.353 125.648C108.684 125.541 109.02 125.488 109.361 125.488C109.948 125.488 110.444 125.616 110.849 125.872C111.255 126.117 111.559 126.496 111.761 127.008C111.975 127.52 112.081 128.171 112.081 128.96V134H110.849V129.024C110.849 128.469 110.78 128.016 110.641 127.664C110.503 127.312 110.295 127.051 110.017 126.88C109.751 126.699 109.409 126.608 108.993 126.608C108.631 126.608 108.295 126.672 107.985 126.8C107.687 126.917 107.425 127.088 107.201 127.312C106.988 127.525 106.817 127.771 106.689 128.048C106.572 128.325 106.513 128.624 106.513 128.944V134H105.297V129.008C105.297 128.475 105.223 128.032 105.073 127.68C104.935 127.328 104.727 127.061 104.449 126.88C104.172 126.699 103.831 126.608 103.425 126.608C103.073 126.608 102.748 126.672 102.449 126.8C102.151 126.917 101.889 127.083 101.665 127.296C101.452 127.509 101.281 127.755 101.153 128.032C101.036 128.309 100.977 128.608 100.977 128.928V134H99.7614ZM117.62 134.16C116.894 134.16 116.238 133.973 115.652 133.6C115.065 133.216 114.601 132.699 114.26 132.048C113.918 131.387 113.748 130.64 113.748 129.808C113.748 128.965 113.924 128.219 114.276 127.568C114.628 126.917 115.097 126.405 115.684 126.032C116.281 125.659 116.948 125.472 117.684 125.472C118.121 125.472 118.526 125.536 118.9 125.664C119.273 125.792 119.604 125.973 119.892 126.208C120.19 126.432 120.436 126.699 120.628 127.008C120.83 127.307 120.969 127.632 121.044 127.984L120.692 127.808L120.74 125.648H121.94V134H120.724V131.952L121.044 131.744C120.969 132.064 120.825 132.373 120.612 132.672C120.398 132.96 120.137 133.216 119.828 133.44C119.529 133.664 119.188 133.84 118.804 133.968C118.43 134.096 118.036 134.16 117.62 134.16ZM117.891 133.008C118.446 133.008 118.942 132.875 119.38 132.608C119.817 132.331 120.158 131.952 120.404 131.472C120.66 130.981 120.788 130.427 120.788 129.808C120.788 129.189 120.66 128.64 120.404 128.16C120.158 127.68 119.817 127.301 119.38 127.024C118.942 126.747 118.446 126.608 117.891 126.608C117.326 126.608 116.825 126.747 116.388 127.024C115.961 127.301 115.62 127.68 115.364 128.16C115.118 128.64 114.996 129.189 114.996 129.808C114.996 130.416 115.118 130.965 115.364 131.456C115.609 131.936 115.95 132.315 116.388 132.592C116.825 132.869 117.326 133.008 117.891 133.008ZM127.877 137.68C127.259 137.68 126.672 137.584 126.117 137.392C125.563 137.2 125.104 136.96 124.741 136.672L125.221 135.664C125.435 135.835 125.68 135.984 125.957 136.112C126.245 136.251 126.555 136.357 126.885 136.432C127.216 136.517 127.552 136.56 127.893 136.56C128.512 136.56 129.035 136.443 129.461 136.208C129.899 135.984 130.229 135.648 130.453 135.2C130.688 134.752 130.805 134.197 130.805 133.536V131.936L130.997 131.888C130.901 132.293 130.693 132.672 130.373 133.024C130.053 133.365 129.664 133.643 129.205 133.856C128.747 134.059 128.261 134.16 127.749 134.16C126.971 134.16 126.272 133.973 125.653 133.6C125.045 133.227 124.565 132.715 124.213 132.064C123.861 131.403 123.685 130.656 123.685 129.824C123.685 128.981 123.861 128.235 124.213 127.584C124.576 126.923 125.061 126.405 125.669 126.032C126.277 125.659 126.96 125.472 127.717 125.472C128.048 125.472 128.368 125.515 128.677 125.6C128.987 125.675 129.269 125.787 129.525 125.936C129.792 126.085 130.032 126.256 130.245 126.448C130.459 126.64 130.635 126.848 130.773 127.072C130.923 127.296 131.029 127.525 131.093 127.76L130.757 127.712L130.805 125.648H132.005V133.488C132.005 134.16 131.909 134.752 131.717 135.264C131.525 135.787 131.243 136.224 130.869 136.576C130.507 136.939 130.069 137.211 129.557 137.392C129.056 137.584 128.496 137.68 127.877 137.68ZM127.893 133.008C128.459 133.008 128.96 132.875 129.397 132.608C129.845 132.331 130.197 131.952 130.453 131.472C130.709 130.992 130.837 130.437 130.837 129.808C130.837 129.189 130.709 128.64 130.453 128.16C130.208 127.68 129.861 127.301 129.413 127.024C128.965 126.747 128.459 126.608 127.893 126.608C127.317 126.608 126.805 126.747 126.357 127.024C125.92 127.301 125.573 127.68 125.317 128.16C125.061 128.64 124.933 129.189 124.933 129.808C124.933 130.416 125.056 130.965 125.301 131.456C125.557 131.936 125.904 132.315 126.341 132.592C126.789 132.869 127.307 133.008 127.893 133.008ZM138.02 134.16C137.188 134.16 136.447 133.979 135.796 133.616C135.156 133.253 134.655 132.747 134.292 132.096C133.929 131.445 133.748 130.699 133.748 129.856C133.748 129.205 133.849 128.619 134.052 128.096C134.255 127.563 134.537 127.099 134.9 126.704C135.273 126.309 135.716 126.005 136.228 125.792C136.74 125.568 137.295 125.456 137.892 125.456C138.457 125.456 138.969 125.557 139.428 125.76C139.897 125.963 140.297 126.245 140.628 126.608C140.969 126.96 141.225 127.381 141.396 127.872C141.567 128.363 141.641 128.901 141.62 129.488L141.604 130.048H134.644L134.468 129.04H140.692L140.404 129.312V128.928C140.383 128.544 140.271 128.176 140.068 127.824C139.865 127.461 139.577 127.168 139.204 126.944C138.841 126.72 138.404 126.608 137.892 126.608C137.295 126.608 136.777 126.731 136.34 126.976C135.903 127.211 135.567 127.563 135.332 128.032C135.097 128.501 134.98 129.083 134.98 129.776C134.98 130.437 135.108 131.013 135.364 131.504C135.62 131.984 135.983 132.357 136.452 132.624C136.932 132.891 137.508 133.024 138.18 133.024C138.575 133.024 138.964 132.96 139.348 132.832C139.743 132.693 140.175 132.427 140.644 132.032L141.268 132.896C141.023 133.141 140.729 133.36 140.388 133.552C140.047 133.733 139.673 133.883 139.268 134C138.863 134.107 138.447 134.16 138.02 134.16ZM143.324 134V125.648H144.508L144.556 127.392L144.364 127.472C144.471 127.109 144.679 126.779 144.988 126.48C145.298 126.181 145.666 125.941 146.092 125.76C146.53 125.568 146.978 125.472 147.436 125.472C148.055 125.472 148.572 125.595 148.988 125.84C149.404 126.085 149.719 126.464 149.932 126.976C150.146 127.488 150.252 128.139 150.252 128.928V134H149.036V128.992C149.036 128.437 148.962 127.984 148.812 127.632C148.674 127.269 148.455 127.003 148.156 126.832C147.858 126.661 147.49 126.581 147.052 126.592C146.69 126.592 146.354 126.656 146.044 126.784C145.735 126.901 145.468 127.067 145.244 127.28C145.02 127.493 144.844 127.739 144.716 128.016C144.588 128.293 144.524 128.592 144.524 128.912V134H143.932C143.858 134 143.772 134 143.676 134C143.58 134 143.463 134 143.324 134ZM155.279 134.16C154.564 134.16 153.924 134.027 153.359 133.76C152.794 133.493 152.346 133.141 152.015 132.704L152.863 131.968C153.172 132.341 153.535 132.624 153.951 132.816C154.378 133.008 154.852 133.104 155.375 133.104C155.642 133.104 155.882 133.077 156.095 133.024C156.308 132.96 156.495 132.869 156.655 132.752C156.815 132.635 156.938 132.496 157.023 132.336C157.108 132.176 157.151 132 157.151 131.808C157.151 131.456 156.996 131.163 156.687 130.928C156.548 130.832 156.351 130.736 156.095 130.64C155.839 130.533 155.53 130.432 155.167 130.336C154.57 130.165 154.074 129.995 153.679 129.824C153.284 129.643 152.975 129.435 152.751 129.2C152.591 129.008 152.468 128.8 152.383 128.576C152.308 128.352 152.271 128.107 152.271 127.84C152.271 127.499 152.34 127.184 152.479 126.896C152.628 126.608 152.831 126.357 153.087 126.144C153.354 125.92 153.663 125.755 154.015 125.648C154.378 125.531 154.767 125.472 155.183 125.472C155.578 125.472 155.967 125.525 156.351 125.632C156.735 125.739 157.092 125.893 157.423 126.096C157.754 126.299 158.036 126.539 158.271 126.816L157.535 127.616C157.332 127.403 157.108 127.211 156.863 127.04C156.618 126.869 156.356 126.736 156.079 126.64C155.812 126.544 155.535 126.496 155.247 126.496C154.991 126.496 154.751 126.528 154.527 126.592C154.314 126.656 154.127 126.747 153.967 126.864C153.818 126.971 153.7 127.104 153.615 127.264C153.54 127.424 153.503 127.6 153.503 127.792C153.503 127.952 153.535 128.096 153.599 128.224C153.663 128.352 153.754 128.464 153.871 128.56C154.02 128.677 154.228 128.789 154.495 128.896C154.772 128.992 155.114 129.093 155.519 129.2C155.988 129.328 156.383 129.461 156.703 129.6C157.034 129.728 157.306 129.883 157.519 130.064C157.807 130.277 158.01 130.523 158.127 130.8C158.255 131.077 158.319 131.392 158.319 131.744C158.319 132.213 158.186 132.629 157.919 132.992C157.663 133.355 157.306 133.643 156.847 133.856C156.388 134.059 155.866 134.16 155.279 134.16ZM167.42 134.16C166.705 134.16 166.065 134.027 165.5 133.76C164.934 133.493 164.486 133.141 164.156 132.704L165.004 131.968C165.313 132.341 165.676 132.624 166.092 132.816C166.518 133.008 166.993 133.104 167.516 133.104C167.782 133.104 168.022 133.077 168.236 133.024C168.449 132.96 168.636 132.869 168.796 132.752C168.956 132.635 169.078 132.496 169.164 132.336C169.249 132.176 169.292 132 169.292 131.808C169.292 131.456 169.137 131.163 168.828 130.928C168.689 130.832 168.492 130.736 168.236 130.64C167.98 130.533 167.67 130.432 167.308 130.336C166.71 130.165 166.214 129.995 165.82 129.824C165.425 129.643 165.116 129.435 164.892 129.2C164.732 129.008 164.609 128.8 164.524 128.576C164.449 128.352 164.412 128.107 164.412 127.84C164.412 127.499 164.481 127.184 164.62 126.896C164.769 126.608 164.972 126.357 165.228 126.144C165.494 125.92 165.804 125.755 166.156 125.648C166.518 125.531 166.908 125.472 167.324 125.472C167.718 125.472 168.108 125.525 168.492 125.632C168.876 125.739 169.233 125.893 169.564 126.096C169.894 126.299 170.177 126.539 170.412 126.816L169.676 127.616C169.473 127.403 169.249 127.211 169.004 127.04C168.758 126.869 168.497 126.736 168.22 126.64C167.953 126.544 167.676 126.496 167.388 126.496C167.132 126.496 166.892 126.528 166.668 126.592C166.454 126.656 166.268 126.747 166.108 126.864C165.958 126.971 165.841 127.104 165.756 127.264C165.681 127.424 165.644 127.6 165.644 127.792C165.644 127.952 165.676 128.096 165.74 128.224C165.804 128.352 165.894 128.464 166.012 128.56C166.161 128.677 166.369 128.789 166.636 128.896C166.913 128.992 167.254 129.093 167.66 129.2C168.129 129.328 168.524 129.461 168.844 129.6C169.174 129.728 169.446 129.883 169.66 130.064C169.948 130.277 170.15 130.523 170.268 130.8C170.396 131.077 170.46 131.392 170.46 131.744C170.46 132.213 170.326 132.629 170.06 132.992C169.804 133.355 169.446 133.643 168.988 133.856C168.529 134.059 168.006 134.16 167.42 134.16ZM176.02 134.16C175.188 134.16 174.447 133.979 173.796 133.616C173.156 133.253 172.655 132.747 172.292 132.096C171.929 131.445 171.748 130.699 171.748 129.856C171.748 129.205 171.849 128.619 172.052 128.096C172.255 127.563 172.537 127.099 172.9 126.704C173.273 126.309 173.716 126.005 174.228 125.792C174.74 125.568 175.295 125.456 175.892 125.456C176.457 125.456 176.969 125.557 177.428 125.76C177.897 125.963 178.297 126.245 178.628 126.608C178.969 126.96 179.225 127.381 179.396 127.872C179.567 128.363 179.641 128.901 179.62 129.488L179.604 130.048H172.644L172.468 129.04H178.692L178.404 129.312V128.928C178.383 128.544 178.271 128.176 178.068 127.824C177.865 127.461 177.577 127.168 177.204 126.944C176.841 126.72 176.404 126.608 175.892 126.608C175.295 126.608 174.777 126.731 174.34 126.976C173.903 127.211 173.567 127.563 173.332 128.032C173.097 128.501 172.98 129.083 172.98 129.776C172.98 130.437 173.108 131.013 173.364 131.504C173.62 131.984 173.983 132.357 174.452 132.624C174.932 132.891 175.508 133.024 176.18 133.024C176.575 133.024 176.964 132.96 177.348 132.832C177.743 132.693 178.175 132.427 178.644 132.032L179.268 132.896C179.023 133.141 178.729 133.36 178.388 133.552C178.047 133.733 177.673 133.883 177.268 134C176.863 134.107 176.447 134.16 176.02 134.16ZM181.324 134V125.648H182.524L182.556 127.872L182.428 127.568C182.546 127.195 182.732 126.848 182.988 126.528C183.255 126.208 183.57 125.952 183.932 125.76C184.295 125.568 184.695 125.472 185.132 125.472C185.314 125.472 185.484 125.488 185.644 125.52C185.804 125.541 185.938 125.573 186.044 125.616L185.708 126.96C185.57 126.896 185.426 126.853 185.276 126.832C185.138 126.8 185.004 126.784 184.876 126.784C184.514 126.784 184.188 126.848 183.9 126.976C183.612 127.104 183.367 127.285 183.164 127.52C182.962 127.744 182.807 128.005 182.7 128.304C182.594 128.603 182.54 128.923 182.54 129.264V134H181.324ZM190.198 134.16C189.472 134.16 188.816 133.973 188.23 133.6C187.643 133.216 187.179 132.699 186.838 132.048C186.496 131.387 186.326 130.64 186.326 129.808C186.326 128.965 186.502 128.219 186.854 127.568C187.206 126.917 187.675 126.405 188.262 126.032C188.859 125.659 189.526 125.472 190.262 125.472C190.699 125.472 191.104 125.536 191.478 125.664C191.851 125.792 192.182 125.973 192.47 126.208C192.768 126.432 193.014 126.699 193.206 127.008C193.408 127.307 193.547 127.632 193.622 127.984L193.27 127.808L193.318 125.648H194.518V134H193.302V131.952L193.622 131.744C193.547 132.064 193.403 132.373 193.19 132.672C192.976 132.96 192.715 133.216 192.406 133.44C192.107 133.664 191.766 133.84 191.382 133.968C191.008 134.096 190.614 134.16 190.198 134.16ZM190.47 133.008C191.024 133.008 191.52 132.875 191.958 132.608C192.395 132.331 192.736 131.952 192.982 131.472C193.238 130.981 193.366 130.427 193.366 129.808C193.366 129.189 193.238 128.64 192.982 128.16C192.736 127.68 192.395 127.301 191.958 127.024C191.52 126.747 191.024 126.608 190.47 126.608C189.904 126.608 189.403 126.747 188.966 127.024C188.539 127.301 188.198 127.68 187.942 128.16C187.696 128.64 187.574 129.189 187.574 129.808C187.574 130.416 187.696 130.965 187.942 131.456C188.187 131.936 188.528 132.315 188.966 132.592C189.403 132.869 189.904 133.008 190.47 133.008ZM191.67 124.192C191.446 124.192 191.248 124.144 191.078 124.048C190.918 123.952 190.731 123.808 190.518 123.616C190.368 123.477 190.24 123.376 190.134 123.312C190.038 123.248 189.936 123.216 189.83 123.216C189.648 123.216 189.494 123.296 189.366 123.456C189.238 123.605 189.152 123.835 189.11 124.144L188.246 124.032C188.288 123.552 188.459 123.147 188.758 122.816C189.056 122.475 189.44 122.304 189.91 122.304C190.112 122.304 190.294 122.347 190.454 122.432C190.614 122.517 190.8 122.656 191.014 122.848C191.174 122.976 191.302 123.077 191.398 123.152C191.494 123.227 191.6 123.264 191.718 123.264C191.878 123.264 192.011 123.189 192.118 123.04C192.235 122.891 192.31 122.688 192.342 122.432L193.222 122.544C193.2 122.843 193.12 123.12 192.982 123.376C192.854 123.621 192.678 123.819 192.454 123.968C192.23 124.117 191.968 124.192 191.67 124.192ZM200.552 134.16C199.72 134.16 198.978 133.973 198.328 133.6C197.688 133.227 197.181 132.709 196.808 132.048C196.445 131.387 196.264 130.635 196.264 129.792C196.264 128.96 196.445 128.219 196.808 127.568C197.181 126.917 197.688 126.405 198.328 126.032C198.978 125.659 199.72 125.472 200.552 125.472C201.373 125.472 202.104 125.659 202.744 126.032C203.394 126.405 203.901 126.917 204.264 127.568C204.637 128.219 204.824 128.96 204.824 129.792C204.824 130.635 204.637 131.387 204.264 132.048C203.901 132.709 203.394 133.227 202.744 133.6C202.104 133.973 201.373 134.16 200.552 134.16ZM200.552 133.024C201.138 133.024 201.661 132.885 202.12 132.608C202.578 132.32 202.936 131.936 203.192 131.456C203.448 130.965 203.576 130.411 203.576 129.792C203.576 129.173 203.448 128.624 203.192 128.144C202.936 127.664 202.578 127.291 202.12 127.024C201.661 126.747 201.138 126.608 200.552 126.608C199.965 126.608 199.437 126.747 198.968 127.024C198.509 127.291 198.146 127.669 197.88 128.16C197.624 128.64 197.501 129.184 197.512 129.792C197.501 130.411 197.624 130.965 197.88 131.456C198.146 131.936 198.509 132.32 198.968 132.608C199.437 132.885 199.965 133.024 200.552 133.024ZM31.5977 157.52V145.648H32.7977L32.8297 147.68L32.6057 147.712C32.7017 147.307 32.9097 146.939 33.2297 146.608C33.5497 146.267 33.939 145.995 34.3977 145.792C34.8564 145.589 35.3417 145.488 35.8537 145.488C36.6004 145.488 37.267 145.675 37.8537 146.048C38.451 146.421 38.9257 146.933 39.2777 147.584C39.6297 148.235 39.8057 148.981 39.8057 149.824C39.8057 150.656 39.635 151.397 39.2937 152.048C38.9524 152.699 38.483 153.216 37.8857 153.6C37.2884 153.973 36.6164 154.16 35.8697 154.16C35.347 154.16 34.851 154.053 34.3817 153.84C33.9124 153.627 33.5124 153.349 33.1817 153.008C32.851 152.656 32.6324 152.277 32.5257 151.872H32.8137V157.52H31.5977ZM35.6777 153.008C36.243 153.008 36.7444 152.869 37.1817 152.592C37.619 152.315 37.9657 151.936 38.2217 151.456C38.4777 150.976 38.6057 150.432 38.6057 149.824C38.6057 149.205 38.4777 148.656 38.2217 148.176C37.9657 147.696 37.619 147.317 37.1817 147.04C36.7444 146.763 36.243 146.624 35.6777 146.624C35.1124 146.624 34.6057 146.763 34.1577 147.04C33.7204 147.307 33.3737 147.68 33.1177 148.16C32.8617 148.64 32.7337 149.189 32.7337 149.808C32.7337 150.427 32.8617 150.976 33.1177 151.456C33.3737 151.936 33.7204 152.315 34.1577 152.592C34.6057 152.869 35.1124 153.008 35.6777 153.008ZM45.2308 154.16C44.3988 154.16 43.6575 153.979 43.0068 153.616C42.3668 153.253 41.8655 152.747 41.5028 152.096C41.1401 151.445 40.9588 150.699 40.9588 149.856C40.9588 149.205 41.0601 148.619 41.2628 148.096C41.4655 147.563 41.7481 147.099 42.1108 146.704C42.4841 146.309 42.9268 146.005 43.4388 145.792C43.9508 145.568 44.5055 145.456 45.1028 145.456C45.6681 145.456 46.1801 145.557 46.6388 145.76C47.1081 145.963 47.5081 146.245 47.8388 146.608C48.1801 146.96 48.4361 147.381 48.6068 147.872C48.7775 148.363 48.8521 148.901 48.8308 149.488L48.8148 150.048H41.8548L41.6788 149.04H47.9028L47.6148 149.312V148.928C47.5935 148.544 47.4815 148.176 47.2788 147.824C47.0761 147.461 46.7881 147.168 46.4148 146.944C46.0521 146.72 45.6148 146.608 45.1028 146.608C44.5055 146.608 43.9881 146.731 43.5508 146.976C43.1135 147.211 42.7775 147.563 42.5428 148.032C42.3081 148.501 42.1908 149.083 42.1908 149.776C42.1908 150.437 42.3188 151.013 42.5748 151.504C42.8308 151.984 43.1935 152.357 43.6628 152.624C44.1428 152.891 44.7188 153.024 45.3908 153.024C45.7855 153.024 46.1748 152.96 46.5588 152.832C46.9535 152.693 47.3855 152.427 47.8548 152.032L48.4788 152.896C48.2335 153.141 47.9401 153.36 47.5988 153.552C47.2575 153.733 46.8841 153.883 46.4788 154C46.0735 154.107 45.6575 154.16 45.2308 154.16ZM50.5352 154V145.648H51.7352L51.7672 147.872L51.6392 147.568C51.7565 147.195 51.9432 146.848 52.1992 146.528C52.4659 146.208 52.7805 145.952 53.1432 145.76C53.5059 145.568 53.9059 145.472 54.3432 145.472C54.5245 145.472 54.6952 145.488 54.8552 145.52C55.0152 145.541 55.1485 145.573 55.2552 145.616L54.9192 146.96C54.7805 146.896 54.6365 146.853 54.4872 146.832C54.3485 146.8 54.2152 146.784 54.0872 146.784C53.7245 146.784 53.3992 146.848 53.1112 146.976C52.8232 147.104 52.5779 147.285 52.3752 147.52C52.1725 147.744 52.0179 148.005 51.9112 148.304C51.8045 148.603 51.7512 148.923 51.7512 149.264V154H50.5352ZM56.4879 154V145.648H57.6879L57.7199 147.552L57.4799 147.632C57.5653 147.312 57.7039 147.024 57.8959 146.768C58.0986 146.501 58.3386 146.272 58.6159 146.08C58.8933 145.888 59.1973 145.744 59.5279 145.648C59.8586 145.541 60.2053 145.488 60.5679 145.488C61.0053 145.488 61.3946 145.563 61.7359 145.712C62.0879 145.851 62.3813 146.096 62.6159 146.448C62.8613 146.789 63.0479 147.243 63.1759 147.808L62.8879 147.664L62.9999 147.392C63.1066 147.147 63.2613 146.912 63.4639 146.688C63.6773 146.453 63.9173 146.245 64.1839 146.064C64.4613 145.883 64.7599 145.744 65.0799 145.648C65.4106 145.541 65.7466 145.488 66.0879 145.488C66.6746 145.488 67.1706 145.616 67.5759 145.872C67.9813 146.117 68.2853 146.496 68.4879 147.008C68.7013 147.52 68.8079 148.171 68.8079 148.96V154H67.5759V149.024C67.5759 148.469 67.5066 148.016 67.3679 147.664C67.2293 147.312 67.0213 147.051 66.7439 146.88C66.4773 146.699 66.1359 146.608 65.7199 146.608C65.3573 146.608 65.0213 146.672 64.7119 146.8C64.4133 146.917 64.1519 147.088 63.9279 147.312C63.7146 147.525 63.5439 147.771 63.4159 148.048C63.2986 148.325 63.2399 148.624 63.2399 148.944V154H62.0239V149.008C62.0239 148.475 61.9493 148.032 61.7999 147.68C61.6613 147.328 61.4533 147.061 61.1759 146.88C60.8986 146.699 60.5573 146.608 60.1519 146.608C59.7999 146.608 59.4746 146.672 59.1759 146.8C58.8773 146.917 58.6159 147.083 58.3919 147.296C58.1786 147.509 58.0079 147.755 57.8799 148.032C57.7626 148.309 57.7039 148.608 57.7039 148.928V154H56.4879ZM74.3461 154.16C73.6207 154.16 72.9647 153.973 72.3781 153.6C71.7914 153.216 71.3274 152.699 70.9861 152.048C70.6447 151.387 70.4741 150.64 70.4741 149.808C70.4741 148.965 70.6501 148.219 71.0021 147.568C71.3541 146.917 71.8234 146.405 72.4101 146.032C73.0074 145.659 73.6741 145.472 74.4101 145.472C74.8474 145.472 75.2527 145.536 75.6261 145.664C75.9994 145.792 76.3301 145.973 76.6181 146.208C76.9167 146.432 77.1621 146.699 77.3541 147.008C77.5567 147.307 77.6954 147.632 77.7701 147.984L77.4181 147.808L77.4661 145.648H78.6661V154H77.4501V151.952L77.7701 151.744C77.6954 152.064 77.5514 152.373 77.3381 152.672C77.1247 152.96 76.8634 153.216 76.5541 153.44C76.2554 153.664 75.9141 153.84 75.5301 153.968C75.1567 154.096 74.7621 154.16 74.3461 154.16ZM74.6181 153.008C75.1727 153.008 75.6687 152.875 76.1061 152.608C76.5434 152.331 76.8847 151.952 77.1301 151.472C77.3861 150.981 77.5141 150.427 77.5141 149.808C77.5141 149.189 77.3861 148.64 77.1301 148.16C76.8847 147.68 76.5434 147.301 76.1061 147.024C75.6687 146.747 75.1727 146.608 74.6181 146.608C74.0527 146.608 73.5514 146.747 73.1141 147.024C72.6874 147.301 72.3461 147.68 72.0901 148.16C71.8447 148.64 71.7221 149.189 71.7221 149.808C71.7221 150.416 71.8447 150.965 72.0901 151.456C72.3354 151.936 72.6767 152.315 73.1141 152.592C73.5514 152.869 74.0527 153.008 74.6181 153.008ZM81.0039 154V145.648H82.1879L82.2359 147.392L82.0439 147.472C82.1506 147.109 82.3586 146.779 82.6679 146.48C82.9773 146.181 83.3453 145.941 83.7719 145.76C84.2093 145.568 84.6573 145.472 85.1159 145.472C85.7346 145.472 86.2519 145.595 86.6679 145.84C87.0839 146.085 87.3986 146.464 87.6119 146.976C87.8253 147.488 87.9319 148.139 87.9319 148.928V154H86.7159V148.992C86.7159 148.437 86.6413 147.984 86.4919 147.632C86.3533 147.269 86.1346 147.003 85.8359 146.832C85.5373 146.661 85.1693 146.581 84.7319 146.592C84.3693 146.592 84.0333 146.656 83.7239 146.784C83.4146 146.901 83.1479 147.067 82.9239 147.28C82.6999 147.493 82.5239 147.739 82.3959 148.016C82.2679 148.293 82.2039 148.592 82.2039 148.912V154H81.6119C81.5373 154 81.4519 154 81.3559 154C81.2599 154 81.1426 154 81.0039 154ZM93.9027 154.16C93.0707 154.16 92.3294 153.979 91.6787 153.616C91.0387 153.253 90.5374 152.747 90.1747 152.096C89.812 151.445 89.6307 150.699 89.6307 149.856C89.6307 149.205 89.732 148.619 89.9347 148.096C90.1374 147.563 90.42 147.099 90.7827 146.704C91.156 146.309 91.5987 146.005 92.1107 145.792C92.6227 145.568 93.1774 145.456 93.7747 145.456C94.34 145.456 94.852 145.557 95.3107 145.76C95.78 145.963 96.18 146.245 96.5107 146.608C96.852 146.96 97.108 147.381 97.2787 147.872C97.4494 148.363 97.524 148.901 97.5027 149.488L97.4867 150.048H90.5267L90.3507 149.04H96.5747L96.2867 149.312V148.928C96.2654 148.544 96.1534 148.176 95.9507 147.824C95.748 147.461 95.46 147.168 95.0867 146.944C94.724 146.72 94.2867 146.608 93.7747 146.608C93.1774 146.608 92.66 146.731 92.2227 146.976C91.7854 147.211 91.4494 147.563 91.2147 148.032C90.98 148.501 90.8627 149.083 90.8627 149.776C90.8627 150.437 90.9907 151.013 91.2467 151.504C91.5027 151.984 91.8654 152.357 92.3347 152.624C92.8147 152.891 93.3907 153.024 94.0627 153.024C94.4574 153.024 94.8467 152.96 95.2307 152.832C95.6254 152.693 96.0574 152.427 96.5267 152.032L97.1507 152.896C96.9054 153.141 96.612 153.36 96.2707 153.552C95.9294 153.733 95.556 153.883 95.1507 154C94.7454 154.107 94.3294 154.16 93.9027 154.16ZM99.2071 154V145.648H100.391L100.439 147.392L100.247 147.472C100.354 147.109 100.562 146.779 100.871 146.48C101.18 146.181 101.548 145.941 101.975 145.76C102.412 145.568 102.86 145.472 103.319 145.472C103.938 145.472 104.455 145.595 104.871 145.84C105.287 146.085 105.602 146.464 105.815 146.976C106.028 147.488 106.135 148.139 106.135 148.928V154H104.919V148.992C104.919 148.437 104.844 147.984 104.695 147.632C104.556 147.269 104.338 147.003 104.039 146.832C103.74 146.661 103.372 146.581 102.935 146.592C102.572 146.592 102.236 146.656 101.927 146.784C101.618 146.901 101.351 147.067 101.127 147.28C100.903 147.493 100.727 147.739 100.599 148.016C100.471 148.293 100.407 148.592 100.407 148.912V154H99.8151C99.7404 154 99.6551 154 99.5591 154C99.4631 154 99.3457 154 99.2071 154ZM109.578 154V143.456H110.778V154H109.578ZM107.69 146.8V145.648H112.89V146.8H107.69ZM117.965 154.16C117.133 154.16 116.392 153.979 115.741 153.616C115.101 153.253 114.6 152.747 114.237 152.096C113.875 151.445 113.693 150.699 113.693 149.856C113.693 149.205 113.795 148.619 113.997 148.096C114.2 147.563 114.483 147.099 114.845 146.704C115.219 146.309 115.661 146.005 116.173 145.792C116.685 145.568 117.24 145.456 117.837 145.456C118.403 145.456 118.915 145.557 119.373 145.76C119.843 145.963 120.243 146.245 120.573 146.608C120.915 146.96 121.171 147.381 121.341 147.872C121.512 148.363 121.587 148.901 121.565 149.488L121.549 150.048H114.589L114.413 149.04H120.637L120.349 149.312V148.928C120.328 148.544 120.216 148.176 120.013 147.824C119.811 147.461 119.523 147.168 119.149 146.944C118.787 146.72 118.349 146.608 117.837 146.608C117.24 146.608 116.723 146.731 116.285 146.976C115.848 147.211 115.512 147.563 115.277 148.032C115.043 148.501 114.925 149.083 114.925 149.776C114.925 150.437 115.053 151.013 115.309 151.504C115.565 151.984 115.928 152.357 116.397 152.624C116.877 152.891 117.453 153.024 118.125 153.024C118.52 153.024 118.909 152.96 119.293 152.832C119.688 152.693 120.12 152.427 120.589 152.032L121.213 152.896C120.968 153.141 120.675 153.36 120.333 153.552C119.992 153.733 119.619 153.883 119.213 154C118.808 154.107 118.392 154.16 117.965 154.16ZM123.254 154V145.648H124.454L124.486 147.552L124.246 147.632C124.331 147.312 124.47 147.024 124.662 146.768C124.864 146.501 125.104 146.272 125.382 146.08C125.659 145.888 125.963 145.744 126.294 145.648C126.624 145.541 126.971 145.488 127.334 145.488C127.771 145.488 128.16 145.563 128.502 145.712C128.854 145.851 129.147 146.096 129.382 146.448C129.627 146.789 129.814 147.243 129.942 147.808L129.654 147.664L129.766 147.392C129.872 147.147 130.027 146.912 130.23 146.688C130.443 146.453 130.683 146.245 130.95 146.064C131.227 145.883 131.526 145.744 131.846 145.648C132.176 145.541 132.512 145.488 132.854 145.488C133.44 145.488 133.936 145.616 134.342 145.872C134.747 146.117 135.051 146.496 135.254 147.008C135.467 147.52 135.574 148.171 135.574 148.96V154H134.342V149.024C134.342 148.469 134.272 148.016 134.134 147.664C133.995 147.312 133.787 147.051 133.51 146.88C133.243 146.699 132.902 146.608 132.486 146.608C132.123 146.608 131.787 146.672 131.478 146.8C131.179 146.917 130.918 147.088 130.694 147.312C130.48 147.525 130.31 147.771 130.182 148.048C130.064 148.325 130.006 148.624 130.006 148.944V154H128.79V149.008C128.79 148.475 128.715 148.032 128.566 147.68C128.427 147.328 128.219 147.061 127.942 146.88C127.664 146.699 127.323 146.608 126.918 146.608C126.566 146.608 126.24 146.672 125.942 146.8C125.643 146.917 125.382 147.083 125.158 147.296C124.944 147.509 124.774 147.755 124.646 148.032C124.528 148.309 124.47 148.608 124.47 148.928V154H123.254ZM141.528 154.16C140.696 154.16 139.954 153.979 139.304 153.616C138.664 153.253 138.162 152.747 137.8 152.096C137.437 151.445 137.256 150.699 137.256 149.856C137.256 149.205 137.357 148.619 137.56 148.096C137.762 147.563 138.045 147.099 138.408 146.704C138.781 146.309 139.224 146.005 139.736 145.792C140.248 145.568 140.802 145.456 141.4 145.456C141.965 145.456 142.477 145.557 142.936 145.76C143.405 145.963 143.805 146.245 144.136 146.608C144.477 146.96 144.733 147.381 144.904 147.872C145.074 148.363 145.149 148.901 145.128 149.488L145.112 150.048H138.152L137.976 149.04H144.2L143.912 149.312V148.928C143.89 148.544 143.778 148.176 143.576 147.824C143.373 147.461 143.085 147.168 142.712 146.944C142.349 146.72 141.912 146.608 141.4 146.608C140.802 146.608 140.285 146.731 139.848 146.976C139.41 147.211 139.074 147.563 138.84 148.032C138.605 148.501 138.488 149.083 138.488 149.776C138.488 150.437 138.616 151.013 138.872 151.504C139.128 151.984 139.49 152.357 139.96 152.624C140.44 152.891 141.016 153.024 141.688 153.024C142.082 153.024 142.472 152.96 142.856 152.832C143.25 152.693 143.682 152.427 144.152 152.032L144.776 152.896C144.53 153.141 144.237 153.36 143.896 153.552C143.554 153.733 143.181 153.883 142.776 154C142.37 154.107 141.954 154.16 141.528 154.16ZM146.832 154V145.648H148.016L148.064 147.392L147.872 147.472C147.979 147.109 148.187 146.779 148.496 146.48C148.805 146.181 149.173 145.941 149.6 145.76C150.037 145.568 150.485 145.472 150.944 145.472C151.563 145.472 152.08 145.595 152.496 145.84C152.912 146.085 153.227 146.464 153.44 146.976C153.653 147.488 153.76 148.139 153.76 148.928V154H152.544V148.992C152.544 148.437 152.469 147.984 152.32 147.632C152.181 147.269 151.963 147.003 151.664 146.832C151.365 146.661 150.997 146.581 150.56 146.592C150.197 146.592 149.861 146.656 149.552 146.784C149.243 146.901 148.976 147.067 148.752 147.28C148.528 147.493 148.352 147.739 148.224 148.016C148.096 148.293 148.032 148.592 148.032 148.912V154H147.44C147.365 154 147.28 154 147.184 154C147.088 154 146.971 154 146.832 154ZM157.203 154V143.456H158.403V154H157.203ZM155.315 146.8V145.648H160.515V146.8H155.315ZM165.59 154.16C164.758 154.16 164.017 153.979 163.366 153.616C162.726 153.253 162.225 152.747 161.862 152.096C161.5 151.445 161.318 150.699 161.318 149.856C161.318 149.205 161.42 148.619 161.622 148.096C161.825 147.563 162.108 147.099 162.47 146.704C162.844 146.309 163.286 146.005 163.798 145.792C164.31 145.568 164.865 145.456 165.462 145.456C166.028 145.456 166.54 145.557 166.998 145.76C167.468 145.963 167.868 146.245 168.198 146.608C168.54 146.96 168.796 147.381 168.966 147.872C169.137 148.363 169.212 148.901 169.19 149.488L169.174 150.048H162.214L162.038 149.04H168.262L167.974 149.312V148.928C167.953 148.544 167.841 148.176 167.638 147.824C167.436 147.461 167.148 147.168 166.774 146.944C166.412 146.72 165.974 146.608 165.462 146.608C164.865 146.608 164.348 146.731 163.91 146.976C163.473 147.211 163.137 147.563 162.902 148.032C162.668 148.501 162.55 149.083 162.55 149.776C162.55 150.437 162.678 151.013 162.934 151.504C163.19 151.984 163.553 152.357 164.022 152.624C164.502 152.891 165.078 153.024 165.75 153.024C166.145 153.024 166.534 152.96 166.918 152.832C167.313 152.693 167.745 152.427 168.214 152.032L168.838 152.896C168.593 153.141 168.3 153.36 167.958 153.552C167.617 153.733 167.244 153.883 166.838 154C166.433 154.107 166.017 154.16 165.59 154.16ZM179.059 154.16C178.227 154.16 177.486 153.979 176.835 153.616C176.195 153.253 175.694 152.747 175.331 152.096C174.968 151.445 174.787 150.699 174.787 149.856C174.787 149.205 174.888 148.619 175.091 148.096C175.294 147.563 175.576 147.099 175.939 146.704C176.312 146.309 176.755 146.005 177.267 145.792C177.779 145.568 178.334 145.456 178.931 145.456C179.496 145.456 180.008 145.557 180.467 145.76C180.936 145.963 181.336 146.245 181.667 146.608C182.008 146.96 182.264 147.381 182.435 147.872C182.606 148.363 182.68 148.901 182.659 149.488L182.643 150.048H175.683L175.507 149.04H181.731L181.443 149.312V148.928C181.422 148.544 181.31 148.176 181.107 147.824C180.904 147.461 180.616 147.168 180.243 146.944C179.88 146.72 179.443 146.608 178.931 146.608C178.334 146.608 177.816 146.731 177.379 146.976C176.942 147.211 176.606 147.563 176.371 148.032C176.136 148.501 176.019 149.083 176.019 149.776C176.019 150.437 176.147 151.013 176.403 151.504C176.659 151.984 177.022 152.357 177.491 152.624C177.971 152.891 178.547 153.024 179.219 153.024C179.614 153.024 180.003 152.96 180.387 152.832C180.782 152.693 181.214 152.427 181.683 152.032L182.307 152.896C182.062 153.141 181.768 153.36 181.427 153.552C181.086 153.733 180.712 153.883 180.307 154C179.902 154.107 179.486 154.16 179.059 154.16ZM189.996 154L187.1 150.272L186.956 150.096L183.484 145.648H185.004L187.852 149.312L188.012 149.52L191.5 154H189.996ZM183.42 154L186.828 149.6L187.548 150.464L184.86 154H183.42ZM188.092 149.904L187.404 149.056L189.836 145.648H191.292L188.092 149.904ZM195.961 154.16C195.172 154.16 194.468 153.973 193.849 153.6C193.231 153.216 192.74 152.699 192.377 152.048C192.025 151.387 191.849 150.64 191.849 149.808C191.849 148.976 192.025 148.235 192.377 147.584C192.74 146.923 193.231 146.405 193.849 146.032C194.468 145.659 195.177 145.472 195.977 145.472C196.692 145.472 197.343 145.616 197.929 145.904C198.516 146.181 198.985 146.571 199.337 147.072L198.633 147.936C198.431 147.669 198.185 147.435 197.897 147.232C197.62 147.029 197.316 146.875 196.985 146.768C196.665 146.651 196.345 146.592 196.025 146.592C195.46 146.592 194.953 146.736 194.505 147.024C194.057 147.301 193.7 147.68 193.433 148.16C193.177 148.64 193.049 149.189 193.049 149.808C193.049 150.427 193.177 150.981 193.433 151.472C193.7 151.952 194.057 152.331 194.505 152.608C194.953 152.885 195.455 153.024 196.009 153.024C196.329 153.024 196.644 152.976 196.953 152.88C197.263 152.773 197.556 152.624 197.833 152.432C198.111 152.24 198.367 152 198.601 151.712L199.305 152.576C198.943 153.056 198.457 153.44 197.849 153.728C197.241 154.016 196.612 154.16 195.961 154.16ZM200.895 154V142.16H202.095V154H200.895ZM207.339 154.16C206.699 154.16 206.155 154.032 205.707 153.776C205.27 153.509 204.934 153.125 204.699 152.624C204.475 152.123 204.363 151.499 204.363 150.752V145.648H205.579V150.512C205.579 151.077 205.654 151.552 205.803 151.936C205.963 152.309 206.198 152.592 206.507 152.784C206.827 152.976 207.216 153.072 207.675 153.072C208.027 153.072 208.352 153.013 208.651 152.896C208.95 152.768 209.211 152.597 209.435 152.384C209.659 152.171 209.835 151.92 209.963 151.632C210.091 151.344 210.155 151.04 210.155 150.72V145.648H211.355V154H210.171L210.123 152.24L210.315 152.144C210.187 152.517 209.974 152.859 209.675 153.168C209.376 153.467 209.019 153.707 208.603 153.888C208.198 154.069 207.776 154.16 207.339 154.16ZM213.691 154V145.648H214.891V154H213.691ZM213.259 144.416L212.827 143.76L215.099 141.856L215.883 142.864L213.259 144.416ZM220.615 154.16C219.857 154.16 219.175 153.973 218.567 153.6C217.969 153.227 217.495 152.715 217.143 152.064C216.801 151.403 216.631 150.656 216.631 149.824C216.631 148.981 216.807 148.235 217.159 147.584C217.511 146.923 217.985 146.405 218.583 146.032C219.18 145.659 219.852 145.472 220.599 145.472C221.015 145.472 221.415 145.536 221.799 145.664C222.193 145.792 222.545 145.973 222.855 146.208C223.164 146.432 223.42 146.693 223.623 146.992C223.825 147.28 223.948 147.584 223.991 147.904L223.623 147.776V142.16H224.823V154H223.639L223.607 151.92L223.911 151.808C223.868 152.107 223.745 152.4 223.543 152.688C223.351 152.965 223.105 153.216 222.807 153.44C222.508 153.664 222.167 153.84 221.783 153.968C221.409 154.096 221.02 154.16 220.615 154.16ZM220.791 153.056C221.345 153.056 221.841 152.917 222.279 152.64C222.716 152.363 223.057 151.979 223.303 151.488C223.559 150.997 223.687 150.437 223.687 149.808C223.687 149.179 223.559 148.624 223.303 148.144C223.057 147.653 222.716 147.269 222.279 146.992C221.841 146.704 221.345 146.56 220.791 146.56C220.215 146.56 219.708 146.704 219.271 146.992C218.844 147.269 218.503 147.653 218.247 148.144C218.001 148.624 217.879 149.179 217.879 149.808C217.879 150.427 218.001 150.981 218.247 151.472C218.492 151.963 218.833 152.352 219.271 152.64C219.708 152.917 220.215 153.056 220.791 153.056ZM230.424 154.16C229.699 154.16 229.043 153.973 228.456 153.6C227.87 153.216 227.406 152.699 227.064 152.048C226.723 151.387 226.552 150.64 226.552 149.808C226.552 148.965 226.728 148.219 227.08 147.568C227.432 146.917 227.902 146.405 228.488 146.032C229.086 145.659 229.752 145.472 230.488 145.472C230.926 145.472 231.331 145.536 231.704 145.664C232.078 145.792 232.408 145.973 232.696 146.208C232.995 146.432 233.24 146.699 233.432 147.008C233.635 147.307 233.774 147.632 233.848 147.984L233.496 147.808L233.544 145.648H234.744V154H233.528V151.952L233.848 151.744C233.774 152.064 233.63 152.373 233.416 152.672C233.203 152.96 232.942 153.216 232.632 153.44C232.334 153.664 231.992 153.84 231.608 153.968C231.235 154.096 230.84 154.16 230.424 154.16ZM230.696 153.008C231.251 153.008 231.747 152.875 232.184 152.608C232.622 152.331 232.963 151.952 233.208 151.472C233.464 150.981 233.592 150.427 233.592 149.808C233.592 149.189 233.464 148.64 233.208 148.16C232.963 147.68 232.622 147.301 232.184 147.024C231.747 146.747 231.251 146.608 230.696 146.608C230.131 146.608 229.63 146.747 229.192 147.024C228.766 147.301 228.424 147.68 228.168 148.16C227.923 148.64 227.8 149.189 227.8 149.808C227.8 150.416 227.923 150.965 228.168 151.456C228.414 151.936 228.755 152.315 229.192 152.592C229.63 152.869 230.131 153.008 230.696 153.008ZM239.818 154.16C239.103 154.16 238.463 154.027 237.898 153.76C237.333 153.493 236.885 153.141 236.554 152.704L237.402 151.968C237.711 152.341 238.074 152.624 238.49 152.816C238.917 153.008 239.391 153.104 239.914 153.104C240.181 153.104 240.421 153.077 240.634 153.024C240.847 152.96 241.034 152.869 241.194 152.752C241.354 152.635 241.477 152.496 241.562 152.336C241.647 152.176 241.69 152 241.69 151.808C241.69 151.456 241.535 151.163 241.226 150.928C241.087 150.832 240.89 150.736 240.634 150.64C240.378 150.533 240.069 150.432 239.706 150.336C239.109 150.165 238.613 149.995 238.218 149.824C237.823 149.643 237.514 149.435 237.29 149.2C237.13 149.008 237.007 148.8 236.922 148.576C236.847 148.352 236.81 148.107 236.81 147.84C236.81 147.499 236.879 147.184 237.018 146.896C237.167 146.608 237.37 146.357 237.626 146.144C237.893 145.92 238.202 145.755 238.554 145.648C238.917 145.531 239.306 145.472 239.722 145.472C240.117 145.472 240.506 145.525 240.89 145.632C241.274 145.739 241.631 145.893 241.962 146.096C242.293 146.299 242.575 146.539 242.81 146.816L242.074 147.616C241.871 147.403 241.647 147.211 241.402 147.04C241.157 146.869 240.895 146.736 240.618 146.64C240.351 146.544 240.074 146.496 239.786 146.496C239.53 146.496 239.29 146.528 239.066 146.592C238.853 146.656 238.666 146.747 238.506 146.864C238.357 146.971 238.239 147.104 238.154 147.264C238.079 147.424 238.042 147.6 238.042 147.792C238.042 147.952 238.074 148.096 238.138 148.224C238.202 148.352 238.293 148.464 238.41 148.56C238.559 148.677 238.767 148.789 239.034 148.896C239.311 148.992 239.653 149.093 240.058 149.2C240.527 149.328 240.922 149.461 241.242 149.6C241.573 149.728 241.845 149.883 242.058 150.064C242.346 150.277 242.549 150.523 242.666 150.8C242.794 151.077 242.858 151.392 242.858 151.744C242.858 152.213 242.725 152.629 242.458 152.992C242.202 153.355 241.845 153.643 241.386 153.856C240.927 154.059 240.405 154.16 239.818 154.16Z" fill="#E1DDF4"/>
</svg>
