<svg width="16" height="16" viewBox="0 0 16 16" fill="none" xmlns="http://www.w3.org/2000/svg">
<g clip-path="url(#clip0_785_242)">
<path d="M13.64 2.32804C12.9064 1.58732 12.0328 1.00001 11.07 0.600331C10.1072 0.200649 9.07445 -0.00341053 8.03199 4.3116e-05C3.664 4.3116e-05 0.104008 3.56003 0.104008 7.92802C0.104008 9.32802 0.472007 10.688 1.16001 11.888L0.0400085 16L4.24 14.896C5.39999 15.528 6.70399 15.864 8.03199 15.864C12.4 15.864 15.96 12.304 15.96 7.93602C15.96 5.81603 15.136 3.82403 13.64 2.32804ZM8.03199 14.52C6.84799 14.52 5.68799 14.2 4.672 13.6L4.432 13.456L1.936 14.112L2.6 11.68L2.44 11.432C1.78204 10.3817 1.43274 9.16744 1.432 7.92802C1.432 4.29603 4.392 1.33604 8.02399 1.33604C9.78398 1.33604 11.44 2.02404 12.68 3.27203C13.2941 3.88312 13.7807 4.61006 14.1117 5.41069C14.4426 6.21132 14.6113 7.06969 14.608 7.93602C14.624 11.568 11.664 14.52 8.03199 14.52ZM11.648 9.59202C11.448 9.49602 10.472 9.01602 10.296 8.94402C10.112 8.88002 9.98398 8.84802 9.84798 9.04002C9.71198 9.24002 9.33598 9.68802 9.22398 9.81602C9.11198 9.95202 8.99198 9.96802 8.79198 9.86402C8.59198 9.76802 7.95199 9.55202 7.19999 8.88002C6.60799 8.35202 6.21599 7.70402 6.09599 7.50402C5.98399 7.30402 6.07999 7.20002 6.18399 7.09602C6.27199 7.00802 6.38399 6.86402 6.47999 6.75203C6.57599 6.64003 6.61599 6.55203 6.67999 6.42403C6.74399 6.28803 6.71199 6.17603 6.66399 6.08003C6.61599 5.98403 6.21599 5.00803 6.05599 4.60803C5.89599 4.22403 5.72799 4.27203 5.60799 4.26403H5.22399C5.08799 4.26403 4.87999 4.31203 4.696 4.51203C4.52 4.71203 4.008 5.19203 4.008 6.16803C4.008 7.14402 4.72 8.08802 4.816 8.21602C4.912 8.35202 6.21599 10.352 8.19999 11.208C8.67198 11.416 9.03998 11.536 9.32798 11.624C9.79998 11.776 10.232 11.752 10.576 11.704C10.96 11.648 11.752 11.224 11.912 10.76C12.08 10.296 12.08 9.90402 12.024 9.81602C11.968 9.72802 11.848 9.68802 11.648 9.59202Z" fill="url(#paint0_linear_785_242)" fill-opacity="0.8"/>
</g>
<defs>
<linearGradient id="paint0_linear_785_242" x1="15.96" y1="8" x2="0.0400085" y2="8" gradientUnits="userSpaceOnUse">
<stop stop-color="#43A3D5"/>
<stop offset="1" stop-color="#9C60DA"/>
</linearGradient>
<clipPath id="clip0_785_242">
<rect width="16" height="16" fill="white"/>
</clipPath>
</defs>
</svg>
