<svg width="40" height="40" viewBox="0 0 40 40" fill="none" xmlns="http://www.w3.org/2000/svg">
<rect width="40" height="40" rx="20" fill="#9C60DA"/>
<path d="M22.0723 11C22.9246 11 23.7056 11.4885 24.085 12.2598L24.9629 14.04H26.001C27.6568 14.0402 29 15.4004 29 17.0781V24.6768C28.9999 26.3518 27.6567 27.7137 26.001 27.7139H14C12.344 27.7139 11 26.353 11 24.6738V17.0762C11.0002 15.3985 12.3441 14.0381 14 14.0381H15.0361L15.915 12.2598C16.2957 11.4885 17.0754 11 17.9277 11H22.0723ZM20.001 15.542C17.5394 15.542 15.5441 17.5375 15.5439 19.999C15.5441 22.4606 17.5394 24.4561 20.001 24.4561C22.4622 24.4557 24.4579 22.4603 24.458 19.999C24.4579 17.5377 22.4622 15.5423 20.001 15.542ZM20.001 16.7412C21.7995 16.7416 23.2577 18.2005 23.2578 19.999C23.2577 21.7976 21.7995 23.2555 20.001 23.2559C18.2022 23.2559 16.7433 21.7978 16.7432 19.999C16.7433 18.2002 18.2022 16.7412 20.001 16.7412Z" fill="#1D1933"/>
</svg>
