<svg width="156" height="71" viewBox="0 0 156 71" fill="none" xmlns="http://www.w3.org/2000/svg">
<rect width="156" height="71" fill="#100D1E"/>
<g clip-path="url(#clip0_170_702)">
<path d="M87.3451 31.9638C87.5769 30.5038 87.8042 29.0755 88.0381 27.6036C87.6906 27.6036 87.3848 27.5806 87.0869 27.6176C86.9962 27.6287 86.8893 27.7934 86.8525 27.9074C86.4385 29.185 86.04 30.4672 85.6235 31.744C85.5947 31.8329 85.456 31.9481 85.3682 31.9485C81.8866 31.9568 78.4046 31.9535 74.923 31.9506C74.8741 31.9506 74.8248 31.9395 74.7542 31.9309C75.007 30.5297 75.2559 29.143 75.5078 27.7563C75.7171 26.6038 75.9369 25.4534 76.1291 24.2984C76.1441 24.2075 76.0037 24.0259 75.8989 23.9901C73.1262 23.0426 70.5891 21.7082 68.4899 19.6485C66.7625 17.9531 65.5635 15.9411 64.8103 13.6637C64.7982 13.6267 64.7986 13.5859 64.7856 13.4921C65.495 13.5909 66.1818 13.6831 66.8682 13.7823C67.8633 13.9259 68.8554 14.0955 69.8535 14.2144C70.6167 14.3054 71.1556 13.9222 71.5241 13.3114C72.0484 13.9247 72.5401 14.5631 73.0978 15.1397C74.5955 16.689 76.4921 17.5304 78.598 17.8325C80.6572 18.1276 82.7409 18.2552 84.8135 18.4577C87.2853 18.6993 89.7033 19.1241 91.7103 20.7187C93.6056 22.2247 94.2193 24.268 93.9323 26.5548C93.7151 28.2889 93.2911 29.9984 92.9489 31.7168C92.9318 31.8033 92.8161 31.9358 92.7442 31.937C90.9838 31.9675 89.2233 31.9835 87.4625 32C87.4249 32 87.3869 31.9769 87.3451 31.9638Z" fill="url(#paint0_linear_170_702)"/>
<path d="M78.2676 10.6866C78.2897 7.14262 81.1639 4.3441 84.7575 4.36757C88.2926 4.3902 91.1505 7.23894 91.1241 10.7146C91.0974 14.254 88.2119 17.0718 84.6372 17.05C81.1234 17.0282 78.2458 14.1535 78.2676 10.6866Z" fill="url(#paint1_linear_170_702)"/>
<path d="M64.6803 5.75015C66.4161 5.75057 67.6448 6.80881 67.8846 8.50998C68.1089 10.1008 67.1556 11.5847 65.5297 11.9675C64.7768 12.1449 63.9605 12.1346 63.1785 12.0976C62.4913 12.065 61.9382 11.4694 62.0054 10.7841C62.1328 9.48631 62.3054 8.18358 62.5995 6.91418C62.8075 6.01811 63.44 5.74974 64.6803 5.75015Z" fill="url(#paint2_linear_170_702)"/>
<path d="M65.2652 4.6347C65.3187 4.28113 65.3032 3.9148 65.4448 3.62256C65.5313 3.44433 65.876 3.25952 66.0778 3.28463C67.811 3.50113 69.5389 3.76291 71.2676 4.01564C71.6736 4.07491 71.8387 4.31241 71.7777 4.7162C71.3975 7.24141 71.019 9.76703 70.6455 12.2935C70.5507 12.9356 70.3957 13.064 69.7453 12.9735C68.84 12.8475 67.9355 12.7166 66.9701 12.5791C68.642 11.4616 69.3133 9.94114 68.9294 8.03046C68.6541 6.65775 67.5988 4.92817 65.2652 4.6347ZM70.8741 5.15209C70.8745 5.078 70.8745 5.00432 70.8749 4.93023C70.6848 4.79852 70.4718 4.53962 70.3101 4.56761C70.1137 4.60177 69.9608 4.87796 69.7891 5.0496C69.9596 5.21095 70.1167 5.47973 70.3046 5.50237C70.4772 5.52336 70.6831 5.27928 70.8741 5.15209Z" fill="url(#paint3_linear_170_702)"/>
<path d="M70.633 0C70.9868 0.145709 71.2939 0.272484 71.6319 0.411607C71.3043 1.17761 70.986 1.93044 70.6568 2.67874C70.6347 2.72854 70.5294 2.77711 70.4688 2.77053C70.1685 2.73719 69.8702 2.68533 69.513 2.63099C69.8906 1.74439 70.2562 0.885779 70.633 0Z" fill="url(#paint4_linear_170_702)"/>
<path d="M75.0379 2.60383C75.1711 2.94217 75.2944 3.25458 75.4289 3.59539C74.5942 3.91439 73.7775 4.22638 72.9846 4.52974C72.8697 4.19551 72.7615 3.8794 72.6383 3.52007C73.4061 3.227 74.2099 2.91994 75.0379 2.60383Z" fill="url(#paint5_linear_170_702)"/>
<path d="M72.6742 6.39226C73.4065 6.90595 74.0987 7.39123 74.824 7.89998C74.618 8.18852 74.4183 8.46841 74.2019 8.77176C73.6584 8.39103 73.1287 8.02593 72.6094 7.64725C72.5493 7.60321 72.515 7.47808 72.5242 7.39658C72.5601 7.07388 72.6178 6.75406 72.6742 6.39226Z" fill="url(#paint6_linear_170_702)"/>
</g>
<path d="M22.1824 53.16C21.2864 53.16 20.4598 53.016 19.7024 52.728C18.9558 52.44 18.3051 52.04 17.7504 51.528C17.2064 51.0053 16.7851 50.3867 16.4864 49.672C16.1878 48.9573 16.0384 48.1733 16.0384 47.32C16.0384 46.4667 16.1878 45.6827 16.4864 44.968C16.7958 44.2533 17.2278 43.64 17.7824 43.128C18.3371 42.6053 18.9931 42.2 19.7504 41.912C20.5184 41.624 21.3611 41.48 22.2784 41.48C22.8011 41.48 23.3131 41.544 23.8144 41.672C24.3264 41.7893 24.8064 41.976 25.2544 42.232C25.7131 42.4773 26.1291 42.792 26.5024 43.176L24.4384 45.592C24.2891 45.4107 24.1078 45.2453 23.8944 45.096C23.6918 44.9467 23.4518 44.8293 23.1744 44.744C22.9078 44.648 22.5984 44.6 22.2464 44.6C21.8838 44.6 21.5371 44.664 21.2064 44.792C20.8864 44.9093 20.6038 45.0853 20.3584 45.32C20.1238 45.5547 19.9371 45.8427 19.7984 46.184C19.6598 46.5253 19.5904 46.92 19.5904 47.368C19.5904 47.7733 19.6598 48.1413 19.7984 48.472C19.9371 48.8027 20.1344 49.0853 20.3904 49.32C20.6464 49.5547 20.9558 49.736 21.3184 49.864C21.6811 49.992 22.0864 50.056 22.5344 50.056C22.8544 50.056 23.1584 50.008 23.4464 49.912C23.7344 49.816 23.9958 49.6933 24.2304 49.544C24.4651 49.384 24.6678 49.208 24.8384 49.016L26.4864 51.608C26.2091 51.9067 25.8411 52.1733 25.3824 52.408C24.9238 52.6427 24.4171 52.8293 23.8624 52.968C23.3078 53.096 22.7478 53.16 22.1824 53.16ZM33.3677 53.16C32.4824 53.16 31.6717 53.016 30.9357 52.728C30.1997 52.44 29.5597 52.0347 29.0157 51.512C28.4717 50.9893 28.0504 50.3707 27.7517 49.656C27.4637 48.9413 27.3197 48.1627 27.3197 47.32C27.3197 46.4667 27.4637 45.688 27.7517 44.984C28.0504 44.2693 28.4717 43.6507 29.0157 43.128C29.5597 42.6053 30.1997 42.2 30.9357 41.912C31.6717 41.624 32.477 41.48 33.3517 41.48C34.237 41.48 35.0424 41.624 35.7677 41.912C36.5037 42.2 37.1437 42.6053 37.6877 43.128C38.2317 43.6507 38.6477 44.2693 38.9357 44.984C39.2344 45.688 39.3837 46.4613 39.3837 47.304C39.3837 48.1573 39.2344 48.9413 38.9357 49.656C38.6477 50.3707 38.2317 50.9893 37.6877 51.512C37.1437 52.0347 36.5037 52.44 35.7677 52.728C35.0424 53.016 34.2424 53.16 33.3677 53.16ZM33.3517 49.96C33.7144 49.96 34.045 49.896 34.3437 49.768C34.653 49.64 34.9197 49.4587 35.1437 49.224C35.3784 48.9787 35.5544 48.696 35.6717 48.376C35.7997 48.056 35.8637 47.704 35.8637 47.32C35.8637 46.936 35.7997 46.584 35.6717 46.264C35.5544 45.944 35.3784 45.6667 35.1437 45.432C34.9197 45.1867 34.653 45 34.3437 44.872C34.045 44.744 33.7144 44.68 33.3517 44.68C32.989 44.68 32.653 44.744 32.3437 44.872C32.045 45 31.7784 45.1867 31.5437 45.432C31.3197 45.6667 31.1437 45.944 31.0157 46.264C30.8984 46.584 30.8397 46.936 30.8397 47.32C30.8397 47.704 30.8984 48.056 31.0157 48.376C31.1437 48.696 31.3197 48.9787 31.5437 49.224C31.7784 49.4587 32.045 49.64 32.3437 49.768C32.653 49.896 32.989 49.96 33.3517 49.96ZM41.3034 53V41.8H44.2794L48.3594 48.44L45.9434 48.424L50.0714 41.8H52.9514V53H49.6234V50.328C49.6234 49.368 49.6448 48.504 49.6874 47.736C49.7408 46.968 49.8261 46.2053 49.9434 45.448L50.3274 46.456L47.6234 50.648H46.5674L43.9114 46.456L44.3114 45.448C44.4288 46.1627 44.5088 46.8987 44.5514 47.656C44.6048 48.4027 44.6314 49.2933 44.6314 50.328V53H41.3034ZM55.5066 53V41.8H60.5466C61.3146 41.8 61.9972 41.9653 62.5946 42.296C63.1919 42.6267 63.6612 43.08 64.0026 43.656C64.3439 44.232 64.5146 44.8933 64.5146 45.64C64.5146 46.4187 64.3439 47.112 64.0026 47.72C63.6612 48.328 63.1919 48.808 62.5946 49.16C61.9972 49.5013 61.3146 49.672 60.5466 49.672H58.9626V53H55.5066ZM58.8986 46.728H59.9066C60.1092 46.728 60.2906 46.6907 60.4506 46.616C60.6106 46.5307 60.7332 46.4133 60.8186 46.264C60.9146 46.1147 60.9626 45.928 60.9626 45.704C60.9626 45.48 60.9146 45.2987 60.8186 45.16C60.7332 45.0213 60.6106 44.92 60.4506 44.856C60.2906 44.7813 60.1092 44.744 59.9066 44.744H58.8986V46.728ZM63.7816 53L68.2776 41.8H70.9976L75.4616 53H72.0376L70.2456 48.104C70.1282 47.7733 70.0269 47.4907 69.9416 47.256C69.8562 47.0213 69.7816 46.8027 69.7176 46.6C69.6536 46.3867 69.5896 46.1627 69.5256 45.928C69.4616 45.6827 69.3976 45.3947 69.3336 45.064H69.8776C69.8136 45.3947 69.7496 45.6827 69.6856 45.928C69.6216 46.1627 69.5522 46.3867 69.4776 46.6C69.4136 46.8027 69.3336 47.0213 69.2376 47.256C69.1522 47.4907 69.0509 47.7733 68.9336 48.104L67.1416 53H63.7816ZM66.0216 51.336L67.0296 48.984H72.2296L73.1416 51.336H66.0216ZM76.4284 53V41.8H81.6764C82.4551 41.8 83.1484 41.9547 83.7564 42.264C84.3644 42.5733 84.8391 42.9947 85.1804 43.528C85.5218 44.0613 85.6924 44.6747 85.6924 45.368C85.6924 46.1467 85.5218 46.8293 85.1804 47.416C84.8391 48.0027 84.3644 48.4613 83.7564 48.792C83.1484 49.112 82.4551 49.272 81.6764 49.272H79.6604V53H76.4284ZM82.3004 53L79.4524 47.944L82.9884 47.544L86.1564 53H82.3004ZM79.6604 46.872H81.1324C81.3991 46.872 81.6178 46.824 81.7884 46.728C81.9698 46.6213 82.1031 46.4773 82.1884 46.296C82.2844 46.1147 82.3324 45.896 82.3324 45.64C82.3324 45.4053 82.2844 45.208 82.1884 45.048C82.1031 44.8773 81.9644 44.7493 81.7724 44.664C81.5911 44.568 81.3564 44.52 81.0684 44.52H79.6604V46.872ZM90.0844 53V44.744H86.6284V41.8H97.0924V44.744H93.5404V53H90.0844ZM98.7703 53V50.2H100.738V44.6H98.7703V41.8H106.162V44.6H104.194V50.2H106.162V53H98.7703ZM108.647 53V41.8H112.103V50.056H116.903V53H108.647ZM125.179 53V41.8H128.635V53H125.179ZM118.507 53V41.8H121.963V53H118.507ZM119.803 48.92L119.819 45.912H127.131V48.92H119.803ZM131.194 53V41.8H139.562V44.6H134.506V50.2H139.85V53H131.194ZM132.842 48.648V46.024H138.97V48.648H132.842ZM24.2156 69.16C23.3836 69.16 22.6422 68.9733 21.9916 68.6C21.3516 68.2267 20.8449 67.7093 20.4716 67.048C20.1089 66.3867 19.9276 65.6347 19.9276 64.792C19.9276 63.96 20.1089 63.2187 20.4716 62.568C20.8449 61.9173 21.3516 61.4053 21.9916 61.032C22.6422 60.6587 23.3836 60.472 24.2156 60.472C25.0369 60.472 25.7676 60.6587 26.4076 61.032C27.0582 61.4053 27.5649 61.9173 27.9276 62.568C28.3009 63.2187 28.4876 63.96 28.4876 64.792C28.4876 65.6347 28.3009 66.3867 27.9276 67.048C27.5649 67.7093 27.0582 68.2267 26.4076 68.6C25.7676 68.9733 25.0369 69.16 24.2156 69.16ZM24.2156 68.024C24.8022 68.024 25.3249 67.8853 25.7836 67.608C26.2422 67.32 26.5996 66.936 26.8556 66.456C27.1116 65.9653 27.2396 65.4107 27.2396 64.792C27.2396 64.1733 27.1116 63.624 26.8556 63.144C26.5996 62.664 26.2422 62.2907 25.7836 62.024C25.3249 61.7467 24.8022 61.608 24.2156 61.608C23.6289 61.608 23.1009 61.7467 22.6316 62.024C22.1729 62.2907 21.8102 62.6693 21.5436 63.16C21.2876 63.64 21.1649 64.184 21.1756 64.792C21.1649 65.4107 21.2876 65.9653 21.5436 66.456C21.8102 66.936 22.1729 67.32 22.6316 67.608C23.1009 67.8853 23.6289 68.024 24.2156 68.024ZM37.4587 69.16C36.744 69.16 36.104 69.0267 35.5387 68.76C34.9734 68.4933 34.5254 68.1413 34.1947 67.704L35.0427 66.968C35.352 67.3413 35.7147 67.624 36.1307 67.816C36.5574 68.008 37.032 68.104 37.5547 68.104C37.8214 68.104 38.0614 68.0773 38.2747 68.024C38.488 67.96 38.6747 67.8693 38.8347 67.752C38.9947 67.6347 39.1174 67.496 39.2027 67.336C39.288 67.176 39.3307 67 39.3307 66.808C39.3307 66.456 39.176 66.1627 38.8667 65.928C38.728 65.832 38.5307 65.736 38.2747 65.64C38.0187 65.5333 37.7094 65.432 37.3467 65.336C36.7494 65.1653 36.2534 64.9947 35.8587 64.824C35.464 64.6427 35.1547 64.4347 34.9307 64.2C34.7707 64.008 34.648 63.8 34.5627 63.576C34.488 63.352 34.4507 63.1067 34.4507 62.84C34.4507 62.4987 34.52 62.184 34.6587 61.896C34.808 61.608 35.0107 61.3573 35.2667 61.144C35.5334 60.92 35.8427 60.7547 36.1947 60.648C36.5574 60.5307 36.9467 60.472 37.3627 60.472C37.7574 60.472 38.1467 60.5253 38.5307 60.632C38.9147 60.7387 39.272 60.8933 39.6027 61.096C39.9334 61.2987 40.216 61.5387 40.4507 61.816L39.7147 62.616C39.512 62.4027 39.288 62.2107 39.0427 62.04C38.7974 61.8693 38.536 61.736 38.2587 61.64C37.992 61.544 37.7147 61.496 37.4267 61.496C37.1707 61.496 36.9307 61.528 36.7067 61.592C36.4934 61.656 36.3067 61.7467 36.1467 61.864C35.9974 61.9707 35.88 62.104 35.7947 62.264C35.72 62.424 35.6827 62.6 35.6827 62.792C35.6827 62.952 35.7147 63.096 35.7787 63.224C35.8427 63.352 35.9334 63.464 36.0507 63.56C36.2 63.6773 36.408 63.7893 36.6747 63.896C36.952 63.992 37.2934 64.0933 37.6987 64.2C38.168 64.328 38.5627 64.4613 38.8827 64.6C39.2134 64.728 39.4854 64.8827 39.6987 65.064C39.9867 65.2773 40.1894 65.5227 40.3067 65.8C40.4347 66.0773 40.4987 66.392 40.4987 66.744C40.4987 67.2133 40.3654 67.6293 40.0987 67.992C39.8427 68.3547 39.4854 68.6427 39.0267 68.856C38.568 69.0587 38.0454 69.16 37.4587 69.16ZM46.0589 69.16C45.2269 69.16 44.4856 68.9787 43.8349 68.616C43.1949 68.2533 42.6936 67.7467 42.3309 67.096C41.9683 66.4453 41.7869 65.6987 41.7869 64.856C41.7869 64.2053 41.8883 63.6187 42.0909 63.096C42.2936 62.5627 42.5763 62.0987 42.9389 61.704C43.3123 61.3093 43.7549 61.0053 44.2669 60.792C44.7789 60.568 45.3336 60.456 45.9309 60.456C46.4963 60.456 47.0083 60.5573 47.4669 60.76C47.9363 60.9627 48.3363 61.2453 48.6669 61.608C49.0083 61.96 49.2643 62.3813 49.4349 62.872C49.6056 63.3627 49.6803 63.9013 49.6589 64.488L49.6429 65.048H42.6829L42.5069 64.04H48.7309L48.4429 64.312V63.928C48.4216 63.544 48.3096 63.176 48.1069 62.824C47.9043 62.4613 47.6163 62.168 47.2429 61.944C46.8803 61.72 46.4429 61.608 45.9309 61.608C45.3336 61.608 44.8163 61.7307 44.3789 61.976C43.9416 62.2107 43.6056 62.5627 43.3709 63.032C43.1363 63.5013 43.0189 64.0827 43.0189 64.776C43.0189 65.4373 43.1469 66.0133 43.4029 66.504C43.6589 66.984 44.0216 67.3573 44.4909 67.624C44.9709 67.8907 45.5469 68.024 46.2189 68.024C46.6136 68.024 47.0029 67.96 47.3869 67.832C47.7816 67.6933 48.2136 67.4267 48.6829 67.032L49.3069 67.896C49.0616 68.1413 48.7683 68.36 48.4269 68.552C48.0856 68.7333 47.7123 68.8827 47.3069 69C46.9016 69.1067 46.4856 69.16 46.0589 69.16ZM54.3233 69.16C53.6833 69.16 53.1393 69.032 52.6913 68.776C52.254 68.5093 51.918 68.1253 51.6833 67.624C51.4593 67.1227 51.3473 66.4987 51.3473 65.752V60.648H52.5633V65.512C52.5633 66.0773 52.638 66.552 52.7873 66.936C52.9473 67.3093 53.182 67.592 53.4913 67.784C53.8113 67.976 54.2006 68.072 54.6593 68.072C55.0113 68.072 55.3366 68.0133 55.6353 67.896C55.934 67.768 56.1953 67.5973 56.4193 67.384C56.6433 67.1707 56.8193 66.92 56.9473 66.632C57.0753 66.344 57.1393 66.04 57.1393 65.72V60.648H58.3393V69H57.1553L57.1073 67.24L57.2993 67.144C57.1713 67.5173 56.958 67.8587 56.6593 68.168C56.3606 68.4667 56.0033 68.7067 55.5873 68.888C55.182 69.0693 54.7606 69.16 54.3233 69.16ZM65.1442 69V60.648H66.3442L66.3762 62.552L66.1362 62.632C66.2215 62.312 66.3602 62.024 66.5522 61.768C66.7549 61.5013 66.9949 61.272 67.2722 61.08C67.5495 60.888 67.8535 60.744 68.1842 60.648C68.5149 60.5413 68.8615 60.488 69.2242 60.488C69.6615 60.488 70.0509 60.5627 70.3922 60.712C70.7442 60.8507 71.0375 61.096 71.2722 61.448C71.5175 61.7893 71.7042 62.2427 71.8322 62.808L71.5442 62.664L71.6562 62.392C71.7629 62.1467 71.9175 61.912 72.1202 61.688C72.3335 61.4533 72.5735 61.2453 72.8402 61.064C73.1175 60.8827 73.4162 60.744 73.7362 60.648C74.0669 60.5413 74.4029 60.488 74.7442 60.488C75.3309 60.488 75.8269 60.616 76.2322 60.872C76.6375 61.1173 76.9415 61.496 77.1442 62.008C77.3575 62.52 77.4642 63.1707 77.4642 63.96V69H76.2322V64.024C76.2322 63.4693 76.1629 63.016 76.0242 62.664C75.8855 62.312 75.6775 62.0507 75.4002 61.88C75.1335 61.6987 74.7922 61.608 74.3762 61.608C74.0135 61.608 73.6775 61.672 73.3682 61.8C73.0695 61.9173 72.8082 62.088 72.5842 62.312C72.3709 62.5253 72.2002 62.7707 72.0722 63.048C71.9549 63.3253 71.8962 63.624 71.8962 63.944V69H70.6802V64.008C70.6802 63.4747 70.6055 63.032 70.4562 62.68C70.3175 62.328 70.1095 62.0613 69.8322 61.88C69.5549 61.6987 69.2135 61.608 68.8082 61.608C68.4562 61.608 68.1309 61.672 67.8322 61.8C67.5335 61.9173 67.2722 62.0827 67.0482 62.296C66.8349 62.5093 66.6642 62.7547 66.5362 63.032C66.4189 63.3093 66.3602 63.608 66.3602 63.928V69H65.1442ZM83.4343 69.16C82.6023 69.16 81.861 68.9733 81.2103 68.6C80.5703 68.2267 80.0636 67.7093 79.6903 67.048C79.3276 66.3867 79.1463 65.6347 79.1463 64.792C79.1463 63.96 79.3276 63.2187 79.6903 62.568C80.0636 61.9173 80.5703 61.4053 81.2103 61.032C81.861 60.6587 82.6023 60.472 83.4343 60.472C84.2556 60.472 84.9863 60.6587 85.6263 61.032C86.277 61.4053 86.7836 61.9173 87.1463 62.568C87.5196 63.2187 87.7063 63.96 87.7063 64.792C87.7063 65.6347 87.5196 66.3867 87.1463 67.048C86.7836 67.7093 86.277 68.2267 85.6263 68.6C84.9863 68.9733 84.2556 69.16 83.4343 69.16ZM83.4343 68.024C84.021 68.024 84.5436 67.8853 85.0023 67.608C85.461 67.32 85.8183 66.936 86.0743 66.456C86.3303 65.9653 86.4583 65.4107 86.4583 64.792C86.4583 64.1733 86.3303 63.624 86.0743 63.144C85.8183 62.664 85.461 62.2907 85.0023 62.024C84.5436 61.7467 84.021 61.608 83.4343 61.608C82.8476 61.608 82.3196 61.7467 81.8503 62.024C81.3916 62.2907 81.029 62.6693 80.7623 63.16C80.5063 63.64 80.3836 64.184 80.3943 64.792C80.3836 65.4107 80.5063 65.9653 80.7623 66.456C81.029 66.936 81.3916 67.32 81.8503 67.608C82.3196 67.8853 82.8476 68.024 83.4343 68.024ZM89.4411 69V60.648H90.6411L90.6731 62.552L90.4331 62.632C90.5184 62.312 90.6571 62.024 90.8491 61.768C91.0517 61.5013 91.2917 61.272 91.5691 61.08C91.8464 60.888 92.1504 60.744 92.4811 60.648C92.8117 60.5413 93.1584 60.488 93.5211 60.488C93.9584 60.488 94.3477 60.5627 94.6891 60.712C95.0411 60.8507 95.3344 61.096 95.5691 61.448C95.8144 61.7893 96.0011 62.2427 96.1291 62.808L95.8411 62.664L95.9531 62.392C96.0597 62.1467 96.2144 61.912 96.4171 61.688C96.6304 61.4533 96.8704 61.2453 97.1371 61.064C97.4144 60.8827 97.7131 60.744 98.0331 60.648C98.3637 60.5413 98.6997 60.488 99.0411 60.488C99.6277 60.488 100.124 60.616 100.529 60.872C100.934 61.1173 101.238 61.496 101.441 62.008C101.654 62.52 101.761 63.1707 101.761 63.96V69H100.529V64.024C100.529 63.4693 100.46 63.016 100.321 62.664C100.182 62.312 99.9744 62.0507 99.6971 61.88C99.4304 61.6987 99.0891 61.608 98.6731 61.608C98.3104 61.608 97.9744 61.672 97.6651 61.8C97.3664 61.9173 97.1051 62.088 96.8811 62.312C96.6677 62.5253 96.4971 62.7707 96.3691 63.048C96.2517 63.3253 96.1931 63.624 96.1931 63.944V69H94.9771V64.008C94.9771 63.4747 94.9024 63.032 94.7531 62.68C94.6144 62.328 94.4064 62.0613 94.1291 61.88C93.8517 61.6987 93.5104 61.608 93.1051 61.608C92.7531 61.608 92.4277 61.672 92.1291 61.8C91.8304 61.9173 91.5691 62.0827 91.3451 62.296C91.1317 62.5093 90.9611 62.7547 90.8331 63.032C90.7157 63.3093 90.6571 63.608 90.6571 63.928V69H89.4411ZM107.715 69.16C106.883 69.16 106.142 68.9787 105.491 68.616C104.851 68.2533 104.35 67.7467 103.987 67.096C103.625 66.4453 103.443 65.6987 103.443 64.856C103.443 64.2053 103.545 63.6187 103.747 63.096C103.95 62.5627 104.233 62.0987 104.595 61.704C104.969 61.3093 105.411 61.0053 105.923 60.792C106.435 60.568 106.99 60.456 107.587 60.456C108.153 60.456 108.665 60.5573 109.123 60.76C109.593 60.9627 109.993 61.2453 110.323 61.608C110.665 61.96 110.921 62.3813 111.091 62.872C111.262 63.3627 111.337 63.9013 111.315 64.488L111.299 65.048H104.339L104.163 64.04H110.387L110.099 64.312V63.928C110.078 63.544 109.966 63.176 109.763 62.824C109.561 62.4613 109.273 62.168 108.899 61.944C108.537 61.72 108.099 61.608 107.587 61.608C106.99 61.608 106.473 61.7307 106.035 61.976C105.598 62.2107 105.262 62.5627 105.027 63.032C104.793 63.5013 104.675 64.0827 104.675 64.776C104.675 65.4373 104.803 66.0133 105.059 66.504C105.315 66.984 105.678 67.3573 106.147 67.624C106.627 67.8907 107.203 68.024 107.875 68.024C108.27 68.024 108.659 67.96 109.043 67.832C109.438 67.6933 109.87 67.4267 110.339 67.032L110.963 67.896C110.718 68.1413 110.425 68.36 110.083 68.552C109.742 68.7333 109.369 68.8827 108.963 69C108.558 69.1067 108.142 69.16 107.715 69.16ZM113.02 69V60.648H114.204L114.252 62.392L114.06 62.472C114.166 62.1093 114.374 61.7787 114.684 61.48C114.993 61.1813 115.361 60.9413 115.788 60.76C116.225 60.568 116.673 60.472 117.132 60.472C117.75 60.472 118.268 60.5947 118.684 60.84C119.1 61.0853 119.414 61.464 119.628 61.976C119.841 62.488 119.948 63.1387 119.948 63.928V69H118.732V63.992C118.732 63.4373 118.657 62.984 118.508 62.632C118.369 62.2693 118.15 62.0027 117.852 61.832C117.553 61.6613 117.185 61.5813 116.748 61.592C116.385 61.592 116.049 61.656 115.74 61.784C115.43 61.9013 115.164 62.0667 114.94 62.28C114.716 62.4933 114.54 62.7387 114.412 63.016C114.284 63.2933 114.22 63.592 114.22 63.912V69H113.628C113.553 69 113.468 69 113.372 69C113.276 69 113.158 69 113.02 69ZM123.39 69V58.456H124.59V69H123.39ZM121.502 61.8V60.648H126.702V61.8H121.502ZM131.794 69.16C130.962 69.16 130.22 68.9733 129.57 68.6C128.93 68.2267 128.423 67.7093 128.05 67.048C127.687 66.3867 127.506 65.6347 127.506 64.792C127.506 63.96 127.687 63.2187 128.05 62.568C128.423 61.9173 128.93 61.4053 129.57 61.032C130.22 60.6587 130.962 60.472 131.794 60.472C132.615 60.472 133.346 60.6587 133.986 61.032C134.636 61.4053 135.143 61.9173 135.506 62.568C135.879 63.2187 136.066 63.96 136.066 64.792C136.066 65.6347 135.879 66.3867 135.506 67.048C135.143 67.7093 134.636 68.2267 133.986 68.6C133.346 68.9733 132.615 69.16 131.794 69.16ZM131.794 68.024C132.38 68.024 132.903 67.8853 133.362 67.608C133.82 67.32 134.178 66.936 134.434 66.456C134.69 65.9653 134.818 65.4107 134.818 64.792C134.818 64.1733 134.69 63.624 134.434 63.144C134.178 62.664 133.82 62.2907 133.362 62.024C132.903 61.7467 132.38 61.608 131.794 61.608C131.207 61.608 130.679 61.7467 130.21 62.024C129.751 62.2907 129.388 62.6693 129.122 63.16C128.866 63.64 128.743 64.184 128.754 64.792C128.743 65.4107 128.866 65.9653 129.122 66.456C129.388 66.936 129.751 67.32 130.21 67.608C130.679 67.8853 131.207 68.024 131.794 68.024Z" fill="url(#paint7_linear_170_702)"/>
<defs>
<linearGradient id="paint0_linear_170_702" x1="93.9994" y1="16" x2="61.9999" y2="16" gradientUnits="userSpaceOnUse">
<stop stop-color="#43A3D5"/>
<stop offset="1" stop-color="#9C60DA"/>
</linearGradient>
<linearGradient id="paint1_linear_170_702" x1="93.9994" y1="16" x2="61.9999" y2="16" gradientUnits="userSpaceOnUse">
<stop stop-color="#43A3D5"/>
<stop offset="1" stop-color="#9C60DA"/>
</linearGradient>
<linearGradient id="paint2_linear_170_702" x1="93.9994" y1="16" x2="61.9999" y2="16" gradientUnits="userSpaceOnUse">
<stop stop-color="#43A3D5"/>
<stop offset="1" stop-color="#9C60DA"/>
</linearGradient>
<linearGradient id="paint3_linear_170_702" x1="93.9994" y1="16" x2="61.9999" y2="16" gradientUnits="userSpaceOnUse">
<stop stop-color="#43A3D5"/>
<stop offset="1" stop-color="#9C60DA"/>
</linearGradient>
<linearGradient id="paint4_linear_170_702" x1="93.9994" y1="16" x2="61.9999" y2="16" gradientUnits="userSpaceOnUse">
<stop stop-color="#43A3D5"/>
<stop offset="1" stop-color="#9C60DA"/>
</linearGradient>
<linearGradient id="paint5_linear_170_702" x1="93.9994" y1="16" x2="61.9999" y2="16" gradientUnits="userSpaceOnUse">
<stop stop-color="#43A3D5"/>
<stop offset="1" stop-color="#9C60DA"/>
</linearGradient>
<linearGradient id="paint6_linear_170_702" x1="93.9994" y1="16" x2="61.9999" y2="16" gradientUnits="userSpaceOnUse">
<stop stop-color="#43A3D5"/>
<stop offset="1" stop-color="#9C60DA"/>
</linearGradient>
<linearGradient id="paint7_linear_170_702" x1="141" y1="54" x2="15" y2="54" gradientUnits="userSpaceOnUse">
<stop stop-color="#43A3D5"/>
<stop offset="1" stop-color="#9C60DA"/>
</linearGradient>
<clipPath id="clip0_170_702">
<rect width="32" height="32" fill="white" transform="translate(62)"/>
</clipPath>
</defs>
</svg>
