<svg width="203" height="69" viewBox="0 0 203 69" fill="none" xmlns="http://www.w3.org/2000/svg">
<rect width="203" height="69" fill="#100D1E"/>
<g clip-path="url(#clip0_170_740)">
<path fill-rule="evenodd" clip-rule="evenodd" d="M98.1064 13.6008L101.502 15.9228L104.776 13.6644L112.114 20.904C111.92 20.9672 111.716 20.9992 111.5 21H91.5004C91.2364 21 90.9844 20.9484 90.7528 20.856L98.1064 13.6008ZM113.5 7.6512V18.9996C113.5 19.296 113.435 19.5768 113.32 19.83L106.127 12.7332L113.5 7.6512ZM89.5 7.7148L96.7504 12.6732L89.6272 19.7028C89.5438 19.4777 89.5007 19.2397 89.5 18.9996V7.7148ZM111.5 3C112.604 3 113.5 3.8952 113.5 5.0004V5.7036L101.498 13.9776L89.5 5.772V5.0004C89.5 3.8964 90.3952 3 91.5004 3H111.5Z" fill="url(#paint0_linear_170_740)"/>
</g>
<path d="M77.0866 45V35.464H73.9506V33.8H82.0466V35.464H78.8146V45H77.0866ZM85.3996 45.16C84.7063 45.16 84.0716 44.968 83.4956 44.584C82.9303 44.2 82.477 43.6773 82.1356 43.016C81.7943 42.3547 81.6236 41.608 81.6236 40.776C81.6236 39.9333 81.7943 39.1867 82.1356 38.536C82.4876 37.8747 82.957 37.3573 83.5436 36.984C84.141 36.6107 84.8076 36.424 85.5436 36.424C85.981 36.424 86.381 36.488 86.7436 36.616C87.1063 36.744 87.421 36.9253 87.6876 37.16C87.965 37.384 88.189 37.6453 88.3596 37.944C88.541 38.2427 88.653 38.5627 88.6956 38.904L88.3276 38.776V36.6H89.9916V45H88.3276V43L88.7116 42.888C88.6476 43.176 88.5143 43.4587 88.3116 43.736C88.1196 44.0027 87.869 44.2427 87.5596 44.456C87.261 44.6693 86.925 44.84 86.5516 44.968C86.189 45.096 85.805 45.16 85.3996 45.16ZM85.8316 43.64C86.333 43.64 86.7756 43.5173 87.1596 43.272C87.5436 43.0267 87.8423 42.6907 88.0556 42.264C88.2796 41.8267 88.3916 41.3307 88.3916 40.776C88.3916 40.232 88.2796 39.7467 88.0556 39.32C87.8423 38.8933 87.5436 38.5573 87.1596 38.312C86.7756 38.0667 86.333 37.944 85.8316 37.944C85.341 37.944 84.9036 38.0667 84.5196 38.312C84.1463 38.5573 83.8476 38.8933 83.6236 39.32C83.4103 39.7467 83.3036 40.232 83.3036 40.776C83.3036 41.3307 83.4103 41.8267 83.6236 42.264C83.8476 42.6907 84.1463 43.0267 84.5196 43.272C84.9036 43.5173 85.341 43.64 85.8316 43.64ZM84.9676 35.304L84.4236 34.488L86.7116 32.488L87.7516 33.8L84.9676 35.304ZM101.881 45.16C101.092 45.16 100.361 45.016 99.689 44.728C99.0277 44.44 98.4463 44.04 97.945 43.528C97.4543 43.0053 97.0703 42.3973 96.793 41.704C96.5263 41 96.393 40.232 96.393 39.4C96.393 38.568 96.5263 37.8053 96.793 37.112C97.0703 36.408 97.4543 35.8 97.945 35.288C98.4463 34.7653 99.0277 34.36 99.689 34.072C100.361 33.784 101.092 33.64 101.881 33.64C102.67 33.64 103.396 33.784 104.057 34.072C104.729 34.36 105.31 34.7653 105.801 35.288C106.302 35.8107 106.686 36.424 106.953 37.128C107.23 37.8213 107.369 38.5787 107.369 39.4C107.369 40.2213 107.23 40.984 106.953 41.688C106.686 42.3813 106.302 42.9893 105.801 43.512C105.31 44.0347 104.729 44.44 104.057 44.728C103.396 45.016 102.67 45.16 101.881 45.16ZM101.881 43.48C102.425 43.48 102.921 43.3787 103.369 43.176C103.828 42.9733 104.222 42.6907 104.553 42.328C104.884 41.9547 105.14 41.5227 105.321 41.032C105.513 40.5307 105.609 39.9867 105.609 39.4C105.609 38.8133 105.513 38.2747 105.321 37.784C105.14 37.2827 104.884 36.8507 104.553 36.488C104.222 36.1147 103.828 35.8267 103.369 35.624C102.921 35.4213 102.425 35.32 101.881 35.32C101.337 35.32 100.836 35.4213 100.377 35.624C99.929 35.8267 99.5343 36.1093 99.193 36.472C98.8623 36.8347 98.6063 37.2667 98.425 37.768C98.2437 38.2587 98.153 38.8027 98.153 39.4C98.153 39.9867 98.2437 40.5307 98.425 41.032C98.6063 41.5333 98.8623 41.9653 99.193 42.328C99.5343 42.6907 99.929 42.9733 100.377 43.176C100.836 43.3787 101.337 43.48 101.881 43.48ZM109.293 45V36.6H110.941V38.328L110.653 38.52C110.759 38.1467 110.967 37.8053 111.277 37.496C111.586 37.176 111.954 36.92 112.381 36.728C112.807 36.5253 113.245 36.424 113.693 36.424C114.333 36.424 114.866 36.552 115.293 36.808C115.719 37.0533 116.039 37.432 116.253 37.944C116.466 38.456 116.573 39.1013 116.573 39.88V45H114.925V39.992C114.925 39.512 114.861 39.1173 114.733 38.808C114.605 38.488 114.407 38.2587 114.141 38.12C113.874 37.9707 113.543 37.9067 113.149 37.928C112.829 37.928 112.535 37.9813 112.269 38.088C112.002 38.184 111.767 38.3227 111.565 38.504C111.373 38.6853 111.218 38.8987 111.101 39.144C110.994 39.3787 110.941 39.6347 110.941 39.912V45H110.125C109.986 45 109.847 45 109.709 45C109.57 45 109.431 45 109.293 45ZM120.744 41.624L120.328 39.368C120.744 39.2613 121.118 39.144 121.448 39.016C121.779 38.8773 122.062 38.7333 122.296 38.584C122.542 38.424 122.744 38.2533 122.904 38.072C123.064 37.8907 123.182 37.6987 123.256 37.496C123.342 37.2827 123.384 37.0587 123.384 36.824C123.384 36.5147 123.299 36.2373 123.128 35.992C122.968 35.7467 122.744 35.5547 122.456 35.416C122.168 35.2773 121.843 35.208 121.48 35.208C121.054 35.208 120.638 35.3573 120.232 35.656C119.838 35.944 119.496 36.3547 119.208 36.888L118.008 35.88C118.467 35.176 119.011 34.632 119.64 34.248C120.28 33.8533 120.947 33.656 121.64 33.656C122.312 33.656 122.915 33.7947 123.448 34.072C123.982 34.3493 124.403 34.728 124.712 35.208C125.032 35.688 125.192 36.2267 125.192 36.824C125.192 37.176 125.118 37.5227 124.968 37.864C124.83 38.1947 124.627 38.5093 124.36 38.808C124.094 39.1067 123.779 39.3733 123.416 39.608C123.064 39.8427 122.675 40.0347 122.248 40.184L121.976 41.624H120.744ZM120.184 43.976C120.184 43.624 120.286 43.336 120.488 43.112C120.691 42.888 120.958 42.776 121.288 42.776C121.64 42.776 121.912 42.8827 122.104 43.096C122.296 43.2987 122.392 43.592 122.392 43.976C122.392 44.328 122.291 44.616 122.088 44.84C121.886 45.064 121.619 45.176 121.288 45.176C120.936 45.176 120.664 45.0747 120.472 44.872C120.28 44.6587 120.184 44.36 120.184 43.976ZM127.22 41.144C127.145 40.472 127.076 39.7787 127.012 39.064C126.959 38.3387 126.916 37.624 126.884 36.92C126.852 36.216 126.836 35.5493 126.836 34.92V33.8H128.564V34.92C128.564 35.5813 128.548 36.2747 128.516 37C128.484 37.7253 128.436 38.4453 128.372 39.16C128.319 39.864 128.255 40.5253 128.18 41.144H127.22ZM127.652 45.176C127.3 45.176 127.028 45.0747 126.836 44.872C126.644 44.6587 126.548 44.36 126.548 43.976C126.548 43.624 126.649 43.336 126.852 43.112C127.055 42.888 127.321 42.776 127.652 42.776C128.004 42.776 128.276 42.8827 128.468 43.096C128.66 43.2987 128.756 43.592 128.756 43.976C128.756 44.328 128.655 44.616 128.452 44.84C128.249 45.064 127.983 45.176 127.652 45.176ZM16.7175 65V53.8H20.1735V65H16.7175ZM18.3655 61.064V58.344H24.1735V61.064H18.3655ZM18.3655 56.744V53.8H24.7655V56.744H18.3655ZM24.2425 65L28.7385 53.8H31.4585L35.9225 65H32.4985L30.7065 60.104C30.5892 59.7733 30.4878 59.4907 30.4025 59.256C30.3172 59.0213 30.2425 58.8027 30.1785 58.6C30.1145 58.3867 30.0505 58.1627 29.9865 57.928C29.9225 57.6827 29.8585 57.3947 29.7945 57.064H30.3385C30.2745 57.3947 30.2105 57.6827 30.1465 57.928C30.0825 58.1627 30.0132 58.3867 29.9385 58.6C29.8745 58.8027 29.7945 59.0213 29.6985 59.256C29.6132 59.4907 29.5118 59.7733 29.3945 60.104L27.6025 65H24.2425ZM26.4825 63.336L27.4905 60.984H32.6905L33.6025 63.336H26.4825ZM36.8894 65V53.8H40.3454V62.056H45.1454V65H36.8894ZM45.1487 65L49.6448 53.8H52.3648L56.8288 65H53.4048L51.6128 60.104C51.4954 59.7733 51.3941 59.4907 51.3088 59.256C51.2234 59.0213 51.1488 58.8027 51.0848 58.6C51.0208 58.3867 50.9568 58.1627 50.8928 57.928C50.8288 57.6827 50.7648 57.3947 50.7008 57.064H51.2448C51.1808 57.3947 51.1168 57.6827 51.0528 57.928C50.9888 58.1627 50.9194 58.3867 50.8448 58.6C50.7808 58.8027 50.7008 59.0213 50.6048 59.256C50.5194 59.4907 50.4181 59.7733 50.3008 60.104L48.5088 65H45.1487ZM47.3888 63.336L48.3968 60.984H53.5968L54.5087 63.336H47.3888ZM68.8934 65.16C67.9974 65.16 67.1707 65.016 66.4134 64.728C65.6667 64.44 65.016 64.04 64.4614 63.528C63.9174 63.0053 63.496 62.3867 63.1974 61.672C62.8987 60.9573 62.7494 60.1733 62.7494 59.32C62.7494 58.4667 62.8987 57.6827 63.1974 56.968C63.5067 56.2533 63.9387 55.64 64.4934 55.128C65.048 54.6053 65.704 54.2 66.4614 53.912C67.2294 53.624 68.072 53.48 68.9894 53.48C69.512 53.48 70.024 53.544 70.5254 53.672C71.0374 53.7893 71.5174 53.976 71.9654 54.232C72.424 54.4773 72.84 54.792 73.2134 55.176L71.1494 57.592C71 57.4107 70.8187 57.2453 70.6054 57.096C70.4027 56.9467 70.1627 56.8293 69.8854 56.744C69.6187 56.648 69.3094 56.6 68.9574 56.6C68.5947 56.6 68.248 56.664 67.9174 56.792C67.5974 56.9093 67.3147 57.0853 67.0694 57.32C66.8347 57.5547 66.648 57.8427 66.5094 58.184C66.3707 58.5253 66.3014 58.92 66.3014 59.368C66.3014 59.7733 66.3707 60.1413 66.5094 60.472C66.648 60.8027 66.8454 61.0853 67.1014 61.32C67.3574 61.5547 67.6667 61.736 68.0294 61.864C68.392 61.992 68.7974 62.056 69.2454 62.056C69.5654 62.056 69.8694 62.008 70.1574 61.912C70.4454 61.816 70.7067 61.6933 70.9414 61.544C71.176 61.384 71.3787 61.208 71.5494 61.016L73.1974 63.608C72.92 63.9067 72.552 64.1733 72.0934 64.408C71.6347 64.6427 71.128 64.8293 70.5734 64.968C70.0187 65.096 69.4587 65.16 68.8934 65.16ZM80.0786 65.16C79.1933 65.16 78.3826 65.016 77.6466 64.728C76.9106 64.44 76.2706 64.0347 75.7266 63.512C75.1826 62.9893 74.7613 62.3707 74.4626 61.656C74.1746 60.9413 74.0306 60.1627 74.0306 59.32C74.0306 58.4667 74.1746 57.688 74.4626 56.984C74.7613 56.2693 75.1826 55.6507 75.7266 55.128C76.2706 54.6053 76.9106 54.2 77.6466 53.912C78.3826 53.624 79.188 53.48 80.0626 53.48C80.948 53.48 81.7533 53.624 82.4786 53.912C83.2146 54.2 83.8546 54.6053 84.3986 55.128C84.9426 55.6507 85.3586 56.2693 85.6466 56.984C85.9453 57.688 86.0946 58.4613 86.0946 59.304C86.0946 60.1573 85.9453 60.9413 85.6466 61.656C85.3586 62.3707 84.9426 62.9893 84.3986 63.512C83.8546 64.0347 83.2146 64.44 82.4786 64.728C81.7533 65.016 80.9533 65.16 80.0786 65.16ZM80.0626 61.96C80.4253 61.96 80.756 61.896 81.0546 61.768C81.364 61.64 81.6306 61.4587 81.8546 61.224C82.0893 60.9787 82.2653 60.696 82.3826 60.376C82.5106 60.056 82.5746 59.704 82.5746 59.32C82.5746 58.936 82.5106 58.584 82.3826 58.264C82.2653 57.944 82.0893 57.6667 81.8546 57.432C81.6306 57.1867 81.364 57 81.0546 56.872C80.756 56.744 80.4253 56.68 80.0626 56.68C79.7 56.68 79.364 56.744 79.0546 56.872C78.756 57 78.4893 57.1867 78.2546 57.432C78.0306 57.6667 77.8546 57.944 77.7266 58.264C77.6093 58.584 77.5506 58.936 77.5506 59.32C77.5506 59.704 77.6093 60.056 77.7266 60.376C77.8546 60.696 78.0306 60.9787 78.2546 61.224C78.4893 61.4587 78.756 61.64 79.0546 61.768C79.364 61.896 79.7 61.96 80.0626 61.96ZM88.0144 65V53.8H90.9904L95.0704 60.44L92.6544 60.424L96.7824 53.8H99.6624V65H96.3344V62.328C96.3344 61.368 96.3557 60.504 96.3984 59.736C96.4517 58.968 96.537 58.2053 96.6544 57.448L97.0384 58.456L94.3344 62.648H93.2784L90.6224 58.456L91.0224 57.448C91.1397 58.1627 91.2197 58.8987 91.2624 59.656C91.3157 60.4027 91.3424 61.2933 91.3424 62.328V65H88.0144ZM106.211 65L110.707 53.8H113.427L117.891 65H114.467L112.675 60.104C112.558 59.7733 112.457 59.4907 112.371 59.256C112.286 59.0213 112.211 58.8027 112.147 58.6C112.083 58.3867 112.019 58.1627 111.955 57.928C111.891 57.6827 111.827 57.3947 111.763 57.064H112.307C112.243 57.3947 112.179 57.6827 112.115 57.928C112.051 58.1627 111.982 58.3867 111.907 58.6C111.843 58.8027 111.763 59.0213 111.667 59.256C111.582 59.4907 111.481 59.7733 111.363 60.104L109.571 65H106.211ZM108.451 63.336L109.459 60.984H114.659L115.571 63.336H108.451ZM129.796 65.16C128.836 65.16 127.983 65.016 127.236 64.728C126.5 64.44 125.876 64.0347 125.364 63.512C124.852 62.9893 124.463 62.3707 124.196 61.656C123.94 60.9413 123.812 60.1627 123.812 59.32C123.812 58.4667 123.956 57.688 124.244 56.984C124.543 56.2693 124.969 55.6507 125.524 55.128C126.079 54.6053 126.735 54.2 127.492 53.912C128.26 53.624 129.113 53.48 130.052 53.48C130.703 53.48 131.305 53.56 131.86 53.72C132.425 53.88 132.932 54.0987 133.38 54.376C133.839 54.6427 134.233 54.9467 134.564 55.288L132.516 57.464C132.303 57.2613 132.073 57.0853 131.828 56.936C131.583 56.776 131.311 56.6533 131.012 56.568C130.713 56.472 130.377 56.424 130.004 56.424C129.62 56.424 129.268 56.4987 128.948 56.648C128.628 56.7867 128.351 56.984 128.116 57.24C127.881 57.496 127.695 57.8053 127.556 58.168C127.428 58.52 127.364 58.904 127.364 59.32C127.364 59.736 127.433 60.1253 127.572 60.488C127.711 60.84 127.903 61.144 128.148 61.4C128.393 61.656 128.687 61.8587 129.028 62.008C129.369 62.1467 129.743 62.216 130.148 62.216C130.425 62.216 130.676 62.1733 130.9 62.088C131.135 61.992 131.332 61.8693 131.492 61.72C131.663 61.56 131.796 61.3733 131.892 61.16C131.988 60.936 132.036 60.696 132.036 60.44V59.976L132.484 60.744H129.636V58.312H135.14C135.151 58.4293 135.161 58.6213 135.172 58.888C135.193 59.1547 135.204 59.4213 135.204 59.688C135.215 59.944 135.22 60.12 135.22 60.216C135.22 60.9307 135.087 61.592 134.82 62.2C134.553 62.808 134.175 63.3307 133.684 63.768C133.204 64.2053 132.633 64.5467 131.972 64.792C131.311 65.0373 130.585 65.16 129.796 65.16ZM137.139 65V53.8H145.507V56.6H140.451V62.2H145.795V65H137.139ZM138.787 60.648V58.024H144.915V60.648H138.787ZM147.827 65V53.8H150.915L156.067 60.92L155.331 60.696C155.278 60.2693 155.23 59.896 155.187 59.576C155.155 59.256 155.123 58.9627 155.091 58.696C155.07 58.4187 155.048 58.1467 155.027 57.88C155.016 57.6133 155.011 57.32 155.011 57C155.011 56.68 155.011 56.3067 155.011 55.88V53.8H158.339V65H155.219L149.539 57.16L150.835 57.544C150.888 57.9387 150.931 58.2853 150.963 58.584C151.006 58.872 151.038 59.1387 151.059 59.384C151.08 59.6293 151.096 59.8747 151.107 60.12C151.128 60.3547 151.139 60.6213 151.139 60.92C151.15 61.208 151.155 61.5493 151.155 61.944V65H147.827ZM163.561 65V56.744H160.105V53.8H170.569V56.744H167.017V65H163.561ZM172.327 65V53.8H180.695V56.6H175.639V62.2H180.983V65H172.327ZM173.975 60.648V58.024H180.103V60.648H173.975ZM183.606 60.744C183.51 60.1147 183.409 59.464 183.302 58.792C183.196 58.12 183.105 57.4533 183.03 56.792C182.966 56.12 182.934 55.4693 182.934 54.84V53.48H186.358V54.84C186.358 55.4693 186.321 56.12 186.246 56.792C186.182 57.4533 186.097 58.12 185.99 58.792C185.884 59.464 185.782 60.1147 185.686 60.744H183.606ZM184.662 65.176C184.161 65.176 183.772 65.0373 183.494 64.76C183.217 64.4827 183.078 64.088 183.078 63.576C183.078 63.1067 183.222 62.7227 183.51 62.424C183.809 62.1253 184.193 61.976 184.662 61.976C185.164 61.976 185.553 62.1147 185.83 62.392C186.108 62.6693 186.246 63.064 186.246 63.576C186.246 64.0453 186.097 64.4293 185.798 64.728C185.51 65.0267 185.132 65.176 184.662 65.176Z" fill="url(#paint1_linear_170_740)"/>
<defs>
<linearGradient id="paint0_linear_170_740" x1="113.5" y1="12" x2="89.5" y2="12" gradientUnits="userSpaceOnUse">
<stop stop-color="#43A3D5"/>
<stop offset="1" stop-color="#9C60DA"/>
</linearGradient>
<linearGradient id="paint1_linear_170_740" x1="188" y1="49" x2="15" y2="49" gradientUnits="userSpaceOnUse">
<stop stop-color="#43A3D5"/>
<stop offset="1" stop-color="#9C60DA"/>
</linearGradient>
<clipPath id="clip0_170_740">
<rect width="24" height="24" fill="white" transform="translate(89.5)"/>
</clipPath>
</defs>
</svg>
