<svg width="174" height="40" viewBox="0 0 174 40" fill="none" xmlns="http://www.w3.org/2000/svg">
<rect x="0.5" y="0.5" width="173" height="39" rx="19.5" fill="#100D1E"/>
<rect x="0.5" y="0.5" width="173" height="39" rx="19.5" stroke="url(#paint0_linear_170_708)"/>
<g clip-path="url(#clip0_170_708)">
<path d="M65.7496 12.3772C65.9461 12.5175 66.0264 12.7047 65.9907 12.9386L63.7051 26.4123C63.6753 26.5819 63.5801 26.7134 63.4194 26.807C63.3361 26.8538 63.2438 26.8772 63.1426 26.8772C63.0771 26.8772 63.0057 26.8626 62.9283 26.8333L58.2232 24.9474L55.5626 27.8158C55.4555 27.9386 55.3156 28 55.143 28C55.0596 28 54.9912 27.9883 54.9376 27.9649C54.8245 27.924 54.7353 27.8553 54.6698 27.7588C54.6043 27.6623 54.5716 27.5556 54.5716 27.4386V23.4737L50.3575 21.7807C50.1372 21.6988 50.0182 21.538 50.0003 21.2982C49.9825 21.0702 50.0777 20.8977 50.286 20.7807L65.1425 12.3596C65.3509 12.2368 65.5532 12.2427 65.7496 12.3772ZM62.6962 25.5263L64.6693 13.9211L51.8663 21.1754L54.8662 22.3772L62.5712 16.7719L58.3035 23.7632L62.6962 25.5263Z" fill="#9C60DA"/>
</g>
<path d="M77.648 26V14.8H84.432V16.016H78.896V24.784H84.4V26H77.648ZM78.224 20.848V19.632H83.536V20.848H78.224ZM86.7461 26V17.648H87.9301L87.9781 19.392L87.7861 19.472C87.8928 19.1093 88.1008 18.7787 88.4101 18.48C88.7195 18.1813 89.0875 17.9413 89.5141 17.76C89.9515 17.568 90.3995 17.472 90.8581 17.472C91.4768 17.472 91.9941 17.5947 92.4101 17.84C92.8261 18.0853 93.1408 18.464 93.3541 18.976C93.5675 19.488 93.6741 20.1387 93.6741 20.928V26H92.4581V20.992C92.4581 20.4373 92.3835 19.984 92.2341 19.632C92.0955 19.2693 91.8768 19.0027 91.5781 18.832C91.2795 18.6613 90.9115 18.5813 90.4741 18.592C90.1115 18.592 89.7755 18.656 89.4661 18.784C89.1568 18.9013 88.8901 19.0667 88.6661 19.28C88.4421 19.4933 88.2661 19.7387 88.1381 20.016C88.0101 20.2933 87.9461 20.592 87.9461 20.912V26H87.3541C87.2795 26 87.1941 26 87.0981 26C87.0021 26 86.8848 26 86.7461 26ZM98.5569 26L95.0369 17.648H96.3649L99.1489 24.48L98.8289 24.656L101.885 17.648H103.165L99.4209 26H98.5569ZM104.894 26V17.648H106.094V26H104.894ZM105.486 15.84C105.188 15.84 104.958 15.7653 104.798 15.616C104.649 15.456 104.574 15.2427 104.574 14.976C104.574 14.7093 104.654 14.496 104.814 14.336C104.974 14.176 105.198 14.096 105.486 14.096C105.774 14.096 105.998 14.176 106.158 14.336C106.318 14.4853 106.398 14.6987 106.398 14.976C106.398 15.232 106.318 15.44 106.158 15.6C105.998 15.76 105.774 15.84 105.486 15.84ZM111.979 26.16C111.254 26.16 110.598 25.9733 110.011 25.6C109.424 25.216 108.96 24.6987 108.619 24.048C108.278 23.3867 108.107 22.64 108.107 21.808C108.107 20.9653 108.283 20.2187 108.635 19.568C108.987 18.9173 109.456 18.4053 110.043 18.032C110.64 17.6587 111.307 17.472 112.043 17.472C112.48 17.472 112.886 17.536 113.259 17.664C113.632 17.792 113.963 17.9733 114.251 18.208C114.55 18.432 114.795 18.6987 114.987 19.008C115.19 19.3067 115.328 19.632 115.403 19.984L115.051 19.808L115.099 17.648H116.299V26H115.083V23.952L115.403 23.744C115.328 24.064 115.184 24.3733 114.971 24.672C114.758 24.96 114.496 25.216 114.187 25.44C113.888 25.664 113.547 25.84 113.163 25.968C112.79 26.096 112.395 26.16 111.979 26.16ZM112.251 25.008C112.806 25.008 113.302 24.8747 113.739 24.608C114.176 24.3307 114.518 23.952 114.763 23.472C115.019 22.9813 115.147 22.4267 115.147 21.808C115.147 21.1893 115.019 20.64 114.763 20.16C114.518 19.68 114.176 19.3013 113.739 19.024C113.302 18.7467 112.806 18.608 112.251 18.608C111.686 18.608 111.184 18.7467 110.747 19.024C110.32 19.3013 109.979 19.68 109.723 20.16C109.478 20.64 109.355 21.1893 109.355 21.808C109.355 22.416 109.478 22.9653 109.723 23.456C109.968 23.936 110.31 24.3147 110.747 24.592C111.184 24.8693 111.686 25.008 112.251 25.008ZM118.637 26V17.648H119.837L119.869 19.872L119.741 19.568C119.858 19.1947 120.045 18.848 120.301 18.528C120.567 18.208 120.882 17.952 121.245 17.76C121.607 17.568 122.007 17.472 122.445 17.472C122.626 17.472 122.797 17.488 122.957 17.52C123.117 17.5413 123.25 17.5733 123.357 17.616L123.021 18.96C122.882 18.896 122.738 18.8533 122.589 18.832C122.45 18.8 122.317 18.784 122.189 18.784C121.826 18.784 121.501 18.848 121.213 18.976C120.925 19.104 120.679 19.2853 120.477 19.52C120.274 19.744 120.119 20.0053 120.013 20.304C119.906 20.6027 119.853 20.9227 119.853 21.264V26H118.637Z" fill="url(#paint1_linear_170_708)"/>
<defs>
<linearGradient id="paint0_linear_170_708" x1="174" y1="20" x2="0" y2="20" gradientUnits="userSpaceOnUse">
<stop stop-color="#43A3D5"/>
<stop offset="1" stop-color="#9C60DA"/>
</linearGradient>
<linearGradient id="paint1_linear_170_708" x1="124" y1="20" x2="76" y2="20" gradientUnits="userSpaceOnUse">
<stop stop-color="#43A3D5"/>
<stop offset="1" stop-color="#9C60DA"/>
</linearGradient>
<clipPath id="clip0_170_708">
<rect width="16" height="16" fill="white" transform="translate(50 12)"/>
</clipPath>
</defs>
</svg>
