<svg width="258" height="30" viewBox="0 0 258 30" fill="none" xmlns="http://www.w3.org/2000/svg">
<g clip-path="url(#clip0_346_1272)">
<path d="M19.0088 26.9728C19.1827 25.8779 19.3531 24.8066 19.5286 23.7027C19.2679 23.7027 19.0385 23.6854 18.8151 23.7132C18.7472 23.7215 18.6669 23.845 18.6394 23.9305C18.3289 24.8888 18.03 25.8504 17.7176 26.808C17.696 26.8747 17.5919 26.9611 17.5261 26.9614C14.9149 26.9676 12.3034 26.9651 9.69221 26.963C9.65555 26.963 9.61858 26.9546 9.56563 26.9481C9.75519 25.8973 9.94193 24.8573 10.1309 23.8172C10.2878 22.9529 10.4526 22.09 10.5968 21.2238C10.608 21.1556 10.5028 21.0194 10.4241 20.9926C8.34462 20.282 6.44183 19.2811 4.86739 17.7364C3.57182 16.4648 2.67259 14.9559 2.10767 13.2478C2.09858 13.22 2.0989 13.1894 2.08918 13.1191C2.6212 13.1931 3.1363 13.2623 3.65109 13.3367C4.39741 13.4444 5.14155 13.5716 5.89007 13.6608C6.46251 13.7291 6.86669 13.4417 7.14304 12.9835C7.53625 13.4435 7.90503 13.9223 8.32331 14.3548C9.44657 15.5168 10.869 16.1478 12.4485 16.3744C13.9928 16.5957 15.5557 16.6914 17.1101 16.8433C18.964 17.0245 20.7775 17.3431 22.2827 18.539C23.7042 19.6686 24.1645 21.201 23.9492 22.9161C23.7863 24.2167 23.4683 25.4988 23.2117 26.7876C23.1988 26.8524 23.112 26.9518 23.0581 26.9528C21.7378 26.9756 20.4175 26.9877 19.0968 27C19.0686 27 19.0401 26.9827 19.0088 26.9728Z" fill="#9C60DA"/>
<path d="M12.2006 11.0149C12.2173 8.35697 14.3729 6.25808 17.0681 6.27567C19.7194 6.29265 21.8628 8.4292 21.8431 11.0359C21.823 13.6905 19.6589 15.8039 16.9778 15.7875C14.3425 15.7711 12.1844 13.6151 12.2006 11.0149Z" fill="#9C60DA"/>
<path d="M2.01023 7.31262C3.31207 7.31292 4.23355 8.10661 4.41339 9.38249C4.58165 10.5756 3.86665 11.6885 2.64721 11.9756C2.0826 12.1087 1.47038 12.1009 0.883842 12.0732C0.368431 12.0488 -0.0464048 11.6021 0.00403976 11.0881C0.0996024 10.1147 0.229004 9.13768 0.449581 8.18563C0.605614 7.51358 1.07998 7.31231 2.01023 7.31262Z" fill="#9C60DA"/>
<path d="M2.44888 6.47602C2.48898 6.21085 2.47739 5.9361 2.5836 5.71692C2.64846 5.58325 2.90695 5.44464 3.05828 5.46347C4.35825 5.62585 5.65414 5.82219 6.95066 6.01173C7.25521 6.05618 7.37897 6.23431 7.33322 6.53715C7.0481 8.43106 6.76423 10.3253 6.48412 12.2201C6.413 12.7017 6.29676 12.798 5.80892 12.7301C5.12996 12.6356 4.45162 12.5375 3.72754 12.4343C4.98144 11.5962 5.48495 10.4559 5.19701 9.02284C4.99053 7.99331 4.19908 6.69613 2.44888 6.47602ZM6.65551 6.86407C6.65582 6.8085 6.65582 6.75324 6.65614 6.69767C6.51358 6.59889 6.35378 6.40471 6.23253 6.4257C6.08527 6.45133 5.97059 6.65847 5.84182 6.7872C5.96965 6.90821 6.08746 7.1098 6.22846 7.12677C6.35786 7.14252 6.51232 6.95946 6.65551 6.86407Z" fill="#9C60DA"/>
<path d="M6.47472 3C6.74011 3.10928 6.9704 3.20436 7.22387 3.30871C6.97823 3.88321 6.73948 4.44783 6.49258 5.00906C6.47598 5.04641 6.39702 5.08284 6.35159 5.0779C6.12631 5.05289 5.9026 5.01399 5.63471 4.97325C5.91796 4.30829 6.19211 3.66433 6.47472 3Z" fill="#9C60DA"/>
<path d="M9.77837 4.95287C9.87832 5.20663 9.97075 5.44093 10.0716 5.69654C9.44563 5.93579 8.83309 6.16979 8.2384 6.3973C8.15224 6.14664 8.07109 5.90955 7.97866 5.64005C8.55454 5.42025 9.15737 5.18996 9.77837 4.95287Z" fill="#9C60DA"/>
<path d="M8.00561 7.7942C8.55486 8.17946 9.07403 8.54342 9.61795 8.92498C9.46348 9.14139 9.31372 9.35131 9.15142 9.57882C8.74379 9.29327 8.3465 9.01945 7.95704 8.73544C7.91192 8.70241 7.88623 8.60856 7.89313 8.54744C7.92007 8.30541 7.96331 8.06555 8.00561 7.7942Z" fill="#9C60DA"/>
</g>
<path d="M44.3026 24.24C43.0706 24.24 41.9266 24.024 40.8706 23.592C39.8146 23.16 38.8866 22.56 38.0866 21.792C37.2866 21.024 36.6626 20.12 36.2146 19.08C35.7826 18.024 35.5666 16.88 35.5666 15.648C35.5666 14.416 35.7826 13.28 36.2146 12.24C36.6626 11.184 37.2706 10.272 38.0386 9.504C38.8226 8.736 39.7346 8.144 40.7746 7.728C41.8306 7.296 42.9586 7.08 44.1586 7.08C45.0066 7.08 45.8386 7.2 46.6546 7.44C47.4866 7.68 48.2386 8.016 48.9106 8.448C49.5826 8.88 50.1266 9.368 50.5426 9.912L49.2946 11.184C48.8466 10.72 48.3426 10.32 47.7826 9.984C47.2226 9.648 46.6306 9.384 46.0066 9.192C45.3986 9 44.7906 8.904 44.1826 8.904C43.2386 8.904 42.3586 9.072 41.5426 9.408C40.7426 9.744 40.0386 10.216 39.4306 10.824C38.8226 11.416 38.3506 12.128 38.0146 12.96C37.6786 13.776 37.5106 14.672 37.5106 15.648C37.5106 16.592 37.6786 17.48 38.0146 18.312C38.3666 19.128 38.8546 19.848 39.4786 20.472C40.1186 21.08 40.8546 21.552 41.6866 21.888C42.5186 22.224 43.4146 22.392 44.3746 22.392C45.1266 22.392 45.8306 22.28 46.4866 22.056C47.1586 21.832 47.7426 21.52 48.2386 21.12C48.7346 20.704 49.1186 20.224 49.3906 19.68C49.6626 19.136 49.7986 18.552 49.7986 17.928V17.088L50.1826 17.568H44.2786V15.72H51.6706C51.6866 15.848 51.7026 16 51.7186 16.176C51.7346 16.336 51.7426 16.504 51.7426 16.68C51.7586 16.84 51.7666 16.992 51.7666 17.136C51.7666 18.176 51.5746 19.136 51.1906 20.016C50.8066 20.88 50.2706 21.632 49.5826 22.272C48.9106 22.896 48.1266 23.384 47.2306 23.736C46.3346 24.072 45.3586 24.24 44.3026 24.24ZM59.3668 24.24C58.2788 24.24 57.2948 23.96 56.4148 23.4C55.5348 22.824 54.8388 22.048 54.3268 21.072C53.8148 20.08 53.5588 18.96 53.5588 17.712C53.5588 16.448 53.8228 15.328 54.3508 14.352C54.8788 13.376 55.5828 12.608 56.4628 12.048C57.3588 11.488 58.3588 11.208 59.4628 11.208C60.1188 11.208 60.7268 11.304 61.2868 11.496C61.8468 11.688 62.3428 11.96 62.7748 12.312C63.2228 12.648 63.5908 13.048 63.8788 13.512C64.1828 13.96 64.3908 14.448 64.5028 14.976L63.9748 14.712L64.0468 11.472H65.8468V24H64.0228V20.928L64.5028 20.616C64.3908 21.096 64.1748 21.56 63.8548 22.008C63.5348 22.44 63.1428 22.824 62.6788 23.16C62.2308 23.496 61.7188 23.76 61.1428 23.952C60.5828 24.144 59.9908 24.24 59.3668 24.24ZM59.7747 22.512C60.6068 22.512 61.3508 22.312 62.0068 21.912C62.6628 21.496 63.1748 20.928 63.5428 20.208C63.9268 19.472 64.1188 18.64 64.1188 17.712C64.1188 16.784 63.9268 15.96 63.5428 15.24C63.1748 14.52 62.6628 13.952 62.0068 13.536C61.3508 13.12 60.6068 12.912 59.7747 12.912C58.9268 12.912 58.1748 13.12 57.5188 13.536C56.8788 13.952 56.3668 14.52 55.9828 15.24C55.6148 15.96 55.4308 16.784 55.4308 17.712C55.4308 18.624 55.6148 19.448 55.9828 20.184C56.3508 20.904 56.8628 21.472 57.5188 21.888C58.1748 22.304 58.9268 22.512 59.7747 22.512ZM69.4016 24V6.24H71.2016V24H69.4016ZM80.0298 24.24C78.7818 24.24 77.6698 23.968 76.6938 23.424C75.7338 22.88 74.9818 22.12 74.4378 21.144C73.8938 20.168 73.6218 19.048 73.6218 17.784C73.6218 16.808 73.7738 15.928 74.0778 15.144C74.3818 14.344 74.8058 13.648 75.3498 13.056C75.9098 12.464 76.5738 12.008 77.3418 11.688C78.1098 11.352 78.9418 11.184 79.8378 11.184C80.6858 11.184 81.4538 11.336 82.1418 11.64C82.8458 11.944 83.4458 12.368 83.9418 12.912C84.4538 13.44 84.8378 14.072 85.0938 14.808C85.3498 15.544 85.4618 16.352 85.4298 17.232L85.4058 18.072H74.9658L74.7018 16.56H84.0378L83.6058 16.968V16.392C83.5738 15.816 83.4058 15.264 83.1018 14.736C82.7978 14.192 82.3658 13.752 81.8058 13.416C81.2618 13.08 80.6058 12.912 79.8378 12.912C78.9418 12.912 78.1658 13.096 77.5098 13.464C76.8538 13.816 76.3498 14.344 75.9978 15.048C75.6458 15.752 75.4698 16.624 75.4698 17.664C75.4698 18.656 75.6618 19.52 76.0458 20.256C76.4298 20.976 76.9738 21.536 77.6778 21.936C78.3978 22.336 79.2618 22.536 80.2698 22.536C80.8618 22.536 81.4458 22.44 82.0218 22.248C82.6138 22.04 83.2618 21.64 83.9658 21.048L84.9018 22.344C84.5338 22.712 84.0938 23.04 83.5818 23.328C83.0698 23.6 82.5098 23.824 81.9018 24C81.2938 24.16 80.6698 24.24 80.0298 24.24ZM87.9864 24V11.472H89.7864L89.8344 14.808L89.6424 14.352C89.8184 13.792 90.0984 13.272 90.4824 12.792C90.8824 12.312 91.3544 11.928 91.8984 11.64C92.4424 11.352 93.0424 11.208 93.6984 11.208C93.9704 11.208 94.2264 11.232 94.4664 11.28C94.7064 11.312 94.9064 11.36 95.0664 11.424L94.5624 13.44C94.3544 13.344 94.1384 13.28 93.9144 13.248C93.7064 13.2 93.5064 13.176 93.3144 13.176C92.7704 13.176 92.2824 13.272 91.8504 13.464C91.4184 13.656 91.0504 13.928 90.7464 14.28C90.4424 14.616 90.2104 15.008 90.0504 15.456C89.8904 15.904 89.8104 16.384 89.8104 16.896V24H87.9864ZM97.4195 24V11.472H99.2195V24H97.4195ZM98.3075 8.76C97.8595 8.76 97.5155 8.648 97.2755 8.424C97.0515 8.184 96.9395 7.864 96.9395 7.464C96.9395 7.064 97.0595 6.744 97.2995 6.504C97.5395 6.264 97.8755 6.144 98.3075 6.144C98.7395 6.144 99.0755 6.264 99.3155 6.504C99.5555 6.728 99.6755 7.048 99.6755 7.464C99.6755 7.848 99.5555 8.16 99.3155 8.4C99.0755 8.64 98.7395 8.76 98.3075 8.76ZM108.046 24.24C106.958 24.24 105.974 23.96 105.094 23.4C104.214 22.824 103.518 22.048 103.006 21.072C102.494 20.08 102.238 18.96 102.238 17.712C102.238 16.448 102.502 15.328 103.03 14.352C103.558 13.376 104.262 12.608 105.142 12.048C106.038 11.488 107.038 11.208 108.142 11.208C108.798 11.208 109.406 11.304 109.966 11.496C110.526 11.688 111.022 11.96 111.454 12.312C111.902 12.648 112.27 13.048 112.558 13.512C112.862 13.96 113.07 14.448 113.182 14.976L112.654 14.712L112.726 11.472H114.526V24H112.702V20.928L113.182 20.616C113.07 21.096 112.854 21.56 112.534 22.008C112.214 22.44 111.822 22.824 111.358 23.16C110.91 23.496 110.398 23.76 109.822 23.952C109.262 24.144 108.67 24.24 108.046 24.24ZM108.454 22.512C109.286 22.512 110.03 22.312 110.686 21.912C111.342 21.496 111.854 20.928 112.222 20.208C112.606 19.472 112.798 18.64 112.798 17.712C112.798 16.784 112.606 15.96 112.222 15.24C111.854 14.52 111.342 13.952 110.686 13.536C110.03 13.12 109.286 12.912 108.454 12.912C107.606 12.912 106.854 13.12 106.198 13.536C105.558 13.952 105.046 14.52 104.662 15.24C104.294 15.96 104.11 16.784 104.11 17.712C104.11 18.624 104.294 19.448 104.662 20.184C105.03 20.904 105.542 21.472 106.198 21.888C106.854 22.304 107.606 22.512 108.454 22.512ZM129.848 24.24C128.712 24.24 127.688 23.96 126.776 23.4C125.88 22.84 125.168 22.072 124.64 21.096C124.128 20.104 123.872 18.984 123.872 17.736C123.872 16.472 124.136 15.352 124.664 14.376C125.192 13.384 125.904 12.608 126.8 12.048C127.696 11.488 128.704 11.208 129.824 11.208C130.448 11.208 131.048 11.304 131.624 11.496C132.216 11.688 132.744 11.96 133.208 12.312C133.672 12.648 134.056 13.04 134.36 13.488C134.664 13.92 134.848 14.376 134.912 14.856L134.36 14.664V6.24H136.16V24H134.384L134.336 20.88L134.792 20.712C134.728 21.16 134.544 21.6 134.24 22.032C133.952 22.448 133.584 22.824 133.136 23.16C132.688 23.496 132.176 23.76 131.6 23.952C131.04 24.144 130.456 24.24 129.848 24.24ZM130.112 22.584C130.944 22.584 131.688 22.376 132.344 21.96C133 21.544 133.512 20.968 133.88 20.232C134.264 19.496 134.456 18.656 134.456 17.712C134.456 16.768 134.264 15.936 133.88 15.216C133.512 14.48 133 13.904 132.344 13.488C131.688 13.056 130.944 12.84 130.112 12.84C129.248 12.84 128.488 13.056 127.832 13.488C127.192 13.904 126.68 14.48 126.296 15.216C125.928 15.936 125.744 16.768 125.744 17.712C125.744 18.64 125.928 19.472 126.296 20.208C126.664 20.944 127.176 21.528 127.832 21.96C128.488 22.376 129.248 22.584 130.112 22.584ZM145.186 24.24C143.938 24.24 142.826 23.968 141.85 23.424C140.89 22.88 140.138 22.12 139.594 21.144C139.05 20.168 138.778 19.048 138.778 17.784C138.778 16.808 138.93 15.928 139.234 15.144C139.538 14.344 139.962 13.648 140.506 13.056C141.066 12.464 141.73 12.008 142.498 11.688C143.266 11.352 144.098 11.184 144.994 11.184C145.842 11.184 146.61 11.336 147.298 11.64C148.002 11.944 148.602 12.368 149.098 12.912C149.61 13.44 149.994 14.072 150.25 14.808C150.506 15.544 150.618 16.352 150.586 17.232L150.562 18.072H140.122L139.858 16.56H149.194L148.762 16.968V16.392C148.73 15.816 148.562 15.264 148.258 14.736C147.954 14.192 147.522 13.752 146.962 13.416C146.418 13.08 145.762 12.912 144.994 12.912C144.098 12.912 143.322 13.096 142.666 13.464C142.01 13.816 141.506 14.344 141.154 15.048C140.802 15.752 140.626 16.624 140.626 17.664C140.626 18.656 140.818 19.52 141.202 20.256C141.586 20.976 142.13 21.536 142.834 21.936C143.554 22.336 144.418 22.536 145.426 22.536C146.018 22.536 146.602 22.44 147.178 22.248C147.77 22.04 148.418 21.64 149.122 21.048L150.058 22.344C149.69 22.712 149.25 23.04 148.738 23.328C148.226 23.6 147.666 23.824 147.058 24C146.45 24.16 145.826 24.24 145.186 24.24ZM167.045 24.168C165.781 24.168 164.653 23.888 163.661 23.328C162.669 22.752 161.885 21.968 161.309 20.976C160.749 19.968 160.469 18.832 160.469 17.568V7.2H162.341V17.352C162.341 18.296 162.549 19.144 162.965 19.896C163.381 20.648 163.941 21.24 164.645 21.672C165.365 22.104 166.165 22.32 167.045 22.32C167.973 22.32 168.797 22.104 169.517 21.672C170.253 21.24 170.829 20.648 171.245 19.896C171.661 19.144 171.869 18.296 171.869 17.352V7.2H173.669V17.568C173.669 18.832 173.381 19.968 172.805 20.976C172.245 21.968 171.461 22.752 170.453 23.328C169.461 23.888 168.325 24.168 167.045 24.168ZM181.903 24.24C180.831 24.24 179.871 24.04 179.023 23.64C178.175 23.24 177.503 22.712 177.007 22.056L178.279 20.952C178.743 21.512 179.287 21.936 179.911 22.224C180.551 22.512 181.263 22.656 182.047 22.656C182.447 22.656 182.807 22.616 183.127 22.536C183.447 22.44 183.727 22.304 183.967 22.128C184.207 21.952 184.391 21.744 184.519 21.504C184.647 21.264 184.711 21 184.711 20.712C184.711 20.184 184.479 19.744 184.015 19.392C183.807 19.248 183.511 19.104 183.127 18.96C182.743 18.8 182.279 18.648 181.735 18.504C180.839 18.248 180.095 17.992 179.503 17.736C178.911 17.464 178.447 17.152 178.111 16.8C177.871 16.512 177.687 16.2 177.559 15.864C177.447 15.528 177.391 15.16 177.391 14.76C177.391 14.248 177.495 13.776 177.703 13.344C177.927 12.912 178.231 12.536 178.615 12.216C179.015 11.88 179.479 11.632 180.007 11.472C180.551 11.296 181.135 11.208 181.759 11.208C182.351 11.208 182.935 11.288 183.511 11.448C184.087 11.608 184.623 11.84 185.119 12.144C185.615 12.448 186.039 12.808 186.391 13.224L185.287 14.424C184.983 14.104 184.647 13.816 184.279 13.56C183.911 13.304 183.519 13.104 183.103 12.96C182.703 12.816 182.287 12.744 181.855 12.744C181.471 12.744 181.111 12.792 180.775 12.888C180.455 12.984 180.175 13.12 179.935 13.296C179.711 13.456 179.535 13.656 179.407 13.896C179.295 14.136 179.239 14.4 179.239 14.688C179.239 14.928 179.287 15.144 179.383 15.336C179.479 15.528 179.615 15.696 179.791 15.84C180.015 16.016 180.327 16.184 180.727 16.344C181.143 16.488 181.655 16.64 182.263 16.8C182.967 16.992 183.559 17.192 184.039 17.4C184.535 17.592 184.943 17.824 185.263 18.096C185.695 18.416 185.999 18.784 186.175 19.2C186.367 19.616 186.463 20.088 186.463 20.616C186.463 21.32 186.263 21.944 185.863 22.488C185.479 23.032 184.943 23.464 184.255 23.784C183.567 24.088 182.783 24.24 181.903 24.24ZM193.723 24.24C192.763 24.24 191.947 24.048 191.275 23.664C190.619 23.264 190.115 22.688 189.763 21.936C189.427 21.184 189.259 20.248 189.259 19.128V11.472H191.083V18.768C191.083 19.616 191.195 20.328 191.419 20.904C191.659 21.464 192.011 21.888 192.475 22.176C192.955 22.464 193.539 22.608 194.227 22.608C194.755 22.608 195.243 22.52 195.691 22.344C196.139 22.152 196.531 21.896 196.867 21.576C197.203 21.256 197.467 20.88 197.659 20.448C197.851 20.016 197.947 19.56 197.947 19.08V11.472H199.747V24H197.971L197.899 21.36L198.187 21.216C197.995 21.776 197.675 22.288 197.227 22.752C196.779 23.2 196.243 23.56 195.619 23.832C195.011 24.104 194.379 24.24 193.723 24.24ZM208.148 24.24C207.06 24.24 206.076 23.96 205.196 23.4C204.316 22.824 203.62 22.048 203.108 21.072C202.596 20.08 202.34 18.96 202.34 17.712C202.34 16.448 202.604 15.328 203.132 14.352C203.66 13.376 204.364 12.608 205.244 12.048C206.14 11.488 207.14 11.208 208.244 11.208C208.9 11.208 209.508 11.304 210.068 11.496C210.628 11.688 211.124 11.96 211.556 12.312C212.004 12.648 212.372 13.048 212.66 13.512C212.964 13.96 213.172 14.448 213.284 14.976L212.756 14.712L212.828 11.472H214.628V24H212.804V20.928L213.284 20.616C213.172 21.096 212.956 21.56 212.636 22.008C212.316 22.44 211.924 22.824 211.46 23.16C211.012 23.496 210.5 23.76 209.924 23.952C209.364 24.144 208.772 24.24 208.148 24.24ZM208.556 22.512C209.388 22.512 210.132 22.312 210.788 21.912C211.444 21.496 211.956 20.928 212.324 20.208C212.708 19.472 212.9 18.64 212.9 17.712C212.9 16.784 212.708 15.96 212.324 15.24C211.956 14.52 211.444 13.952 210.788 13.536C210.132 13.12 209.388 12.912 208.556 12.912C207.708 12.912 206.956 13.12 206.3 13.536C205.66 13.952 205.148 14.52 204.764 15.24C204.396 15.96 204.212 16.784 204.212 17.712C204.212 18.624 204.396 19.448 204.764 20.184C205.132 20.904 205.644 21.472 206.3 21.888C206.956 22.304 207.708 22.512 208.556 22.512ZM207.428 9.624L206.78 8.64L210.188 5.784L211.364 7.296L207.428 9.624ZM218.135 24V11.472H219.935L219.983 14.808L219.791 14.352C219.967 13.792 220.247 13.272 220.631 12.792C221.031 12.312 221.503 11.928 222.047 11.64C222.591 11.352 223.191 11.208 223.847 11.208C224.119 11.208 224.375 11.232 224.615 11.28C224.855 11.312 225.055 11.36 225.215 11.424L224.711 13.44C224.503 13.344 224.287 13.28 224.063 13.248C223.855 13.2 223.655 13.176 223.463 13.176C222.919 13.176 222.431 13.272 221.999 13.464C221.567 13.656 221.199 13.928 220.895 14.28C220.591 14.616 220.359 15.008 220.199 15.456C220.039 15.904 219.959 16.384 219.959 16.896V24H218.135ZM227.568 24V11.472H229.368V24H227.568ZM228.456 8.76C228.008 8.76 227.664 8.648 227.424 8.424C227.2 8.184 227.088 7.864 227.088 7.464C227.088 7.064 227.208 6.744 227.448 6.504C227.688 6.264 228.024 6.144 228.456 6.144C228.888 6.144 229.224 6.264 229.464 6.504C229.704 6.728 229.824 7.048 229.824 7.464C229.824 7.848 229.704 8.16 229.464 8.4C229.224 8.64 228.888 8.76 228.456 8.76ZM238.843 24.24C237.595 24.24 236.483 23.96 235.507 23.4C234.547 22.84 233.787 22.064 233.227 21.072C232.683 20.08 232.411 18.952 232.411 17.688C232.411 16.44 232.683 15.328 233.227 14.352C233.787 13.376 234.547 12.608 235.507 12.048C236.483 11.488 237.595 11.208 238.843 11.208C240.075 11.208 241.171 11.488 242.131 12.048C243.107 12.608 243.867 13.376 244.411 14.352C244.971 15.328 245.251 16.44 245.251 17.688C245.251 18.952 244.971 20.08 244.411 21.072C243.867 22.064 243.107 22.84 242.131 23.4C241.171 23.96 240.075 24.24 238.843 24.24ZM238.843 22.536C239.723 22.536 240.507 22.328 241.195 21.912C241.883 21.48 242.419 20.904 242.803 20.184C243.187 19.448 243.379 18.616 243.379 17.688C243.379 16.76 243.187 15.936 242.803 15.216C242.419 14.496 241.883 13.936 241.195 13.536C240.507 13.12 239.723 12.912 238.843 12.912C237.963 12.912 237.171 13.12 236.467 13.536C235.779 13.936 235.235 14.504 234.835 15.24C234.451 15.96 234.267 16.776 234.283 17.688C234.267 18.616 234.451 19.448 234.835 20.184C235.235 20.904 235.779 21.48 236.467 21.912C237.171 22.328 237.963 22.536 238.843 22.536ZM251.981 24.24C250.909 24.24 249.949 24.04 249.101 23.64C248.253 23.24 247.581 22.712 247.085 22.056L248.357 20.952C248.821 21.512 249.365 21.936 249.989 22.224C250.629 22.512 251.341 22.656 252.125 22.656C252.525 22.656 252.885 22.616 253.205 22.536C253.525 22.44 253.805 22.304 254.045 22.128C254.285 21.952 254.469 21.744 254.597 21.504C254.725 21.264 254.789 21 254.789 20.712C254.789 20.184 254.557 19.744 254.093 19.392C253.885 19.248 253.589 19.104 253.205 18.96C252.821 18.8 252.357 18.648 251.813 18.504C250.917 18.248 250.173 17.992 249.581 17.736C248.989 17.464 248.525 17.152 248.189 16.8C247.949 16.512 247.765 16.2 247.637 15.864C247.525 15.528 247.469 15.16 247.469 14.76C247.469 14.248 247.573 13.776 247.781 13.344C248.005 12.912 248.309 12.536 248.693 12.216C249.093 11.88 249.557 11.632 250.085 11.472C250.629 11.296 251.213 11.208 251.837 11.208C252.429 11.208 253.013 11.288 253.589 11.448C254.165 11.608 254.701 11.84 255.197 12.144C255.693 12.448 256.117 12.808 256.469 13.224L255.365 14.424C255.061 14.104 254.725 13.816 254.357 13.56C253.989 13.304 253.597 13.104 253.181 12.96C252.781 12.816 252.365 12.744 251.933 12.744C251.549 12.744 251.189 12.792 250.853 12.888C250.533 12.984 250.253 13.12 250.013 13.296C249.789 13.456 249.613 13.656 249.485 13.896C249.373 14.136 249.317 14.4 249.317 14.688C249.317 14.928 249.365 15.144 249.461 15.336C249.557 15.528 249.693 15.696 249.869 15.84C250.093 16.016 250.405 16.184 250.805 16.344C251.221 16.488 251.733 16.64 252.341 16.8C253.045 16.992 253.637 17.192 254.117 17.4C254.613 17.592 255.021 17.824 255.341 18.096C255.773 18.416 256.077 18.784 256.253 19.2C256.445 19.616 256.541 20.088 256.541 20.616C256.541 21.32 256.341 21.944 255.941 22.488C255.557 23.032 255.021 23.464 254.333 23.784C253.645 24.088 252.861 24.24 251.981 24.24Z" fill="url(#paint0_linear_346_1272)"/>
<defs>
<linearGradient id="paint0_linear_346_1272" x1="258" y1="15" x2="34" y2="15" gradientUnits="userSpaceOnUse">
<stop stop-color="#43A3D5"/>
<stop offset="1" stop-color="#9C60DA"/>
</linearGradient>
<clipPath id="clip0_346_1272">
<rect width="24" height="24" fill="white" transform="translate(0 3)"/>
</clipPath>
</defs>
</svg>
