<svg width="360" height="110" viewBox="0 0 360 110" fill="none" xmlns="http://www.w3.org/2000/svg">
<g clip-path="url(#clip0_785_23)">
<path d="M106.009 66.9728C106.183 65.8779 106.353 64.8066 106.529 63.7027C106.268 63.7027 106.039 63.6854 105.815 63.7132C105.747 63.7215 105.667 63.845 105.639 63.9305C105.329 64.8888 105.03 65.8504 104.718 66.808C104.696 66.8747 104.592 66.9611 104.526 66.9614C101.915 66.9676 99.3034 66.9651 96.6922 66.963C96.6556 66.963 96.6186 66.9546 96.5656 66.9481C96.7552 65.8973 96.9419 64.8573 97.1309 63.8172C97.2878 62.9529 97.4526 62.09 97.5968 61.2238C97.608 61.1556 97.5028 61.0194 97.4241 60.9926C95.3446 60.282 93.4418 59.2811 91.8674 57.7364C90.5718 56.4648 89.6726 54.9559 89.1077 53.2478C89.0986 53.22 89.0989 53.1894 89.0892 53.1191C89.6212 53.1931 90.1363 53.2623 90.6511 53.3367C91.3974 53.4444 92.1415 53.5716 92.8901 53.6608C93.4625 53.7291 93.8667 53.4417 94.143 52.9835C94.5363 53.4435 94.905 53.9223 95.3233 54.3548C96.4466 55.5168 97.869 56.1478 99.4485 56.3744C100.993 56.5957 102.556 56.6914 104.11 56.8433C105.964 57.0245 107.777 57.3431 109.283 58.539C110.704 59.6686 111.164 61.201 110.949 62.9161C110.786 64.2167 110.468 65.4988 110.212 66.7876C110.199 66.8524 110.112 66.9518 110.058 66.9528C108.738 66.9756 107.417 66.9877 106.097 67C106.069 67 106.04 66.9827 106.009 66.9728Z" fill="#E1DDF4"/>
<path d="M99.2006 51.0149C99.2173 48.357 101.373 46.2581 104.068 46.2757C106.719 46.2927 108.863 48.4292 108.843 51.0359C108.823 53.6905 106.659 55.8039 103.978 55.7875C101.343 55.7711 99.1844 53.6151 99.2006 51.0149Z" fill="#E1DDF4"/>
<path d="M89.0102 47.3126C90.3121 47.3129 91.2335 48.1066 91.4134 49.3825C91.5816 50.5756 90.8666 51.6885 89.6472 51.9756C89.0826 52.1087 88.4704 52.1009 87.8838 52.0732C87.3684 52.0488 86.9536 51.6021 87.004 51.0881C87.0996 50.1147 87.229 49.1377 87.4496 48.1856C87.6056 47.5136 88.08 47.3123 89.0102 47.3126Z" fill="#E1DDF4"/>
<path d="M89.4489 46.476C89.489 46.2108 89.4774 45.9361 89.5836 45.7169C89.6485 45.5832 89.9069 45.4446 90.0583 45.4635C91.3582 45.6258 92.6541 45.8222 93.9507 46.0117C94.2552 46.0562 94.379 46.2343 94.3332 46.5371C94.0481 48.4311 93.7642 50.3253 93.4841 52.2201C93.413 52.7017 93.2968 52.798 92.8089 52.7301C92.13 52.6356 91.4516 52.5375 90.7275 52.4343C91.9814 51.5962 92.4849 50.4559 92.197 49.0228C91.9905 47.9933 91.1991 46.6961 89.4489 46.476ZM93.6555 46.8641C93.6558 46.8085 93.6558 46.7532 93.6561 46.6977C93.5136 46.5989 93.3538 46.4047 93.2325 46.4257C93.0853 46.4513 92.9706 46.6585 92.8418 46.7872C92.9697 46.9082 93.0875 47.1098 93.2285 47.1268C93.3579 47.1425 93.5123 46.9595 93.6555 46.8641Z" fill="#E1DDF4"/>
<path d="M93.4747 43C93.7401 43.1093 93.9704 43.2044 94.2239 43.3087C93.9782 43.8832 93.7395 44.4478 93.4926 45.0091C93.476 45.0464 93.397 45.0828 93.3516 45.0779C93.1263 45.0529 92.9026 45.014 92.6347 44.9732C92.918 44.3083 93.1921 43.6643 93.4747 43Z" fill="#E1DDF4"/>
<path d="M96.7784 44.9529C96.8783 45.2066 96.9707 45.4409 97.0716 45.6965C96.4456 45.9358 95.8331 46.1698 95.2384 46.3973C95.1522 46.1466 95.0711 45.9095 94.9787 45.64C95.5545 45.4203 96.1574 45.19 96.7784 44.9529Z" fill="#E1DDF4"/>
<path d="M95.0056 47.7942C95.5549 48.1795 96.074 48.5434 96.618 48.925C96.4635 49.1414 96.3137 49.3513 96.1514 49.5788C95.7438 49.2933 95.3465 49.0194 94.957 48.7354C94.9119 48.7024 94.8862 48.6086 94.8931 48.5474C94.9201 48.3054 94.9633 48.0655 95.0056 47.7942Z" fill="#E1DDF4"/>
</g>
<path d="M130.76 64.24C129.496 64.24 128.328 64.032 127.256 63.616C126.2 63.184 125.28 62.584 124.496 61.816C123.712 61.032 123.104 60.112 122.672 59.056C122.256 57.984 122.048 56.808 122.048 55.528C122.048 54.28 122.272 53.128 122.72 52.072C123.168 51.016 123.784 50.104 124.568 49.336C125.368 48.552 126.304 47.944 127.376 47.512C128.464 47.08 129.648 46.864 130.928 46.864C131.728 46.864 132.512 46.968 133.28 47.176C134.048 47.384 134.76 47.696 135.416 48.112C136.088 48.512 136.664 48.992 137.144 49.552L134.648 52.408C134.312 52.056 133.952 51.752 133.568 51.496C133.2 51.224 132.792 51.016 132.344 50.872C131.896 50.728 131.416 50.656 130.904 50.656C130.264 50.656 129.656 50.776 129.08 51.016C128.52 51.24 128.024 51.568 127.592 52C127.176 52.416 126.848 52.928 126.608 53.536C126.368 54.144 126.248 54.824 126.248 55.576C126.248 56.312 126.368 56.984 126.608 57.592C126.848 58.184 127.184 58.696 127.616 59.128C128.048 59.56 128.568 59.888 129.176 60.112C129.8 60.336 130.488 60.448 131.24 60.448C131.752 60.448 132.24 60.376 132.704 60.232C133.168 60.088 133.592 59.896 133.976 59.656C134.376 59.4 134.728 59.112 135.032 58.792L137 61.912C136.6 62.36 136.064 62.76 135.392 63.112C134.736 63.464 134 63.744 133.184 63.952C132.384 64.144 131.576 64.24 130.76 64.24ZM145.384 64.24C144.056 64.24 142.872 63.952 141.832 63.376C140.808 62.8 139.992 62.016 139.384 61.024C138.792 60.032 138.496 58.896 138.496 57.616C138.496 56.336 138.792 55.2 139.384 54.208C139.992 53.216 140.808 52.432 141.832 51.856C142.872 51.28 144.056 50.992 145.384 50.992C146.712 50.992 147.888 51.28 148.912 51.856C149.952 52.432 150.768 53.216 151.36 54.208C151.952 55.2 152.248 56.336 152.248 57.616C152.248 58.896 151.952 60.032 151.36 61.024C150.768 62.016 149.952 62.8 148.912 63.376C147.888 63.952 146.712 64.24 145.384 64.24ZM145.384 60.928C145.96 60.928 146.472 60.784 146.92 60.496C147.368 60.208 147.72 59.816 147.976 59.32C148.232 58.824 148.352 58.256 148.336 57.616C148.352 56.976 148.232 56.408 147.976 55.912C147.72 55.4 147.368 55 146.92 54.712C146.472 54.424 145.96 54.28 145.384 54.28C144.808 54.28 144.288 54.424 143.824 54.712C143.376 55 143.024 55.4 142.768 55.912C142.512 56.408 142.392 56.976 142.408 57.616C142.392 58.256 142.512 58.824 142.768 59.32C143.024 59.816 143.376 60.208 143.824 60.496C144.288 60.784 144.808 60.928 145.384 60.928ZM154.735 64V51.256H158.383L158.503 53.56L157.999 53.584C158.191 53.168 158.431 52.8 158.719 52.48C159.023 52.16 159.359 51.896 159.727 51.688C160.111 51.464 160.503 51.296 160.903 51.184C161.319 51.072 161.735 51.016 162.151 51.016C162.775 51.016 163.343 51.112 163.855 51.304C164.367 51.496 164.815 51.808 165.199 52.24C165.583 52.656 165.887 53.224 166.111 53.944L165.511 53.896L165.703 53.512C165.911 53.128 166.175 52.784 166.495 52.48C166.831 52.16 167.199 51.896 167.599 51.688C167.999 51.464 168.415 51.296 168.847 51.184C169.279 51.072 169.695 51.016 170.095 51.016C171.103 51.016 171.943 51.216 172.615 51.616C173.287 52 173.791 52.584 174.127 53.368C174.479 54.152 174.655 55.104 174.655 56.224V64H170.791V56.536C170.791 56.024 170.719 55.6 170.575 55.264C170.431 54.928 170.215 54.68 169.927 54.52C169.655 54.344 169.311 54.256 168.895 54.256C168.559 54.256 168.247 54.312 167.959 54.424C167.687 54.536 167.447 54.688 167.239 54.88C167.047 55.072 166.895 55.296 166.783 55.552C166.671 55.808 166.615 56.096 166.615 56.416V64H162.751V56.512C162.751 56.032 162.679 55.624 162.535 55.288C162.391 54.952 162.175 54.696 161.887 54.52C161.599 54.344 161.263 54.256 160.879 54.256C160.543 54.256 160.231 54.312 159.943 54.424C159.671 54.536 159.431 54.688 159.223 54.88C159.031 55.072 158.879 55.296 158.767 55.552C158.655 55.808 158.599 56.088 158.599 56.392V64H154.735ZM177.845 69.28V51.256H181.493L181.637 54.112L180.917 53.896C181.029 53.368 181.301 52.888 181.733 52.456C182.165 52.024 182.709 51.68 183.365 51.424C184.037 51.152 184.741 51.016 185.477 51.016C186.565 51.016 187.533 51.304 188.381 51.88C189.229 52.44 189.893 53.216 190.373 54.208C190.869 55.184 191.117 56.32 191.117 57.616C191.117 58.896 190.869 60.032 190.373 61.024C189.893 62.016 189.221 62.8 188.357 63.376C187.509 63.936 186.533 64.216 185.429 64.216C184.709 64.216 184.021 64.08 183.365 63.808C182.709 63.536 182.157 63.168 181.709 62.704C181.261 62.24 180.965 61.736 180.821 61.192L181.709 60.856V69.28H177.845ZM184.493 60.976C185.069 60.976 185.573 60.84 186.005 60.568C186.437 60.28 186.773 59.888 187.013 59.392C187.253 58.896 187.373 58.304 187.373 57.616C187.373 56.944 187.253 56.36 187.013 55.864C186.773 55.352 186.437 54.96 186.005 54.688C185.589 54.4 185.085 54.256 184.493 54.256C183.901 54.256 183.389 54.392 182.957 54.664C182.525 54.936 182.189 55.328 181.949 55.84C181.709 56.352 181.589 56.944 181.589 57.616C181.589 58.304 181.709 58.896 181.949 59.392C182.189 59.888 182.525 60.28 182.957 60.568C183.389 60.84 183.901 60.976 184.493 60.976ZM198.369 64.216C197.297 64.216 196.337 63.936 195.489 63.376C194.657 62.8 193.993 62.016 193.497 61.024C193.001 60.016 192.753 58.88 192.753 57.616C192.753 56.32 193.001 55.176 193.497 54.184C193.993 53.192 194.673 52.416 195.537 51.856C196.401 51.28 197.385 50.992 198.489 50.992C199.097 50.992 199.649 51.08 200.145 51.256C200.657 51.432 201.105 51.68 201.489 52C201.873 52.304 202.201 52.664 202.473 53.08C202.745 53.48 202.945 53.912 203.073 54.376L202.281 54.28V51.256H206.097V64H202.209V60.928L203.073 60.904C202.945 61.352 202.737 61.776 202.449 62.176C202.161 62.576 201.809 62.928 201.393 63.232C200.977 63.536 200.513 63.776 200.001 63.952C199.489 64.128 198.945 64.216 198.369 64.216ZM199.425 60.976C200.017 60.976 200.529 60.84 200.961 60.568C201.393 60.296 201.729 59.912 201.969 59.416C202.209 58.904 202.329 58.304 202.329 57.616C202.329 56.928 202.209 56.336 201.969 55.84C201.729 55.328 201.393 54.936 200.961 54.664C200.529 54.376 200.017 54.232 199.425 54.232C198.849 54.232 198.345 54.376 197.913 54.664C197.497 54.936 197.169 55.328 196.929 55.84C196.689 56.336 196.569 56.928 196.569 57.616C196.569 58.304 196.689 58.904 196.929 59.416C197.169 59.912 197.497 60.296 197.913 60.568C198.345 60.84 198.849 60.976 199.425 60.976ZM209.485 64V51.256H213.133L213.301 55.408L212.581 54.616C212.773 53.928 213.085 53.312 213.517 52.768C213.965 52.224 214.485 51.792 215.077 51.472C215.669 51.152 216.301 50.992 216.973 50.992C217.261 50.992 217.525 51.016 217.765 51.064C218.021 51.112 218.253 51.168 218.461 51.232L217.405 55.48C217.229 55.368 216.989 55.28 216.685 55.216C216.397 55.136 216.093 55.096 215.773 55.096C215.421 55.096 215.093 55.16 214.789 55.288C214.485 55.4 214.229 55.568 214.021 55.792C213.813 56.016 213.645 56.28 213.517 56.584C213.405 56.888 213.349 57.232 213.349 57.616V64H209.485ZM221.932 64V48.04H225.772V64H221.932ZM219.676 54.616V51.256H228.244V54.616H219.676ZM230.654 64V51.256H234.494V64H230.654ZM232.574 48.736C231.854 48.736 231.286 48.568 230.87 48.232C230.47 47.88 230.27 47.384 230.27 46.744C230.27 46.168 230.478 45.696 230.894 45.328C231.31 44.96 231.87 44.776 232.574 44.776C233.294 44.776 233.854 44.952 234.254 45.304C234.654 45.64 234.854 46.12 234.854 46.744C234.854 47.336 234.646 47.816 234.23 48.184C233.83 48.552 233.278 48.736 232.574 48.736ZM238.126 64V46.24H241.966V64H238.126ZM245.392 64V46.24H249.16V53.848L248.392 54.136C248.568 53.56 248.88 53.04 249.328 52.576C249.792 52.096 250.344 51.712 250.984 51.424C251.624 51.136 252.296 50.992 253 50.992C253.96 50.992 254.768 51.192 255.424 51.592C256.08 51.976 256.576 52.56 256.911 53.344C257.248 54.112 257.416 55.056 257.416 56.176V64H253.552V56.488C253.552 55.976 253.48 55.552 253.336 55.216C253.192 54.88 252.968 54.632 252.664 54.472C252.376 54.296 252.016 54.216 251.584 54.232C251.248 54.232 250.936 54.288 250.648 54.4C250.36 54.496 250.112 54.648 249.904 54.856C249.696 55.048 249.528 55.272 249.4 55.528C249.288 55.784 249.232 56.064 249.232 56.368V64H247.336C246.888 64 246.504 64 246.184 64C245.864 64 245.6 64 245.392 64ZM266.698 64.24C265.29 64.24 264.066 63.96 263.026 63.4C261.986 62.824 261.178 62.048 260.602 61.072C260.026 60.08 259.738 58.952 259.738 57.688C259.738 56.712 259.898 55.816 260.218 55C260.538 54.184 260.986 53.48 261.562 52.888C262.138 52.28 262.818 51.816 263.602 51.496C264.402 51.16 265.274 50.992 266.218 50.992C267.114 50.992 267.93 51.152 268.666 51.472C269.418 51.792 270.066 52.24 270.61 52.816C271.154 53.392 271.57 54.072 271.858 54.856C272.146 55.64 272.274 56.496 272.242 57.424L272.218 58.456H262.066L261.514 56.296H269.098L268.69 56.752V56.272C268.658 55.872 268.53 55.52 268.306 55.216C268.098 54.896 267.818 54.648 267.466 54.472C267.114 54.296 266.714 54.208 266.266 54.208C265.642 54.208 265.106 54.336 264.658 54.592C264.226 54.832 263.898 55.192 263.674 55.672C263.45 56.136 263.338 56.712 263.338 57.4C263.338 58.104 263.482 58.72 263.77 59.248C264.074 59.76 264.506 60.16 265.066 60.448C265.642 60.736 266.322 60.88 267.106 60.88C267.65 60.88 268.13 60.8 268.546 60.64C268.978 60.48 269.442 60.208 269.938 59.824L271.738 62.368C271.242 62.8 270.714 63.152 270.154 63.424C269.594 63.696 269.018 63.896 268.426 64.024C267.85 64.168 267.274 64.24 266.698 64.24Z" fill="#E1DDF4"/>
<defs>
<clipPath id="clip0_785_23">
<rect width="24" height="24" fill="white" transform="translate(87 43)"/>
</clipPath>
</defs>
</svg>
