<svg width="360" height="110" viewBox="0 0 360 110" fill="none" xmlns="http://www.w3.org/2000/svg">
<path fill-rule="evenodd" clip-rule="evenodd" d="M122.606 56.6008L126.002 58.9228L129.276 56.6644L136.614 63.904C136.42 63.9672 136.216 63.9992 136 64H116C115.736 64 115.484 63.9484 115.253 63.856L122.606 56.6008ZM138 50.6512V61.9996C138 62.296 137.935 62.5768 137.82 62.83L130.627 55.7332L138 50.6512ZM114 50.7148L121.25 55.6732L114.127 62.7028C114.044 62.4777 114.001 62.2397 114 61.9996V50.7148ZM136 46C137.104 46 138 46.8952 138 48.0004V48.7036L125.998 56.9776L114 48.772V48.0004C114 46.8964 114.895 46 116 46H136Z" fill="#E1DDF4"/>
<path d="M158.064 64.24C156.8 64.24 155.632 64.032 154.56 63.616C153.504 63.184 152.584 62.584 151.8 61.816C151.016 61.032 150.408 60.112 149.976 59.056C149.56 57.984 149.352 56.808 149.352 55.528C149.352 54.28 149.576 53.128 150.024 52.072C150.472 51.016 151.088 50.104 151.872 49.336C152.672 48.552 153.608 47.944 154.68 47.512C155.768 47.08 156.952 46.864 158.232 46.864C159.032 46.864 159.816 46.968 160.584 47.176C161.352 47.384 162.064 47.696 162.72 48.112C163.392 48.512 163.968 48.992 164.448 49.552L161.952 52.408C161.616 52.056 161.256 51.752 160.872 51.496C160.504 51.224 160.096 51.016 159.648 50.872C159.2 50.728 158.72 50.656 158.208 50.656C157.568 50.656 156.96 50.776 156.384 51.016C155.824 51.24 155.328 51.568 154.896 52C154.48 52.416 154.152 52.928 153.912 53.536C153.672 54.144 153.552 54.824 153.552 55.576C153.552 56.312 153.672 56.984 153.912 57.592C154.152 58.184 154.488 58.696 154.92 59.128C155.352 59.56 155.872 59.888 156.48 60.112C157.104 60.336 157.792 60.448 158.544 60.448C159.056 60.448 159.544 60.376 160.008 60.232C160.472 60.088 160.896 59.896 161.28 59.656C161.68 59.4 162.032 59.112 162.336 58.792L164.304 61.912C163.904 62.36 163.368 62.76 162.696 63.112C162.04 63.464 161.304 63.744 160.488 63.952C159.688 64.144 158.88 64.24 158.064 64.24ZM172.688 64.24C171.36 64.24 170.176 63.952 169.136 63.376C168.112 62.8 167.296 62.016 166.688 61.024C166.096 60.032 165.8 58.896 165.8 57.616C165.8 56.336 166.096 55.2 166.688 54.208C167.296 53.216 168.112 52.432 169.136 51.856C170.176 51.28 171.36 50.992 172.688 50.992C174.016 50.992 175.192 51.28 176.216 51.856C177.256 52.432 178.072 53.216 178.664 54.208C179.256 55.2 179.552 56.336 179.552 57.616C179.552 58.896 179.256 60.032 178.664 61.024C178.072 62.016 177.256 62.8 176.216 63.376C175.192 63.952 174.016 64.24 172.688 64.24ZM172.688 60.928C173.264 60.928 173.776 60.784 174.224 60.496C174.672 60.208 175.024 59.816 175.28 59.32C175.536 58.824 175.656 58.256 175.64 57.616C175.656 56.976 175.536 56.408 175.28 55.912C175.024 55.4 174.672 55 174.224 54.712C173.776 54.424 173.264 54.28 172.688 54.28C172.112 54.28 171.592 54.424 171.128 54.712C170.68 55 170.328 55.4 170.072 55.912C169.816 56.408 169.696 56.976 169.712 57.616C169.696 58.256 169.816 58.824 170.072 59.32C170.328 59.816 170.68 60.208 171.128 60.496C171.592 60.784 172.112 60.928 172.688 60.928ZM182.063 64V51.256H185.711L185.831 53.848L185.063 54.136C185.239 53.56 185.551 53.04 185.999 52.576C186.463 52.096 187.015 51.712 187.655 51.424C188.295 51.136 188.967 50.992 189.671 50.992C190.631 50.992 191.439 51.192 192.095 51.592C192.751 51.976 193.247 52.56 193.583 53.344C193.919 54.112 194.087 55.056 194.087 56.176V64H190.223V56.488C190.223 55.976 190.151 55.552 190.007 55.216C189.863 54.88 189.639 54.632 189.335 54.472C189.047 54.296 188.687 54.216 188.255 54.232C187.919 54.232 187.607 54.288 187.319 54.4C187.031 54.496 186.783 54.648 186.575 54.856C186.367 55.048 186.199 55.272 186.071 55.528C185.959 55.784 185.903 56.064 185.903 56.368V64H184.007C183.559 64 183.175 64 182.855 64C182.535 64 182.271 64 182.063 64ZM198.354 64V48.04H202.194V64H198.354ZM196.098 54.616V51.256H204.666V54.616H196.098ZM211.447 64.216C210.375 64.216 209.415 63.936 208.567 63.376C207.735 62.8 207.071 62.016 206.575 61.024C206.079 60.016 205.831 58.88 205.831 57.616C205.831 56.32 206.079 55.176 206.575 54.184C207.071 53.192 207.751 52.416 208.615 51.856C209.479 51.28 210.463 50.992 211.567 50.992C212.175 50.992 212.727 51.08 213.223 51.256C213.735 51.432 214.183 51.68 214.567 52C214.951 52.304 215.279 52.664 215.551 53.08C215.823 53.48 216.023 53.912 216.151 54.376L215.359 54.28V51.256H219.175V64H215.287V60.928L216.151 60.904C216.023 61.352 215.815 61.776 215.527 62.176C215.239 62.576 214.887 62.928 214.471 63.232C214.055 63.536 213.591 63.776 213.079 63.952C212.567 64.128 212.023 64.216 211.447 64.216ZM212.503 60.976C213.095 60.976 213.607 60.84 214.039 60.568C214.471 60.296 214.807 59.912 215.047 59.416C215.287 58.904 215.407 58.304 215.407 57.616C215.407 56.928 215.287 56.336 215.047 55.84C214.807 55.328 214.471 54.936 214.039 54.664C213.607 54.376 213.095 54.232 212.503 54.232C211.927 54.232 211.423 54.376 210.991 54.664C210.575 54.936 210.247 55.328 210.007 55.84C209.767 56.336 209.647 56.928 209.647 57.616C209.647 58.304 209.767 58.904 210.007 59.416C210.247 59.912 210.575 60.296 210.991 60.568C211.423 60.84 211.927 60.976 212.503 60.976ZM223.619 64V48.04H227.459V64H223.619ZM221.363 54.616V51.256H229.931V54.616H221.363ZM238.009 64.24C236.681 64.24 235.497 63.952 234.457 63.376C233.433 62.8 232.617 62.016 232.009 61.024C231.417 60.032 231.121 58.896 231.121 57.616C231.121 56.336 231.417 55.2 232.009 54.208C232.617 53.216 233.433 52.432 234.457 51.856C235.497 51.28 236.681 50.992 238.009 50.992C239.337 50.992 240.513 51.28 241.537 51.856C242.577 52.432 243.393 53.216 243.985 54.208C244.577 55.2 244.873 56.336 244.873 57.616C244.873 58.896 244.577 60.032 243.985 61.024C243.393 62.016 242.577 62.8 241.537 63.376C240.513 63.952 239.337 64.24 238.009 64.24ZM238.009 60.928C238.585 60.928 239.097 60.784 239.545 60.496C239.993 60.208 240.345 59.816 240.601 59.32C240.857 58.824 240.977 58.256 240.961 57.616C240.977 56.976 240.857 56.408 240.601 55.912C240.345 55.4 239.993 55 239.545 54.712C239.097 54.424 238.585 54.28 238.009 54.28C237.433 54.28 236.913 54.424 236.449 54.712C236.001 55 235.649 55.4 235.393 55.912C235.137 56.408 235.017 56.976 235.033 57.616C235.017 58.256 235.137 58.824 235.393 59.32C235.649 59.816 236.001 60.208 236.449 60.496C236.913 60.784 237.433 60.928 238.009 60.928Z" fill="#E1DDF4"/>
</svg>
