<svg width="360" height="110" viewBox="0 0 360 110" fill="none" xmlns="http://www.w3.org/2000/svg">
<path d="M122.752 59.8592C122.746 60.8374 123.075 61.2801 123.758 61.6292C124.381 61.9484 125.001 61.8641 125.631 61.762C128.531 61.2908 131.207 60.2669 133.571 58.4947C134.229 58.0013 134.82 57.433 135.302 56.7625C135.361 56.6804 135.389 56.5269 135.355 56.4341C134.82 54.9639 134.281 53.4945 133.724 52.0322C133.3 50.9184 132.634 50.5792 131.464 50.8427C130.455 51.0697 129.573 51.5681 128.737 52.15C126.618 53.6252 124.875 55.4588 123.558 57.685C123.125 58.4183 122.783 59.188 122.752 59.8592ZM124.47 60.5089C124.461 60.4854 124.452 60.4611 124.443 60.4375C124.102 60.4447 123.974 60.3497 124.055 60.0106C124.174 59.5143 124.319 59.0095 124.549 58.5576C125.318 57.0481 126.431 55.7993 127.661 54.6526C128.653 53.7266 129.715 52.889 130.973 52.3464C131.319 52.1979 131.698 52.1079 132.071 52.0465C132.364 51.9987 132.485 52.12 132.434 52.4171C132.366 52.8062 132.272 53.2025 132.112 53.5623C131.497 54.9482 130.543 56.0985 129.495 57.1731C128.421 58.2734 127.258 59.2666 125.873 59.9599C125.426 60.1848 124.939 60.329 124.47 60.5089Z" fill="#E1DDF4"/>
<path d="M135.949 58.0292C133.502 60.6182 130.413 61.9412 127.052 62.8223C127.122 62.858 127.171 62.8902 127.224 62.9102C128.265 63.2964 129.306 63.687 130.352 64.0597C130.525 64.1218 130.735 64.1418 130.917 64.114C132.373 63.8905 133.795 63.5449 135.101 62.8302C135.828 62.4325 136.47 61.9312 136.938 61.2358C136.995 61.1508 137.046 61.0116 137.016 60.9273C136.673 59.9656 136.313 59.0095 135.949 58.0292Z" fill="#E1DDF4"/>
<path d="M124.959 44.9164C124.741 45.2313 124.556 45.4819 124.389 45.7432C124.134 46.1381 123.997 46.5629 124.124 47.0356C124.294 47.6718 124.779 48.0666 125.477 48.1409C125.768 48.1716 126.062 48.1873 126.381 48.2123C126.346 48.2737 126.317 48.3322 126.282 48.3865C126.137 48.6107 125.974 48.8249 125.849 49.0591C125.461 49.7838 125.623 50.5335 126.278 51.0276C126.852 51.461 127.535 51.5952 128.229 51.6709C128.452 51.6952 128.598 51.5553 128.645 51.3368C128.702 51.0762 128.756 50.8148 128.794 50.5507C128.844 50.2115 128.727 50.0551 128.39 49.9802C128.072 49.9088 127.754 49.8381 127.401 49.7595C127.61 49.4575 127.793 49.2069 127.96 48.9463C128.221 48.5443 128.364 48.1123 128.23 47.6296C128.057 47.0049 127.58 46.6143 126.894 46.5386C126.595 46.5058 126.295 46.4894 125.965 46.4637C126.12 46.2316 126.272 46.0181 126.41 45.7953C126.975 44.8793 126.743 43.9304 125.772 43.4691C125.284 43.2371 124.729 43.1371 124.195 43.0136C123.934 42.9529 123.772 43.0921 123.711 43.3541C123.65 43.614 123.6 43.8761 123.561 44.1396C123.514 44.4651 123.63 44.6194 123.954 44.6929C124.273 44.7665 124.592 44.8357 124.959 44.9164Z" fill="#E1DDF4"/>
<path d="M120.226 54.3827C120.179 53.9808 120.168 53.5959 120.084 53.2268C119.867 52.2671 118.921 51.8066 118.034 52.2357C117.654 52.4192 117.312 52.6813 116.913 52.9326C116.844 52.6356 116.769 52.3542 116.715 52.0693C116.629 51.6102 116.467 51.4917 116.014 51.5795C115.795 51.6217 115.576 51.6574 115.36 51.7088C115.092 51.7723 114.971 51.9215 115.005 52.1872C115.077 52.7627 115.194 53.3289 115.488 53.8401C116.001 54.7319 116.885 54.9625 117.761 54.4299C117.994 54.2885 118.215 54.1286 118.46 53.9643C118.485 54.2799 118.503 54.5698 118.533 54.8583C118.657 56.0585 119.743 56.6319 120.797 56.0442C121.114 55.8679 121.405 55.6444 121.753 55.4116C121.824 55.7151 121.902 55.9935 121.954 56.2763C122.043 56.7547 122.199 56.8689 122.671 56.7761C122.88 56.7347 123.091 56.7018 123.299 56.654C123.581 56.5883 123.702 56.4391 123.666 56.1585C123.593 55.5923 123.478 55.0346 123.192 54.5298C122.677 53.6245 121.787 53.3917 120.9 53.9336C120.674 54.0714 120.458 54.2278 120.226 54.3827Z" fill="#E1DDF4"/>
<path d="M115.915 47.3697C115.915 47.8917 115.853 47.9509 116.48 48.0131C118.62 48.2244 120.401 49.2326 121.969 50.6328C122.602 51.1983 123.139 51.8716 123.705 52.5092C123.937 52.7698 123.979 52.7948 124.275 52.597C124.416 52.5028 124.557 52.4106 124.696 52.315C124.936 52.1507 124.958 52.0422 124.789 51.813C123.514 50.0765 121.924 48.7056 120 47.7332C118.903 47.1791 117.745 46.8221 116.514 46.72C116.443 46.7143 116.372 46.7079 116.301 46.7057C116.007 46.6964 115.92 46.78 115.915 47.0763C115.914 47.1734 115.915 47.2719 115.915 47.3697Z" fill="#E1DDF4"/>
<path d="M137.598 62.5082C136.36 63.8634 134.768 64.5495 132.975 65.0365C133.414 65.2007 133.773 65.3356 134.133 65.4699C135.423 65.9511 136.716 66.4281 138.004 66.9172C138.304 67.0307 138.577 67.0557 138.817 66.8129C139.059 66.5702 139.027 66.2967 138.914 65.9982C138.506 64.9265 138.112 63.8498 137.713 62.7759C137.682 62.6931 137.644 62.6131 137.598 62.5082Z" fill="#E1DDF4"/>
<path d="M130.027 45.836C130.027 46.0852 130.029 46.3344 130.026 46.5829C130.024 46.8028 130.125 46.9135 130.348 46.9113C130.562 46.9092 130.775 46.9092 130.989 46.9113C131.212 46.9135 131.312 46.8021 131.31 46.5822C131.307 46.0838 131.309 45.5861 131.309 45.0878C131.309 44.8807 131.212 44.7729 131.002 44.7729C130.78 44.7729 130.557 44.7729 130.335 44.7729C130.125 44.7729 130.026 44.8814 130.027 45.0878C130.028 45.3377 130.027 45.5869 130.027 45.836Z" fill="#E1DDF4"/>
<path d="M119.569 59.3108C119.809 59.3108 120.049 59.3087 120.289 59.3115C120.508 59.3144 120.621 59.2144 120.619 58.991C120.618 58.7689 120.62 58.5461 120.618 58.3241C120.615 58.1284 120.513 58.0292 120.318 58.0292C119.803 58.0285 119.287 58.027 118.771 58.0299C118.574 58.0313 118.482 58.1413 118.481 58.3341C118.481 58.5561 118.481 58.7789 118.481 59.001C118.481 59.2094 118.587 59.3108 118.795 59.3101C119.053 59.3108 119.311 59.3108 119.569 59.3108Z" fill="#E1DDF4"/>
<path d="M116.865 43.9853C116.898 44.0432 116.921 44.1139 116.967 44.161C117.335 44.5351 117.706 44.9071 118.079 45.2755C118.218 45.4119 118.362 45.4026 118.5 45.2641C118.656 45.1063 118.813 44.9492 118.971 44.7922C119.121 44.6429 119.111 44.4973 118.965 44.3523C118.607 43.9939 118.255 43.6269 117.883 43.2842C117.809 43.2163 117.606 43.1814 117.54 43.2321C117.317 43.4048 117.128 43.6212 116.931 43.8261C116.898 43.8611 116.891 43.9211 116.865 43.9853Z" fill="#E1DDF4"/>
<path d="M151.464 64V47.2H163.176V50.68H155.424V60.52H163.416V64H151.464ZM153.384 57.112V53.8H162.096V57.112H153.384ZM170.085 64L164.757 51.256H169.005L172.173 60.784L171.237 60.88L174.501 51.256H178.701L173.109 64H170.085ZM186.424 64.24C185.016 64.24 183.792 63.96 182.752 63.4C181.712 62.824 180.904 62.048 180.328 61.072C179.752 60.08 179.464 58.952 179.464 57.688C179.464 56.712 179.624 55.816 179.944 55C180.264 54.184 180.712 53.48 181.288 52.888C181.864 52.28 182.544 51.816 183.328 51.496C184.128 51.16 185 50.992 185.944 50.992C186.84 50.992 187.656 51.152 188.392 51.472C189.144 51.792 189.792 52.24 190.336 52.816C190.88 53.392 191.296 54.072 191.584 54.856C191.872 55.64 192 56.496 191.968 57.424L191.944 58.456H181.792L181.24 56.296H188.824L188.416 56.752V56.272C188.384 55.872 188.256 55.52 188.032 55.216C187.824 54.896 187.544 54.648 187.192 54.472C186.84 54.296 186.44 54.208 185.992 54.208C185.368 54.208 184.832 54.336 184.384 54.592C183.952 54.832 183.624 55.192 183.4 55.672C183.176 56.136 183.064 56.712 183.064 57.4C183.064 58.104 183.208 58.72 183.496 59.248C183.8 59.76 184.232 60.16 184.792 60.448C185.368 60.736 186.048 60.88 186.832 60.88C187.376 60.88 187.856 60.8 188.272 60.64C188.704 60.48 189.168 60.208 189.664 59.824L191.464 62.368C190.968 62.8 190.44 63.152 189.88 63.424C189.32 63.696 188.744 63.896 188.152 64.024C187.576 64.168 187 64.24 186.424 64.24ZM194.415 64V51.256H198.063L198.183 53.848L197.415 54.136C197.591 53.56 197.903 53.04 198.351 52.576C198.815 52.096 199.367 51.712 200.007 51.424C200.647 51.136 201.319 50.992 202.023 50.992C202.983 50.992 203.791 51.192 204.447 51.592C205.103 51.976 205.599 52.56 205.935 53.344C206.271 54.112 206.439 55.056 206.439 56.176V64H202.575V56.488C202.575 55.976 202.503 55.552 202.359 55.216C202.215 54.88 201.991 54.632 201.687 54.472C201.399 54.296 201.039 54.216 200.607 54.232C200.271 54.232 199.959 54.288 199.671 54.4C199.383 54.496 199.135 54.648 198.927 54.856C198.719 55.048 198.551 55.272 198.423 55.528C198.311 55.784 198.255 56.064 198.255 56.368V64H196.359C195.911 64 195.527 64 195.207 64C194.887 64 194.623 64 194.415 64ZM210.705 64V48.04H214.545V64H210.705ZM208.449 54.616V51.256H217.017V54.616H208.449ZM225.095 64.24C223.767 64.24 222.583 63.952 221.543 63.376C220.519 62.8 219.703 62.016 219.095 61.024C218.503 60.032 218.207 58.896 218.207 57.616C218.207 56.336 218.503 55.2 219.095 54.208C219.703 53.216 220.519 52.432 221.543 51.856C222.583 51.28 223.767 50.992 225.095 50.992C226.423 50.992 227.599 51.28 228.623 51.856C229.663 52.432 230.479 53.216 231.071 54.208C231.663 55.2 231.959 56.336 231.959 57.616C231.959 58.896 231.663 60.032 231.071 61.024C230.479 62.016 229.663 62.8 228.623 63.376C227.599 63.952 226.423 64.24 225.095 64.24ZM225.095 60.928C225.671 60.928 226.183 60.784 226.631 60.496C227.079 60.208 227.431 59.816 227.687 59.32C227.943 58.824 228.063 58.256 228.047 57.616C228.063 56.976 227.943 56.408 227.687 55.912C227.431 55.4 227.079 55 226.631 54.712C226.183 54.424 225.671 54.28 225.095 54.28C224.519 54.28 223.999 54.424 223.535 54.712C223.087 55 222.735 55.4 222.479 55.912C222.223 56.408 222.103 56.976 222.119 57.616C222.103 58.256 222.223 58.824 222.479 59.32C222.735 59.816 223.087 60.208 223.535 60.496C223.999 60.784 224.519 60.928 225.095 60.928ZM238.766 64.24C237.518 64.24 236.414 64.04 235.454 63.64C234.51 63.24 233.758 62.704 233.198 62.032L235.526 60.016C236.022 60.512 236.582 60.88 237.206 61.12C237.83 61.344 238.422 61.456 238.982 61.456C239.206 61.456 239.406 61.432 239.582 61.384C239.758 61.336 239.902 61.272 240.014 61.192C240.142 61.096 240.238 60.992 240.302 60.88C240.366 60.752 240.398 60.608 240.398 60.448C240.398 60.128 240.254 59.88 239.966 59.704C239.822 59.624 239.582 59.528 239.246 59.416C238.91 59.304 238.478 59.176 237.95 59.032C237.198 58.84 236.542 58.616 235.982 58.36C235.438 58.088 234.99 57.776 234.638 57.424C234.318 57.088 234.07 56.72 233.894 56.32C233.718 55.904 233.63 55.44 233.63 54.928C233.63 54.336 233.766 53.8 234.038 53.32C234.326 52.84 234.702 52.424 235.166 52.072C235.646 51.72 236.19 51.456 236.798 51.28C237.422 51.088 238.062 50.992 238.718 50.992C239.422 50.992 240.094 51.072 240.734 51.232C241.374 51.392 241.966 51.616 242.51 51.904C243.07 52.192 243.566 52.536 243.998 52.936L241.982 55.192C241.694 54.92 241.366 54.68 240.998 54.472C240.646 54.248 240.278 54.072 239.894 53.944C239.51 53.816 239.158 53.752 238.838 53.752C238.598 53.752 238.382 53.776 238.19 53.824C238.014 53.856 237.862 53.92 237.734 54.016C237.606 54.096 237.51 54.2 237.446 54.328C237.382 54.44 237.35 54.576 237.35 54.736C237.35 54.896 237.39 55.048 237.47 55.192C237.566 55.336 237.694 55.456 237.854 55.552C238.014 55.648 238.27 55.76 238.622 55.888C238.974 56 239.454 56.144 240.062 56.32C240.814 56.528 241.462 56.76 242.006 57.016C242.55 57.272 242.982 57.576 243.302 57.928C243.558 58.2 243.75 58.52 243.878 58.888C244.006 59.24 244.07 59.624 244.07 60.04C244.07 60.856 243.838 61.584 243.374 62.224C242.926 62.848 242.302 63.344 241.502 63.712C240.702 64.064 239.79 64.24 238.766 64.24Z" fill="#E1DDF4"/>
</svg>
