<svg width="100" height="71" viewBox="0 0 100 71" fill="none" xmlns="http://www.w3.org/2000/svg">
<rect width="98.5714" height="71" transform="translate(0.714264)" fill="#1D1933"/>
<path d="M41.1111 7.28888H55.3333V8.7111H41.1111V7.28888ZM41.1111 14.4H48.2986V15.8222H41.1111V14.4ZM54.7804 10.8444H41.1111V12.2667H53.3591L54.7804 10.8444ZM45.3724 25.8418C45.6114 26.1158 45.9147 26.3262 46.2551 26.454C46.5955 26.5819 46.9623 26.6232 47.3226 26.5742H54.2595C54.4245 26.5742 54.5828 26.5087 54.6995 26.392C54.8162 26.2753 54.8817 26.117 54.8817 25.952C54.8817 25.787 54.8162 25.6287 54.6995 25.512C54.5828 25.3953 54.4245 25.3298 54.2595 25.3298H47.3226C46.5129 25.3155 46.6569 24.6124 46.7706 24.3947C46.9186 24.1389 47.0342 23.8657 47.1146 23.5813C47.1683 23.3524 47.1434 23.1121 47.0441 22.899C46.9448 22.6859 46.7768 22.5124 46.5671 22.4062C46.2306 22.2548 45.8537 22.2177 45.4941 22.3007C45.1346 22.3837 44.8121 22.5822 44.576 22.8658C44.2702 23.1813 43.8453 23.664 43.4382 24.1333C43.6897 23.1475 44.016 21.8827 44.336 20.6489C44.4277 20.3678 44.4094 20.0623 44.2849 19.7941C44.1603 19.5259 43.9388 19.3149 43.6649 19.2035C43.3615 19.0995 43.0299 19.1143 42.7371 19.2452C42.4443 19.376 42.212 19.613 42.0871 19.9084C41.7031 20.6471 38.6631 25.7413 38.6329 25.7929C38.5909 25.863 38.5633 25.9408 38.5514 26.0216C38.5395 26.1025 38.5437 26.1849 38.5637 26.2641C38.604 26.4241 38.7063 26.5616 38.848 26.6462C38.9896 26.7308 39.1591 26.7557 39.3192 26.7154C39.4792 26.675 39.6167 26.5728 39.7013 26.4311C39.8151 26.24 42.2417 22.1751 43.0071 20.8178C42.4311 23.04 41.7964 25.5129 41.7591 25.7351C41.7172 25.8985 41.7299 26.0711 41.7952 26.2266C41.8605 26.3821 41.9749 26.512 42.1209 26.5964C42.2836 26.6771 42.4685 26.7014 42.6465 26.6653C42.8245 26.6293 42.9855 26.535 43.104 26.3973C43.216 26.296 43.4257 26.0551 43.9546 25.4409C44.4474 24.8613 44.9521 24.292 45.4684 23.7333C45.6622 23.5289 45.7795 23.6195 45.6657 23.8204C45.4431 24.1016 45.2987 24.4367 45.2472 24.7916C45.1957 25.1466 45.2389 25.5089 45.3724 25.8418Z" fill="url(#paint0_linear_118_606)"/>
<path d="M58.8889 19.2844V28.4444H37.5555V3.55555H58.8889V7.99377L60.0711 6.81155C60.253 6.63204 60.4526 6.47123 60.6666 6.33155V2.66666C60.6666 2.43091 60.573 2.20482 60.4063 2.03812C60.2396 1.87142 60.0135 1.77777 59.7777 1.77777H36.6666C36.4309 1.77777 36.2048 1.87142 36.0381 2.03812C35.8714 2.20482 35.7777 2.43091 35.7777 2.66666V29.3333C35.7777 29.5691 35.8714 29.7952 36.0381 29.9619C36.2048 30.1286 36.4309 30.2222 36.6666 30.2222H59.7777C60.0135 30.2222 60.2396 30.1286 60.4063 29.9619C60.573 29.7952 60.6666 29.5691 60.6666 29.3333V19.0462C60.1217 19.3359 59.4909 19.4204 58.8889 19.2844Z" fill="url(#paint1_linear_118_606)"/>
<path d="M64.336 10.5431L63.8711 10.0782C64.1083 9.76409 64.2284 9.37695 64.2106 8.98369C64.1927 8.59043 64.0381 8.21577 63.7733 7.92443C63.4292 7.62118 62.9793 7.46615 62.5214 7.49312C62.0636 7.5201 61.6349 7.72688 61.3289 8.06843L50.1955 19.2L49.4515 21.9929C49.4397 22.0294 49.4383 22.0685 49.4474 22.1058C49.4565 22.1431 49.4757 22.1772 49.5029 22.2042C49.5302 22.2313 49.5644 22.2503 49.6017 22.2591C49.6391 22.2679 49.6782 22.2662 49.7146 22.2542L52.4977 21.5013L62.8906 11.1084L63.3297 11.5484C63.3605 11.579 63.3849 11.6154 63.4016 11.6554C63.4183 11.6954 63.4269 11.7384 63.4269 11.7818C63.4269 11.8251 63.4183 11.8681 63.4016 11.9081C63.3849 11.9482 63.3605 11.9845 63.3297 12.0151L58.9591 16.3858C58.8258 16.5192 58.7509 16.7001 58.751 16.8887C58.7511 17.0774 58.8261 17.2582 58.9595 17.3915C59.093 17.5249 59.2739 17.5997 59.4625 17.5996C59.6511 17.5995 59.832 17.5245 59.9653 17.3911L64.336 13.0204C64.4988 12.8578 64.628 12.6646 64.7162 12.452C64.8044 12.2394 64.8497 12.0115 64.8497 11.7813C64.8497 11.5512 64.8044 11.3232 64.7162 11.1106C64.628 10.898 64.4988 10.7048 64.336 10.5422" fill="url(#paint2_linear_118_606)"/>
<path d="M18.3266 53V44.744H14.8706V41.8H25.3346V44.744H21.7826V53H18.3266ZM27.0925 53V41.8H35.4605V44.6H30.4045V50.2H35.7485V53H27.0925ZM28.7405 48.648V46.024H34.8685V48.648H28.7405ZM37.78 53V41.8H43.028C43.8066 41.8 44.5 41.9547 45.108 42.264C45.716 42.5733 46.1906 42.9947 46.532 43.528C46.8733 44.0613 47.044 44.6747 47.044 45.368C47.044 46.1467 46.8733 46.8293 46.532 47.416C46.1906 48.0027 45.716 48.4613 45.108 48.792C44.5 49.112 43.8066 49.272 43.028 49.272H41.012V53H37.78ZM43.652 53L40.804 47.944L44.34 47.544L47.508 53H43.652ZM41.012 46.872H42.484C42.7506 46.872 42.9693 46.824 43.14 46.728C43.3213 46.6213 43.4546 46.4773 43.54 46.296C43.636 46.1147 43.684 45.896 43.684 45.64C43.684 45.4053 43.636 45.208 43.54 45.048C43.4546 44.8773 43.316 44.7493 43.124 44.664C42.9426 44.568 42.708 44.52 42.42 44.52H41.012V46.872ZM49.0925 53V41.8H52.0685L56.1485 48.44L53.7325 48.424L57.8605 41.8H60.7405V53H57.4125V50.328C57.4125 49.368 57.4338 48.504 57.4765 47.736C57.5298 46.968 57.6151 46.2053 57.7325 45.448L58.1165 46.456L55.4125 50.648H54.3565L51.7005 46.456L52.1005 45.448C52.2178 46.1627 52.2978 46.8987 52.3405 47.656C52.3938 48.4027 52.4205 49.2933 52.4205 50.328V53H49.0925ZM68.7036 53.16C67.8183 53.16 67.0076 53.016 66.2716 52.728C65.5356 52.44 64.8956 52.0347 64.3516 51.512C63.8076 50.9893 63.3863 50.3707 63.0876 49.656C62.7996 48.9413 62.6556 48.1627 62.6556 47.32C62.6556 46.4667 62.7996 45.688 63.0876 44.984C63.3863 44.2693 63.8076 43.6507 64.3516 43.128C64.8956 42.6053 65.5356 42.2 66.2716 41.912C67.0076 41.624 67.8129 41.48 68.6876 41.48C69.5729 41.48 70.3783 41.624 71.1036 41.912C71.8396 42.2 72.4796 42.6053 73.0236 43.128C73.5676 43.6507 73.9836 44.2693 74.2716 44.984C74.5703 45.688 74.7196 46.4613 74.7196 47.304C74.7196 48.1573 74.5703 48.9413 74.2716 49.656C73.9836 50.3707 73.5676 50.9893 73.0236 51.512C72.4796 52.0347 71.8396 52.44 71.1036 52.728C70.3783 53.016 69.5783 53.16 68.7036 53.16ZM68.6876 49.96C69.0503 49.96 69.3809 49.896 69.6796 49.768C69.9889 49.64 70.2556 49.4587 70.4796 49.224C70.7143 48.9787 70.8903 48.696 71.0076 48.376C71.1356 48.056 71.1996 47.704 71.1996 47.32C71.1996 46.936 71.1356 46.584 71.0076 46.264C70.8903 45.944 70.7143 45.6667 70.4796 45.432C70.2556 45.1867 69.9889 45 69.6796 44.872C69.3809 44.744 69.0503 44.68 68.6876 44.68C68.3249 44.68 67.9889 44.744 67.6796 44.872C67.3809 45 67.1143 45.1867 66.8796 45.432C66.6556 45.6667 66.4796 45.944 66.3516 46.264C66.2343 46.584 66.1756 46.936 66.1756 47.32C66.1756 47.704 66.2343 48.056 66.3516 48.376C66.4796 48.696 66.6556 48.9787 66.8796 49.224C67.1143 49.4587 67.3809 49.64 67.6796 49.768C67.9889 49.896 68.3249 49.96 68.6876 49.96ZM80.5593 53.16C79.7167 53.16 78.97 53.0693 78.3193 52.888C77.6793 52.696 77.114 52.4293 76.6233 52.088C76.1433 51.7467 75.7113 51.3467 75.3273 50.888L77.3273 48.648C77.8607 49.3307 78.4153 49.784 78.9913 50.008C79.578 50.2213 80.1273 50.328 80.6393 50.328C80.842 50.328 81.0233 50.312 81.1833 50.28C81.3433 50.2373 81.466 50.1733 81.5513 50.088C81.6367 50.0027 81.6793 49.8853 81.6793 49.736C81.6793 49.5973 81.6313 49.48 81.5353 49.384C81.45 49.288 81.3327 49.208 81.1833 49.144C81.034 49.0693 80.8687 49.0107 80.6873 48.968C80.5167 48.9147 80.346 48.872 80.1753 48.84C80.0153 48.808 79.8713 48.776 79.7433 48.744C79.1033 48.5947 78.5433 48.4133 78.0633 48.2C77.5833 47.9867 77.1833 47.7307 76.8633 47.432C76.5433 47.1333 76.3033 46.792 76.1433 46.408C75.994 46.024 75.9193 45.592 75.9193 45.112C75.9193 44.568 76.042 44.072 76.2873 43.624C76.5433 43.176 76.8793 42.792 77.2953 42.472C77.722 42.152 78.202 41.9067 78.7353 41.736C79.2793 41.5653 79.8393 41.48 80.4153 41.48C81.258 41.48 81.962 41.56 82.5273 41.72C83.0927 41.8693 83.5673 42.088 83.9513 42.376C84.3353 42.664 84.666 43 84.9433 43.384L82.9273 45.32C82.6927 45.096 82.4473 44.9147 82.1913 44.776C81.9353 44.6267 81.6687 44.52 81.3913 44.456C81.1247 44.3813 80.858 44.344 80.5913 44.344C80.346 44.344 80.138 44.3653 79.9673 44.408C79.7967 44.44 79.6633 44.4987 79.5673 44.584C79.4713 44.6587 79.4233 44.7653 79.4233 44.904C79.4233 45.0427 79.482 45.16 79.5993 45.256C79.7273 45.3413 79.882 45.416 80.0633 45.48C80.2553 45.544 80.442 45.5973 80.6233 45.64C80.8153 45.672 80.9753 45.6987 81.1033 45.72C81.69 45.8267 82.2287 45.976 82.7193 46.168C83.21 46.3493 83.6367 46.584 83.9993 46.872C84.3727 47.1493 84.6553 47.5013 84.8473 47.928C85.05 48.344 85.1513 48.84 85.1513 49.416C85.1513 50.2373 84.9433 50.9253 84.5273 51.48C84.122 52.0347 83.5727 52.456 82.8793 52.744C82.186 53.0213 81.4127 53.16 80.5593 53.16ZM29.5131 69.16C28.7558 69.16 28.0731 68.9733 27.4651 68.6C26.8678 68.2267 26.3931 67.7147 26.0411 67.064C25.6998 66.4027 25.5291 65.656 25.5291 64.824C25.5291 63.9813 25.7051 63.2347 26.0571 62.584C26.4091 61.9227 26.8838 61.4053 27.4811 61.032C28.0784 60.6587 28.7504 60.472 29.4971 60.472C29.9131 60.472 30.3131 60.536 30.6971 60.664C31.0918 60.792 31.4438 60.9733 31.7531 61.208C32.0624 61.432 32.3184 61.6933 32.5211 61.992C32.7238 62.28 32.8464 62.584 32.8891 62.904L32.5211 62.776V57.16H33.7211V69H32.5371L32.5051 66.92L32.8091 66.808C32.7664 67.1067 32.6438 67.4 32.4411 67.688C32.2491 67.9653 32.0038 68.216 31.7051 68.44C31.4064 68.664 31.0651 68.84 30.6811 68.968C30.3078 69.096 29.9184 69.16 29.5131 69.16ZM29.6891 68.056C30.2438 68.056 30.7398 67.9173 31.1771 67.64C31.6144 67.3627 31.9558 66.9787 32.2011 66.488C32.4571 65.9973 32.5851 65.4373 32.5851 64.808C32.5851 64.1787 32.4571 63.624 32.2011 63.144C31.9558 62.6533 31.6144 62.2693 31.1771 61.992C30.7398 61.704 30.2438 61.56 29.6891 61.56C29.1131 61.56 28.6064 61.704 28.1691 61.992C27.7424 62.2693 27.4011 62.6533 27.1451 63.144C26.8998 63.624 26.7771 64.1787 26.7771 64.808C26.7771 65.4267 26.8998 65.9813 27.1451 66.472C27.3904 66.9627 27.7318 67.352 28.1691 67.64C28.6064 67.9173 29.1131 68.056 29.6891 68.056ZM39.7386 69.16C38.9066 69.16 38.1653 68.9787 37.5146 68.616C36.8746 68.2533 36.3733 67.7467 36.0106 67.096C35.6479 66.4453 35.4666 65.6987 35.4666 64.856C35.4666 64.2053 35.5679 63.6187 35.7706 63.096C35.9733 62.5627 36.2559 62.0987 36.6186 61.704C36.9919 61.3093 37.4346 61.0053 37.9466 60.792C38.4586 60.568 39.0133 60.456 39.6106 60.456C40.1759 60.456 40.6879 60.5573 41.1466 60.76C41.6159 60.9627 42.0159 61.2453 42.3466 61.608C42.6879 61.96 42.9439 62.3813 43.1146 62.872C43.2853 63.3627 43.3599 63.9013 43.3386 64.488L43.3226 65.048H36.3626L36.1866 64.04H42.4106L42.1226 64.312V63.928C42.1013 63.544 41.9893 63.176 41.7866 62.824C41.5839 62.4613 41.2959 62.168 40.9226 61.944C40.5599 61.72 40.1226 61.608 39.6106 61.608C39.0133 61.608 38.4959 61.7307 38.0586 61.976C37.6213 62.2107 37.2853 62.5627 37.0506 63.032C36.8159 63.5013 36.6986 64.0827 36.6986 64.776C36.6986 65.4373 36.8266 66.0133 37.0826 66.504C37.3386 66.984 37.7013 67.3573 38.1706 67.624C38.6506 67.8907 39.2266 68.024 39.8986 68.024C40.2933 68.024 40.6826 67.96 41.0666 67.832C41.4613 67.6933 41.8933 67.4267 42.3626 67.032L42.9866 67.896C42.7413 68.1413 42.4479 68.36 42.1066 68.552C41.7653 68.7333 41.3919 68.8827 40.9866 69C40.5813 69.1067 40.1653 69.16 39.7386 69.16ZM52.4873 69.16C51.8473 69.16 51.3033 69.032 50.8553 68.776C50.418 68.5093 50.082 68.1253 49.8473 67.624C49.6233 67.1227 49.5113 66.4987 49.5113 65.752V60.648H50.7273V65.512C50.7273 66.0773 50.802 66.552 50.9513 66.936C51.1113 67.3093 51.346 67.592 51.6553 67.784C51.9753 67.976 52.3647 68.072 52.8233 68.072C53.1753 68.072 53.5007 68.0133 53.7993 67.896C54.098 67.768 54.3593 67.5973 54.5833 67.384C54.8073 67.1707 54.9833 66.92 55.1113 66.632C55.2393 66.344 55.3033 66.04 55.3033 65.72V60.648H56.5033V69H55.3193L55.2713 67.24L55.4633 67.144C55.3353 67.5173 55.122 67.8587 54.8233 68.168C54.5247 68.4667 54.1673 68.7067 53.7513 68.888C53.346 69.0693 52.9247 69.16 52.4873 69.16ZM61.5758 69.16C60.8612 69.16 60.2212 69.0267 59.6558 68.76C59.0905 68.4933 58.6425 68.1413 58.3118 67.704L59.1598 66.968C59.4692 67.3413 59.8318 67.624 60.2478 67.816C60.6745 68.008 61.1492 68.104 61.6718 68.104C61.9385 68.104 62.1785 68.0773 62.3918 68.024C62.6052 67.96 62.7918 67.8693 62.9518 67.752C63.1118 67.6347 63.2345 67.496 63.3198 67.336C63.4052 67.176 63.4478 67 63.4478 66.808C63.4478 66.456 63.2932 66.1627 62.9838 65.928C62.8452 65.832 62.6478 65.736 62.3918 65.64C62.1358 65.5333 61.8265 65.432 61.4638 65.336C60.8665 65.1653 60.3705 64.9947 59.9758 64.824C59.5812 64.6427 59.2718 64.4347 59.0478 64.2C58.8878 64.008 58.7652 63.8 58.6798 63.576C58.6052 63.352 58.5678 63.1067 58.5678 62.84C58.5678 62.4987 58.6372 62.184 58.7758 61.896C58.9252 61.608 59.1278 61.3573 59.3838 61.144C59.6505 60.92 59.9598 60.7547 60.3118 60.648C60.6745 60.5307 61.0638 60.472 61.4798 60.472C61.8745 60.472 62.2638 60.5253 62.6478 60.632C63.0318 60.7387 63.3892 60.8933 63.7198 61.096C64.0505 61.2987 64.3332 61.5387 64.5678 61.816L63.8318 62.616C63.6292 62.4027 63.4052 62.2107 63.1598 62.04C62.9145 61.8693 62.6532 61.736 62.3758 61.64C62.1092 61.544 61.8318 61.496 61.5438 61.496C61.2878 61.496 61.0478 61.528 60.8238 61.592C60.6105 61.656 60.4238 61.7467 60.2638 61.864C60.1145 61.9707 59.9972 62.104 59.9118 62.264C59.8372 62.424 59.7998 62.6 59.7998 62.792C59.7998 62.952 59.8318 63.096 59.8958 63.224C59.9598 63.352 60.0505 63.464 60.1678 63.56C60.3172 63.6773 60.5252 63.7893 60.7918 63.896C61.0692 63.992 61.4105 64.0933 61.8158 64.2C62.2852 64.328 62.6798 64.4613 62.9998 64.6C63.3305 64.728 63.6025 64.8827 63.8158 65.064C64.1038 65.2773 64.3065 65.5227 64.4238 65.8C64.5518 66.0773 64.6158 66.392 64.6158 66.744C64.6158 67.2133 64.4825 67.6293 64.2158 67.992C63.9598 68.3547 63.6025 68.6427 63.1438 68.856C62.6852 69.0587 62.1625 69.16 61.5758 69.16ZM70.1921 69.16C69.3601 69.16 68.6188 68.9733 67.9681 68.6C67.3281 68.2267 66.8214 67.7093 66.4481 67.048C66.0854 66.3867 65.9041 65.6347 65.9041 64.792C65.9041 63.96 66.0854 63.2187 66.4481 62.568C66.8214 61.9173 67.3281 61.4053 67.9681 61.032C68.6188 60.6587 69.3601 60.472 70.1921 60.472C71.0134 60.472 71.7441 60.6587 72.3841 61.032C73.0348 61.4053 73.5414 61.9173 73.9041 62.568C74.2774 63.2187 74.4641 63.96 74.4641 64.792C74.4641 65.6347 74.2774 66.3867 73.9041 67.048C73.5414 67.7093 73.0348 68.2267 72.3841 68.6C71.7441 68.9733 71.0134 69.16 70.1921 69.16ZM70.1921 68.024C70.7788 68.024 71.3014 67.8853 71.7601 67.608C72.2188 67.32 72.5761 66.936 72.8321 66.456C73.0881 65.9653 73.2161 65.4107 73.2161 64.792C73.2161 64.1733 73.0881 63.624 72.8321 63.144C72.5761 62.664 72.2188 62.2907 71.7601 62.024C71.3014 61.7467 70.7788 61.608 70.1921 61.608C69.6054 61.608 69.0774 61.7467 68.6081 62.024C68.1494 62.2907 67.7868 62.6693 67.5201 63.16C67.2641 63.64 67.1414 64.184 67.1521 64.792C67.1414 65.4107 67.2641 65.9653 67.5201 66.456C67.7868 66.936 68.1494 67.32 68.6081 67.608C69.0774 67.8853 69.6054 68.024 70.1921 68.024Z" fill="url(#paint3_linear_118_606)"/>
<defs>
<linearGradient id="paint0_linear_118_606" x1="55.3333" y1="17.0116" x2="38.5448" y2="17.0116" gradientUnits="userSpaceOnUse">
<stop stop-color="#43A3D5"/>
<stop offset="1" stop-color="#9C60DA"/>
</linearGradient>
<linearGradient id="paint1_linear_118_606" x1="60.6666" y1="16" x2="35.7777" y2="16" gradientUnits="userSpaceOnUse">
<stop stop-color="#43A3D5"/>
<stop offset="1" stop-color="#9C60DA"/>
</linearGradient>
<linearGradient id="paint2_linear_118_606" x1="64.8497" y1="14.8774" x2="49.4415" y2="14.8774" gradientUnits="userSpaceOnUse">
<stop stop-color="#43A3D5"/>
<stop offset="1" stop-color="#9C60DA"/>
</linearGradient>
<linearGradient id="paint3_linear_118_606" x1="86" y1="54" x2="14" y2="54" gradientUnits="userSpaceOnUse">
<stop stop-color="#43A3D5"/>
<stop offset="1" stop-color="#9C60DA"/>
</linearGradient>
</defs>
</svg>
